*
%FSLAX43Y43*%
%MOMM*%
%ADD10R,3.251200X3.251200*%
%ADD11C,0.025400*%
%ADD12C,0.050800*%
%ADD13C,0.406400*%
%ADD14C,0.812800*%
%ADD15C,0.203200*%
%ADD16R,0.406400X0.406400*%
%ADD17C,0.101600*%
%ADD18R,0.101600X0.101600*%
%ADD19R,0.203200X0.203200*%
%ADD20R,0.812800X0.812800*%
%ADD21R,1.625600X1.625600*%
%ADD22C,1.600000*%
%ADD23C,0.600000*%
%ADD24C,3.000000*%
%ADD25C,5.000000*%
%ADD26C,1.400000*%
%ADD27C,1.700000*%
%ADD28C,1.800000*%
%ADD29C,4.500000*%
%ADD30C,4.250000*%
%ADD31C,6.500000*%
%ADD32C,2.000000*%
%ADD33C,0.700000*%
%IPPOS*%
%LNl2*%
%LPD*%
G75*
G54D10*
X-964Y-964D02*
Y121464D01*
X2227Y-964D02*
Y121464D01*
X5418Y-964D02*
Y121464D01*
X8609Y-964D02*
Y121464D01*
X11801Y-964D02*
Y121464D01*
X14992Y-964D02*
Y121464D01*
X18183Y-964D02*
Y121464D01*
X21374Y-964D02*
Y121464D01*
X24566Y-964D02*
Y121464D01*
X27757Y-964D02*
Y121464D01*
X30948Y-964D02*
Y121464D01*
X34139Y-964D02*
Y121464D01*
X37331Y-964D02*
Y121464D01*
X40522Y-964D02*
Y121464D01*
X43713Y-964D02*
Y121464D01*
X46904Y-964D02*
Y121464D01*
X50096Y-964D02*
Y121464D01*
X53287Y-964D02*
Y121464D01*
X56478Y-964D02*
Y121464D01*
X59669Y-964D02*
Y121464D01*
X62861Y-964D02*
Y121464D01*
X66052Y-964D02*
Y121464D01*
X69243Y-964D02*
Y121464D01*
X72434Y-964D02*
Y121464D01*
X75626Y-964D02*
Y121464D01*
X78817Y-964D02*
Y121464D01*
X82008Y-964D02*
Y121464D01*
X85199Y-964D02*
Y121464D01*
X88391Y-964D02*
Y121464D01*
X91582Y-964D02*
Y121464D01*
X94773Y-964D02*
Y121464D01*
X97964Y-964D02*
Y121464D01*
%LPC*%
G75*
X97964Y121464D02*
G54D11*
X95987Y109450D02*
Y13800D01*
X95950Y13763D02*
X65300D01*
X64537Y13000D02*
Y5650D01*
X64500Y5613D02*
X58650D01*
X58613Y5650D02*
Y7450D01*
X55687D02*
Y5650D01*
X55650Y5613D02*
X46050D01*
X46013Y5650D02*
Y6650D01*
X46650Y6387D02*
X47650D01*
X48363Y7100D02*
Y10100D01*
X47650Y10813D02*
X46650D01*
X46013Y10550D02*
Y10925D01*
X40337D02*
Y5550D01*
X40300Y5513D02*
X34400D01*
X34363Y5550D02*
Y12750D01*
X33350Y13763D02*
X15000D01*
X13987Y12750D02*
Y5550D01*
X13950Y5513D02*
X1050D01*
X1013Y5550D02*
Y109450D01*
X1050Y109487D02*
X95950D01*
G54D12*
X1025Y12750D02*
X13975D01*
X1025Y5550D02*
X13975D01*
X1025Y13750D02*
X14775D01*
X1025Y13800D02*
X95975D01*
X1025Y109450D02*
X95975D01*
X33575Y13750D02*
X42798D01*
X34375Y5550D02*
X40325D01*
X34375Y10925D02*
X40325D01*
X34375Y12750D02*
X40986D01*
X43552Y13750D02*
X65105D01*
X45129Y13000D02*
X64525D01*
X46025Y5650D02*
X55675D01*
X46025Y6400D02*
X46461D01*
X47839D02*
X55675D01*
X46025Y6650D02*
X46082D01*
X46025Y10550D02*
X46082D01*
X46025Y10800D02*
X46461D01*
X46025Y10925D02*
X64525D01*
X48375Y7100D02*
X55675D01*
X47839Y10800D02*
X64525D01*
X48375Y7450D02*
X55675D01*
X48375Y8900D02*
X56880D01*
X48375Y10100D02*
X64525D01*
X57420Y8900D02*
X64525D01*
X58625Y7450D02*
X64525D01*
X58625Y5650D02*
X64525D01*
G54D10*
X2626Y7176D02*
X12374D01*
X2626Y9150D02*
X12374D01*
X2626Y11124D02*
X12374D01*
G54D11*
X1050Y5513D02*
X13950D01*
X1022Y5525D02*
X13978D01*
X1015Y5537D02*
X13985D01*
G54D12*
X13950Y5525D02*
X1050D01*
G54D13*
X1203Y12953D02*
X13814D01*
X1203Y13250D02*
X13906D01*
X1203Y13547D02*
X14098D01*
G54D12*
X1025Y12750D02*
Y13750D01*
G54D13*
X1203Y12750D02*
Y13750D01*
G54D11*
X1013Y13763D02*
X95950D01*
X1013Y13775D02*
X95978D01*
X1013Y13787D02*
X95985D01*
G54D12*
X1025Y13750D02*
Y13800D01*
X95950Y13775D02*
X65300D01*
X33350D02*
X15000D01*
G54D10*
X2626Y15426D02*
Y107824D01*
X5789Y15426D02*
Y107824D01*
X8953Y15426D02*
Y107824D01*
X12117Y15426D02*
Y107824D01*
X15281Y15426D02*
Y107824D01*
X18444Y15426D02*
Y107824D01*
X21608Y15426D02*
Y107824D01*
X24772Y15426D02*
Y107824D01*
X27936Y15426D02*
Y107824D01*
X31099Y15426D02*
Y107824D01*
X34263Y15426D02*
Y107824D01*
X37427Y15426D02*
Y107824D01*
X40591Y15426D02*
Y107824D01*
X43754Y15426D02*
Y107824D01*
X46918Y15426D02*
Y107824D01*
X50082Y15426D02*
Y107824D01*
X53246Y15426D02*
Y107824D01*
X56409Y15426D02*
Y107824D01*
X59573Y15426D02*
Y107824D01*
X62737Y15426D02*
Y107824D01*
X65901Y15426D02*
Y107824D01*
X69064Y15426D02*
Y107824D01*
X72228Y15426D02*
Y107824D01*
X75392Y15426D02*
Y107824D01*
X78556Y15426D02*
Y107824D01*
X81719Y15426D02*
Y107824D01*
X84883Y15426D02*
Y107824D01*
X88047Y15426D02*
Y107824D01*
X91211Y15426D02*
Y107824D01*
X94374Y15426D02*
Y107824D01*
G54D11*
X1015Y109463D02*
X95985D01*
X1022Y109475D02*
X95978D01*
X1050Y109487D02*
X95950D01*
G54D12*
X1050Y109475D02*
X95950D01*
G54D13*
X34536Y12953D02*
X40926D01*
X34444Y13250D02*
X41235D01*
X34252Y13547D02*
X41660D01*
G54D11*
X34400Y5513D02*
X40300D01*
X34372Y5525D02*
X40328D01*
X34365Y5537D02*
X40335D01*
G54D12*
X40300Y5525D02*
X34400D01*
G54D10*
X35976Y7176D02*
X38724D01*
X35976Y9299D02*
X38724D01*
G54D14*
X34756Y11331D02*
X39969D01*
X34756Y11837D02*
X40075D01*
X34756Y12344D02*
X40272D01*
G54D12*
X34375Y10925D02*
Y12750D01*
G54D14*
X34756Y10925D02*
Y12750D01*
G54D15*
X45131Y13102D02*
X64454D01*
X44907Y13284D02*
X64497D01*
X44627Y13466D02*
X64587D01*
X44246Y13648D02*
X64748D01*
G54D14*
X46381Y11331D02*
X64144D01*
X46235Y11962D02*
X64144D01*
X45942Y12594D02*
X64144D01*
G54D12*
X64525Y13000D02*
Y10925D01*
G54D14*
X64144Y13000D02*
Y10925D01*
G54D11*
X46050Y5613D02*
X55650D01*
X46022Y5625D02*
X55678D01*
X46015Y5637D02*
X55685D01*
G54D12*
X55650Y5625D02*
X46050D01*
G54D16*
X46203Y5853D02*
X55497D01*
X46203Y6197D02*
X55497D01*
G54D17*
X46051Y6451D02*
X46273D01*
X46051Y6525D02*
X46167D01*
X46051Y6599D02*
X46091D01*
G54D12*
X46025Y6400D02*
Y6650D01*
G54D17*
X46051Y6400D02*
Y6599D01*
G54D12*
X46070Y6665D02*
X46094Y6634D01*
Y10566D02*
X46070Y10535D01*
G54D17*
X46051Y10601D02*
X46091D01*
X46051Y10675D02*
X46167D01*
X46051Y10749D02*
X46273D01*
G54D12*
X46025Y10550D02*
Y10800D01*
G54D17*
X46051Y10601D02*
Y10800D01*
G54D18*
Y10851D02*
X64499D01*
X46051Y10874D02*
X64499D01*
G54D15*
X48183Y6502D02*
X55598D01*
X48325Y6667D02*
X55598D01*
X48406Y6833D02*
X55598D01*
X48445Y6998D02*
X55598D01*
G54D12*
X55675Y7100D02*
Y6400D01*
G54D15*
X55598Y7100D02*
Y6400D01*
X48445Y10202D02*
X64448D01*
X48406Y10367D02*
X64448D01*
X48325Y10533D02*
X64448D01*
X48183Y10698D02*
X64448D01*
G54D12*
X64525Y10800D02*
Y10100D01*
G54D15*
X64448Y10800D02*
Y10100D01*
G54D19*
X48452Y7202D02*
X55598D01*
X48452Y7348D02*
X55598D01*
G54D13*
X48553Y7653D02*
X55509D01*
X48553Y8001D02*
X55591D01*
X48553Y8349D02*
X55763D01*
X48553Y8697D02*
X56064D01*
G54D12*
X48375Y7450D02*
Y8900D01*
G54D13*
X48553Y7450D02*
Y8900D01*
G54D20*
X48756Y9306D02*
X64144D01*
X48756Y9694D02*
X64144D01*
G54D13*
X58791Y7653D02*
X64347D01*
X58709Y8001D02*
X64347D01*
X58537Y8349D02*
X64347D01*
X58236Y8697D02*
X64347D01*
G54D12*
X64525Y8900D02*
Y7450D01*
G54D13*
X64347Y8900D02*
Y7450D01*
G54D21*
X59413Y6463D02*
X63737D01*
X59413Y6637D02*
X63737D01*
G54D11*
X58650Y5613D02*
X64500D01*
X58622Y5625D02*
X64528D01*
X58615Y5637D02*
X64535D01*
G54D12*
X64500Y5625D02*
X58650D01*
X64525Y10950D02*
X46025D01*
G54D17*
X64499Y10976D02*
X46050D01*
G54D15*
X64448Y11027D02*
X46100D01*
G54D13*
X64347Y11128D02*
X46196D01*
G54D12*
X46025Y6625D02*
X46102D01*
Y10575D02*
X46025D01*
G54D11*
X95950Y109487D02*
G02X95987Y109450I0J-37D01*
Y13800D02*
G02X95950Y13763I-37J0D01*
X65300D02*
G03X64537Y13000I0J-763D01*
Y5650D02*
G02X64500Y5613I-37J0D01*
X58650D02*
G02X58613Y5650I0J37D01*
Y7450D02*
G03X55687Y7450I-1463J0D01*
Y5650D02*
G02X55650Y5613I-37J0D01*
X46050D02*
G02X46013Y5650I0J37D01*
Y6650D02*
G02X46080Y6672I37J0D01*
G03X46650Y6387I570J428D01*
X47650D02*
G03X48363Y7100I0J713D01*
Y10100D02*
G03X47650Y10813I-713J0D01*
X46650D02*
G03X46080Y10528I0J-713D01*
G02X46013Y10550I-30J22D01*
Y10925D02*
G03X40337Y10925I-2838J0D01*
Y5550D02*
G02X40300Y5513I-37J0D01*
X34400D02*
G02X34363Y5550I0J37D01*
Y12750D02*
G03X33350Y13763I-1013J0D01*
X15000D02*
G03X13987Y12750I0J-1013D01*
Y5550D02*
G02X13950Y5513I-37J0D01*
X1050D02*
G02X1013Y5550I0J37D01*
Y109450D02*
G02X1050Y109487I37J0D01*
G54D12*
Y5525D02*
G02X1025Y5550I0J25D01*
X13975D02*
G02X13950Y5525I-25J0D01*
X15000Y13775D02*
G03X13975Y12750I0J-1025D01*
G54D13*
X15000Y13953D02*
G03X13797Y12750I0J-1203D01*
G54D12*
X95975Y13800D02*
G02X95950Y13775I-25J0D01*
X1025Y109450D02*
G02X1050Y109475I25J0D01*
X95950D02*
G02X95975Y109450I0J-25D01*
X34375Y12750D02*
G03X33350Y13775I-1025J0D01*
X43175D02*
G03X40999Y12766I0J-2850D01*
G54D13*
X34553Y12750D02*
G03X33350Y13953I-1203J0D01*
X43175D02*
G03X40864Y12881I0J-3028D01*
G54D12*
X34400Y5525D02*
G02X34375Y5550I0J25D01*
X40325D02*
G02X40300Y5525I-25J0D01*
X40999Y12766D02*
G03X40325Y10925I2176J-1841D01*
G54D14*
X40708Y13013D02*
G03X39944Y10925I2467J-2088D01*
G54D12*
X45109Y13019D02*
G03X43175Y13775I-1934J-2094D01*
X65300D02*
G03X64525Y13000I0J-775D01*
G54D15*
X45161Y13075D02*
G03X43175Y13852I-1986J-2150D01*
X65300D02*
G03X64448Y13000I0J-852D01*
G54D12*
X46025Y10925D02*
G03X45109Y13019I-2850J0D01*
G54D14*
X46381Y11331D02*
G03X45368Y13299I-3206J-406D01*
G54D12*
X46050Y5625D02*
G02X46025Y5650I0J25D01*
X55675D02*
G02X55650Y5625I-25J0D01*
X46094Y6634D02*
G03X46650Y6375I556J466D01*
G54D17*
X46075Y6617D02*
G03X46650Y6349I575J483D01*
G54D12*
X46025Y6650D02*
G02X46030Y6665I25J0D01*
Y10535D02*
G02X46025Y10550I20J15D01*
X46650Y10825D02*
G03X46094Y10566I0J-725D01*
G54D17*
X46650Y10851D02*
G03X46075Y10583I0J-751D01*
G54D12*
X46030Y6665D02*
G02X46050Y6675I20J-15D01*
G02X46070Y6665I0J-25D01*
X46050Y10525D02*
G02X46030Y10535I0J25D01*
X46070D02*
G02X46050Y10525I-20J15D01*
X47650Y6375D02*
G03X48375Y7100I0J725D01*
G54D15*
X47650Y6298D02*
G03X48452Y7100I0J802D01*
G54D12*
X48375Y10100D02*
G03X47650Y10825I-725J0D01*
G54D15*
X48452Y10100D02*
G03X47650Y10902I-802J0D01*
G54D12*
X57150Y8925D02*
G03X55675Y7450I0J-1475D01*
G54D13*
X57150Y9103D02*
G03X55497Y7450I0J-1653D01*
G54D12*
X58625D02*
G03X57150Y8925I-1475J0D01*
G54D13*
X58803Y7450D02*
G03X57150Y9103I-1653J0D01*
G54D12*
X58650Y5625D02*
G02X58625Y5650I0J25D01*
X64525D02*
G02X64500Y5625I-25J0D01*
G54D17*
X46050Y10976D02*
G03X45218Y12949I-2875J-51D01*
G54D15*
X46100Y11027D02*
G03X45336Y12898I-2925J-102D01*
G54D13*
X46196Y11128D02*
G03X45555Y12797I-3021J-203D01*
G54D10*
X2626Y113126D02*
G01X94374D01*
X2626Y115500D02*
X94374D01*
X2626Y117874D02*
X94374D01*
G54D11*
X30337Y9700D02*
Y1650D01*
X30300Y1613D02*
X18050D01*
X18013Y1650D02*
Y9700D01*
X18050Y9737D02*
X30300D01*
G54D12*
X18025Y9700D02*
X30325D01*
X18025Y1650D02*
X30325D01*
G54D10*
X19626Y3276D02*
X28724D01*
X19626Y5675D02*
X28724D01*
X19626Y8074D02*
X28724D01*
G54D11*
X18050Y1613D02*
X30300D01*
X18022Y1625D02*
X30328D01*
X18015Y1637D02*
X30335D01*
G54D12*
X30300Y1625D02*
X18050D01*
G54D11*
X18015Y9713D02*
X30335D01*
X18022Y9725D02*
X30328D01*
X18050Y9737D02*
X30300D01*
G54D12*
X18050Y9725D02*
X30300D01*
G54D11*
Y9737D02*
G02X30337Y9700I0J-37D01*
Y1650D02*
G02X30300Y1613I-37J0D01*
X18050D02*
G02X18013Y1650I0J37D01*
Y9700D02*
G02X18050Y9737I37J0D01*
G54D12*
Y1625D02*
G02X18025Y1650I0J25D01*
X30325D02*
G02X30300Y1625I-25J0D01*
X18025Y9700D02*
G02X18050Y9725I25J0D01*
X30300D02*
G02X30325Y9700I0J-25D01*
G54D11*
X95987D02*
G01Y1550D01*
X95950Y1513D02*
X68350D01*
X68313Y1550D02*
Y9700D01*
X68350Y9737D02*
X95950D01*
G54D12*
X68325Y9700D02*
X95975D01*
X68325Y1550D02*
X95975D01*
G54D10*
X69926Y3176D02*
X94374D01*
X69926Y5625D02*
X94374D01*
X69926Y8074D02*
X94374D01*
G54D11*
X68350Y1513D02*
X95950D01*
X68322Y1525D02*
X95978D01*
X68315Y1537D02*
X95985D01*
G54D12*
X95950Y1525D02*
X68350D01*
G54D11*
X68315Y9713D02*
X95985D01*
X68322Y9725D02*
X95978D01*
X68350Y9737D02*
X95950D01*
G54D12*
X68350Y9725D02*
X95950D01*
G54D11*
Y9737D02*
G02X95987Y9700I0J-37D01*
Y1550D02*
G02X95950Y1513I-37J0D01*
X68350D02*
G02X68313Y1550I0J37D01*
Y9700D02*
G02X68350Y9737I37J0D01*
G54D12*
Y1525D02*
G02X68325Y1550I0J25D01*
X95975D02*
G02X95950Y1525I-25J0D01*
X68325Y9700D02*
G02X68350Y9725I25J0D01*
X95950D02*
G02X95975Y9700I0J-25D01*
%LPD*%
G75*
X95975Y9700D02*
G54D11*
X61687Y106500D02*
G01Y104250D01*
X61750Y104187D02*
X63000D01*
X63687Y103500D02*
Y102500D01*
X63000Y101813D02*
X60000D01*
X59313Y102500D02*
Y106500D01*
X60000Y107187D02*
X61000D01*
G54D12*
X59325Y102500D02*
X63675D01*
X59325Y103500D02*
X63675D01*
X59325Y104200D02*
X61694D01*
X59325Y104250D02*
X61675D01*
X59325Y106500D02*
X61675D01*
G54D15*
X60000Y101902D02*
X63000D01*
X59587Y102067D02*
X63413D01*
X59465Y102233D02*
X63535D01*
X59410Y102398D02*
X63590D01*
G54D12*
X63000Y101825D02*
X60000D01*
G54D20*
X59706Y102906D02*
X63294D01*
X59706Y103094D02*
X63294D01*
G54D15*
X59402Y103602D02*
X63590D01*
X59402Y103767D02*
X63535D01*
X59402Y103933D02*
X63413D01*
X59402Y104098D02*
X63000D01*
G54D12*
X59325Y103500D02*
Y104200D01*
G54D15*
X59402Y103500D02*
Y104200D01*
G54D12*
X61750Y104175D02*
X63000D01*
X59325Y104225D02*
X61679D01*
X59325Y104200D02*
Y104250D01*
G54D21*
X60113Y105063D02*
X60887D01*
X60113Y105687D02*
X60887D01*
G54D15*
X59410Y106602D02*
X61590D01*
X59465Y106767D02*
X61535D01*
X59587Y106933D02*
X61413D01*
X60000Y107098D02*
X61000D01*
G54D12*
X60000Y107175D02*
X61000D01*
G54D17*
X63000Y101851D02*
X60000D01*
G54D12*
X59325Y104175D02*
X61750D01*
G54D17*
Y104149D02*
X63000D01*
X59351D02*
X61750D01*
X60000Y107149D02*
X61000D01*
G54D11*
Y107187D02*
G02X61687Y106500I0J-687D01*
Y104250D02*
G03X61750Y104187I63J0D01*
X63000D02*
G02X63687Y103500I0J-687D01*
Y102500D02*
G02X63000Y101813I-687J0D01*
X60000D02*
G02X59313Y102500I0J687D01*
Y106500D02*
G02X60000Y107187I687J0D01*
G54D12*
Y101825D02*
G02X59325Y102500I0J675D01*
X63675D02*
G02X63000Y101825I-675J0D01*
G54D15*
X60000Y101902D02*
G02X59402Y102500I0J598D01*
X63598D02*
G02X63000Y101902I-598J0D01*
G54D12*
Y104175D02*
G02X63675Y103500I0J-675D01*
G54D15*
X63000Y104098D02*
G02X63598Y103500I0J-598D01*
G54D12*
X61675Y104250D02*
G03X61750Y104175I75J0D01*
X59325Y106500D02*
G02X60000Y107175I675J0D01*
X61000D02*
G02X61675Y106500I0J-675D01*
G54D15*
X59402D02*
G02X60000Y107098I598J0D01*
X61000D02*
G02X61598Y106500I0J-598D01*
G54D17*
X63647Y102449D02*
G02X63000Y101851I-647J51D01*
X60000D02*
G02X59353Y102449I0J649D01*
X63000Y104149D02*
G02X63647Y103551I0J-649D01*
X59353Y106551D02*
G02X60000Y107149I647J-51D01*
X61000D02*
G02X61647Y106551I0J-649D01*
G54D11*
X83187Y70000D02*
G01Y68000D01*
X82500Y67313D02*
X80500D01*
X79813Y68000D02*
Y70000D01*
X80500Y70687D02*
X82500D01*
G54D12*
X79825Y70000D02*
X83175D01*
X79825Y68000D02*
X83175D01*
G54D21*
X80613Y68813D02*
X82387D01*
X80613Y69187D02*
X82387D01*
G54D15*
X80500Y67402D02*
X82500D01*
X80087Y67567D02*
X82913D01*
X79965Y67733D02*
X83035D01*
X79910Y67898D02*
X83090D01*
G54D12*
X82500Y67325D02*
X80500D01*
G54D15*
X79910Y70102D02*
X83090D01*
X79965Y70267D02*
X83035D01*
X80087Y70433D02*
X82913D01*
X80500Y70598D02*
X82500D01*
G54D12*
X80500Y70675D02*
X82500D01*
G54D17*
Y67351D02*
X80500D01*
Y70649D02*
X82500D01*
G54D11*
Y70687D02*
G02X83187Y70000I0J-687D01*
Y68000D02*
G02X82500Y67313I-687J0D01*
X80500D02*
G02X79813Y68000I0J687D01*
Y70000D02*
G02X80500Y70687I687J0D01*
G54D12*
Y67325D02*
G02X79825Y68000I0J675D01*
X83175D02*
G02X82500Y67325I-675J0D01*
G54D15*
X80500Y67402D02*
G02X79902Y68000I0J598D01*
X83098D02*
G02X82500Y67402I-598J0D01*
G54D12*
X79825Y70000D02*
G02X80500Y70675I675J0D01*
X82500D02*
G02X83175Y70000I0J-675D01*
G54D15*
X79902D02*
G02X80500Y70598I598J0D01*
X82500D02*
G02X83098Y70000I0J-598D01*
G54D17*
X83147Y67949D02*
G02X82500Y67351I-647J51D01*
X80500D02*
G02X79853Y67949I0J649D01*
Y70051D02*
G02X80500Y70649I647J-51D01*
X82500D02*
G02X83147Y70051I0J-649D01*
G54D11*
X95187Y65250D02*
G01Y64250D01*
X94500Y63563D02*
X90750D01*
X90063Y64250D02*
Y65250D01*
X90750Y65937D02*
X94500D01*
G54D12*
X90075Y65250D02*
X95175D01*
X90075Y64250D02*
X95175D01*
G54D20*
X90456Y64656D02*
X94794D01*
X90456Y64844D02*
X94794D01*
G54D15*
X90750Y63652D02*
X94500D01*
X90337Y63817D02*
X94913D01*
X90215Y63983D02*
X95035D01*
X90160Y64148D02*
X95090D01*
G54D12*
X94500Y63575D02*
X90750D01*
G54D15*
X90160Y65352D02*
X95090D01*
X90215Y65517D02*
X95035D01*
X90337Y65683D02*
X94913D01*
X90750Y65848D02*
X94500D01*
G54D12*
X90750Y65925D02*
X94500D01*
G54D17*
Y63601D02*
X90750D01*
Y65899D02*
X94500D01*
G54D11*
Y65937D02*
G02X95187Y65250I0J-687D01*
Y64250D02*
G02X94500Y63563I-687J0D01*
X90750D02*
G02X90063Y64250I0J687D01*
Y65250D02*
G02X90750Y65937I687J0D01*
G54D12*
Y63575D02*
G02X90075Y64250I0J675D01*
X95175D02*
G02X94500Y63575I-675J0D01*
G54D15*
X90750Y63652D02*
G02X90152Y64250I0J598D01*
X95098D02*
G02X94500Y63652I-598J0D01*
G54D12*
X90075Y65250D02*
G02X90750Y65925I675J0D01*
X94500D02*
G02X95175Y65250I0J-675D01*
G54D15*
X90152D02*
G02X90750Y65848I598J0D01*
X94500D02*
G02X95098Y65250I0J-598D01*
G54D17*
X95147Y64199D02*
G02X94500Y63601I-647J51D01*
X90750D02*
G02X90103Y64199I0J649D01*
Y65301D02*
G02X90750Y65899I647J-51D01*
X94500D02*
G02X95147Y65301I0J-649D01*
G54D11*
X74187Y64600D02*
G01Y60500D01*
X73500Y59813D02*
X72300D01*
X71613Y60500D02*
Y64600D01*
X72300Y65287D02*
X73500D01*
G54D12*
X71625Y64600D02*
X74175D01*
X71625Y60500D02*
X74175D01*
G54D21*
X72413Y61313D02*
Y63787D01*
X73387Y61313D02*
Y63787D01*
G54D15*
X72300Y59902D02*
X73500D01*
X71887Y60067D02*
X73913D01*
X71765Y60233D02*
X74035D01*
X71710Y60398D02*
X74090D01*
G54D12*
X73500Y59825D02*
X72300D01*
G54D15*
X71710Y64702D02*
X74090D01*
X71765Y64867D02*
X74035D01*
X71887Y65033D02*
X73913D01*
X72300Y65198D02*
X73500D01*
G54D12*
X72300Y65275D02*
X73500D01*
G54D17*
Y59851D02*
X72300D01*
Y65249D02*
X73500D01*
G54D11*
Y65287D02*
G02X74187Y64600I0J-687D01*
Y60500D02*
G02X73500Y59813I-687J0D01*
X72300D02*
G02X71613Y60500I0J687D01*
Y64600D02*
G02X72300Y65287I687J0D01*
G54D12*
Y59825D02*
G02X71625Y60500I0J675D01*
X74175D02*
G02X73500Y59825I-675J0D01*
G54D15*
X72300Y59902D02*
G02X71702Y60500I0J598D01*
X74098D02*
G02X73500Y59902I-598J0D01*
G54D12*
X71625Y64600D02*
G02X72300Y65275I675J0D01*
X73500D02*
G02X74175Y64600I0J-675D01*
G54D15*
X71702D02*
G02X72300Y65198I598J0D01*
X73500D02*
G02X74098Y64600I0J-598D01*
G54D17*
X74147Y60449D02*
G02X73500Y59851I-647J51D01*
X72300D02*
G02X71653Y60449I0J649D01*
Y64651D02*
G02X72300Y65249I647J-51D01*
X73500D02*
G02X74147Y64651I0J-649D01*
G54D11*
X83687Y36500D02*
G01Y35000D01*
X83000Y34313D02*
X75500D01*
X74813Y35000D02*
Y36500D01*
X75500Y37187D02*
X83000D01*
G54D12*
X74825Y36500D02*
X83675D01*
X74825Y35000D02*
X83675D01*
G54D20*
X75206Y35406D02*
X83294D01*
X75206Y36094D02*
X83294D01*
G54D15*
X75500Y34402D02*
X83000D01*
X75087Y34567D02*
X83413D01*
X74965Y34733D02*
X83535D01*
X74910Y34898D02*
X83590D01*
G54D12*
X83000Y34325D02*
X75500D01*
G54D15*
X74910Y36602D02*
X83590D01*
X74965Y36767D02*
X83535D01*
X75087Y36933D02*
X83413D01*
X75500Y37098D02*
X83000D01*
G54D12*
X75500Y37175D02*
X83000D01*
G54D17*
Y34351D02*
X75500D01*
Y37149D02*
X83000D01*
G54D11*
Y37187D02*
G02X83687Y36500I0J-687D01*
Y35000D02*
G02X83000Y34313I-687J0D01*
X75500D02*
G02X74813Y35000I0J687D01*
Y36500D02*
G02X75500Y37187I687J0D01*
G54D12*
Y34325D02*
G02X74825Y35000I0J675D01*
X83675D02*
G02X83000Y34325I-675J0D01*
G54D15*
X75500Y34402D02*
G02X74902Y35000I0J598D01*
X83598D02*
G02X83000Y34402I-598J0D01*
G54D12*
X74825Y36500D02*
G02X75500Y37175I675J0D01*
X83000D02*
G02X83675Y36500I0J-675D01*
G54D15*
X74902D02*
G02X75500Y37098I598J0D01*
X83000D02*
G02X83598Y36500I0J-598D01*
G54D17*
X83647Y34949D02*
G02X83000Y34351I-647J51D01*
X75500D02*
G02X74853Y34949I0J649D01*
Y36551D02*
G02X75500Y37149I647J-51D01*
X83000D02*
G02X83647Y36551I0J-649D01*
G54D11*
X79562Y30125D02*
G01Y28875D01*
X78875Y28188D02*
X75500D01*
X74813Y28875D02*
Y30125D01*
X75500Y30812D02*
X78875D01*
G54D12*
X74825Y30125D02*
X79550D01*
X74825Y28875D02*
X79550D01*
G54D20*
X75206Y29281D02*
X79169D01*
X75206Y29719D02*
X79169D01*
G54D15*
X75500Y28277D02*
X78875D01*
X75087Y28442D02*
X79288D01*
X74965Y28608D02*
X79410D01*
X74910Y28773D02*
X79465D01*
G54D12*
X78875Y28200D02*
X75500D01*
G54D15*
X74910Y30227D02*
X79465D01*
X74965Y30392D02*
X79410D01*
X75087Y30558D02*
X79288D01*
X75500Y30723D02*
X78875D01*
G54D12*
X75500Y30800D02*
X78875D01*
G54D17*
Y28226D02*
X75500D01*
Y30774D02*
X78875D01*
G54D11*
Y30812D02*
G02X79562Y30125I0J-687D01*
Y28875D02*
G02X78875Y28188I-687J0D01*
X75500D02*
G02X74813Y28875I0J687D01*
Y30125D02*
G02X75500Y30812I687J0D01*
G54D12*
Y28200D02*
G02X74825Y28875I0J675D01*
X79550D02*
G02X78875Y28200I-675J0D01*
G54D15*
X75500Y28277D02*
G02X74902Y28875I0J598D01*
X79473D02*
G02X78875Y28277I-598J0D01*
G54D12*
X74825Y30125D02*
G02X75500Y30800I675J0D01*
X78875D02*
G02X79550Y30125I0J-675D01*
G54D15*
X74902D02*
G02X75500Y30723I598J0D01*
X78875D02*
G02X79473Y30125I0J-598D01*
G54D17*
X79522Y28824D02*
G02X78875Y28226I-647J51D01*
X75500D02*
G02X74853Y28824I0J649D01*
Y30176D02*
G02X75500Y30774I647J-51D01*
X78875D02*
G02X79522Y30176I0J-649D01*
G54D11*
X46687Y23500D02*
G01Y21500D01*
X46000Y20813D02*
X44750D01*
X44063Y21500D02*
Y23500D01*
X44750Y24187D02*
X46000D01*
G54D12*
X44075Y23500D02*
X46675D01*
X44075Y21500D02*
X46675D01*
G54D21*
X44863Y22313D02*
X45887D01*
X44863Y22687D02*
X45887D01*
G54D15*
X44750Y20902D02*
X46000D01*
X44337Y21067D02*
X46413D01*
X44215Y21233D02*
X46535D01*
X44160Y21398D02*
X46590D01*
G54D12*
X46000Y20825D02*
X44750D01*
G54D15*
X44160Y23602D02*
X46590D01*
X44215Y23767D02*
X46535D01*
X44337Y23933D02*
X46413D01*
X44750Y24098D02*
X46000D01*
G54D12*
X44750Y24175D02*
X46000D01*
G54D17*
Y20851D02*
X44750D01*
Y24149D02*
X46000D01*
G54D11*
Y24187D02*
G02X46687Y23500I0J-687D01*
Y21500D02*
G02X46000Y20813I-687J0D01*
X44750D02*
G02X44063Y21500I0J687D01*
Y23500D02*
G02X44750Y24187I687J0D01*
G54D12*
Y20825D02*
G02X44075Y21500I0J675D01*
X46675D02*
G02X46000Y20825I-675J0D01*
G54D15*
X44750Y20902D02*
G02X44152Y21500I0J598D01*
X46598D02*
G02X46000Y20902I-598J0D01*
G54D12*
X44075Y23500D02*
G02X44750Y24175I675J0D01*
X46000D02*
G02X46675Y23500I0J-675D01*
G54D15*
X44152D02*
G02X44750Y24098I598J0D01*
X46000D02*
G02X46598Y23500I0J-598D01*
G54D17*
X46647Y21449D02*
G02X46000Y20851I-647J51D01*
X44750D02*
G02X44103Y21449I0J649D01*
Y23551D02*
G02X44750Y24149I647J-51D01*
X46000D02*
G02X46647Y23551I0J-649D01*
G54D11*
X37937Y18750D02*
G01Y15750D01*
X37250Y15063D02*
X36250D01*
X35563Y15750D02*
Y18750D01*
X36250Y19437D02*
X37250D01*
G54D12*
X35575Y18750D02*
X37925D01*
X35575Y15750D02*
X37925D01*
G54D21*
X36363Y16563D02*
Y17937D01*
X37137Y16563D02*
Y17937D01*
G54D15*
X36250Y15152D02*
X37250D01*
X35837Y15317D02*
X37663D01*
X35715Y15483D02*
X37785D01*
X35660Y15648D02*
X37840D01*
G54D12*
X37250Y15075D02*
X36250D01*
G54D15*
X35660Y18852D02*
X37840D01*
X35715Y19017D02*
X37785D01*
X35837Y19183D02*
X37663D01*
X36250Y19348D02*
X37250D01*
G54D12*
X36250Y19425D02*
X37250D01*
G54D17*
Y15101D02*
X36250D01*
Y19399D02*
X37250D01*
G54D11*
Y19437D02*
G02X37937Y18750I0J-687D01*
Y15750D02*
G02X37250Y15063I-687J0D01*
X36250D02*
G02X35563Y15750I0J687D01*
Y18750D02*
G02X36250Y19437I687J0D01*
G54D12*
Y15075D02*
G02X35575Y15750I0J675D01*
X37925D02*
G02X37250Y15075I-675J0D01*
G54D15*
X36250Y15152D02*
G02X35652Y15750I0J598D01*
X37848D02*
G02X37250Y15152I-598J0D01*
G54D12*
X35575Y18750D02*
G02X36250Y19425I675J0D01*
X37250D02*
G02X37925Y18750I0J-675D01*
G54D15*
X35652D02*
G02X36250Y19348I598J0D01*
X37250D02*
G02X37848Y18750I0J-598D01*
G54D17*
X37897Y15699D02*
G02X37250Y15101I-647J51D01*
X36250D02*
G02X35603Y15699I0J649D01*
Y18801D02*
G02X36250Y19399I647J-51D01*
X37250D02*
G02X37897Y18801I0J-649D01*
G54D11*
X50109Y14613D02*
G01X53484Y11238D01*
X53687Y10750D02*
Y9750D01*
X53000Y9063D02*
X52875D01*
X52391Y9262D02*
X49139Y12514D01*
X48938Y13000D02*
Y14125D01*
G54D12*
X48950Y13000D02*
X51705D01*
X48950Y13000D02*
X51705D01*
X48950Y14125D02*
X50580D01*
X49164Y14618D02*
X50086D01*
X48950Y14125D02*
X50580D01*
X49165Y12505D02*
X52200D01*
X50423Y11247D02*
X53458D01*
X50920Y10750D02*
X53675D01*
X50920Y10750D02*
X53675D01*
X51920Y9750D02*
X53675D01*
X52414Y9257D02*
X53461D01*
G54D15*
X49174Y12607D02*
X51990D01*
X49080Y12752D02*
X51844D01*
X49035Y12898D02*
X51698D01*
G54D12*
X51722Y12982D02*
X52217Y12487D01*
G54D15*
X51668Y12928D02*
X52163Y12433D01*
G54D12*
X48950Y13000D03*
X51722Y12982D03*
X48950Y14125D03*
X50597Y14107D03*
G54D15*
X49035Y14227D02*
X50370D01*
X49080Y14372D02*
X50225D01*
X49172Y14516D02*
X50080D01*
G54D12*
X50104Y14600D02*
X50597Y14107D01*
G54D15*
X50050Y14546D02*
X50543Y14053D01*
G54D13*
X49128Y13203D02*
X51249D01*
X49128Y13563D02*
X50890D01*
X49128Y13922D02*
X50531D01*
G54D12*
X48950Y13000D02*
Y14125D01*
X50597Y14107D02*
X51722Y12982D01*
G54D13*
X49128Y13000D02*
Y14125D01*
X50471Y13981D02*
X51596Y12856D01*
G54D17*
X49270Y14669D02*
X49980D01*
X49369Y14722D02*
X49881D01*
X49625Y14774D03*
G54D13*
X50472Y11450D02*
X53002D01*
X50188Y11734D02*
X52719D01*
X49904Y12018D02*
X52435D01*
X49621Y12302D02*
X52151D01*
G54D12*
X50406Y11265D02*
X49148Y12523D01*
X52217Y12487D02*
X53475Y11229D01*
G54D13*
X50532Y11391D02*
X49274Y12649D01*
X52091Y12361D02*
X53350Y11103D01*
G54D15*
X50927Y10852D02*
X53590D01*
X50780Y10999D02*
X53544D01*
X50633Y11145D02*
X53449D01*
G54D12*
X50903Y10768D02*
X50406Y11265D01*
G54D15*
X50957Y10822D02*
X50460Y11319D01*
G54D12*
X50903Y10768D03*
X53675Y10750D03*
G54D13*
X51969Y9953D02*
X53497D01*
X51672Y10250D02*
X53497D01*
X51376Y10547D02*
X53497D01*
G54D12*
X51903Y9768D02*
X50903Y10768D01*
X53675Y10750D02*
Y9750D01*
G54D13*
X52029Y9894D02*
X51029Y10894D01*
X53497Y10750D02*
Y9750D01*
G54D15*
X52420Y9359D02*
X53453D01*
X52275Y9503D02*
X53545D01*
X52130Y9648D02*
X53590D01*
G54D12*
X52396Y9275D02*
X51903Y9768D01*
G54D15*
X52450Y9329D02*
X51957Y9822D01*
G54D17*
X52875Y9101D02*
X53000D01*
X52619Y9154D02*
X53256D01*
X52520Y9206D02*
X53355D01*
G54D12*
X53000Y9075D02*
X52875D01*
D03*
G54D11*
X49625Y14812D02*
G02X50109Y14613I0J-687D01*
X53484Y11238D02*
G02X53687Y10750I-484J-488D01*
Y9750D02*
G02X53000Y9063I-687J0D01*
X52875D02*
G02X52391Y9262I-0J687D01*
X49139Y12514D02*
G02X48938Y13000I486J486D01*
Y14125D02*
G02X49625Y14812I687J0D01*
G54D12*
X49148Y12523D02*
G02X48950Y13000I477J477D01*
G54D15*
X49202Y12577D02*
G02X49027Y13000I423J423D01*
G54D12*
X48950Y14125D02*
G02X49146Y14600I675J0D01*
G54D15*
X49027Y14125D02*
G02X49200Y14546I598J0D01*
G54D12*
X49146Y14600D02*
G02X49625Y14800I479J-475D01*
G02X50104Y14600I0J-675D01*
G54D17*
X49164Y14582D02*
G02X49625Y14774I461J-457D01*
G02X50086Y14582I0J-649D01*
G54D12*
X53475Y11229D02*
G02X53675Y10750I-475J-479D01*
G54D15*
X53421Y11175D02*
G02X53598Y10750I-421J-425D01*
G54D12*
X53675Y9750D02*
G02X53479Y9275I-675J0D01*
G54D15*
X53598Y9750D02*
G02X53425Y9329I-598J0D01*
G54D12*
X52875Y9075D02*
G02X52396Y9275I0J675D01*
X53479Y9275D02*
G02X53000Y9075I-479J475D01*
G54D17*
X52875Y9101D02*
G02X52414Y9293I0J649D01*
X53461Y9293D02*
G02X53000Y9101I-461J457D01*
G54D22*
X14280Y77410D02*
G01Y79410D01*
X12780Y74410D02*
Y76410D01*
X14280Y71410D02*
Y73410D01*
Y60010D02*
Y62010D01*
X12780Y57010D02*
Y59010D01*
X14280Y54010D02*
Y56010D01*
Y42610D02*
Y44610D01*
X12780Y39610D02*
Y41610D01*
X14280Y36610D02*
Y38610D01*
Y25210D02*
Y27210D01*
X12780Y22210D02*
Y24210D01*
X14280Y19210D02*
Y21210D01*
G54D23*
X8500Y4250D03*
X7500D03*
X6500D03*
X24120Y12500D03*
X23120D03*
X25120D03*
X36500Y4250D03*
X38500D03*
X37500D03*
X71000Y12500D03*
X70000D03*
X69000D03*
X94500D03*
X93500D03*
X92500D03*
G54D11*
X14331Y24046D02*
X14475Y24024D01*
X14613Y23978D01*
X14728Y23916D01*
X14564Y23752D01*
X14504Y23780D01*
X14402Y23811D01*
X14296Y23823D01*
X14189Y23816D01*
X14085Y23791D01*
X13996Y23752D01*
X13832Y23916D01*
X13906Y23959D01*
X14042Y24013D01*
X14185Y24042D01*
X14331Y24046D01*
G54D12*
X13861Y23919D02*
X14696D01*
X13968Y23970D02*
X14597D01*
X14017Y23990D02*
X14539D01*
X13956Y23810D02*
X14111D01*
X13962Y23803D02*
X14084D01*
X14163Y24025D02*
X14387D01*
X13987Y23779D02*
X14027D01*
X14448Y23810D02*
X14604D01*
X14487Y23798D02*
X14592D01*
X14559Y23768D02*
X14563D01*
X13931Y23835D02*
X14629D01*
X13902Y23864D02*
X14658D01*
X13873Y23894D02*
X14687D01*
X13939Y23828D02*
X13853Y23914D01*
X14707Y23913D02*
X14621Y23828D01*
X13906Y23944D02*
X14649D01*
X13907Y23945D02*
X14648D01*
X13853Y23914D02*
X13911Y23948D01*
X14642Y23948D02*
X14707Y23913D01*
X13911Y23948D02*
X13958Y23966D01*
X14608Y23966D02*
X14642Y23948D01*
X13945Y23821D02*
X13939Y23828D01*
X14296Y23835D02*
X14187Y23829D01*
X13969Y23797D02*
X13945Y23821D01*
X14187Y23829D02*
X14081Y23803D01*
X13958Y23966D02*
X14045Y24000D01*
X14505Y24001D02*
X14608Y23966D01*
X13999Y23767D02*
X13969Y23797D01*
X14081Y23803D02*
X13999Y23767D01*
X14045Y24000D02*
X14101Y24012D01*
X14472Y24012D02*
X14505Y24001D01*
X14101Y24012D02*
X14186Y24029D01*
X14354Y24029D02*
X14472Y24012D01*
X14186Y24029D02*
X14330Y24033D01*
X14354Y24029D01*
X14404Y23823D02*
X14296Y23835D01*
X14621Y23828D02*
X14610Y23816D01*
X14509Y23792D02*
X14404Y23823D01*
X14610Y23816D02*
X14580Y23786D01*
X14561Y23768D02*
X14509Y23792D01*
X14580Y23786D02*
X14561Y23768D01*
G54D11*
X14986Y23658D02*
X15029Y23584D01*
X15083Y23448D01*
X15112Y23305D01*
X15116Y23159D01*
X15094Y23015D01*
X15048Y22877D01*
X14986Y22762D01*
X14822Y22926D01*
X14850Y22986D01*
X14881Y23088D01*
X14893Y23194D01*
X14886Y23301D01*
X14861Y23405D01*
X14822Y23494D01*
X14986Y23658D01*
G54D12*
X14842Y22923D02*
X15051D01*
X14865Y22991D02*
X15073D01*
X14842Y23497D02*
X15050D01*
X14936Y23590D02*
X15012D01*
X14854Y23452D02*
X15068D01*
X14871Y23012D02*
X15080D01*
X14893Y23091D02*
X15093D01*
X14874Y23401D02*
X15080D01*
X14894Y22872D02*
X15031D01*
X14901Y23159D02*
X15103D01*
X14897Y23307D02*
X15099D01*
X14899Y23299D02*
X15099D01*
X14905Y23195D02*
X15102D01*
X14869Y22897D02*
X15041D01*
X14868Y22898D02*
X15042D01*
X14877Y22890D02*
X14838Y22929D01*
X15053Y22931D02*
X15036Y22882D01*
X14847Y22949D02*
X15059D01*
X14855Y22965D02*
X15064D01*
X14838Y22929D02*
X14862Y22981D01*
X15075Y22999D02*
X15053Y22931D01*
X14845Y23474D02*
X15059D01*
X14850Y23462D02*
X14837Y23491D01*
X15054Y23487D02*
X15070Y23445D01*
X14868Y23522D02*
X15040D01*
X14911Y23564D02*
X15023D01*
X14837Y23491D02*
X14918Y23572D01*
X15018Y23579D02*
X15054Y23487D01*
X14866Y23426D02*
X15074D01*
X14865Y23427D02*
X15074D01*
X14873Y23409D02*
X14850Y23462D01*
X15070Y23445D02*
X15080Y23396D01*
X14862Y22981D02*
X14869Y23005D01*
X15082Y23018D02*
X15075Y22999D01*
X14879Y23037D02*
X15085D01*
X14887Y23065D02*
X15089D01*
X14869Y23005D02*
X14893Y23086D01*
X15093Y23095D02*
X15082Y23018D01*
X14892Y23332D02*
X15093D01*
X14881Y23375D02*
X15085D01*
X14896Y23313D02*
X14873Y23409D01*
X15080Y23396D02*
X15099Y23304D01*
X14960Y22806D02*
X14996D01*
X14920Y22846D02*
X15017D01*
X14983Y22783D02*
X14877Y22890D01*
X15036Y22882D02*
X14983Y22783D01*
X14897Y23116D02*
X15096D01*
X14898Y23133D02*
X15099D01*
X14893Y23086D02*
X14901Y23156D01*
X15103Y23160D02*
X15093Y23095D01*
X14899Y23303D02*
X14896Y23313D01*
X15099Y23304D02*
X15099Y23298D01*
X14904Y23220D02*
X15101D01*
X14902Y23247D02*
X15101D01*
X14900Y23274D02*
X15100D01*
X14905Y23194D02*
X14899Y23303D01*
X15099Y23298D02*
X15102Y23194D01*
X14901Y23156D02*
X14905Y23194D01*
X15102Y23194D02*
X15103Y23160D01*
X14961Y23615D02*
X14996D01*
X14918Y23572D02*
X14984Y23637D01*
X15018Y23579D01*
G54D11*
X14564Y22668D02*
X14728Y22504D01*
X14654Y22461D01*
X14518Y22407D01*
X14375Y22378D01*
X14229Y22374D01*
X14085Y22396D01*
X13947Y22442D01*
X13832Y22504D01*
X13996Y22668D01*
X14056Y22640D01*
X14158Y22609D01*
X14264Y22597D01*
X14371Y22604D01*
X14475Y22629D01*
X14564Y22668D01*
G54D12*
X13864Y22501D02*
X14699D01*
X13956Y22610D02*
X14112D01*
X14449D02*
X14604D01*
X13963Y22450D02*
X14592D01*
X13968Y22622D02*
X14073D01*
X13997Y22652D02*
X14001D01*
X14021Y22430D02*
X14543D01*
X14173Y22395D02*
X14397D01*
X14476Y22617D02*
X14598D01*
X14533Y22641D02*
X14573D01*
X13912Y22475D02*
X14653D01*
X13911Y22476D02*
X14654D01*
X13918Y22472D02*
X13853Y22507D01*
X14707Y22506D02*
X14649Y22472D01*
X13873Y22526D02*
X14687D01*
X13902Y22556D02*
X14658D01*
X13931Y22585D02*
X14629D01*
X13853Y22507D02*
X13939Y22592D01*
X14621D02*
X14707Y22506D01*
X13952Y22454D02*
X13918Y22472D01*
X14649Y22472D02*
X14602Y22454D01*
X13939Y22592D02*
X13950Y22604D01*
X14156Y22597D02*
X14264Y22585D01*
X13950Y22604D02*
X13980Y22634D01*
X14051Y22628D02*
X14156Y22597D01*
X14055Y22419D02*
X13952Y22454D01*
X14602Y22454D02*
X14515Y22420D01*
X13980Y22634D02*
X13999Y22652D01*
X14051Y22628D01*
X14088Y22408D02*
X14055Y22419D01*
X14515Y22420D02*
X14459Y22408D01*
X14206Y22391D02*
X14088Y22408D01*
X14459Y22408D02*
X14374Y22391D01*
X14230Y22387D02*
X14206Y22391D01*
X14374Y22391D02*
X14230Y22387D01*
X14264Y22585D02*
X14373Y22591D01*
X14615Y22599D02*
X14621Y22592D01*
X14373Y22591D02*
X14479Y22617D01*
X14591Y22623D02*
X14615Y22599D01*
X14479Y22617D02*
X14561Y22653D01*
X14591Y22623D01*
G54D11*
X13574Y23658D02*
X13738Y23494D01*
X13710Y23434D01*
X13679Y23332D01*
X13667Y23226D01*
X13674Y23119D01*
X13699Y23015D01*
X13738Y22926D01*
X13574Y22762D01*
X13531Y22836D01*
X13477Y22972D01*
X13448Y23115D01*
X13444Y23261D01*
X13466Y23405D01*
X13512Y23543D01*
X13574Y23658D01*
G54D12*
X13457Y23261D02*
X13659D01*
X13467Y23329D02*
X13667D01*
X13458Y23225D02*
X13655D01*
X13461Y23121D02*
X13661D01*
X13461Y23113D02*
X13663D01*
X13480Y23408D02*
X13689D01*
X13487Y23429D02*
X13695D01*
X13480Y23019D02*
X13686D01*
X13509Y23497D02*
X13718D01*
X13492Y22968D02*
X13706D01*
X13510Y22923D02*
X13718D01*
X13529Y23548D02*
X13666D01*
X13548Y22830D02*
X13624D01*
X13458Y23226D02*
X13457Y23260D01*
X13659Y23264D02*
X13655Y23226D01*
X13461Y23287D02*
X13662D01*
X13464Y23304D02*
X13663D01*
X13457Y23260D02*
X13467Y23325D01*
X13667Y23334D02*
X13659Y23264D01*
X13460Y23146D02*
X13660D01*
X13459Y23173D02*
X13658D01*
X13459Y23200D02*
X13656D01*
X13461Y23122D02*
X13458Y23226D01*
X13655Y23226D02*
X13661Y23117D01*
X13461Y23116D02*
X13461Y23122D01*
X13661Y23117D02*
X13664Y23107D01*
X13475Y23045D02*
X13679D01*
X13467Y23088D02*
X13668D01*
X13480Y23024D02*
X13461Y23116D01*
X13664Y23107D02*
X13687Y23011D01*
X13471Y23355D02*
X13673D01*
X13475Y23383D02*
X13681D01*
X13467Y23325D02*
X13478Y23402D01*
X13691Y23415D02*
X13667Y23334D01*
X13478Y23402D02*
X13485Y23421D01*
X13698Y23439D02*
X13691Y23415D01*
X13486Y22993D02*
X13695D01*
X13486Y22994D02*
X13694D01*
X13490Y22975D02*
X13480Y23024D01*
X13687Y23011D02*
X13710Y22958D01*
X13496Y23455D02*
X13705D01*
X13501Y23471D02*
X13713D01*
X13485Y23421D02*
X13507Y23489D01*
X13722Y23491D02*
X13698Y23439D01*
X13501Y22946D02*
X13715D01*
X13506Y22933D02*
X13490Y22975D01*
X13710Y22958D02*
X13723Y22929D01*
X13537Y22856D02*
X13649D01*
X13520Y22898D02*
X13692D01*
X13542Y22841D02*
X13506Y22933D01*
X13723Y22929D02*
X13642Y22848D01*
X13518Y23522D02*
X13692D01*
X13519Y23523D02*
X13691D01*
X13507Y23489D02*
X13524Y23538D01*
X13683Y23530D02*
X13722Y23491D01*
X13543Y23574D02*
X13640D01*
X13564Y23614D02*
X13600D01*
X13524Y23538D02*
X13577Y23637D01*
X13683Y23530D01*
X13564Y22805D02*
X13599D01*
X13576Y22783D02*
X13542Y22841D01*
X13642Y22848D02*
X13576Y22783D01*
G54D11*
X12831Y20546D02*
X12975Y20524D01*
X13113Y20478D01*
X13228Y20416D01*
X13064Y20252D01*
X13004Y20280D01*
X12902Y20311D01*
X12796Y20323D01*
X12689Y20316D01*
X12585Y20291D01*
X12496Y20252D01*
X12332Y20416D01*
X12406Y20459D01*
X12542Y20513D01*
X12685Y20542D01*
X12831Y20546D01*
G54D12*
X12361Y20419D02*
X13196D01*
X12468Y20470D02*
X13097D01*
X12517Y20490D02*
X13039D01*
X12456Y20310D02*
X12611D01*
X12462Y20303D02*
X12584D01*
X12663Y20525D02*
X12887D01*
X12487Y20279D02*
X12527D01*
X12948Y20310D02*
X13104D01*
X12987Y20298D02*
X13092D01*
X13059Y20268D02*
X13063D01*
X12431Y20335D02*
X13129D01*
X12402Y20364D02*
X13158D01*
X12373Y20394D02*
X13187D01*
X12439Y20328D02*
X12353Y20414D01*
X13207Y20413D02*
X13121Y20328D01*
X12406Y20444D02*
X13149D01*
X12407Y20445D02*
X13148D01*
X12353Y20414D02*
X12411Y20448D01*
X13142Y20448D02*
X13207Y20413D01*
X12411Y20448D02*
X12458Y20466D01*
X13108Y20466D02*
X13142Y20448D01*
X12445Y20321D02*
X12439Y20328D01*
X12796Y20335D02*
X12687Y20329D01*
X12469Y20297D02*
X12445Y20321D01*
X12687Y20329D02*
X12581Y20303D01*
X12458Y20466D02*
X12545Y20500D01*
X13005Y20501D02*
X13108Y20466D01*
X12499Y20267D02*
X12469Y20297D01*
X12581Y20303D02*
X12499Y20267D01*
X12545Y20500D02*
X12601Y20512D01*
X12972Y20512D02*
X13005Y20501D01*
X12601Y20512D02*
X12686Y20529D01*
X12854Y20529D02*
X12972Y20512D01*
X12686Y20529D02*
X12830Y20533D01*
X12854Y20529D01*
X12904Y20323D02*
X12796Y20335D01*
X13121Y20328D02*
X13110Y20316D01*
X13009Y20292D02*
X12904Y20323D01*
X13110Y20316D02*
X13080Y20286D01*
X13061Y20268D02*
X13009Y20292D01*
X13080Y20286D02*
X13061Y20268D01*
G54D11*
X13486Y20158D02*
X13529Y20084D01*
X13583Y19948D01*
X13612Y19805D01*
X13616Y19659D01*
X13594Y19515D01*
X13548Y19377D01*
X13486Y19262D01*
X13322Y19426D01*
X13350Y19486D01*
X13381Y19588D01*
X13393Y19694D01*
X13386Y19801D01*
X13361Y19905D01*
X13322Y19994D01*
X13486Y20158D01*
G54D12*
X13342Y19423D02*
X13551D01*
X13365Y19491D02*
X13573D01*
X13342Y19997D02*
X13550D01*
X13436Y20090D02*
X13512D01*
X13354Y19952D02*
X13568D01*
X13371Y19512D02*
X13580D01*
X13393Y19591D02*
X13593D01*
X13374Y19901D02*
X13580D01*
X13394Y19372D02*
X13531D01*
X13401Y19659D02*
X13603D01*
X13397Y19807D02*
X13599D01*
X13399Y19799D02*
X13599D01*
X13405Y19695D02*
X13602D01*
X13369Y19397D02*
X13541D01*
X13368Y19398D02*
X13542D01*
X13377Y19390D02*
X13338Y19429D01*
X13553Y19431D02*
X13536Y19382D01*
X13347Y19449D02*
X13559D01*
X13355Y19465D02*
X13564D01*
X13338Y19429D02*
X13362Y19481D01*
X13575Y19499D02*
X13553Y19431D01*
X13345Y19974D02*
X13559D01*
X13350Y19962D02*
X13337Y19991D01*
X13554Y19987D02*
X13570Y19945D01*
X13368Y20022D02*
X13540D01*
X13411Y20064D02*
X13523D01*
X13337Y19991D02*
X13418Y20072D01*
X13518Y20079D02*
X13554Y19987D01*
X13366Y19926D02*
X13574D01*
X13365Y19927D02*
X13574D01*
X13373Y19909D02*
X13350Y19962D01*
X13570Y19945D02*
X13580Y19896D01*
X13362Y19481D02*
X13369Y19505D01*
X13582Y19518D02*
X13575Y19499D01*
X13379Y19537D02*
X13585D01*
X13387Y19565D02*
X13589D01*
X13369Y19505D02*
X13393Y19586D01*
X13593Y19595D02*
X13582Y19518D01*
X13392Y19832D02*
X13593D01*
X13381Y19875D02*
X13585D01*
X13396Y19813D02*
X13373Y19909D01*
X13580Y19896D02*
X13599Y19804D01*
X13460Y19306D02*
X13496D01*
X13420Y19346D02*
X13517D01*
X13483Y19283D02*
X13377Y19390D01*
X13536Y19382D02*
X13483Y19283D01*
X13397Y19616D02*
X13596D01*
X13398Y19633D02*
X13599D01*
X13393Y19586D02*
X13401Y19656D01*
X13603Y19660D02*
X13593Y19595D01*
X13399Y19803D02*
X13396Y19813D01*
X13599Y19804D02*
X13599Y19798D01*
X13404Y19720D02*
X13601D01*
X13402Y19747D02*
X13601D01*
X13400Y19774D02*
X13600D01*
X13405Y19694D02*
X13399Y19803D01*
X13599Y19798D02*
X13602Y19694D01*
X13401Y19656D02*
X13405Y19694D01*
X13602Y19694D02*
X13603Y19660D01*
X13461Y20115D02*
X13496D01*
X13418Y20072D02*
X13484Y20137D01*
X13518Y20079D01*
G54D11*
X13064Y19168D02*
X13228Y19004D01*
X13154Y18961D01*
X13018Y18907D01*
X12875Y18878D01*
X12729Y18874D01*
X12585Y18896D01*
X12447Y18942D01*
X12332Y19004D01*
X12496Y19168D01*
X12556Y19140D01*
X12658Y19109D01*
X12764Y19097D01*
X12871Y19104D01*
X12975Y19129D01*
X13064Y19168D01*
G54D12*
X12364Y19001D02*
X13199D01*
X12456Y19110D02*
X12612D01*
X12949D02*
X13104D01*
X12463Y18950D02*
X13092D01*
X12468Y19122D02*
X12573D01*
X12497Y19152D02*
X12501D01*
X12521Y18930D02*
X13043D01*
X12673Y18895D02*
X12897D01*
X12976Y19117D02*
X13098D01*
X13033Y19141D02*
X13073D01*
X12412Y18975D02*
X13153D01*
X12411Y18976D02*
X13154D01*
X12418Y18972D02*
X12353Y19007D01*
X13207Y19006D02*
X13149Y18972D01*
X12373Y19026D02*
X13187D01*
X12402Y19056D02*
X13158D01*
X12431Y19085D02*
X13129D01*
X12353Y19007D02*
X12439Y19092D01*
X13121D02*
X13207Y19006D01*
X12452Y18954D02*
X12418Y18972D01*
X13149Y18972D02*
X13102Y18954D01*
X12439Y19092D02*
X12450Y19104D01*
X12656Y19097D02*
X12764Y19085D01*
X12450Y19104D02*
X12480Y19134D01*
X12551Y19128D02*
X12656Y19097D01*
X12555Y18919D02*
X12452Y18954D01*
X13102Y18954D02*
X13015Y18920D01*
X12480Y19134D02*
X12499Y19152D01*
X12551Y19128D01*
X12588Y18908D02*
X12555Y18919D01*
X13015Y18920D02*
X12959Y18908D01*
X12706Y18891D02*
X12588Y18908D01*
X12959Y18908D02*
X12874Y18891D01*
X12730Y18887D02*
X12706Y18891D01*
X12874Y18891D02*
X12730Y18887D01*
X12764Y19085D02*
X12873Y19091D01*
X13115Y19099D02*
X13121Y19092D01*
X12873Y19091D02*
X12979Y19117D01*
X13091Y19123D02*
X13115Y19099D01*
X12979Y19117D02*
X13061Y19153D01*
X13091Y19123D01*
G54D11*
X12074Y20158D02*
X12238Y19994D01*
X12210Y19934D01*
X12179Y19832D01*
X12167Y19726D01*
X12174Y19619D01*
X12199Y19515D01*
X12238Y19426D01*
X12074Y19262D01*
X12031Y19336D01*
X11977Y19472D01*
X11948Y19615D01*
X11944Y19761D01*
X11966Y19905D01*
X12012Y20043D01*
X12074Y20158D01*
G54D12*
X11957Y19761D02*
X12159D01*
X11967Y19829D02*
X12167D01*
X11958Y19725D02*
X12155D01*
X11961Y19621D02*
X12161D01*
X11961Y19613D02*
X12163D01*
X11980Y19908D02*
X12189D01*
X11987Y19929D02*
X12195D01*
X11980Y19519D02*
X12186D01*
X12009Y19997D02*
X12218D01*
X11992Y19468D02*
X12206D01*
X12010Y19423D02*
X12218D01*
X12029Y20048D02*
X12166D01*
X12048Y19330D02*
X12124D01*
X11958Y19726D02*
X11957Y19760D01*
X12159Y19764D02*
X12155Y19726D01*
X11961Y19787D02*
X12162D01*
X11964Y19804D02*
X12163D01*
X11957Y19760D02*
X11967Y19825D01*
X12167Y19834D02*
X12159Y19764D01*
X11960Y19646D02*
X12160D01*
X11959Y19673D02*
X12158D01*
X11959Y19700D02*
X12156D01*
X11961Y19622D02*
X11958Y19726D01*
X12155Y19726D02*
X12161Y19617D01*
X11961Y19616D02*
X11961Y19622D01*
X12161Y19617D02*
X12164Y19607D01*
X11975Y19545D02*
X12179D01*
X11967Y19588D02*
X12168D01*
X11980Y19524D02*
X11961Y19616D01*
X12164Y19607D02*
X12187Y19511D01*
X11971Y19855D02*
X12173D01*
X11975Y19883D02*
X12181D01*
X11967Y19825D02*
X11978Y19902D01*
X12191Y19915D02*
X12167Y19834D01*
X11978Y19902D02*
X11985Y19921D01*
X12198Y19939D02*
X12191Y19915D01*
X11986Y19493D02*
X12195D01*
X11986Y19494D02*
X12194D01*
X11990Y19475D02*
X11980Y19524D01*
X12187Y19511D02*
X12210Y19458D01*
X11996Y19955D02*
X12205D01*
X12001Y19971D02*
X12213D01*
X11985Y19921D02*
X12007Y19989D01*
X12222Y19991D02*
X12198Y19939D01*
X12001Y19446D02*
X12215D01*
X12006Y19433D02*
X11990Y19475D01*
X12210Y19458D02*
X12223Y19429D01*
X12037Y19356D02*
X12149D01*
X12020Y19398D02*
X12192D01*
X12042Y19341D02*
X12006Y19433D01*
X12223Y19429D02*
X12142Y19348D01*
X12018Y20022D02*
X12192D01*
X12019Y20023D02*
X12191D01*
X12007Y19989D02*
X12024Y20038D01*
X12183Y20030D02*
X12222Y19991D01*
X12043Y20074D02*
X12140D01*
X12064Y20114D02*
X12100D01*
X12024Y20038D02*
X12077Y20137D01*
X12183Y20030D01*
X12064Y19305D02*
X12099D01*
X12076Y19283D02*
X12042Y19341D01*
X12142Y19348D02*
X12076Y19283D01*
G54D11*
X12831Y37946D02*
X12975Y37924D01*
X13113Y37878D01*
X13228Y37816D01*
X13064Y37652D01*
X13004Y37680D01*
X12902Y37711D01*
X12796Y37723D01*
X12689Y37716D01*
X12585Y37691D01*
X12496Y37652D01*
X12332Y37816D01*
X12406Y37859D01*
X12542Y37913D01*
X12685Y37942D01*
X12831Y37946D01*
G54D12*
X12361Y37819D02*
X13196D01*
X12468Y37870D02*
X13097D01*
X12517Y37890D02*
X13039D01*
X12456Y37710D02*
X12611D01*
X12462Y37703D02*
X12584D01*
X12663Y37925D02*
X12887D01*
X12487Y37679D02*
X12527D01*
X12948Y37710D02*
X13104D01*
X12987Y37698D02*
X13092D01*
X13059Y37668D02*
X13063D01*
X12431Y37735D02*
X13129D01*
X12402Y37764D02*
X13158D01*
X12373Y37794D02*
X13187D01*
X12439Y37728D02*
X12353Y37814D01*
X13207Y37813D02*
X13121Y37728D01*
X12406Y37845D02*
X13149D01*
X12407Y37845D02*
X13148D01*
X12353Y37814D02*
X12411Y37848D01*
X13142Y37848D02*
X13207Y37813D01*
X12411Y37848D02*
X12458Y37866D01*
X13108Y37866D02*
X13142Y37848D01*
X12445Y37721D02*
X12439Y37728D01*
X12796Y37735D02*
X12687Y37729D01*
X12469Y37697D02*
X12445Y37721D01*
X12687Y37729D02*
X12581Y37703D01*
X12458Y37866D02*
X12545Y37900D01*
X13005Y37901D02*
X13108Y37866D01*
X12499Y37667D02*
X12469Y37697D01*
X12581Y37703D02*
X12499Y37667D01*
X12545Y37900D02*
X12601Y37912D01*
X12972Y37912D02*
X13005Y37901D01*
X12601Y37912D02*
X12686Y37929D01*
X12854Y37929D02*
X12972Y37912D01*
X12686Y37929D02*
X12830Y37933D01*
X12854Y37929D01*
X12904Y37723D02*
X12796Y37735D01*
X13121Y37728D02*
X13110Y37716D01*
X13009Y37692D02*
X12904Y37723D01*
X13110Y37716D02*
X13080Y37686D01*
X13061Y37668D02*
X13009Y37692D01*
X13080Y37686D02*
X13061Y37668D01*
G54D11*
X13486Y37558D02*
X13529Y37484D01*
X13583Y37348D01*
X13612Y37205D01*
X13616Y37059D01*
X13594Y36915D01*
X13548Y36777D01*
X13486Y36662D01*
X13322Y36826D01*
X13350Y36886D01*
X13381Y36988D01*
X13393Y37094D01*
X13386Y37201D01*
X13361Y37305D01*
X13322Y37394D01*
X13486Y37558D01*
G54D12*
X13342Y36823D02*
X13551D01*
X13365Y36891D02*
X13573D01*
X13342Y37397D02*
X13550D01*
X13436Y37490D02*
X13512D01*
X13354Y37352D02*
X13568D01*
X13371Y36912D02*
X13580D01*
X13393Y36991D02*
X13593D01*
X13374Y37301D02*
X13580D01*
X13394Y36772D02*
X13531D01*
X13401Y37059D02*
X13603D01*
X13397Y37207D02*
X13599D01*
X13399Y37199D02*
X13599D01*
X13405Y37095D02*
X13602D01*
X13369Y36797D02*
X13541D01*
X13368Y36798D02*
X13542D01*
X13377Y36790D02*
X13338Y36829D01*
X13553Y36831D02*
X13536Y36782D01*
X13347Y36849D02*
X13559D01*
X13355Y36865D02*
X13564D01*
X13338Y36829D02*
X13362Y36881D01*
X13575Y36899D02*
X13553Y36831D01*
X13345Y37374D02*
X13559D01*
X13350Y37362D02*
X13337Y37391D01*
X13554Y37387D02*
X13570Y37345D01*
X13368Y37422D02*
X13540D01*
X13411Y37464D02*
X13523D01*
X13337Y37391D02*
X13418Y37472D01*
X13518Y37479D02*
X13554Y37387D01*
X13366Y37326D02*
X13574D01*
X13365Y37327D02*
X13574D01*
X13373Y37309D02*
X13350Y37362D01*
X13570Y37345D02*
X13580Y37296D01*
X13362Y36881D02*
X13369Y36905D01*
X13582Y36918D02*
X13575Y36899D01*
X13379Y36937D02*
X13585D01*
X13387Y36965D02*
X13589D01*
X13369Y36905D02*
X13393Y36986D01*
X13593Y36995D02*
X13582Y36918D01*
X13392Y37232D02*
X13593D01*
X13381Y37275D02*
X13585D01*
X13396Y37213D02*
X13373Y37309D01*
X13580Y37296D02*
X13599Y37204D01*
X13460Y36706D02*
X13496D01*
X13420Y36746D02*
X13517D01*
X13483Y36683D02*
X13377Y36790D01*
X13536Y36782D02*
X13483Y36683D01*
X13397Y37016D02*
X13596D01*
X13398Y37033D02*
X13599D01*
X13393Y36986D02*
X13401Y37056D01*
X13603Y37060D02*
X13593Y36995D01*
X13399Y37203D02*
X13396Y37213D01*
X13599Y37204D02*
X13599Y37198D01*
X13404Y37120D02*
X13601D01*
X13402Y37147D02*
X13601D01*
X13400Y37174D02*
X13600D01*
X13405Y37094D02*
X13399Y37203D01*
X13599Y37198D02*
X13602Y37094D01*
X13401Y37056D02*
X13405Y37094D01*
X13602Y37094D02*
X13603Y37060D01*
X13461Y37515D02*
X13496D01*
X13418Y37472D02*
X13484Y37537D01*
X13518Y37479D01*
G54D11*
X13064Y36568D02*
X13228Y36404D01*
X13154Y36361D01*
X13018Y36307D01*
X12875Y36278D01*
X12729Y36274D01*
X12585Y36296D01*
X12447Y36342D01*
X12332Y36404D01*
X12496Y36568D01*
X12556Y36540D01*
X12658Y36509D01*
X12764Y36497D01*
X12871Y36504D01*
X12975Y36529D01*
X13064Y36568D01*
G54D12*
X12364Y36401D02*
X13199D01*
X12456Y36510D02*
X12612D01*
X12949D02*
X13104D01*
X12463Y36350D02*
X13092D01*
X12468Y36522D02*
X12573D01*
X12497Y36552D02*
X12501D01*
X12521Y36330D02*
X13043D01*
X12673Y36295D02*
X12897D01*
X12976Y36517D02*
X13098D01*
X13033Y36541D02*
X13073D01*
X12412Y36375D02*
X13153D01*
X12411Y36375D02*
X13154D01*
X12418Y36372D02*
X12353Y36407D01*
X13207Y36406D02*
X13149Y36372D01*
X12373Y36426D02*
X13187D01*
X12402Y36456D02*
X13158D01*
X12431Y36485D02*
X13129D01*
X12353Y36407D02*
X12439Y36492D01*
X13121D02*
X13207Y36406D01*
X12452Y36354D02*
X12418Y36372D01*
X13149Y36372D02*
X13102Y36354D01*
X12439Y36492D02*
X12450Y36504D01*
X12656Y36497D02*
X12764Y36485D01*
X12450Y36504D02*
X12480Y36534D01*
X12551Y36528D02*
X12656Y36497D01*
X12555Y36319D02*
X12452Y36354D01*
X13102Y36354D02*
X13015Y36320D01*
X12480Y36534D02*
X12499Y36552D01*
X12551Y36528D01*
X12588Y36308D02*
X12555Y36319D01*
X13015Y36320D02*
X12959Y36308D01*
X12706Y36291D02*
X12588Y36308D01*
X12959Y36308D02*
X12874Y36291D01*
X12730Y36287D02*
X12706Y36291D01*
X12874Y36291D02*
X12730Y36287D01*
X12764Y36485D02*
X12873Y36491D01*
X13115Y36499D02*
X13121Y36492D01*
X12873Y36491D02*
X12979Y36517D01*
X13091Y36523D02*
X13115Y36499D01*
X12979Y36517D02*
X13061Y36553D01*
X13091Y36523D01*
G54D11*
X12074Y37558D02*
X12238Y37394D01*
X12210Y37334D01*
X12179Y37232D01*
X12167Y37126D01*
X12174Y37019D01*
X12199Y36915D01*
X12238Y36826D01*
X12074Y36662D01*
X12031Y36736D01*
X11977Y36872D01*
X11948Y37015D01*
X11944Y37161D01*
X11966Y37305D01*
X12012Y37443D01*
X12074Y37558D01*
G54D12*
X11957Y37161D02*
X12159D01*
X11967Y37229D02*
X12167D01*
X11958Y37125D02*
X12155D01*
X11961Y37021D02*
X12161D01*
X11961Y37013D02*
X12163D01*
X11980Y37308D02*
X12189D01*
X11987Y37329D02*
X12195D01*
X11980Y36919D02*
X12186D01*
X12009Y37397D02*
X12218D01*
X11992Y36868D02*
X12206D01*
X12010Y36823D02*
X12218D01*
X12029Y37448D02*
X12166D01*
X12048Y36730D02*
X12124D01*
X11958Y37126D02*
X11957Y37160D01*
X12159Y37164D02*
X12155Y37126D01*
X11961Y37187D02*
X12162D01*
X11964Y37204D02*
X12163D01*
X11957Y37160D02*
X11967Y37225D01*
X12167Y37234D02*
X12159Y37164D01*
X11960Y37046D02*
X12160D01*
X11959Y37073D02*
X12158D01*
X11959Y37100D02*
X12156D01*
X11961Y37022D02*
X11958Y37126D01*
X12155Y37126D02*
X12161Y37017D01*
X11961Y37016D02*
X11961Y37022D01*
X12161Y37017D02*
X12164Y37007D01*
X11975Y36945D02*
X12179D01*
X11967Y36988D02*
X12168D01*
X11980Y36924D02*
X11961Y37016D01*
X12164Y37007D02*
X12187Y36911D01*
X11971Y37255D02*
X12173D01*
X11975Y37283D02*
X12181D01*
X11967Y37225D02*
X11978Y37302D01*
X12191Y37315D02*
X12167Y37234D01*
X11978Y37302D02*
X11985Y37321D01*
X12198Y37339D02*
X12191Y37315D01*
X11986Y36893D02*
X12195D01*
X11986Y36894D02*
X12194D01*
X11990Y36875D02*
X11980Y36924D01*
X12187Y36911D02*
X12210Y36858D01*
X11996Y37355D02*
X12205D01*
X12001Y37371D02*
X12213D01*
X11985Y37321D02*
X12007Y37389D01*
X12222Y37391D02*
X12198Y37339D01*
X12001Y36846D02*
X12215D01*
X12006Y36833D02*
X11990Y36875D01*
X12210Y36858D02*
X12223Y36829D01*
X12037Y36756D02*
X12149D01*
X12020Y36798D02*
X12192D01*
X12042Y36741D02*
X12006Y36833D01*
X12223Y36829D02*
X12142Y36748D01*
X12018Y37422D02*
X12192D01*
X12019Y37423D02*
X12191D01*
X12007Y37389D02*
X12024Y37438D01*
X12183Y37430D02*
X12222Y37391D01*
X12043Y37474D02*
X12140D01*
X12064Y37514D02*
X12100D01*
X12024Y37438D02*
X12077Y37537D01*
X12183Y37430D01*
X12064Y36705D02*
X12099D01*
X12076Y36683D02*
X12042Y36741D01*
X12142Y36748D02*
X12076Y36683D01*
G54D11*
X14331Y41446D02*
X14475Y41424D01*
X14613Y41378D01*
X14728Y41316D01*
X14564Y41152D01*
X14504Y41180D01*
X14402Y41211D01*
X14296Y41223D01*
X14189Y41216D01*
X14085Y41191D01*
X13996Y41152D01*
X13832Y41316D01*
X13906Y41359D01*
X14042Y41413D01*
X14185Y41442D01*
X14331Y41446D01*
G54D12*
X13861Y41319D02*
X14696D01*
X13968Y41370D02*
X14597D01*
X14017Y41390D02*
X14539D01*
X13956Y41210D02*
X14111D01*
X13962Y41203D02*
X14084D01*
X14163Y41425D02*
X14387D01*
X13987Y41179D02*
X14027D01*
X14448Y41210D02*
X14604D01*
X14487Y41198D02*
X14592D01*
X14559Y41168D02*
X14563D01*
X13931Y41235D02*
X14629D01*
X13902Y41264D02*
X14658D01*
X13873Y41294D02*
X14687D01*
X13939Y41228D02*
X13853Y41314D01*
X14707Y41313D02*
X14621Y41228D01*
X13906Y41345D02*
X14649D01*
X13907Y41345D02*
X14648D01*
X13853Y41314D02*
X13911Y41348D01*
X14642Y41348D02*
X14707Y41313D01*
X13911Y41348D02*
X13958Y41366D01*
X14608Y41366D02*
X14642Y41348D01*
X13945Y41221D02*
X13939Y41228D01*
X14296Y41235D02*
X14187Y41229D01*
X13969Y41197D02*
X13945Y41221D01*
X14187Y41229D02*
X14081Y41203D01*
X13958Y41366D02*
X14045Y41400D01*
X14505Y41401D02*
X14608Y41366D01*
X13999Y41167D02*
X13969Y41197D01*
X14081Y41203D02*
X13999Y41167D01*
X14045Y41400D02*
X14101Y41412D01*
X14472Y41412D02*
X14505Y41401D01*
X14101Y41412D02*
X14186Y41429D01*
X14354Y41429D02*
X14472Y41412D01*
X14186Y41429D02*
X14330Y41433D01*
X14354Y41429D01*
X14404Y41223D02*
X14296Y41235D01*
X14621Y41228D02*
X14610Y41216D01*
X14509Y41192D02*
X14404Y41223D01*
X14610Y41216D02*
X14580Y41186D01*
X14561Y41168D02*
X14509Y41192D01*
X14580Y41186D02*
X14561Y41168D01*
G54D11*
X14986Y41058D02*
X15029Y40984D01*
X15083Y40848D01*
X15112Y40705D01*
X15116Y40559D01*
X15094Y40415D01*
X15048Y40277D01*
X14986Y40162D01*
X14822Y40326D01*
X14850Y40386D01*
X14881Y40488D01*
X14893Y40594D01*
X14886Y40701D01*
X14861Y40805D01*
X14822Y40894D01*
X14986Y41058D01*
G54D12*
X14842Y40323D02*
X15051D01*
X14865Y40391D02*
X15073D01*
X14842Y40897D02*
X15050D01*
X14936Y40990D02*
X15012D01*
X14854Y40852D02*
X15068D01*
X14871Y40412D02*
X15080D01*
X14893Y40491D02*
X15093D01*
X14874Y40801D02*
X15080D01*
X14894Y40272D02*
X15031D01*
X14901Y40559D02*
X15103D01*
X14897Y40707D02*
X15099D01*
X14899Y40699D02*
X15099D01*
X14905Y40595D02*
X15102D01*
X14869Y40297D02*
X15041D01*
X14868Y40298D02*
X15042D01*
X14877Y40290D02*
X14838Y40329D01*
X15053Y40331D02*
X15036Y40282D01*
X14847Y40349D02*
X15059D01*
X14855Y40365D02*
X15064D01*
X14838Y40329D02*
X14862Y40381D01*
X15075Y40399D02*
X15053Y40331D01*
X14845Y40874D02*
X15059D01*
X14850Y40862D02*
X14837Y40891D01*
X15054Y40887D02*
X15070Y40845D01*
X14868Y40922D02*
X15040D01*
X14911Y40964D02*
X15023D01*
X14837Y40891D02*
X14918Y40972D01*
X15018Y40979D02*
X15054Y40887D01*
X14866Y40826D02*
X15074D01*
X14865Y40827D02*
X15074D01*
X14873Y40809D02*
X14850Y40862D01*
X15070Y40845D02*
X15080Y40796D01*
X14862Y40381D02*
X14869Y40405D01*
X15082Y40418D02*
X15075Y40399D01*
X14879Y40437D02*
X15085D01*
X14887Y40465D02*
X15089D01*
X14869Y40405D02*
X14893Y40486D01*
X15093Y40495D02*
X15082Y40418D01*
X14892Y40732D02*
X15093D01*
X14881Y40775D02*
X15085D01*
X14896Y40713D02*
X14873Y40809D01*
X15080Y40796D02*
X15099Y40704D01*
X14960Y40206D02*
X14996D01*
X14920Y40246D02*
X15017D01*
X14983Y40183D02*
X14877Y40290D01*
X15036Y40282D02*
X14983Y40183D01*
X14897Y40516D02*
X15096D01*
X14898Y40533D02*
X15099D01*
X14893Y40486D02*
X14901Y40556D01*
X15103Y40560D02*
X15093Y40495D01*
X14899Y40703D02*
X14896Y40713D01*
X15099Y40704D02*
X15099Y40698D01*
X14904Y40620D02*
X15101D01*
X14902Y40647D02*
X15101D01*
X14900Y40674D02*
X15100D01*
X14905Y40594D02*
X14899Y40703D01*
X15099Y40698D02*
X15102Y40594D01*
X14901Y40556D02*
X14905Y40594D01*
X15102Y40594D02*
X15103Y40560D01*
X14961Y41015D02*
X14996D01*
X14918Y40972D02*
X14984Y41037D01*
X15018Y40979D01*
G54D11*
X14564Y40068D02*
X14728Y39904D01*
X14654Y39861D01*
X14518Y39807D01*
X14375Y39778D01*
X14229Y39774D01*
X14085Y39796D01*
X13947Y39842D01*
X13832Y39904D01*
X13996Y40068D01*
X14056Y40040D01*
X14158Y40009D01*
X14264Y39997D01*
X14371Y40004D01*
X14475Y40029D01*
X14564Y40068D01*
G54D12*
X13864Y39901D02*
X14699D01*
X13956Y40010D02*
X14112D01*
X14449D02*
X14604D01*
X13963Y39850D02*
X14592D01*
X13968Y40022D02*
X14073D01*
X13997Y40052D02*
X14001D01*
X14021Y39830D02*
X14543D01*
X14173Y39795D02*
X14397D01*
X14476Y40017D02*
X14598D01*
X14533Y40041D02*
X14573D01*
X13912Y39875D02*
X14653D01*
X13911Y39875D02*
X14654D01*
X13918Y39872D02*
X13853Y39907D01*
X14707Y39906D02*
X14649Y39872D01*
X13873Y39926D02*
X14687D01*
X13902Y39956D02*
X14658D01*
X13931Y39985D02*
X14629D01*
X13853Y39907D02*
X13939Y39992D01*
X14621D02*
X14707Y39906D01*
X13952Y39854D02*
X13918Y39872D01*
X14649Y39872D02*
X14602Y39854D01*
X13939Y39992D02*
X13950Y40004D01*
X14156Y39997D02*
X14264Y39985D01*
X13950Y40004D02*
X13980Y40034D01*
X14051Y40028D02*
X14156Y39997D01*
X14055Y39819D02*
X13952Y39854D01*
X14602Y39854D02*
X14515Y39820D01*
X13980Y40034D02*
X13999Y40052D01*
X14051Y40028D01*
X14088Y39808D02*
X14055Y39819D01*
X14515Y39820D02*
X14459Y39808D01*
X14206Y39791D02*
X14088Y39808D01*
X14459Y39808D02*
X14374Y39791D01*
X14230Y39787D02*
X14206Y39791D01*
X14374Y39791D02*
X14230Y39787D01*
X14264Y39985D02*
X14373Y39991D01*
X14615Y39999D02*
X14621Y39992D01*
X14373Y39991D02*
X14479Y40017D01*
X14591Y40023D02*
X14615Y39999D01*
X14479Y40017D02*
X14561Y40053D01*
X14591Y40023D01*
G54D11*
X13574Y41058D02*
X13738Y40894D01*
X13710Y40834D01*
X13679Y40732D01*
X13667Y40626D01*
X13674Y40519D01*
X13699Y40415D01*
X13738Y40326D01*
X13574Y40162D01*
X13531Y40236D01*
X13477Y40372D01*
X13448Y40515D01*
X13444Y40661D01*
X13466Y40805D01*
X13512Y40943D01*
X13574Y41058D01*
G54D12*
X13457Y40661D02*
X13659D01*
X13467Y40729D02*
X13667D01*
X13458Y40625D02*
X13655D01*
X13461Y40521D02*
X13661D01*
X13461Y40513D02*
X13663D01*
X13480Y40808D02*
X13689D01*
X13487Y40829D02*
X13695D01*
X13480Y40419D02*
X13686D01*
X13509Y40897D02*
X13718D01*
X13492Y40368D02*
X13706D01*
X13510Y40323D02*
X13718D01*
X13529Y40948D02*
X13666D01*
X13548Y40230D02*
X13624D01*
X13458Y40626D02*
X13457Y40660D01*
X13659Y40664D02*
X13655Y40626D01*
X13461Y40687D02*
X13662D01*
X13464Y40704D02*
X13663D01*
X13457Y40660D02*
X13467Y40725D01*
X13667Y40734D02*
X13659Y40664D01*
X13460Y40546D02*
X13660D01*
X13459Y40573D02*
X13658D01*
X13459Y40600D02*
X13656D01*
X13461Y40522D02*
X13458Y40626D01*
X13655Y40626D02*
X13661Y40517D01*
X13461Y40516D02*
X13461Y40522D01*
X13661Y40517D02*
X13664Y40507D01*
X13475Y40445D02*
X13679D01*
X13467Y40488D02*
X13668D01*
X13480Y40424D02*
X13461Y40516D01*
X13664Y40507D02*
X13687Y40411D01*
X13471Y40755D02*
X13673D01*
X13475Y40783D02*
X13681D01*
X13467Y40725D02*
X13478Y40802D01*
X13691Y40815D02*
X13667Y40734D01*
X13478Y40802D02*
X13485Y40821D01*
X13698Y40839D02*
X13691Y40815D01*
X13486Y40393D02*
X13695D01*
X13486Y40394D02*
X13694D01*
X13490Y40375D02*
X13480Y40424D01*
X13687Y40411D02*
X13710Y40358D01*
X13496Y40855D02*
X13705D01*
X13501Y40871D02*
X13713D01*
X13485Y40821D02*
X13507Y40889D01*
X13722Y40891D02*
X13698Y40839D01*
X13501Y40346D02*
X13715D01*
X13506Y40333D02*
X13490Y40375D01*
X13710Y40358D02*
X13723Y40329D01*
X13537Y40256D02*
X13649D01*
X13520Y40298D02*
X13692D01*
X13542Y40241D02*
X13506Y40333D01*
X13723Y40329D02*
X13642Y40248D01*
X13518Y40922D02*
X13692D01*
X13519Y40923D02*
X13691D01*
X13507Y40889D02*
X13524Y40938D01*
X13683Y40930D02*
X13722Y40891D01*
X13543Y40974D02*
X13640D01*
X13564Y41014D02*
X13600D01*
X13524Y40938D02*
X13577Y41037D01*
X13683Y40930D01*
X13564Y40205D02*
X13599D01*
X13576Y40183D02*
X13542Y40241D01*
X13642Y40248D02*
X13576Y40183D01*
G54D11*
X14331Y58846D02*
X14475Y58824D01*
X14613Y58778D01*
X14728Y58716D01*
X14564Y58552D01*
X14504Y58580D01*
X14402Y58611D01*
X14296Y58623D01*
X14189Y58616D01*
X14085Y58591D01*
X13996Y58552D01*
X13832Y58716D01*
X13906Y58759D01*
X14042Y58813D01*
X14185Y58842D01*
X14331Y58846D01*
G54D12*
X13861Y58719D02*
X14696D01*
X13968Y58770D02*
X14597D01*
X14017Y58790D02*
X14539D01*
X13956Y58610D02*
X14111D01*
X13962Y58603D02*
X14084D01*
X14163Y58825D02*
X14387D01*
X13987Y58579D02*
X14027D01*
X14448Y58610D02*
X14604D01*
X14487Y58598D02*
X14592D01*
X14559Y58568D02*
X14563D01*
X13931Y58635D02*
X14629D01*
X13902Y58664D02*
X14658D01*
X13873Y58694D02*
X14687D01*
X13939Y58628D02*
X13853Y58714D01*
X14707Y58713D02*
X14621Y58628D01*
X13906Y58744D02*
X14649D01*
X13907Y58745D02*
X14648D01*
X13853Y58714D02*
X13911Y58748D01*
X14642Y58748D02*
X14707Y58713D01*
X13911Y58748D02*
X13958Y58766D01*
X14608Y58766D02*
X14642Y58748D01*
X13945Y58621D02*
X13939Y58628D01*
X14296Y58635D02*
X14187Y58629D01*
X13969Y58597D02*
X13945Y58621D01*
X14187Y58629D02*
X14081Y58603D01*
X13958Y58766D02*
X14045Y58800D01*
X14505Y58801D02*
X14608Y58766D01*
X13999Y58567D02*
X13969Y58597D01*
X14081Y58603D02*
X13999Y58567D01*
X14045Y58800D02*
X14101Y58812D01*
X14472Y58812D02*
X14505Y58801D01*
X14101Y58812D02*
X14186Y58829D01*
X14354Y58829D02*
X14472Y58812D01*
X14186Y58829D02*
X14330Y58833D01*
X14354Y58829D01*
X14404Y58623D02*
X14296Y58635D01*
X14621Y58628D02*
X14610Y58616D01*
X14509Y58592D02*
X14404Y58623D01*
X14610Y58616D02*
X14580Y58586D01*
X14561Y58568D02*
X14509Y58592D01*
X14580Y58586D02*
X14561Y58568D01*
G54D11*
X14986Y58458D02*
X15029Y58384D01*
X15083Y58248D01*
X15112Y58105D01*
X15116Y57959D01*
X15094Y57815D01*
X15048Y57677D01*
X14986Y57562D01*
X14822Y57726D01*
X14850Y57786D01*
X14881Y57888D01*
X14893Y57994D01*
X14886Y58101D01*
X14861Y58205D01*
X14822Y58294D01*
X14986Y58458D01*
G54D12*
X14842Y57723D02*
X15051D01*
X14865Y57791D02*
X15073D01*
X14842Y58297D02*
X15050D01*
X14936Y58390D02*
X15012D01*
X14854Y58252D02*
X15068D01*
X14871Y57812D02*
X15080D01*
X14893Y57891D02*
X15093D01*
X14874Y58201D02*
X15080D01*
X14894Y57672D02*
X15031D01*
X14901Y57959D02*
X15103D01*
X14897Y58107D02*
X15099D01*
X14899Y58099D02*
X15099D01*
X14905Y57995D02*
X15102D01*
X14869Y57697D02*
X15041D01*
X14868Y57698D02*
X15042D01*
X14877Y57690D02*
X14838Y57729D01*
X15053Y57731D02*
X15036Y57682D01*
X14847Y57749D02*
X15059D01*
X14855Y57765D02*
X15064D01*
X14838Y57729D02*
X14862Y57781D01*
X15075Y57799D02*
X15053Y57731D01*
X14845Y58274D02*
X15059D01*
X14850Y58262D02*
X14837Y58291D01*
X15054Y58287D02*
X15070Y58245D01*
X14868Y58322D02*
X15040D01*
X14911Y58364D02*
X15023D01*
X14837Y58291D02*
X14918Y58372D01*
X15018Y58379D02*
X15054Y58287D01*
X14866Y58226D02*
X15074D01*
X14865Y58227D02*
X15074D01*
X14873Y58209D02*
X14850Y58262D01*
X15070Y58245D02*
X15080Y58196D01*
X14862Y57781D02*
X14869Y57805D01*
X15082Y57818D02*
X15075Y57799D01*
X14879Y57837D02*
X15085D01*
X14887Y57865D02*
X15089D01*
X14869Y57805D02*
X14893Y57886D01*
X15093Y57895D02*
X15082Y57818D01*
X14892Y58132D02*
X15093D01*
X14881Y58175D02*
X15085D01*
X14896Y58113D02*
X14873Y58209D01*
X15080Y58196D02*
X15099Y58104D01*
X14960Y57606D02*
X14996D01*
X14920Y57646D02*
X15017D01*
X14983Y57583D02*
X14877Y57690D01*
X15036Y57682D02*
X14983Y57583D01*
X14897Y57916D02*
X15096D01*
X14898Y57933D02*
X15099D01*
X14893Y57886D02*
X14901Y57956D01*
X15103Y57960D02*
X15093Y57895D01*
X14899Y58103D02*
X14896Y58113D01*
X15099Y58104D02*
X15099Y58098D01*
X14904Y58020D02*
X15101D01*
X14902Y58047D02*
X15101D01*
X14900Y58074D02*
X15100D01*
X14905Y57994D02*
X14899Y58103D01*
X15099Y58098D02*
X15102Y57994D01*
X14901Y57956D02*
X14905Y57994D01*
X15102Y57994D02*
X15103Y57960D01*
X14961Y58415D02*
X14996D01*
X14918Y58372D02*
X14984Y58437D01*
X15018Y58379D01*
G54D11*
X14564Y57468D02*
X14728Y57304D01*
X14654Y57261D01*
X14518Y57207D01*
X14375Y57178D01*
X14229Y57174D01*
X14085Y57196D01*
X13947Y57242D01*
X13832Y57304D01*
X13996Y57468D01*
X14056Y57440D01*
X14158Y57409D01*
X14264Y57397D01*
X14371Y57404D01*
X14475Y57429D01*
X14564Y57468D01*
G54D12*
X13864Y57301D02*
X14699D01*
X13956Y57410D02*
X14112D01*
X14449D02*
X14604D01*
X13963Y57250D02*
X14592D01*
X13968Y57422D02*
X14073D01*
X13997Y57452D02*
X14001D01*
X14021Y57230D02*
X14543D01*
X14173Y57195D02*
X14397D01*
X14476Y57417D02*
X14598D01*
X14533Y57441D02*
X14573D01*
X13912Y57275D02*
X14653D01*
X13911Y57276D02*
X14654D01*
X13918Y57272D02*
X13853Y57307D01*
X14707Y57306D02*
X14649Y57272D01*
X13873Y57326D02*
X14687D01*
X13902Y57356D02*
X14658D01*
X13931Y57385D02*
X14629D01*
X13853Y57307D02*
X13939Y57392D01*
X14621D02*
X14707Y57306D01*
X13952Y57254D02*
X13918Y57272D01*
X14649Y57272D02*
X14602Y57254D01*
X13939Y57392D02*
X13950Y57404D01*
X14156Y57397D02*
X14264Y57385D01*
X13950Y57404D02*
X13980Y57434D01*
X14051Y57428D02*
X14156Y57397D01*
X14055Y57219D02*
X13952Y57254D01*
X14602Y57254D02*
X14515Y57220D01*
X13980Y57434D02*
X13999Y57452D01*
X14051Y57428D01*
X14088Y57208D02*
X14055Y57219D01*
X14515Y57220D02*
X14459Y57208D01*
X14206Y57191D02*
X14088Y57208D01*
X14459Y57208D02*
X14374Y57191D01*
X14230Y57187D02*
X14206Y57191D01*
X14374Y57191D02*
X14230Y57187D01*
X14264Y57385D02*
X14373Y57391D01*
X14615Y57399D02*
X14621Y57392D01*
X14373Y57391D02*
X14479Y57417D01*
X14591Y57423D02*
X14615Y57399D01*
X14479Y57417D02*
X14561Y57453D01*
X14591Y57423D01*
G54D11*
X13574Y58458D02*
X13738Y58294D01*
X13710Y58234D01*
X13679Y58132D01*
X13667Y58026D01*
X13674Y57919D01*
X13699Y57815D01*
X13738Y57726D01*
X13574Y57562D01*
X13531Y57636D01*
X13477Y57772D01*
X13448Y57915D01*
X13444Y58061D01*
X13466Y58205D01*
X13512Y58343D01*
X13574Y58458D01*
G54D12*
X13457Y58061D02*
X13659D01*
X13467Y58129D02*
X13667D01*
X13458Y58025D02*
X13655D01*
X13461Y57921D02*
X13661D01*
X13461Y57913D02*
X13663D01*
X13480Y58208D02*
X13689D01*
X13487Y58229D02*
X13695D01*
X13480Y57819D02*
X13686D01*
X13509Y58297D02*
X13718D01*
X13492Y57768D02*
X13706D01*
X13510Y57723D02*
X13718D01*
X13529Y58348D02*
X13666D01*
X13548Y57630D02*
X13624D01*
X13458Y58026D02*
X13457Y58060D01*
X13659Y58064D02*
X13655Y58026D01*
X13461Y58087D02*
X13662D01*
X13464Y58104D02*
X13663D01*
X13457Y58060D02*
X13467Y58125D01*
X13667Y58134D02*
X13659Y58064D01*
X13460Y57946D02*
X13660D01*
X13459Y57973D02*
X13658D01*
X13459Y58000D02*
X13656D01*
X13461Y57922D02*
X13458Y58026D01*
X13655Y58026D02*
X13661Y57917D01*
X13461Y57916D02*
X13461Y57922D01*
X13661Y57917D02*
X13664Y57907D01*
X13475Y57845D02*
X13679D01*
X13467Y57888D02*
X13668D01*
X13480Y57824D02*
X13461Y57916D01*
X13664Y57907D02*
X13687Y57811D01*
X13471Y58155D02*
X13673D01*
X13475Y58183D02*
X13681D01*
X13467Y58125D02*
X13478Y58202D01*
X13691Y58215D02*
X13667Y58134D01*
X13478Y58202D02*
X13485Y58221D01*
X13698Y58239D02*
X13691Y58215D01*
X13486Y57793D02*
X13695D01*
X13486Y57794D02*
X13694D01*
X13490Y57775D02*
X13480Y57824D01*
X13687Y57811D02*
X13710Y57758D01*
X13496Y58255D02*
X13705D01*
X13501Y58271D02*
X13713D01*
X13485Y58221D02*
X13507Y58289D01*
X13722Y58291D02*
X13698Y58239D01*
X13501Y57746D02*
X13715D01*
X13506Y57733D02*
X13490Y57775D01*
X13710Y57758D02*
X13723Y57729D01*
X13537Y57656D02*
X13649D01*
X13520Y57698D02*
X13692D01*
X13542Y57641D02*
X13506Y57733D01*
X13723Y57729D02*
X13642Y57648D01*
X13518Y58322D02*
X13692D01*
X13519Y58323D02*
X13691D01*
X13507Y58289D02*
X13524Y58338D01*
X13683Y58330D02*
X13722Y58291D01*
X13543Y58374D02*
X13640D01*
X13564Y58414D02*
X13600D01*
X13524Y58338D02*
X13577Y58437D01*
X13683Y58330D01*
X13564Y57605D02*
X13599D01*
X13576Y57583D02*
X13542Y57641D01*
X13642Y57648D02*
X13576Y57583D01*
G54D11*
X12831Y55346D02*
X12975Y55324D01*
X13113Y55278D01*
X13228Y55216D01*
X13064Y55052D01*
X13004Y55080D01*
X12902Y55111D01*
X12796Y55123D01*
X12689Y55116D01*
X12585Y55091D01*
X12496Y55052D01*
X12332Y55216D01*
X12406Y55259D01*
X12542Y55313D01*
X12685Y55342D01*
X12831Y55346D01*
G54D12*
X12361Y55219D02*
X13196D01*
X12468Y55270D02*
X13097D01*
X12517Y55290D02*
X13039D01*
X12456Y55110D02*
X12611D01*
X12462Y55103D02*
X12584D01*
X12663Y55325D02*
X12887D01*
X12487Y55079D02*
X12527D01*
X12948Y55110D02*
X13104D01*
X12987Y55098D02*
X13092D01*
X13059Y55068D02*
X13063D01*
X12431Y55135D02*
X13129D01*
X12402Y55164D02*
X13158D01*
X12373Y55194D02*
X13187D01*
X12439Y55128D02*
X12353Y55214D01*
X13207Y55213D02*
X13121Y55128D01*
X12406Y55245D02*
X13149D01*
X12407Y55245D02*
X13148D01*
X12353Y55214D02*
X12411Y55248D01*
X13142Y55248D02*
X13207Y55213D01*
X12411Y55248D02*
X12458Y55266D01*
X13108Y55266D02*
X13142Y55248D01*
X12445Y55121D02*
X12439Y55128D01*
X12796Y55135D02*
X12687Y55129D01*
X12469Y55097D02*
X12445Y55121D01*
X12687Y55129D02*
X12581Y55103D01*
X12458Y55266D02*
X12545Y55300D01*
X13005Y55301D02*
X13108Y55266D01*
X12499Y55067D02*
X12469Y55097D01*
X12581Y55103D02*
X12499Y55067D01*
X12545Y55300D02*
X12601Y55312D01*
X12972Y55312D02*
X13005Y55301D01*
X12601Y55312D02*
X12686Y55329D01*
X12854Y55329D02*
X12972Y55312D01*
X12686Y55329D02*
X12830Y55333D01*
X12854Y55329D01*
X12904Y55123D02*
X12796Y55135D01*
X13121Y55128D02*
X13110Y55116D01*
X13009Y55092D02*
X12904Y55123D01*
X13110Y55116D02*
X13080Y55086D01*
X13061Y55068D02*
X13009Y55092D01*
X13080Y55086D02*
X13061Y55068D01*
G54D11*
X13486Y54958D02*
X13529Y54884D01*
X13583Y54748D01*
X13612Y54605D01*
X13616Y54459D01*
X13594Y54315D01*
X13548Y54177D01*
X13486Y54062D01*
X13322Y54226D01*
X13350Y54286D01*
X13381Y54388D01*
X13393Y54494D01*
X13386Y54601D01*
X13361Y54705D01*
X13322Y54794D01*
X13486Y54958D01*
G54D12*
X13342Y54223D02*
X13551D01*
X13365Y54291D02*
X13573D01*
X13342Y54797D02*
X13550D01*
X13436Y54890D02*
X13512D01*
X13354Y54752D02*
X13568D01*
X13371Y54312D02*
X13580D01*
X13393Y54391D02*
X13593D01*
X13374Y54701D02*
X13580D01*
X13394Y54172D02*
X13531D01*
X13401Y54459D02*
X13603D01*
X13397Y54607D02*
X13599D01*
X13399Y54599D02*
X13599D01*
X13405Y54495D02*
X13602D01*
X13369Y54197D02*
X13541D01*
X13368Y54198D02*
X13542D01*
X13377Y54190D02*
X13338Y54229D01*
X13553Y54231D02*
X13536Y54182D01*
X13347Y54249D02*
X13559D01*
X13355Y54265D02*
X13564D01*
X13338Y54229D02*
X13362Y54281D01*
X13575Y54299D02*
X13553Y54231D01*
X13345Y54774D02*
X13559D01*
X13350Y54762D02*
X13337Y54791D01*
X13554Y54787D02*
X13570Y54745D01*
X13368Y54822D02*
X13540D01*
X13411Y54864D02*
X13523D01*
X13337Y54791D02*
X13418Y54872D01*
X13518Y54879D02*
X13554Y54787D01*
X13366Y54726D02*
X13574D01*
X13365Y54727D02*
X13574D01*
X13373Y54709D02*
X13350Y54762D01*
X13570Y54745D02*
X13580Y54696D01*
X13362Y54281D02*
X13369Y54305D01*
X13582Y54318D02*
X13575Y54299D01*
X13379Y54337D02*
X13585D01*
X13387Y54365D02*
X13589D01*
X13369Y54305D02*
X13393Y54386D01*
X13593Y54395D02*
X13582Y54318D01*
X13392Y54632D02*
X13593D01*
X13381Y54675D02*
X13585D01*
X13396Y54613D02*
X13373Y54709D01*
X13580Y54696D02*
X13599Y54604D01*
X13460Y54106D02*
X13496D01*
X13420Y54146D02*
X13517D01*
X13483Y54083D02*
X13377Y54190D01*
X13536Y54182D02*
X13483Y54083D01*
X13397Y54416D02*
X13596D01*
X13398Y54433D02*
X13599D01*
X13393Y54386D02*
X13401Y54456D01*
X13603Y54460D02*
X13593Y54395D01*
X13399Y54603D02*
X13396Y54613D01*
X13599Y54604D02*
X13599Y54598D01*
X13404Y54520D02*
X13601D01*
X13402Y54547D02*
X13601D01*
X13400Y54574D02*
X13600D01*
X13405Y54494D02*
X13399Y54603D01*
X13599Y54598D02*
X13602Y54494D01*
X13401Y54456D02*
X13405Y54494D01*
X13602Y54494D02*
X13603Y54460D01*
X13461Y54915D02*
X13496D01*
X13418Y54872D02*
X13484Y54937D01*
X13518Y54879D01*
G54D11*
X13064Y53968D02*
X13228Y53804D01*
X13154Y53761D01*
X13018Y53707D01*
X12875Y53678D01*
X12729Y53674D01*
X12585Y53696D01*
X12447Y53742D01*
X12332Y53804D01*
X12496Y53968D01*
X12556Y53940D01*
X12658Y53909D01*
X12764Y53897D01*
X12871Y53904D01*
X12975Y53929D01*
X13064Y53968D01*
G54D12*
X12364Y53801D02*
X13199D01*
X12456Y53910D02*
X12612D01*
X12949D02*
X13104D01*
X12463Y53750D02*
X13092D01*
X12468Y53922D02*
X12573D01*
X12497Y53952D02*
X12501D01*
X12521Y53730D02*
X13043D01*
X12673Y53695D02*
X12897D01*
X12976Y53917D02*
X13098D01*
X13033Y53941D02*
X13073D01*
X12412Y53775D02*
X13153D01*
X12411Y53776D02*
X13154D01*
X12418Y53772D02*
X12353Y53807D01*
X13207Y53806D02*
X13149Y53772D01*
X12373Y53826D02*
X13187D01*
X12402Y53856D02*
X13158D01*
X12431Y53885D02*
X13129D01*
X12353Y53807D02*
X12439Y53892D01*
X13121D02*
X13207Y53806D01*
X12452Y53754D02*
X12418Y53772D01*
X13149Y53772D02*
X13102Y53754D01*
X12439Y53892D02*
X12450Y53904D01*
X12656Y53897D02*
X12764Y53885D01*
X12450Y53904D02*
X12480Y53934D01*
X12551Y53928D02*
X12656Y53897D01*
X12555Y53719D02*
X12452Y53754D01*
X13102Y53754D02*
X13015Y53720D01*
X12480Y53934D02*
X12499Y53952D01*
X12551Y53928D01*
X12588Y53708D02*
X12555Y53719D01*
X13015Y53720D02*
X12959Y53708D01*
X12706Y53691D02*
X12588Y53708D01*
X12959Y53708D02*
X12874Y53691D01*
X12730Y53687D02*
X12706Y53691D01*
X12874Y53691D02*
X12730Y53687D01*
X12764Y53885D02*
X12873Y53891D01*
X13115Y53899D02*
X13121Y53892D01*
X12873Y53891D02*
X12979Y53917D01*
X13091Y53923D02*
X13115Y53899D01*
X12979Y53917D02*
X13061Y53953D01*
X13091Y53923D01*
G54D11*
X12074Y54958D02*
X12238Y54794D01*
X12210Y54734D01*
X12179Y54632D01*
X12167Y54526D01*
X12174Y54419D01*
X12199Y54315D01*
X12238Y54226D01*
X12074Y54062D01*
X12031Y54136D01*
X11977Y54272D01*
X11948Y54415D01*
X11944Y54561D01*
X11966Y54705D01*
X12012Y54843D01*
X12074Y54958D01*
G54D12*
X11957Y54561D02*
X12159D01*
X11967Y54629D02*
X12167D01*
X11958Y54525D02*
X12155D01*
X11961Y54421D02*
X12161D01*
X11961Y54413D02*
X12163D01*
X11980Y54708D02*
X12189D01*
X11987Y54729D02*
X12195D01*
X11980Y54319D02*
X12186D01*
X12009Y54797D02*
X12218D01*
X11992Y54268D02*
X12206D01*
X12010Y54223D02*
X12218D01*
X12029Y54848D02*
X12166D01*
X12048Y54130D02*
X12124D01*
X11958Y54526D02*
X11957Y54560D01*
X12159Y54564D02*
X12155Y54526D01*
X11961Y54587D02*
X12162D01*
X11964Y54604D02*
X12163D01*
X11957Y54560D02*
X11967Y54625D01*
X12167Y54634D02*
X12159Y54564D01*
X11960Y54446D02*
X12160D01*
X11959Y54473D02*
X12158D01*
X11959Y54500D02*
X12156D01*
X11961Y54422D02*
X11958Y54526D01*
X12155Y54526D02*
X12161Y54417D01*
X11961Y54416D02*
X11961Y54422D01*
X12161Y54417D02*
X12164Y54407D01*
X11975Y54345D02*
X12179D01*
X11967Y54388D02*
X12168D01*
X11980Y54324D02*
X11961Y54416D01*
X12164Y54407D02*
X12187Y54311D01*
X11971Y54655D02*
X12173D01*
X11975Y54683D02*
X12181D01*
X11967Y54625D02*
X11978Y54702D01*
X12191Y54715D02*
X12167Y54634D01*
X11978Y54702D02*
X11985Y54721D01*
X12198Y54739D02*
X12191Y54715D01*
X11986Y54293D02*
X12195D01*
X11986Y54294D02*
X12194D01*
X11990Y54275D02*
X11980Y54324D01*
X12187Y54311D02*
X12210Y54258D01*
X11996Y54755D02*
X12205D01*
X12001Y54771D02*
X12213D01*
X11985Y54721D02*
X12007Y54789D01*
X12222Y54791D02*
X12198Y54739D01*
X12001Y54246D02*
X12215D01*
X12006Y54233D02*
X11990Y54275D01*
X12210Y54258D02*
X12223Y54229D01*
X12037Y54156D02*
X12149D01*
X12020Y54198D02*
X12192D01*
X12042Y54141D02*
X12006Y54233D01*
X12223Y54229D02*
X12142Y54148D01*
X12018Y54822D02*
X12192D01*
X12019Y54823D02*
X12191D01*
X12007Y54789D02*
X12024Y54838D01*
X12183Y54830D02*
X12222Y54791D01*
X12043Y54874D02*
X12140D01*
X12064Y54914D02*
X12100D01*
X12024Y54838D02*
X12077Y54937D01*
X12183Y54830D01*
X12064Y54105D02*
X12099D01*
X12076Y54083D02*
X12042Y54141D01*
X12142Y54148D02*
X12076Y54083D01*
G54D11*
X12831Y72746D02*
X12975Y72724D01*
X13113Y72678D01*
X13228Y72616D01*
X13064Y72452D01*
X13004Y72480D01*
X12902Y72511D01*
X12796Y72523D01*
X12689Y72516D01*
X12585Y72491D01*
X12496Y72452D01*
X12332Y72616D01*
X12406Y72659D01*
X12542Y72713D01*
X12685Y72742D01*
X12831Y72746D01*
G54D12*
X12361Y72619D02*
X13196D01*
X12468Y72670D02*
X13097D01*
X12517Y72690D02*
X13039D01*
X12456Y72510D02*
X12611D01*
X12462Y72503D02*
X12584D01*
X12663Y72725D02*
X12887D01*
X12487Y72479D02*
X12527D01*
X12948Y72510D02*
X13104D01*
X12987Y72498D02*
X13092D01*
X13059Y72468D02*
X13063D01*
X12431Y72535D02*
X13129D01*
X12402Y72564D02*
X13158D01*
X12373Y72594D02*
X13187D01*
X12439Y72528D02*
X12353Y72614D01*
X13207Y72613D02*
X13121Y72528D01*
X12406Y72645D02*
X13149D01*
X12407Y72645D02*
X13148D01*
X12353Y72614D02*
X12411Y72648D01*
X13142Y72648D02*
X13207Y72613D01*
X12411Y72648D02*
X12458Y72666D01*
X13108Y72666D02*
X13142Y72648D01*
X12445Y72521D02*
X12439Y72528D01*
X12796Y72535D02*
X12687Y72529D01*
X12469Y72497D02*
X12445Y72521D01*
X12687Y72529D02*
X12581Y72503D01*
X12458Y72666D02*
X12545Y72700D01*
X13005Y72701D02*
X13108Y72666D01*
X12499Y72467D02*
X12469Y72497D01*
X12581Y72503D02*
X12499Y72467D01*
X12545Y72700D02*
X12601Y72712D01*
X12972Y72712D02*
X13005Y72701D01*
X12601Y72712D02*
X12686Y72729D01*
X12854Y72729D02*
X12972Y72712D01*
X12686Y72729D02*
X12830Y72733D01*
X12854Y72729D01*
X12904Y72523D02*
X12796Y72535D01*
X13121Y72528D02*
X13110Y72516D01*
X13009Y72492D02*
X12904Y72523D01*
X13110Y72516D02*
X13080Y72486D01*
X13061Y72468D02*
X13009Y72492D01*
X13080Y72486D02*
X13061Y72468D01*
G54D11*
X13486Y72358D02*
X13529Y72284D01*
X13583Y72148D01*
X13612Y72005D01*
X13616Y71859D01*
X13594Y71715D01*
X13548Y71577D01*
X13486Y71462D01*
X13322Y71626D01*
X13350Y71686D01*
X13381Y71788D01*
X13393Y71894D01*
X13386Y72001D01*
X13361Y72105D01*
X13322Y72194D01*
X13486Y72358D01*
G54D12*
X13342Y71623D02*
X13551D01*
X13365Y71691D02*
X13573D01*
X13342Y72197D02*
X13550D01*
X13436Y72290D02*
X13512D01*
X13354Y72152D02*
X13568D01*
X13371Y71712D02*
X13580D01*
X13393Y71791D02*
X13593D01*
X13374Y72101D02*
X13580D01*
X13394Y71572D02*
X13531D01*
X13401Y71859D02*
X13603D01*
X13397Y72007D02*
X13599D01*
X13399Y71999D02*
X13599D01*
X13405Y71895D02*
X13602D01*
X13369Y71597D02*
X13541D01*
X13368Y71598D02*
X13542D01*
X13377Y71590D02*
X13338Y71629D01*
X13553Y71631D02*
X13536Y71582D01*
X13347Y71649D02*
X13559D01*
X13355Y71665D02*
X13564D01*
X13338Y71629D02*
X13362Y71681D01*
X13575Y71699D02*
X13553Y71631D01*
X13345Y72174D02*
X13559D01*
X13350Y72162D02*
X13337Y72191D01*
X13554Y72187D02*
X13570Y72145D01*
X13368Y72222D02*
X13540D01*
X13411Y72264D02*
X13523D01*
X13337Y72191D02*
X13418Y72272D01*
X13518Y72279D02*
X13554Y72187D01*
X13366Y72126D02*
X13574D01*
X13365Y72127D02*
X13574D01*
X13373Y72109D02*
X13350Y72162D01*
X13570Y72145D02*
X13580Y72096D01*
X13362Y71681D02*
X13369Y71705D01*
X13582Y71718D02*
X13575Y71699D01*
X13379Y71737D02*
X13585D01*
X13387Y71765D02*
X13589D01*
X13369Y71705D02*
X13393Y71786D01*
X13593Y71795D02*
X13582Y71718D01*
X13392Y72032D02*
X13593D01*
X13381Y72075D02*
X13585D01*
X13396Y72013D02*
X13373Y72109D01*
X13580Y72096D02*
X13599Y72004D01*
X13460Y71506D02*
X13496D01*
X13420Y71546D02*
X13517D01*
X13483Y71483D02*
X13377Y71590D01*
X13536Y71582D02*
X13483Y71483D01*
X13397Y71816D02*
X13596D01*
X13398Y71833D02*
X13599D01*
X13393Y71786D02*
X13401Y71856D01*
X13603Y71860D02*
X13593Y71795D01*
X13399Y72003D02*
X13396Y72013D01*
X13599Y72004D02*
X13599Y71998D01*
X13404Y71920D02*
X13601D01*
X13402Y71947D02*
X13601D01*
X13400Y71974D02*
X13600D01*
X13405Y71894D02*
X13399Y72003D01*
X13599Y71998D02*
X13602Y71894D01*
X13401Y71856D02*
X13405Y71894D01*
X13602Y71894D02*
X13603Y71860D01*
X13461Y72315D02*
X13496D01*
X13418Y72272D02*
X13484Y72337D01*
X13518Y72279D01*
G54D11*
X13064Y71368D02*
X13228Y71204D01*
X13154Y71161D01*
X13018Y71107D01*
X12875Y71078D01*
X12729Y71074D01*
X12585Y71096D01*
X12447Y71142D01*
X12332Y71204D01*
X12496Y71368D01*
X12556Y71340D01*
X12658Y71309D01*
X12764Y71297D01*
X12871Y71304D01*
X12975Y71329D01*
X13064Y71368D01*
G54D12*
X12364Y71201D02*
X13199D01*
X12456Y71310D02*
X12612D01*
X12949D02*
X13104D01*
X12463Y71150D02*
X13092D01*
X12468Y71322D02*
X12573D01*
X12497Y71352D02*
X12501D01*
X12521Y71130D02*
X13043D01*
X12673Y71095D02*
X12897D01*
X12976Y71317D02*
X13098D01*
X13033Y71341D02*
X13073D01*
X12412Y71175D02*
X13153D01*
X12411Y71176D02*
X13154D01*
X12418Y71172D02*
X12353Y71207D01*
X13207Y71206D02*
X13149Y71172D01*
X12373Y71226D02*
X13187D01*
X12402Y71256D02*
X13158D01*
X12431Y71285D02*
X13129D01*
X12353Y71207D02*
X12439Y71292D01*
X13121D02*
X13207Y71206D01*
X12452Y71154D02*
X12418Y71172D01*
X13149Y71172D02*
X13102Y71154D01*
X12439Y71292D02*
X12450Y71304D01*
X12656Y71297D02*
X12764Y71285D01*
X12450Y71304D02*
X12480Y71334D01*
X12551Y71328D02*
X12656Y71297D01*
X12555Y71119D02*
X12452Y71154D01*
X13102Y71154D02*
X13015Y71120D01*
X12480Y71334D02*
X12499Y71352D01*
X12551Y71328D01*
X12588Y71108D02*
X12555Y71119D01*
X13015Y71120D02*
X12959Y71108D01*
X12706Y71091D02*
X12588Y71108D01*
X12959Y71108D02*
X12874Y71091D01*
X12730Y71087D02*
X12706Y71091D01*
X12874Y71091D02*
X12730Y71087D01*
X12764Y71285D02*
X12873Y71291D01*
X13115Y71299D02*
X13121Y71292D01*
X12873Y71291D02*
X12979Y71317D01*
X13091Y71323D02*
X13115Y71299D01*
X12979Y71317D02*
X13061Y71353D01*
X13091Y71323D01*
G54D11*
X12074Y72358D02*
X12238Y72194D01*
X12210Y72134D01*
X12179Y72032D01*
X12167Y71926D01*
X12174Y71819D01*
X12199Y71715D01*
X12238Y71626D01*
X12074Y71462D01*
X12031Y71536D01*
X11977Y71672D01*
X11948Y71815D01*
X11944Y71961D01*
X11966Y72105D01*
X12012Y72243D01*
X12074Y72358D01*
G54D12*
X11957Y71961D02*
X12159D01*
X11967Y72029D02*
X12167D01*
X11958Y71925D02*
X12155D01*
X11961Y71821D02*
X12161D01*
X11961Y71813D02*
X12163D01*
X11980Y72108D02*
X12189D01*
X11987Y72129D02*
X12195D01*
X11980Y71719D02*
X12186D01*
X12009Y72197D02*
X12218D01*
X11992Y71668D02*
X12206D01*
X12010Y71623D02*
X12218D01*
X12029Y72248D02*
X12166D01*
X12048Y71530D02*
X12124D01*
X11958Y71926D02*
X11957Y71960D01*
X12159Y71964D02*
X12155Y71926D01*
X11961Y71987D02*
X12162D01*
X11964Y72004D02*
X12163D01*
X11957Y71960D02*
X11967Y72025D01*
X12167Y72034D02*
X12159Y71964D01*
X11960Y71846D02*
X12160D01*
X11959Y71873D02*
X12158D01*
X11959Y71900D02*
X12156D01*
X11961Y71822D02*
X11958Y71926D01*
X12155Y71926D02*
X12161Y71817D01*
X11961Y71816D02*
X11961Y71822D01*
X12161Y71817D02*
X12164Y71807D01*
X11975Y71745D02*
X12179D01*
X11967Y71788D02*
X12168D01*
X11980Y71724D02*
X11961Y71816D01*
X12164Y71807D02*
X12187Y71711D01*
X11971Y72055D02*
X12173D01*
X11975Y72083D02*
X12181D01*
X11967Y72025D02*
X11978Y72102D01*
X12191Y72115D02*
X12167Y72034D01*
X11978Y72102D02*
X11985Y72121D01*
X12198Y72139D02*
X12191Y72115D01*
X11986Y71693D02*
X12195D01*
X11986Y71694D02*
X12194D01*
X11990Y71675D02*
X11980Y71724D01*
X12187Y71711D02*
X12210Y71658D01*
X11996Y72155D02*
X12205D01*
X12001Y72171D02*
X12213D01*
X11985Y72121D02*
X12007Y72189D01*
X12222Y72191D02*
X12198Y72139D01*
X12001Y71646D02*
X12215D01*
X12006Y71633D02*
X11990Y71675D01*
X12210Y71658D02*
X12223Y71629D01*
X12037Y71556D02*
X12149D01*
X12020Y71598D02*
X12192D01*
X12042Y71541D02*
X12006Y71633D01*
X12223Y71629D02*
X12142Y71548D01*
X12018Y72222D02*
X12192D01*
X12019Y72223D02*
X12191D01*
X12007Y72189D02*
X12024Y72238D01*
X12183Y72230D02*
X12222Y72191D01*
X12043Y72274D02*
X12140D01*
X12064Y72314D02*
X12100D01*
X12024Y72238D02*
X12077Y72337D01*
X12183Y72230D01*
X12064Y71505D02*
X12099D01*
X12076Y71483D02*
X12042Y71541D01*
X12142Y71548D02*
X12076Y71483D01*
G54D11*
X14331Y76246D02*
X14475Y76224D01*
X14613Y76178D01*
X14728Y76116D01*
X14564Y75952D01*
X14504Y75980D01*
X14402Y76011D01*
X14296Y76023D01*
X14189Y76016D01*
X14085Y75991D01*
X13996Y75952D01*
X13832Y76116D01*
X13906Y76159D01*
X14042Y76213D01*
X14185Y76242D01*
X14331Y76246D01*
G54D12*
X13861Y76119D02*
X14696D01*
X13968Y76170D02*
X14597D01*
X14017Y76190D02*
X14539D01*
X13956Y76010D02*
X14111D01*
X13962Y76003D02*
X14084D01*
X14163Y76225D02*
X14387D01*
X13987Y75979D02*
X14027D01*
X14448Y76010D02*
X14604D01*
X14487Y75998D02*
X14592D01*
X14559Y75968D02*
X14563D01*
X13931Y76035D02*
X14629D01*
X13902Y76064D02*
X14658D01*
X13873Y76094D02*
X14687D01*
X13939Y76028D02*
X13853Y76114D01*
X14707Y76113D02*
X14621Y76028D01*
X13906Y76145D02*
X14649D01*
X13907Y76145D02*
X14648D01*
X13853Y76114D02*
X13911Y76148D01*
X14642Y76148D02*
X14707Y76113D01*
X13911Y76148D02*
X13958Y76166D01*
X14608Y76166D02*
X14642Y76148D01*
X13945Y76021D02*
X13939Y76028D01*
X14296Y76035D02*
X14187Y76029D01*
X13969Y75997D02*
X13945Y76021D01*
X14187Y76029D02*
X14081Y76003D01*
X13958Y76166D02*
X14045Y76200D01*
X14505Y76201D02*
X14608Y76166D01*
X13999Y75967D02*
X13969Y75997D01*
X14081Y76003D02*
X13999Y75967D01*
X14045Y76200D02*
X14101Y76212D01*
X14472Y76212D02*
X14505Y76201D01*
X14101Y76212D02*
X14186Y76229D01*
X14354Y76229D02*
X14472Y76212D01*
X14186Y76229D02*
X14330Y76233D01*
X14354Y76229D01*
X14404Y76023D02*
X14296Y76035D01*
X14621Y76028D02*
X14610Y76016D01*
X14509Y75992D02*
X14404Y76023D01*
X14610Y76016D02*
X14580Y75986D01*
X14561Y75968D02*
X14509Y75992D01*
X14580Y75986D02*
X14561Y75968D01*
G54D11*
X14986Y75858D02*
X15029Y75784D01*
X15083Y75648D01*
X15112Y75505D01*
X15116Y75359D01*
X15094Y75215D01*
X15048Y75077D01*
X14986Y74962D01*
X14822Y75126D01*
X14850Y75186D01*
X14881Y75288D01*
X14893Y75394D01*
X14886Y75501D01*
X14861Y75605D01*
X14822Y75694D01*
X14986Y75858D01*
G54D12*
X14842Y75123D02*
X15051D01*
X14865Y75191D02*
X15073D01*
X14842Y75697D02*
X15050D01*
X14936Y75790D02*
X15012D01*
X14854Y75652D02*
X15068D01*
X14871Y75212D02*
X15080D01*
X14893Y75291D02*
X15093D01*
X14874Y75601D02*
X15080D01*
X14894Y75072D02*
X15031D01*
X14901Y75359D02*
X15103D01*
X14897Y75507D02*
X15099D01*
X14899Y75499D02*
X15099D01*
X14905Y75395D02*
X15102D01*
X14869Y75097D02*
X15041D01*
X14868Y75098D02*
X15042D01*
X14877Y75090D02*
X14838Y75129D01*
X15053Y75131D02*
X15036Y75082D01*
X14847Y75149D02*
X15059D01*
X14855Y75165D02*
X15064D01*
X14838Y75129D02*
X14862Y75181D01*
X15075Y75199D02*
X15053Y75131D01*
X14845Y75674D02*
X15059D01*
X14850Y75662D02*
X14837Y75691D01*
X15054Y75687D02*
X15070Y75645D01*
X14868Y75722D02*
X15040D01*
X14911Y75764D02*
X15023D01*
X14837Y75691D02*
X14918Y75772D01*
X15018Y75779D02*
X15054Y75687D01*
X14866Y75626D02*
X15074D01*
X14865Y75627D02*
X15074D01*
X14873Y75609D02*
X14850Y75662D01*
X15070Y75645D02*
X15080Y75596D01*
X14862Y75181D02*
X14869Y75205D01*
X15082Y75218D02*
X15075Y75199D01*
X14879Y75237D02*
X15085D01*
X14887Y75265D02*
X15089D01*
X14869Y75205D02*
X14893Y75286D01*
X15093Y75295D02*
X15082Y75218D01*
X14892Y75532D02*
X15093D01*
X14881Y75575D02*
X15085D01*
X14896Y75513D02*
X14873Y75609D01*
X15080Y75596D02*
X15099Y75504D01*
X14960Y75006D02*
X14996D01*
X14920Y75046D02*
X15017D01*
X14983Y74983D02*
X14877Y75090D01*
X15036Y75082D02*
X14983Y74983D01*
X14897Y75316D02*
X15096D01*
X14898Y75333D02*
X15099D01*
X14893Y75286D02*
X14901Y75356D01*
X15103Y75360D02*
X15093Y75295D01*
X14899Y75503D02*
X14896Y75513D01*
X15099Y75504D02*
X15099Y75498D01*
X14904Y75420D02*
X15101D01*
X14902Y75447D02*
X15101D01*
X14900Y75474D02*
X15100D01*
X14905Y75394D02*
X14899Y75503D01*
X15099Y75498D02*
X15102Y75394D01*
X14901Y75356D02*
X14905Y75394D01*
X15102Y75394D02*
X15103Y75360D01*
X14961Y75815D02*
X14996D01*
X14918Y75772D02*
X14984Y75837D01*
X15018Y75779D01*
G54D11*
X14564Y74868D02*
X14728Y74704D01*
X14654Y74661D01*
X14518Y74607D01*
X14375Y74578D01*
X14229Y74574D01*
X14085Y74596D01*
X13947Y74642D01*
X13832Y74704D01*
X13996Y74868D01*
X14056Y74840D01*
X14158Y74809D01*
X14264Y74797D01*
X14371Y74804D01*
X14475Y74829D01*
X14564Y74868D01*
G54D12*
X13864Y74701D02*
X14699D01*
X13956Y74810D02*
X14112D01*
X14449D02*
X14604D01*
X13963Y74650D02*
X14592D01*
X13968Y74822D02*
X14073D01*
X13997Y74852D02*
X14001D01*
X14021Y74630D02*
X14543D01*
X14173Y74595D02*
X14397D01*
X14476Y74817D02*
X14598D01*
X14533Y74841D02*
X14573D01*
X13912Y74675D02*
X14653D01*
X13911Y74676D02*
X14654D01*
X13918Y74672D02*
X13853Y74707D01*
X14707Y74706D02*
X14649Y74672D01*
X13873Y74726D02*
X14687D01*
X13902Y74756D02*
X14658D01*
X13931Y74785D02*
X14629D01*
X13853Y74707D02*
X13939Y74792D01*
X14621D02*
X14707Y74706D01*
X13952Y74654D02*
X13918Y74672D01*
X14649Y74672D02*
X14602Y74654D01*
X13939Y74792D02*
X13950Y74804D01*
X14156Y74797D02*
X14264Y74785D01*
X13950Y74804D02*
X13980Y74834D01*
X14051Y74828D02*
X14156Y74797D01*
X14055Y74619D02*
X13952Y74654D01*
X14602Y74654D02*
X14515Y74620D01*
X13980Y74834D02*
X13999Y74852D01*
X14051Y74828D01*
X14088Y74608D02*
X14055Y74619D01*
X14515Y74620D02*
X14459Y74608D01*
X14206Y74591D02*
X14088Y74608D01*
X14459Y74608D02*
X14374Y74591D01*
X14230Y74587D02*
X14206Y74591D01*
X14374Y74591D02*
X14230Y74587D01*
X14264Y74785D02*
X14373Y74791D01*
X14615Y74799D02*
X14621Y74792D01*
X14373Y74791D02*
X14479Y74817D01*
X14591Y74823D02*
X14615Y74799D01*
X14479Y74817D02*
X14561Y74853D01*
X14591Y74823D01*
G54D11*
X13574Y75858D02*
X13738Y75694D01*
X13710Y75634D01*
X13679Y75532D01*
X13667Y75426D01*
X13674Y75319D01*
X13699Y75215D01*
X13738Y75126D01*
X13574Y74962D01*
X13531Y75036D01*
X13477Y75172D01*
X13448Y75315D01*
X13444Y75461D01*
X13466Y75605D01*
X13512Y75743D01*
X13574Y75858D01*
G54D12*
X13457Y75461D02*
X13659D01*
X13467Y75529D02*
X13667D01*
X13458Y75425D02*
X13655D01*
X13461Y75321D02*
X13661D01*
X13461Y75313D02*
X13663D01*
X13480Y75608D02*
X13689D01*
X13487Y75629D02*
X13695D01*
X13480Y75219D02*
X13686D01*
X13509Y75697D02*
X13718D01*
X13492Y75168D02*
X13706D01*
X13510Y75123D02*
X13718D01*
X13529Y75748D02*
X13666D01*
X13548Y75030D02*
X13624D01*
X13458Y75426D02*
X13457Y75460D01*
X13659Y75464D02*
X13655Y75426D01*
X13461Y75487D02*
X13662D01*
X13464Y75504D02*
X13663D01*
X13457Y75460D02*
X13467Y75525D01*
X13667Y75534D02*
X13659Y75464D01*
X13460Y75346D02*
X13660D01*
X13459Y75373D02*
X13658D01*
X13459Y75400D02*
X13656D01*
X13461Y75322D02*
X13458Y75426D01*
X13655Y75426D02*
X13661Y75317D01*
X13461Y75316D02*
X13461Y75322D01*
X13661Y75317D02*
X13664Y75307D01*
X13475Y75245D02*
X13679D01*
X13467Y75288D02*
X13668D01*
X13480Y75224D02*
X13461Y75316D01*
X13664Y75307D02*
X13687Y75211D01*
X13471Y75555D02*
X13673D01*
X13475Y75583D02*
X13681D01*
X13467Y75525D02*
X13478Y75602D01*
X13691Y75615D02*
X13667Y75534D01*
X13478Y75602D02*
X13485Y75621D01*
X13698Y75639D02*
X13691Y75615D01*
X13486Y75193D02*
X13695D01*
X13486Y75194D02*
X13694D01*
X13490Y75175D02*
X13480Y75224D01*
X13687Y75211D02*
X13710Y75158D01*
X13496Y75655D02*
X13705D01*
X13501Y75671D02*
X13713D01*
X13485Y75621D02*
X13507Y75689D01*
X13722Y75691D02*
X13698Y75639D01*
X13501Y75146D02*
X13715D01*
X13506Y75133D02*
X13490Y75175D01*
X13710Y75158D02*
X13723Y75129D01*
X13537Y75056D02*
X13649D01*
X13520Y75098D02*
X13692D01*
X13542Y75041D02*
X13506Y75133D01*
X13723Y75129D02*
X13642Y75048D01*
X13518Y75722D02*
X13692D01*
X13519Y75723D02*
X13691D01*
X13507Y75689D02*
X13524Y75738D01*
X13683Y75730D02*
X13722Y75691D01*
X13543Y75774D02*
X13640D01*
X13564Y75814D02*
X13600D01*
X13524Y75738D02*
X13577Y75837D01*
X13683Y75730D01*
X13564Y75005D02*
X13599D01*
X13576Y74983D02*
X13542Y75041D01*
X13642Y75048D02*
X13576Y74983D01*
G54D24*
X82340Y76880D03*
Y81960D03*
Y87040D03*
Y92120D03*
G54D25*
X4900Y8940D03*
Y88940D03*
G54D26*
X10000Y94500D03*
X9000D03*
X8000D03*
Y102500D03*
X10000D03*
X9000D03*
X17650Y19960D03*
Y37360D03*
Y54760D03*
Y72160D03*
X13750Y92250D03*
X15250D03*
X20750Y16660D03*
X20850Y19960D03*
X20750Y34060D03*
X20850Y37360D03*
X20750Y51460D03*
X20850Y54760D03*
Y72160D03*
X20750Y68860D03*
X20300Y86100D03*
X22300D03*
X21300D03*
X22500Y94500D03*
X21500D03*
X20500D03*
X18400Y101700D03*
X20500Y102500D03*
X21500D03*
X22500D03*
X30450Y30550D03*
Y32450D03*
Y31500D03*
Y47950D03*
Y49850D03*
Y48900D03*
Y65350D03*
Y66300D03*
Y67250D03*
X26250Y92250D03*
X27750D03*
X30900Y101700D03*
X37250Y15750D03*
X36250Y16750D03*
X37250D03*
X36250Y15750D03*
X37250Y17750D03*
Y18750D03*
X36250D03*
Y17750D03*
X38750Y92250D03*
X35000Y94500D03*
X33000D03*
X34000D03*
X33000Y102500D03*
X34000D03*
X35000D03*
X46650Y7100D03*
Y8100D03*
Y9100D03*
Y10100D03*
X44750Y23500D03*
Y22500D03*
X46000D03*
Y23500D03*
X44750Y21500D03*
X46000D03*
Y40100D03*
X46800Y52800D03*
X41600Y79600D03*
X43200D03*
X41600Y81200D03*
X43200D03*
X45500Y88300D03*
X40250Y92250D03*
X46500Y94500D03*
X45500D03*
Y89900D03*
X43400Y101700D03*
X46500Y102500D03*
X45500D03*
X47650Y7100D03*
Y8100D03*
Y9100D03*
X49900Y16650D03*
X47650Y10100D03*
X53000Y9750D03*
X51875Y10750D03*
X53000D03*
X50750Y11875D03*
X51875D03*
X49625Y13000D03*
X50750D03*
X49625Y14125D03*
X47950Y42100D03*
X52200Y39200D03*
X51000Y38900D03*
X47800Y45500D03*
X54000Y39600D03*
X49100Y38950D03*
X48000Y43800D03*
X47600Y47200D03*
X50600Y51650D03*
X47600Y48900D03*
X47200Y50700D03*
X52300Y51600D03*
X54000Y51850D03*
X49000Y75700D03*
X51000D03*
X49000Y77500D03*
X51000D03*
X47100Y88300D03*
X51250Y92250D03*
X52750D03*
X47500Y94500D03*
X47100Y89900D03*
X47500Y102500D03*
X59380Y14500D03*
X60380D03*
X56250Y21150D03*
Y20150D03*
X57300Y40100D03*
X60400Y38600D03*
X60700Y45400D03*
X55700Y39900D03*
X60800Y47200D03*
X55700Y51750D03*
X57400D03*
X60100Y58550D03*
Y59850D03*
X59000Y93500D03*
X55900Y101700D03*
X61000Y102500D03*
X60000D03*
X58000Y97800D03*
X61000Y106500D03*
Y105500D03*
Y104500D03*
Y103500D03*
X60000Y106500D03*
Y105500D03*
Y104500D03*
Y103500D03*
X68000Y26300D03*
X64300Y29500D03*
X62100Y27000D03*
X62000Y35800D03*
X64500Y39300D03*
X61850Y44300D03*
X61500Y52000D03*
Y53100D03*
X61900Y87400D03*
X62000Y102500D03*
X63000D03*
X62000Y103500D03*
X63000D03*
X69500Y26300D03*
X75500Y28875D03*
Y30125D03*
Y35000D03*
Y36500D03*
X73900Y32600D03*
X72300Y64600D03*
Y60500D03*
X73500D03*
X72300Y61900D03*
X73500D03*
X72300Y63300D03*
X73500D03*
Y64600D03*
X68500Y84700D03*
X71800Y89500D03*
X70000Y106000D03*
X82000Y16200D03*
X76625Y30125D03*
X77750D03*
X78875D03*
Y28875D03*
X77750D03*
X76625D03*
X78500Y35000D03*
X80000D03*
X81500D03*
X78500Y36500D03*
X80000D03*
X81500D03*
X77000Y35000D03*
Y36500D03*
X80000Y43500D03*
X77000Y51000D03*
X80200Y50600D03*
X79500Y53400D03*
X81700D03*
X82500Y68000D03*
Y69000D03*
X80500Y68000D03*
X81500D03*
X80500Y69000D03*
X81500D03*
X80500Y70000D03*
X81500D03*
X82500D03*
X83000Y16200D03*
Y35000D03*
Y36500D03*
X87100Y32300D03*
X87400Y52800D03*
X85500Y55500D03*
X91000Y32300D03*
X94500Y65250D03*
X93250D03*
X92000D03*
X94500Y64250D03*
X93250D03*
X92000D03*
X90750Y65250D03*
Y64250D03*
G54D22*
X14280Y21210D03*
Y19210D03*
X12780Y22210D03*
Y24210D03*
X14280Y27210D03*
Y25210D03*
X12780Y26710D03*
X14280Y36610D03*
Y44610D03*
Y42610D03*
Y38610D03*
X12780Y39610D03*
Y41610D03*
Y44110D03*
X14280Y60010D03*
Y56010D03*
Y54010D03*
X12780Y57010D03*
Y59010D03*
X14280Y62010D03*
X12780Y61510D03*
X14280Y73410D03*
Y71410D03*
X12780Y74410D03*
X14280Y79410D03*
Y77410D03*
X12780Y76410D03*
Y78910D03*
G54D27*
X46500Y28800D03*
X46400Y32500D03*
X47000Y77000D03*
X42000Y83000D03*
X51250Y15500D03*
X51000Y80000D03*
X58000Y33000D03*
X59750Y77750D03*
X72500Y73500D03*
Y81500D03*
G54D28*
X5330Y31600D03*
X7870D03*
X5330Y49000D03*
X7870D03*
X5330Y66400D03*
X7870D03*
X5330Y83800D03*
X7870D03*
G54D29*
X84880Y74330D03*
Y94670D03*
G54D30*
X10780Y16640D03*
Y29780D03*
Y34040D03*
Y47180D03*
Y51440D03*
Y64580D03*
Y68840D03*
Y81980D03*
G54D31*
X92500Y79420D03*
Y89580D03*
%LPC*%
G75*
X92500Y89580D02*
G54D32*
X54000Y45500D03*
X51800Y43300D03*
Y45500D03*
X54000Y43300D03*
X51800Y47700D03*
X54000D03*
X56200Y43300D03*
Y45500D03*
Y47700D03*
G54D33*
X1900Y8940D03*
X1500Y6000D03*
X2779Y6819D03*
X1500Y15000D03*
X2779Y11061D03*
X1500Y12000D03*
X2000Y23300D03*
Y18300D03*
Y20800D03*
Y25800D03*
Y28300D03*
Y38200D03*
Y35700D03*
Y40700D03*
Y43200D03*
Y45700D03*
Y53100D03*
Y55600D03*
Y58100D03*
Y60600D03*
Y63100D03*
Y70500D03*
Y73000D03*
Y78000D03*
Y80500D03*
Y75500D03*
X1500Y85500D03*
X2779Y86819D03*
Y91061D03*
X1500Y92000D03*
Y95000D03*
X1900Y88940D03*
X1500Y100000D03*
Y102500D03*
Y97500D03*
Y107000D03*
Y109000D03*
Y105000D03*
X10000Y9000D03*
X7900Y8940D03*
X4900Y5940D03*
X8500Y6000D03*
X7021Y6819D03*
X5000Y15000D03*
X8500D03*
X7021Y11061D03*
X4900Y11940D03*
X8500Y12000D03*
X8250Y22710D03*
X10000Y19160D03*
X7900Y30200D03*
X8750Y26660D03*
X10000Y36560D03*
X8750Y44060D03*
X8250Y40110D03*
X7900Y47600D03*
X10000Y53960D03*
X8250Y57510D03*
X8750Y61460D03*
X7900Y65000D03*
X10000Y71360D03*
X8750Y78860D03*
X8250Y74910D03*
X10000Y86500D03*
X9200Y85100D03*
X4900Y85940D03*
X7021Y86819D03*
X9000Y92500D03*
X7021Y91061D03*
X4900Y91940D03*
X10000Y90000D03*
X7900Y88940D03*
X4750Y109000D03*
X7500D03*
Y105000D03*
X13500Y6000D03*
X17800Y15150D03*
X13300Y15550D03*
X14800D03*
X12000Y10000D03*
X13500Y12000D03*
X16000Y23160D03*
X15050Y17900D03*
X15900Y18650D03*
X11250Y21160D03*
Y22160D03*
X16000Y21660D03*
X18000Y26050D03*
X11250Y24510D03*
X16000Y24660D03*
X11250Y25660D03*
X16000Y27400D03*
X17500Y32250D03*
X15050Y35300D03*
X15900Y36050D03*
X18000Y43450D03*
X11250Y38560D03*
Y39560D03*
X16000Y39060D03*
Y40560D03*
X11250Y41910D03*
X16000Y42060D03*
X11250Y43060D03*
X16000Y44800D03*
X15050Y52700D03*
X17800Y49950D03*
X15900Y53450D03*
X11250Y56960D03*
Y55960D03*
X16000Y56460D03*
Y57960D03*
X11250Y59400D03*
X16000Y59460D03*
X18000Y60850D03*
X17500Y67000D03*
X11250Y60460D03*
X16000Y62200D03*
X13400Y67000D03*
X15400D03*
X15050Y70110D03*
X15900Y70860D03*
X11250Y74360D03*
Y73360D03*
X16000Y73860D03*
X18000Y78260D03*
X11250Y76850D03*
X16000Y76860D03*
X11250Y77860D03*
X16000Y79610D03*
Y75360D03*
X16500Y84500D03*
X17500Y86500D03*
X16300Y82000D03*
X13650Y82050D03*
X11500Y94400D03*
X17500Y90000D03*
X15400Y98500D03*
X16500Y96500D03*
X18000Y109000D03*
X11000Y106500D03*
X14400D03*
X11000Y109000D03*
X14200D03*
X20000Y15100D03*
X23000Y15150D03*
X19700Y22500D03*
X21500Y22650D03*
X23000D03*
Y17750D03*
Y20150D03*
X18400Y22050D03*
Y24150D03*
X23000Y37550D03*
X20000Y32500D03*
X22000Y32900D03*
X23000Y35150D03*
X18400Y39450D03*
X19700Y39900D03*
X21500Y40050D03*
X23000D03*
X18400Y41550D03*
X20000Y49900D03*
X22000Y50400D03*
X23000Y52550D03*
Y54950D03*
X18400Y56850D03*
X19700Y57300D03*
X21500Y57450D03*
X18400Y58950D03*
X23000Y69950D03*
Y72360D03*
X18400Y74260D03*
X20000Y67300D03*
X22000Y67700D03*
X18400Y76360D03*
X19700Y74700D03*
X21500Y74860D03*
X23000D03*
X24000Y94400D03*
X21500Y92500D03*
X18500Y95000D03*
X23600Y89100D03*
X18400Y106500D03*
X21600Y109000D03*
X22500Y105000D03*
X26000Y15150D03*
X29000Y15550D03*
X30450Y15600D03*
X32000Y14500D03*
X32250Y23700D03*
X26500Y22650D03*
X27850Y22600D03*
X29300Y24000D03*
X31900Y20200D03*
X26000Y17800D03*
X29500D03*
X26500Y20150D03*
X28650Y20200D03*
X30600Y22100D03*
X32500Y27200D03*
X30200Y26300D03*
X26500Y37550D03*
X28600D03*
X32000Y34450D03*
X30900Y33400D03*
X26000Y35150D03*
X29500Y35250D03*
X31200Y36800D03*
X32000Y40850D03*
X30400Y39300D03*
X26500Y40050D03*
X27950D03*
X30000Y42050D03*
X30200Y43700D03*
X31750Y50350D03*
X32000Y51900D03*
X26000Y52550D03*
X29000D03*
X31950Y55000D03*
X31850Y58150D03*
X26500Y54950D03*
X28650Y55050D03*
X26500Y57450D03*
X27950D03*
X28900Y58400D03*
X30200Y61100D03*
X32000Y69900D03*
Y72400D03*
X26000Y69950D03*
X29000D03*
X26500Y72360D03*
X29000D03*
X32000Y67500D03*
Y81000D03*
Y74900D03*
X26500Y74860D03*
X28500D03*
X32000Y85800D03*
X27000Y85700D03*
X32000Y92000D03*
X28700Y91200D03*
X31400Y95600D03*
X32000Y89400D03*
X27300Y89500D03*
X26300Y96500D03*
X30900Y106500D03*
X27000Y109000D03*
X30600D03*
X34100Y16500D03*
X35500Y14500D03*
X37050Y22200D03*
X34200Y22500D03*
X38700Y22700D03*
X32900Y18050D03*
X34950Y20050D03*
X37100Y20100D03*
X38250Y21000D03*
X39250Y24350D03*
X36400Y24700D03*
X34400Y25850D03*
X38600Y26800D03*
X36400Y27800D03*
X34900Y29500D03*
X38250Y29700D03*
X38000Y37550D03*
X36750Y31400D03*
X38050Y32850D03*
X33100Y35700D03*
X38000Y35200D03*
X34500Y37000D03*
X39400Y41800D03*
X32900Y38600D03*
X34500Y40150D03*
X38000Y40100D03*
X33300Y42200D03*
X34500Y43400D03*
X37800Y43500D03*
X32600Y44700D03*
X34500Y46550D03*
X37800Y46700D03*
Y49900D03*
X38900Y50900D03*
X35000Y52500D03*
X38000D03*
X33500Y53400D03*
X35000Y54950D03*
X38000Y55350D03*
X34450Y57500D03*
X38000Y57550D03*
X33400Y59700D03*
X34900D03*
X38000Y59750D03*
X34900Y61900D03*
X38000Y61950D03*
X37750Y63150D03*
X34900Y65600D03*
X38000Y66150D03*
X35000Y69200D03*
X38000Y69450D03*
X34900Y72300D03*
X38500Y72250D03*
X39500Y80000D03*
X37800Y76200D03*
X34800Y74900D03*
X39500Y83500D03*
Y87000D03*
X35700Y87300D03*
X34000Y92500D03*
X36500Y94400D03*
Y90000D03*
X38500Y90500D03*
X36500Y98500D03*
X34000Y106500D03*
X33100Y109000D03*
X37200D03*
X37500Y105000D03*
X40200Y14300D03*
X44900Y14100D03*
X40100Y23300D03*
X39900Y19900D03*
X41600D03*
X42900Y19400D03*
X44600Y19800D03*
X45700D03*
X44800Y29850D03*
X42550Y30850D03*
X42500Y24800D03*
X44100Y24500D03*
X46500Y25400D03*
X41350Y26450D03*
X45600Y27000D03*
X42950Y28050D03*
X40500Y28800D03*
X40350Y37550D03*
Y31850D03*
X42600Y33000D03*
X44850Y32850D03*
X40350Y35200D03*
X42550D03*
X44850Y35250D03*
X46000Y35400D03*
X44550Y45500D03*
X43000D03*
X42600Y39650D03*
X44850Y38650D03*
X40350Y40050D03*
X44550Y42100D03*
X41050Y43550D03*
X44650Y43800D03*
X44350Y47200D03*
X41550D03*
X44350Y48900D03*
X40050D03*
X42750Y50700D03*
X42500Y52500D03*
X46800Y54600D03*
X40000Y55350D03*
X43750D03*
X40000Y57550D03*
X43750D03*
X46150D03*
X40050Y59750D03*
X43750D03*
X40050Y61950D03*
X43750D03*
X40050Y64200D03*
X43750Y64150D03*
X41000Y66550D03*
X43750Y66350D03*
Y68550D03*
X41000Y69750D03*
X42500Y71500D03*
X43000Y77000D03*
X45000Y75000D03*
X46000Y83300D03*
X42500Y85000D03*
X43500Y92500D03*
X46500D03*
X42500Y90000D03*
X44000D03*
X43500Y97000D03*
X43400Y106500D03*
X41250Y109000D03*
X45000D03*
Y105000D03*
X51000Y7250D03*
X49000Y9000D03*
X51000D03*
X49000Y7250D03*
Y10750D03*
X52300Y19300D03*
X52700Y23400D03*
X51300Y23900D03*
X48700Y17300D03*
X50100Y18400D03*
Y19800D03*
X48900Y21900D03*
X51300Y21800D03*
X48400Y25400D03*
X48900Y27000D03*
X51350D03*
X53750D03*
X48900Y29750D03*
X51350D03*
X53750D03*
X48900Y32000D03*
X51350D03*
X53750D03*
X49100Y34650D03*
X51000Y34500D03*
X53750Y33700D03*
X52300Y35550D03*
X54000Y36550D03*
X47250Y40250D03*
X49750Y49750D03*
X50600Y55050D03*
Y56300D03*
X49450Y57450D03*
X52300Y55050D03*
Y57700D03*
X50450Y59600D03*
X54000Y59200D03*
Y55150D03*
Y57100D03*
X47000Y59750D03*
X52750Y60450D03*
X47250Y61900D03*
X51300D03*
X54050Y62350D03*
X47250Y64150D03*
X49450D03*
X52350Y64050D03*
X47250Y66350D03*
X50400D03*
X53350Y66250D03*
X47250Y68500D03*
X50400D03*
X54000D03*
X50500Y71000D03*
X52900Y81050D03*
X52500Y75000D03*
X52400Y83900D03*
X53900D03*
X52750Y86500D03*
X48000Y82400D03*
X49000Y94400D03*
X51750Y88750D03*
X48500Y90000D03*
X53500D03*
Y96500D03*
X49200Y106600D03*
X52500Y106500D03*
X49000Y109000D03*
X52500D03*
X59030Y7250D03*
Y8550D03*
X55800Y14900D03*
Y16650D03*
X57600Y10000D03*
X56400Y11200D03*
X59900Y10800D03*
X58500Y12500D03*
X55800Y13300D03*
X60950Y13450D03*
X58100Y14500D03*
X55700Y22300D03*
X59600Y23300D03*
X58100Y16950D03*
X56000Y18100D03*
X54700Y19300D03*
X57150Y19250D03*
X57300Y21850D03*
X54200Y21900D03*
X57600Y31000D03*
X58200Y24100D03*
X56250Y27000D03*
X58300D03*
X60300Y26300D03*
X56000Y29750D03*
Y32000D03*
X55950Y34000D03*
X55700Y36550D03*
X57300Y36750D03*
X60400Y36800D03*
X59400Y49400D03*
X58150Y50250D03*
X59600Y52800D03*
X55700Y59200D03*
Y55050D03*
Y57100D03*
X57400Y59200D03*
Y55050D03*
Y57100D03*
X59350Y61300D03*
X55250Y64350D03*
X59250Y63500D03*
X61000Y65000D03*
X56500Y66250D03*
X55700Y60700D03*
X57400Y62100D03*
X58000Y68000D03*
X55000Y71000D03*
X60000Y72000D03*
X54500Y79000D03*
X58000D03*
X57000Y75000D03*
X55250Y85000D03*
X56750D03*
X58250D03*
X59750Y84750D03*
X61250D03*
X54600Y86500D03*
X59000Y86000D03*
X54600Y88500D03*
X55500Y92000D03*
X57000Y93500D03*
X58500Y102000D03*
X56000Y98000D03*
X60000Y97800D03*
X55900Y106500D03*
X56000Y109000D03*
X60000D03*
X57500Y105000D03*
X64100Y16300D03*
X61450Y15400D03*
X62300Y11600D03*
X64000Y11500D03*
Y10500D03*
Y13750D03*
X66000Y14500D03*
X62700Y23400D03*
X64000D03*
X66000D03*
Y17500D03*
X64000Y18700D03*
Y21100D03*
X66000D03*
X61700Y18700D03*
Y21100D03*
X63900Y26300D03*
X62100Y28300D03*
X66000Y28500D03*
X64800Y31900D03*
X64500Y34700D03*
X66250Y44300D03*
X64200Y45800D03*
X64000Y47200D03*
X68000Y46200D03*
X66200Y49000D03*
X65100D03*
X62900Y52100D03*
X62800Y49300D03*
X64150Y54550D03*
X67500Y54700D03*
X62200Y58200D03*
X63600D03*
X64500Y61500D03*
X67000Y65000D03*
X67500Y67100D03*
X64000Y68000D03*
X67500Y68100D03*
X67100Y70400D03*
X64700Y71400D03*
X67200Y77000D03*
X68000Y81500D03*
X61500Y77000D03*
X62700Y74400D03*
X62000Y83300D03*
X64550Y84450D03*
X65600Y83450D03*
X67300Y83650D03*
X66950Y85200D03*
X67750Y87000D03*
X67000Y88000D03*
X66250Y87000D03*
X63500Y91500D03*
X65400Y91400D03*
X67000D03*
X62000Y93500D03*
X65400Y93200D03*
X67000D03*
X65500Y95000D03*
X67750Y89000D03*
X66250D03*
X65500Y101500D03*
X63000Y96000D03*
X62000Y98000D03*
X65000Y108500D03*
X65200Y103800D03*
X70000Y14500D03*
X74500D03*
X72700Y23400D03*
X69400D03*
X70000Y17500D03*
X74500D03*
X70000Y21100D03*
X74400D03*
X72000Y31100D03*
Y26400D03*
Y29300D03*
X73500Y34500D03*
X72900Y45500D03*
X72500Y38500D03*
X70400Y42800D03*
X72500Y44000D03*
X68800Y41000D03*
X69200Y52800D03*
X73000Y48500D03*
Y51500D03*
X69200Y48050D03*
X72800Y53950D03*
X69000Y57000D03*
X70700Y61600D03*
Y64300D03*
X70500Y67100D03*
X73500Y66000D03*
X68800Y63100D03*
X68500Y67100D03*
X69500D03*
X70500Y68100D03*
X73500Y68600D03*
X68500Y68100D03*
X69500D03*
Y73000D03*
X74300Y77050D03*
X70500Y81500D03*
X74900Y80900D03*
X69500Y78000D03*
X74000Y83000D03*
X70100Y91400D03*
X75000Y93000D03*
X68800Y91400D03*
X68500Y93200D03*
X75500Y104500D03*
X78700Y16000D03*
X80000Y17100D03*
X79000Y21400D03*
X81700Y45350D03*
X77500Y38500D03*
X80000Y40000D03*
X77000Y43500D03*
X82000Y47800D03*
X77000Y47000D03*
X82600Y57200D03*
X81500Y72500D03*
Y74250D03*
X76600Y74150D03*
X82500Y79300D03*
X82200Y84500D03*
X78500Y87000D03*
X79900D03*
X78600Y88500D03*
X79700D03*
X77200Y84500D03*
X77600Y82900D03*
X79800D03*
X77400Y92500D03*
X79700D03*
X77400Y93800D03*
X78600D03*
X79700D03*
X78600Y92500D03*
X80400Y89300D03*
Y90500D03*
X82400Y89600D03*
X77500Y99000D03*
X78500D03*
X79500D03*
X80500D03*
X81500D03*
X82500D03*
X77500Y96000D03*
X81000D03*
X77500Y98000D03*
X78500D03*
X79500D03*
X80500D03*
X81500D03*
X82500D03*
X84500Y16000D03*
X87000Y14500D03*
X86400Y17600D03*
X86500Y21000D03*
X84500Y19500D03*
X86000Y28500D03*
X84000Y37500D03*
X85000Y33500D03*
X87500Y40000D03*
X88000Y43500D03*
X85000Y44000D03*
X84000Y41000D03*
X86800Y46000D03*
X85500Y48300D03*
X87400D03*
Y51300D03*
X83500Y48000D03*
X85400Y54100D03*
X83900Y57200D03*
X85000Y69500D03*
X88000D03*
X86000Y71000D03*
Y77500D03*
Y87000D03*
Y82000D03*
Y91500D03*
X85000Y99000D03*
X87250Y100000D03*
X83500Y99000D03*
Y98000D03*
X84500Y108500D03*
X87250Y105500D03*
X92500Y14500D03*
X95500D03*
X90000D03*
X95500Y23500D03*
Y17000D03*
Y19000D03*
X92900Y21000D03*
X92000Y17000D03*
X90500Y19000D03*
X90000Y21500D03*
X95500Y30000D03*
X92600Y25100D03*
X95500Y37500D03*
X90500D03*
X95500Y33500D03*
X90000D03*
X95500Y41000D03*
X94000Y42000D03*
X95500Y45000D03*
X90500Y41000D03*
X91500Y45000D03*
X93500Y46500D03*
X95500Y48500D03*
X93500Y50500D03*
X95500Y52500D03*
X91500Y48500D03*
Y52500D03*
X95500Y55250D03*
X93250Y57000D03*
X94500D03*
X93250Y58250D03*
X94500D03*
X95500Y59750D03*
X91500Y55500D03*
X90750Y57000D03*
X92000D03*
X90750Y58250D03*
X92000D03*
X95500Y62000D03*
Y64500D03*
Y67000D03*
X92500Y69500D03*
X93750D03*
X95500Y70000D03*
X92500Y71000D03*
X93750D03*
X95500Y72500D03*
X90000Y69500D03*
X91250D03*
X90000Y71000D03*
X91250D03*
X95500Y76500D03*
X90000D03*
X95500Y87000D03*
X90000D03*
X95500Y82000D03*
X90000D03*
X95500Y92000D03*
X90000Y92500D03*
X93000Y100000D03*
X95500Y102500D03*
X90000D03*
X95500Y97500D03*
X90000D03*
X95500Y109000D03*
X90000D03*
X93000Y105500D03*
G54D23*
X42300Y42000D03*
X43800Y40900D03*
X62130Y7150D03*
X64150D03*
X62130Y7930D03*
X64150Y7900D03*
X62130Y8680D03*
X64150Y8700D03*
X65900Y73850D03*
X65100D03*
X65900Y74650D03*
X65100D03*
M02*
