*
%FSLAX43Y43*%
%MOMM*%
%ADD10R,3.251200X3.251200*%
%ADD11C,0.025400*%
%ADD12C,0.050800*%
%ADD13C,0.406400*%
%ADD14C,1.625600*%
%ADD15C,3.251200*%
%ADD16C,0.101600*%
%ADD17C,0.203200*%
%ADD18C,0.812800*%
%ADD19R,0.812800X0.812800*%
%ADD20R,0.203200X0.203200*%
%ADD21R,0.406400X0.406400*%
%ADD22R,1.625600X1.625600*%
%ADD23R,0.025400X0.025400*%
%ADD24R,0.101600X0.101600*%
%ADD25C,1.600000*%
%ADD26C,0.600000*%
%ADD27C,0.850000*%
%ADD28C,2.100000*%
%ADD29C,3.000000*%
%ADD30C,5.000000*%
%ADD31C,1.400000*%
%ADD32C,1.700000*%
%ADD33C,1.800000*%
%ADD34C,4.500000*%
%ADD35C,4.250000*%
%ADD36C,6.500000*%
%ADD37C,0.700000*%
%IPPOS*%
%LNl3*%
%LPD*%
G75*
G54D10*
X-964Y-964D02*
Y121464D01*
X2227Y-964D02*
Y121464D01*
X5418Y-964D02*
Y121464D01*
X8609Y-964D02*
Y121464D01*
X11801Y-964D02*
Y121464D01*
X14992Y-964D02*
Y121464D01*
X18183Y-964D02*
Y121464D01*
X21374Y-964D02*
Y121464D01*
X24566Y-964D02*
Y121464D01*
X27757Y-964D02*
Y121464D01*
X30948Y-964D02*
Y121464D01*
X34139Y-964D02*
Y121464D01*
X37331Y-964D02*
Y121464D01*
X40522Y-964D02*
Y121464D01*
X43713Y-964D02*
Y121464D01*
X46904Y-964D02*
Y121464D01*
X50096Y-964D02*
Y121464D01*
X53287Y-964D02*
Y121464D01*
X56478Y-964D02*
Y121464D01*
X59669Y-964D02*
Y121464D01*
X62861Y-964D02*
Y121464D01*
X66052Y-964D02*
Y121464D01*
X69243Y-964D02*
Y121464D01*
X72434Y-964D02*
Y121464D01*
X75626Y-964D02*
Y121464D01*
X78817Y-964D02*
Y121464D01*
X82008Y-964D02*
Y121464D01*
X85199Y-964D02*
Y121464D01*
X88391Y-964D02*
Y121464D01*
X91582Y-964D02*
Y121464D01*
X94773Y-964D02*
Y121464D01*
X97964Y-964D02*
Y121464D01*
%LPC*%
G75*
X97964Y121464D02*
G54D11*
X31876Y85237D02*
X31901Y85227D01*
X38726Y78402D01*
X38737Y78376D02*
Y28624D01*
X38727Y28599D01*
X32814Y22686D01*
X32737Y22500D02*
Y13800D01*
X32700Y13763D02*
X15000D01*
X13987Y12750D02*
Y5550D01*
X13950Y5513D02*
X1050D01*
X1013Y5550D02*
Y85200D01*
X1050Y85237D02*
X31876D01*
G54D12*
X1025Y5550D02*
X13975D01*
X1025Y12750D02*
X13975D01*
X1025Y13750D02*
X14775D01*
X1025Y13800D02*
X32725D01*
X1025Y22500D02*
X32725D01*
X1025Y22500D02*
X32725D01*
X1025Y22677D02*
X32789D01*
X1025Y28589D02*
X38700D01*
X1025Y28624D02*
X38725D01*
X1025Y78376D02*
X38725D01*
X1025Y78411D02*
X38700D01*
X1025Y85200D02*
X31911D01*
G54D11*
X1050Y5513D02*
X13950D01*
X1022Y5525D02*
X13978D01*
X1015Y5537D02*
X13985D01*
G54D12*
X13950Y5525D02*
X1050D01*
G54D10*
X2626Y7176D02*
X12374D01*
X2626Y9150D02*
X12374D01*
X2626Y11124D02*
X12374D01*
G54D13*
X1203Y12953D02*
X13814D01*
X1203Y13250D02*
X13906D01*
X1203Y13547D02*
X14098D01*
G54D12*
X1025Y12750D02*
Y13750D01*
G54D13*
X1203Y12750D02*
Y13750D01*
G54D11*
X1013Y13763D02*
X32700D01*
X1013Y13775D02*
X32728D01*
X1013Y13787D02*
X32735D01*
G54D12*
X1025Y13750D02*
Y13800D01*
X32700Y13775D02*
X15000D01*
G54D10*
X2626Y15426D02*
X31124D01*
X2626Y18150D02*
X31124D01*
X2626Y20874D02*
X31124D01*
G54D12*
X1025Y22500D03*
X32725Y22500D03*
X1025Y22526D02*
X32726D01*
X1025Y22568D02*
X32733D01*
X1025Y22610D02*
X32747D01*
X1025Y22652D02*
X32770D01*
X1025Y22500D02*
Y22677D01*
G54D14*
X1813Y23490D02*
X32486D01*
X1813Y24919D02*
X33915D01*
X1813Y26347D02*
X35344D01*
X1813Y27776D02*
X36773D01*
G54D12*
X1025Y22677D02*
Y28589D01*
X38717Y28607D02*
X32805Y22695D01*
G54D14*
X1813Y22677D02*
Y28589D01*
X36773Y27776D02*
X32248Y23251D01*
G54D12*
X1025Y28589D02*
Y28624D01*
G54D10*
X2626Y30250D02*
Y76750D01*
X5762Y30250D02*
Y76750D01*
X8898Y30250D02*
Y76750D01*
X12034Y30250D02*
Y76750D01*
X15171Y30250D02*
Y76750D01*
X18307Y30250D02*
Y76750D01*
X21443Y30250D02*
Y76750D01*
X24579Y30250D02*
Y76750D01*
X27716Y30250D02*
Y76750D01*
X30852Y30250D02*
Y76750D01*
X33988Y30250D02*
Y76750D01*
X37124Y30250D02*
Y76750D01*
G54D12*
X1025Y78376D02*
Y78411D01*
G54D15*
X2626Y80037D02*
X34810D01*
X2626Y81806D02*
X33042D01*
X2626Y83574D02*
X31273D01*
G54D12*
X1025Y78411D02*
Y85200D01*
X31928Y85182D02*
X38717Y78393D01*
G54D15*
X2626Y78411D02*
Y83574D01*
X31273D02*
X34810Y80037D01*
G54D12*
X31893Y85217D02*
X31928Y85182D01*
X1050Y85225D02*
X31876D01*
X1025Y28564D02*
X38674D01*
G54D16*
X38612Y28538D02*
X32802Y22728D01*
X1051Y28538D02*
X38612D01*
G54D17*
X38490Y28487D02*
X32781Y22779D01*
X1102Y28487D02*
X38490D01*
G54D13*
X38244Y28386D02*
X32739Y22880D01*
X1203Y28386D02*
X38244D01*
G54D18*
X37754Y28183D02*
X32655Y23083D01*
X1406Y28183D02*
X37754D01*
G54D12*
X1025Y85175D02*
X31935D01*
G54D16*
X1051Y85149D02*
X31925D01*
X1051Y78462D02*
Y85149D01*
G54D17*
X1102Y85098D02*
X31904D01*
X1102Y78513D02*
Y85098D01*
G54D13*
X1203Y84997D02*
X31862D01*
X1203Y78614D02*
Y84997D01*
G54D18*
X1406Y84794D02*
X31778D01*
X1406Y78817D02*
Y84794D01*
G54D14*
X1813Y84387D02*
X31609D01*
X1813Y79224D02*
Y84387D01*
G54D16*
X31925Y85149D02*
X38612Y78462D01*
G54D17*
X31904Y85098D02*
X38490Y78513D01*
G54D13*
X31862Y84997D02*
X38244Y78614D01*
G54D18*
X31778Y84794D02*
X37754Y78817D01*
G54D14*
X31609Y84387D02*
X36773Y79224D01*
G54D12*
X38674Y78436D02*
X1025D01*
G54D16*
X38612Y78462D02*
X1051D01*
G54D17*
X38490Y78513D02*
X1102D01*
G54D13*
X38244Y78614D02*
X1203D01*
G54D18*
X37754Y78817D02*
X1406D01*
G54D14*
X36773Y79224D02*
X1813D01*
G54D11*
X38726Y78402D02*
G02X38737Y78376I-26J-27D01*
X32814Y22686D02*
G03X32737Y22500I187J-185D01*
Y13800D02*
G02X32700Y13763I-37J0D01*
X15000D02*
G03X13987Y12750I0J-1013D01*
Y5550D02*
G02X13950Y5513I-37J0D01*
X1050D02*
G02X1013Y5550I0J37D01*
Y85200D02*
G02X1050Y85237I37J0D01*
G54D12*
Y5525D02*
G02X1025Y5550I0J25D01*
X13975D02*
G02X13950Y5525I-25J0D01*
X15000Y13775D02*
G03X13975Y12750I0J-1025D01*
G54D13*
X15000Y13953D02*
G03X13797Y12750I0J-1203D01*
G54D12*
X32725Y13800D02*
G02X32700Y13775I-25J0D01*
X32805Y22695D02*
G03X32725Y22500I195J-195D01*
X38725Y28624D02*
G02X38717Y28607I-24J0D01*
Y78393D02*
G02X38725Y78376I-17J-18D01*
X1025Y85200D02*
G02X1032Y85217I25J0D01*
G02X1050Y85225I18J-17D01*
X31876D02*
G02X31893Y85217I-0J-24D01*
G54D11*
X57737Y109450D02*
G01Y101624D01*
X57727Y101599D01*
X56902Y100774D01*
X56876Y100763D02*
X7500D01*
X7314Y100686D02*
X6813Y100185D01*
X6737Y100000D02*
Y94000D01*
X6814Y93814D02*
X9815Y90813D01*
X10000Y90737D02*
X39376D01*
X39401Y90727D01*
X42814Y87314D01*
X43000Y87237D02*
X71376D01*
X71401Y87227D01*
X78226Y80402D01*
X78237Y80376D02*
Y39624D01*
X78227Y39599D01*
X73814Y35186D01*
X73737Y35000D02*
Y26624D01*
X73727Y26599D01*
X72402Y25274D01*
X72376Y25263D02*
X67624D01*
X67599Y25273D01*
X56774Y36098D01*
X56763Y36124D02*
Y40500D01*
X56686Y40686D02*
X56185Y41187D01*
X56000Y41263D02*
X51000D01*
X50814Y41186D02*
X50402Y40774D01*
X50376Y40763D01*
X47424D01*
X47399Y40773D01*
X46774Y41398D01*
X46763Y41424D02*
Y42376D01*
X46773Y42401D01*
X47098Y42726D01*
X47124Y42737D02*
X49000D01*
X49186Y42814D02*
X49687Y43315D01*
X49763Y43500D02*
Y46000D01*
X49686Y46186D02*
X49285Y46587D01*
X49100Y46663D02*
X46424D01*
X46399Y46673D01*
X46274Y46798D01*
X46263Y46824D02*
Y47676D01*
X46273Y47701D01*
X46398Y47826D01*
X46424Y47837D02*
X48500D01*
X48686Y47914D02*
X49187Y48415D01*
X49263Y48600D02*
Y50900D01*
X49186Y51086D02*
X48285Y51987D01*
X48100Y52063D02*
X45924D01*
X45899Y52073D01*
X45474Y52498D01*
X45463Y52524D02*
Y53776D01*
X45473Y53801D01*
X45998Y54326D01*
X46024Y54337D02*
X49276D01*
X49301Y54327D01*
X51226Y52402D01*
X51237Y52376D02*
Y50500D01*
X51314Y50314D02*
X51815Y49813D01*
X52000Y49737D02*
X54000D01*
X54186Y49814D02*
X54987Y50615D01*
X55063Y50800D02*
Y52676D01*
X55073Y52701D01*
X55098Y52726D01*
X55124Y52737D02*
X55976D01*
X56001Y52727D01*
X56326Y52402D01*
X56337Y52376D02*
Y50800D01*
X56414Y50614D02*
X57115Y49913D01*
X57300Y49837D02*
X61076D01*
X61101Y49827D01*
X61326Y49602D01*
X61337Y49576D02*
Y46724D01*
X61327Y46699D01*
X61102Y46474D01*
X61076Y46463D02*
X59900D01*
X59714Y46386D02*
X59313Y45985D01*
X59237Y45800D02*
Y44500D01*
X59314Y44314D02*
X60815Y42813D01*
X61000Y42737D02*
X65500D01*
X65686Y42814D02*
X66687Y43815D01*
X66763Y44000D02*
Y55000D01*
X66686Y55186D02*
X64185Y57687D01*
X64000Y57763D02*
X59124D01*
X59099Y57773D01*
X58774Y58098D01*
X58763Y58124D02*
Y72500D01*
X58686Y72686D02*
X52686Y78686D01*
X52500Y78763D02*
X39124D01*
X39099Y78773D01*
X32186Y85686D01*
X32000Y85763D02*
X1050D01*
X1013Y85800D02*
Y109450D01*
X1050Y109487D02*
X57700D01*
G54D12*
X1025Y87235D02*
X42926D01*
X1025Y85800D02*
X72811D01*
X1025Y87250D02*
X42885D01*
X1025Y87323D02*
X42788D01*
X1025Y90735D02*
X9926D01*
X1025Y90750D02*
X9885D01*
X1025Y90823D02*
X9788D01*
X1025Y93823D02*
X6789D01*
X1025Y94000D02*
X6725D01*
X1025Y94000D02*
X6725D01*
X1025Y100000D02*
X6725D01*
X1025Y100000D02*
X6725D01*
X1025Y100177D02*
X6789D01*
X1025Y100677D02*
X7288D01*
X1025Y100750D02*
X7385D01*
X1025Y100765D02*
X7426D01*
X1025Y101589D02*
X57700D01*
X1025Y101624D02*
X57725D01*
X1025Y109450D02*
X57725D01*
X32115Y85750D02*
X72861D01*
X32212Y85677D02*
X72934D01*
X37478Y80411D02*
X78200D01*
X37513Y80376D02*
X78225D01*
X52574Y78765D02*
X78225D01*
X45475Y52524D02*
X51087D01*
X45475Y53776D02*
X49835D01*
X45500Y53811D02*
X49800D01*
X45500Y52489D02*
X51122D01*
X45578Y52411D02*
X51200D01*
X45613Y52376D02*
X51225D01*
X48174Y52065D02*
X51225D01*
X46275Y47676D02*
X61325D01*
X46275Y46824D02*
X61325D01*
X46300Y47711D02*
X61325D01*
X46300Y46789D02*
X61325D01*
X48574Y47835D02*
X61325D01*
X46365Y46724D02*
X61325D01*
X46400Y46689D02*
X61300D01*
X49174Y46665D02*
X61276D01*
X48615Y47850D02*
X61325D01*
X46775Y42376D02*
X78225D01*
X46775Y41424D02*
X78225D01*
X46800Y42411D02*
X78225D01*
X46800Y41389D02*
X78225D01*
X49074Y42735D02*
X60926D01*
X65574D02*
X78225D01*
X46939Y41250D02*
X50885D01*
X47012Y41177D02*
X50788D01*
X49115Y42750D02*
X60885D01*
X65615D02*
X78225D01*
X48215Y52050D02*
X51225D01*
X48312Y51977D02*
X51225D01*
X48712Y47923D02*
X61325D01*
X49211Y48423D02*
X61325D01*
X49212Y42823D02*
X60788D01*
X49215Y46650D02*
X61261D01*
X49711Y43323D02*
X60288D01*
X49275Y48600D02*
X61325D01*
X49211Y51077D02*
X51225D01*
X49275Y49576D02*
X61325D01*
X49275Y48600D02*
X61325D01*
X49275Y49611D02*
X61300D01*
X49275Y49750D02*
X51885D01*
X54115D02*
X61161D01*
X49275Y49823D02*
X51788D01*
X49275Y50323D02*
X51289D01*
X49275Y50500D02*
X51225D01*
X49275Y50500D02*
X51225D01*
X49275Y50900D02*
X51225D01*
X49275Y50900D02*
X51225D01*
X49312Y46577D02*
X61188D01*
X49424Y46465D02*
X59826D01*
X49439Y46450D02*
X59785D01*
X49512Y46377D02*
X59688D01*
X49775Y43500D02*
X60111D01*
X49711Y46177D02*
X59488D01*
X49775Y43500D02*
X60111D01*
X49775Y44323D02*
X59289D01*
X49775Y44500D02*
X59225D01*
X49775Y44500D02*
X59225D01*
X49775Y45800D02*
X59225D01*
X49775Y45800D02*
X59225D01*
X49775Y45977D02*
X59289D01*
X49775Y46000D02*
X59311D01*
X49775Y46000D02*
X59311D01*
X56115Y41250D02*
X78225D01*
X52615Y78750D02*
X78225D01*
X52712Y78677D02*
X78225D01*
X54212Y49823D02*
X61085D01*
X54224Y49835D02*
X57226D01*
X54239Y49850D02*
X57185D01*
X54312Y49923D02*
X57088D01*
X55011Y50623D02*
X56389D01*
X55075Y50800D02*
X56325D01*
X55075Y50800D02*
X56325D01*
X55075Y52376D02*
X56325D01*
X55075Y52411D02*
X56300D01*
X55075Y52676D02*
X56035D01*
X55100Y52711D02*
X56000D01*
X55075Y50800D02*
X56325D01*
X56115Y41250D02*
X78225D01*
X56212Y41177D02*
X78225D01*
X56711Y40677D02*
X78225D01*
X56775Y39589D02*
X78200D01*
X56775Y36124D02*
X74735D01*
X56775Y39624D02*
X78225D01*
X56775Y40500D02*
X78225D01*
X56775Y40500D02*
X78225D01*
X56800Y36089D02*
X74700D01*
X57712Y35177D02*
X73789D01*
X57889Y35000D02*
X73725D01*
X57889Y35000D02*
X73725D01*
X58711Y72677D02*
X78225D01*
X58775Y58124D02*
X78225D01*
X58775Y72500D02*
X78225D01*
X58775Y72500D02*
X78225D01*
X58800Y58089D02*
X78225D01*
X64074Y57765D02*
X78225D01*
X64115Y57750D02*
X78225D01*
X64212Y57677D02*
X78225D01*
X65712Y42823D02*
X78225D01*
X66711Y43823D02*
X78225D01*
X66265Y26624D02*
X73725D01*
X66300Y26589D02*
X73700D01*
X66775Y44000D02*
X78225D01*
X66711Y55177D02*
X78225D01*
X66775Y44000D02*
X78225D01*
X66775Y55000D02*
X78225D01*
X66775Y55000D02*
X78225D01*
G54D13*
X1203Y86003D02*
X72355D01*
X1203Y86346D02*
X72013D01*
X1203Y86689D02*
X71670D01*
X1203Y87032D02*
X71327D01*
G54D12*
X1025Y85800D02*
Y87235D01*
X71393Y87217D02*
X72828Y85782D01*
G54D13*
X1203Y86003D02*
Y87235D01*
X71327Y87032D02*
X72702Y85656D01*
G54D12*
X72828Y85782D02*
X72878Y85732D01*
X1025Y87235D02*
Y87250D01*
Y87275D02*
X42840D01*
X1025Y87298D02*
X42813D01*
X1025Y87250D02*
Y87323D01*
G54D14*
X1813Y88136D02*
X40861D01*
X1813Y89029D02*
X39968D01*
X1813Y89922D02*
X39074D01*
G54D12*
X1025Y87323D02*
Y90735D01*
X39393Y90717D02*
X42805Y87305D01*
G54D14*
X1813Y87323D02*
Y90735D01*
X39074Y89922D02*
X42249Y86748D01*
G54D12*
X1025Y90735D02*
Y90750D01*
Y90775D02*
X9840D01*
X1025Y90798D02*
X9813D01*
X1025Y90750D02*
Y90823D01*
G54D18*
X1406Y91229D02*
X8842D01*
X1406Y91958D02*
X8113D01*
X1406Y92688D02*
X7384D01*
X1406Y93417D02*
X6655D01*
G54D12*
X1025Y90823D02*
Y93823D01*
X6805Y93805D02*
X9805Y90805D01*
G54D18*
X1406Y90823D02*
Y93823D01*
X6535Y93536D02*
X9536Y90535D01*
G54D12*
X1025Y93848D02*
X6770D01*
X1025Y93890D02*
X6747D01*
X1025Y93932D02*
X6733D01*
X1025Y93974D02*
X6726D01*
X1025Y93823D02*
Y94000D01*
D03*
X6725Y94000D03*
G54D10*
X2626Y95626D02*
Y98374D01*
X5124Y95626D02*
Y98374D01*
G54D12*
X1025Y100000D03*
X6725Y100000D03*
X1025Y100026D02*
X6726D01*
X1025Y100068D02*
X6733D01*
X1025Y100110D02*
X6747D01*
X1025Y100152D02*
X6770D01*
X1025Y100000D02*
Y100177D01*
G54D17*
X1102Y100279D02*
X6781D01*
X1102Y100427D02*
X6929D01*
X1102Y100575D02*
X7078D01*
G54D12*
X1025Y100177D02*
Y100677D01*
X7305Y100695D02*
X6805Y100195D01*
G54D17*
X1102Y100177D02*
Y100677D01*
X7251Y100749D02*
X6751Y100249D01*
G54D12*
X1025Y100702D02*
X7313D01*
X1025Y100725D02*
X7340D01*
X1025Y100677D02*
Y100750D01*
Y100765D01*
G54D13*
X1203Y100968D02*
X56827D01*
X1203Y101177D02*
X57036D01*
X1203Y101386D02*
X57244D01*
G54D12*
X1025Y100765D02*
Y101589D01*
X57717Y101607D02*
X56893Y100783D01*
G54D13*
X1203Y100765D02*
Y101589D01*
X57244Y101386D02*
X56827Y100968D01*
G54D12*
X1025Y101589D02*
Y101624D01*
G54D10*
X2626Y103250D02*
X56124D01*
X2626Y105537D02*
X56124D01*
X2626Y107824D02*
X56124D01*
G54D11*
X1015Y109463D02*
X57735D01*
X1022Y109475D02*
X57728D01*
X1050Y109487D02*
X57700D01*
G54D12*
X1050Y109475D02*
X57700D01*
X32000Y85775D02*
X1050D01*
X56876Y100775D02*
X7500D01*
X10000Y90725D02*
X39376D01*
X32187Y85702D02*
X72908D01*
X32160Y85725D02*
X72885D01*
X72878Y85732D02*
X72951Y85659D01*
G54D14*
X37780Y81224D02*
X76273D01*
X36566Y82437D02*
X75059D01*
X35353Y83651D02*
X73846D01*
X34139Y84864D02*
X72632D01*
G54D12*
X37461Y80429D02*
X32195Y85695D01*
X72951Y85659D02*
X78217Y80393D01*
G54D14*
X38018Y80986D02*
X32751Y86252D01*
X72394Y85102D02*
X76273Y81224D01*
G54D12*
X37496Y80394D02*
X37461Y80429D01*
G54D13*
X39173Y78968D02*
X78047D01*
X38872Y79269D02*
X78047D01*
X38571Y79571D02*
X78047D01*
X38270Y79872D02*
X78047D01*
X37969Y80173D02*
X78047D01*
G54D12*
X39107Y78783D02*
X37496Y80394D01*
X78225Y80376D02*
Y78765D01*
G54D13*
X39173Y78968D02*
X37622Y80520D01*
X78047Y80173D02*
Y78765D01*
G54D12*
X78225D02*
Y78750D01*
X52500Y78775D02*
X39124D01*
X43000Y87225D02*
X71376D01*
X51104Y52506D02*
X51139Y52471D01*
G54D13*
X45653Y52727D02*
X50631D01*
X45653Y53009D02*
X50350D01*
X45653Y53291D02*
X50068D01*
X45653Y53573D02*
X49786D01*
G54D12*
X45475Y52524D02*
Y53776D01*
X49852Y53758D02*
X51104Y52506D01*
G54D13*
X45653Y52727D02*
Y53573D01*
X49726Y53632D02*
X50978Y52380D01*
G54D12*
X49817Y53793D02*
X49852Y53758D01*
X45554Y52436D02*
X51174D01*
X45526Y52464D02*
X51146D01*
X45561Y52429D02*
X45483Y52507D01*
X51139Y52471D02*
X51217Y52393D01*
G54D17*
X45710Y53913D02*
X49590D01*
X45871Y54073D02*
X49429D01*
X46031Y54233D02*
X49269D01*
G54D12*
X45483Y53793D02*
X46007Y54317D01*
X49293D02*
X49817Y53793D01*
G54D17*
X45710Y53913D02*
X46031Y54233D01*
X49269D02*
X49763Y53739D01*
G54D12*
X45596Y52394D02*
X45561Y52429D01*
G54D16*
X45910Y52116D02*
X51199D01*
X45840Y52186D02*
X51199D01*
X45770Y52255D02*
X51199D01*
X45701Y52325D02*
X51199D01*
G54D12*
X45907Y52083D02*
X45596Y52394D01*
X51225Y52376D02*
Y52065D01*
G54D16*
X45925Y52101D02*
X45614Y52412D01*
X51199Y52325D02*
Y52065D01*
G54D12*
X51225D02*
Y52050D01*
X48100Y52075D02*
X45924D01*
X46024Y54325D02*
X49276D01*
G54D19*
X46656Y47230D02*
X60944D01*
X46656Y47270D02*
X60944D01*
G54D12*
X61325Y46824D02*
Y46789D01*
Y47711D02*
Y47676D01*
X46341Y46749D02*
X61325D01*
X46326Y46764D02*
X61325D01*
X46348Y46742D02*
X46283Y46807D01*
X61325Y46789D02*
Y46724D01*
X46326Y47736D02*
X61325D01*
X46363Y47773D02*
X61325D01*
X46400Y47810D02*
X61325D01*
X46283Y47693D02*
X46407Y47817D01*
X61325Y47835D02*
Y47711D01*
X46383Y46707D02*
X46348Y46742D01*
X46407Y46683D02*
X46383Y46707D01*
X61317Y46707D02*
X61293Y46683D01*
X61278Y46668D01*
X61325Y47850D02*
Y47835D01*
X46424Y47825D02*
X48500D01*
X49100Y46675D02*
X46424D01*
G54D19*
X47156Y41830D02*
X77844D01*
X47156Y41970D02*
X77844D01*
G54D12*
X78225Y41424D02*
Y41389D01*
Y42411D02*
Y42376D01*
X46915Y41275D02*
X78225D01*
X46870Y41320D02*
X78225D01*
X46826Y41364D02*
X78225D01*
X46922Y41268D02*
X46783Y41407D01*
X78225Y41389D02*
Y41250D01*
G54D16*
X46888Y42462D02*
X78199D01*
X46962Y42536D02*
X78199D01*
X47036Y42610D02*
X78199D01*
X47110Y42684D02*
X78199D01*
G54D12*
X46783Y42393D02*
X47107Y42717D01*
X78225Y42735D02*
Y42411D01*
G54D16*
X46801Y42375D02*
X47125Y42699D01*
X78199Y42735D02*
Y42411D01*
G54D12*
X46988Y41202D02*
X50813D01*
X46965Y41225D02*
X50840D01*
X46995Y41195D02*
X46922Y41268D01*
G54D17*
X47431Y40867D02*
X50369D01*
X47327Y40971D02*
X50473D01*
X47222Y41075D02*
X50578D01*
G54D12*
X47407Y40783D02*
X46995Y41195D01*
X50805Y41195D02*
X50393Y40783D01*
G54D17*
X47431Y40867D02*
X47049Y41249D01*
X50751Y41249D02*
X50369Y40867D01*
G54D12*
X78225Y42750D02*
Y42735D01*
X47124Y42725D02*
X49000D01*
X50376Y40775D02*
X47424D01*
X48287Y52002D02*
X51225D01*
X48260Y52025D02*
X51225D01*
Y52050D02*
Y51977D01*
G54D13*
X49261Y51280D02*
X51047D01*
X49014Y51527D02*
X51047D01*
X48768Y51774D02*
X51047D01*
G54D12*
X49195Y51095D02*
X48295Y51995D01*
X51225Y51977D02*
Y51077D01*
G54D13*
X49321Y51221D02*
X48421Y52121D01*
X51047Y51977D02*
Y51077D01*
G54D12*
X48660Y47875D02*
X61325D01*
X48687Y47898D02*
X61325D01*
Y47923D02*
Y47850D01*
G54D17*
X48922Y48025D02*
X61248D01*
X49071Y48173D02*
X61248D01*
X49219Y48321D02*
X61248D01*
G54D12*
X48695Y47905D02*
X49195Y48405D01*
X61325Y48423D02*
Y47923D01*
G54D17*
X48749Y47851D02*
X49249Y48351D01*
X61248Y48423D02*
Y47923D01*
G54D12*
X49160Y42775D02*
X60840D01*
X49187Y42798D02*
X60813D01*
X49287Y46602D02*
X61212D01*
X49260Y46625D02*
X61235D01*
X61278Y46668D02*
X61205Y46595D01*
G54D17*
X49422Y42925D02*
X60578D01*
X49571Y43073D02*
X60429D01*
X49719Y43221D02*
X60281D01*
G54D12*
X49195Y42805D02*
X49695Y43305D01*
X60305Y43305D02*
X60805Y42805D01*
G54D17*
X49249Y42751D02*
X49749Y43251D01*
X60251Y43251D02*
X60751Y42751D01*
G54D12*
X49230Y48448D02*
X61325D01*
X49253Y48490D02*
X61325D01*
X49267Y48532D02*
X61325D01*
X49274Y48574D02*
X61325D01*
Y48600D02*
Y48423D01*
X49274Y50926D02*
X51225D01*
X49267Y50968D02*
X51225D01*
X49253Y51010D02*
X51225D01*
X49230Y51052D02*
X51225D01*
Y51077D02*
Y50900D01*
G54D19*
X49656Y49006D02*
X60944D01*
X49656Y49170D02*
X60944D01*
G54D12*
X49275Y48600D03*
X61325Y48600D03*
X49275Y49576D02*
Y49611D01*
Y49636D02*
X61274D01*
X49275Y49680D02*
X61230D01*
X49275Y49725D02*
X61185D01*
X49275Y49611D02*
Y49750D01*
X61178Y49732D02*
X61317Y49593D01*
X49275Y49775D02*
X51840D01*
X49275Y49798D02*
X51813D01*
X49275Y49750D02*
Y49823D01*
G54D17*
X49352Y49925D02*
X51578D01*
X49352Y50073D02*
X51429D01*
X49352Y50221D02*
X51281D01*
G54D12*
X49275Y49823D02*
Y50323D01*
X51305Y50305D02*
X51805Y49805D01*
G54D17*
X49352Y49823D02*
Y50323D01*
X51251Y50251D02*
X51751Y49751D01*
G54D12*
X49275Y50348D02*
X51270D01*
X49275Y50390D02*
X51247D01*
X49275Y50432D02*
X51233D01*
X49275Y50474D02*
X51226D01*
X49275Y50323D02*
Y50500D01*
D03*
X51225Y50500D03*
G54D20*
X49352Y50602D02*
X51148D01*
X49352Y50798D02*
X51148D01*
G54D12*
X49275Y50900D03*
X51225Y50900D03*
X49400Y46490D02*
X61100D01*
X49369Y46521D02*
X61131D01*
X49338Y46552D02*
X61162D01*
X49407Y46483D02*
X49295Y46595D01*
X61205Y46595D02*
X61093Y46483D01*
X49422Y46468D02*
X49407Y46483D01*
X49488Y46402D02*
X59713D01*
X49465Y46425D02*
X59740D01*
X49495Y46395D02*
X49422Y46468D01*
X49688Y46202D02*
X59512D01*
X49650Y46240D02*
X59550D01*
X49613Y46277D02*
X59587D01*
X49576Y46314D02*
X59624D01*
X49538Y46352D02*
X59662D01*
X49695Y46195D02*
X49495Y46395D01*
X59705Y46395D02*
X59505Y46195D01*
X49730Y43348D02*
X60262D01*
X49753Y43390D02*
X60220D01*
X49767Y43432D02*
X60178D01*
X49774Y43474D02*
X60136D01*
X60128Y43482D02*
X60305Y43305D01*
X49774Y46026D02*
X59336D01*
X49767Y46068D02*
X59378D01*
X49753Y46110D02*
X59420D01*
X49730Y46152D02*
X59462D01*
X59505Y46195D02*
X59328Y46018D01*
X49775Y43500D03*
X60128Y43482D03*
G54D13*
X49953Y43703D02*
X59655D01*
X49953Y43912D02*
X59447D01*
X49953Y44120D02*
X59239D01*
G54D12*
X49775Y43500D02*
Y44323D01*
X59305Y44305D02*
X60128Y43482D01*
G54D13*
X49953Y43500D02*
Y44323D01*
X59179Y44179D02*
X60002Y43356D01*
G54D12*
X49775Y44348D02*
X59270D01*
X49775Y44390D02*
X59247D01*
X49775Y44432D02*
X59233D01*
X49775Y44474D02*
X59226D01*
X49775Y44323D02*
Y44500D01*
D03*
X59225Y44500D03*
G54D19*
X50156Y44906D02*
X58844D01*
X50156Y45394D02*
X58844D01*
G54D12*
X49775Y45800D03*
X59225Y45800D03*
X49775Y45826D02*
X59226D01*
X49775Y45868D02*
X59233D01*
X49775Y45910D02*
X59247D01*
X49775Y45952D02*
X59270D01*
X49775Y45800D02*
Y45977D01*
Y46000D01*
X59328Y46018D02*
X59305Y45995D01*
X49775Y46000D03*
X59328Y46018D03*
X56000Y41275D02*
X51000D01*
X52000Y49725D02*
X54000D01*
X52687Y78702D02*
X78225D01*
X52660Y78725D02*
X78225D01*
Y78750D02*
Y78677D01*
G54D14*
X59014Y73490D02*
X77437D01*
X57556Y74948D02*
X77437D01*
X56097Y76406D02*
X77437D01*
X54639Y77864D02*
X77437D01*
G54D12*
X58695Y72695D02*
X52695Y78695D01*
X78225Y78677D02*
Y72677D01*
G54D14*
X59252Y73251D02*
X53251Y79252D01*
X77437Y78677D02*
Y72677D01*
G54D12*
X54160Y49775D02*
X61135D01*
X54187Y49798D02*
X61112D01*
X61105Y49805D02*
X61178Y49732D01*
X54195Y49805D02*
X54207Y49817D01*
X61093Y49817D02*
X61105Y49805D01*
X54207Y49817D02*
X54222Y49832D01*
X54265Y49875D02*
X57140D01*
X54288Y49898D02*
X57113D01*
X54222Y49832D02*
X54295Y49905D01*
G54D17*
X54522Y50025D02*
X56878D01*
X54688Y50190D02*
X56712D01*
X54853Y50356D02*
X56547D01*
X55019Y50521D02*
X56381D01*
G54D12*
X54295Y49905D02*
X54995Y50605D01*
X56405D02*
X57105Y49905D01*
G54D17*
X54349Y49851D02*
X55049Y50551D01*
X56351D02*
X57051Y49851D01*
G54D12*
X55030Y50648D02*
X56370D01*
X55053Y50690D02*
X56347D01*
X55067Y50732D02*
X56333D01*
X55074Y50774D02*
X56326D01*
X55075Y50800D03*
X56325Y50800D03*
G54D19*
X55456Y51206D02*
Y51970D01*
X55944Y51206D02*
Y51970D01*
G54D12*
X55075Y52376D02*
Y52411D01*
G54D16*
X55101Y52462D02*
X56212D01*
X55101Y52543D02*
X56131D01*
X55101Y52625D02*
X56049D01*
G54D12*
X55075Y52411D02*
Y52676D01*
X56052Y52658D02*
X56317Y52393D01*
G54D16*
X55101Y52411D02*
Y52625D01*
X56034Y52640D02*
X56299Y52375D01*
G54D12*
X56017Y52693D02*
X56052Y52658D01*
X55083Y52693D02*
X55107Y52717D01*
X55993D02*
X56017Y52693D01*
X55124Y52725D02*
X55976D01*
X56187Y41202D02*
X78225D01*
X56160Y41225D02*
X78225D01*
Y41250D02*
Y41177D01*
G54D17*
X56719Y40779D02*
X78148D01*
X56571Y40927D02*
X78148D01*
X56422Y41075D02*
X78148D01*
G54D12*
X56695Y40695D02*
X56195Y41195D01*
X78225Y41177D02*
Y40677D01*
G54D17*
X56749Y40749D02*
X56249Y41249D01*
X78148Y41177D02*
Y40677D01*
G54D12*
X56774Y40526D02*
X78225D01*
X56767Y40568D02*
X78225D01*
X56753Y40610D02*
X78225D01*
X56730Y40652D02*
X78225D01*
Y40677D02*
Y40500D01*
G54D14*
X57563Y36937D02*
X74433D01*
X57563Y37857D02*
X75353D01*
X57563Y38776D02*
X76273D01*
G54D12*
X56775Y36124D02*
Y39589D01*
X78217Y39607D02*
X74752Y36142D01*
G54D14*
X57563Y36937D02*
Y39589D01*
X76273Y38776D02*
X74195Y36699D01*
G54D12*
X74752Y36142D02*
X74717Y36107D01*
X56775Y39589D02*
Y39624D01*
G54D19*
X57156Y40030D02*
X77844D01*
X57156Y40094D02*
X77844D01*
G54D12*
X56775Y40500D03*
X78225Y40500D03*
G54D13*
X57761Y35380D02*
X73739D01*
X57508Y35633D02*
X73992D01*
X57256Y35886D02*
X74244D01*
G54D12*
X57695Y35195D02*
X56783Y36107D01*
X74717Y36107D02*
X73805Y35195D01*
G54D13*
X57821Y35321D02*
X57256Y35886D01*
X74591Y36233D02*
X73679Y35321D01*
G54D12*
X57300Y49825D02*
X61076D01*
X57864Y35026D02*
X73726D01*
X57822Y35068D02*
X73733D01*
X57780Y35110D02*
X73747D01*
X57738Y35152D02*
X73770D01*
X57872Y35018D02*
X57695Y35195D01*
X57872Y35018D03*
X73725Y35000D03*
G54D15*
X66903Y28250D02*
X72124D01*
X64341Y30812D02*
X72124D01*
X61779Y33374D02*
X72124D01*
G54D12*
X66248Y26642D02*
X57872Y35018D01*
X73725Y35000D02*
Y26624D01*
G54D15*
X67379Y27773D02*
X59003Y36149D01*
X72124Y34999D02*
Y28250D01*
G54D12*
X58774Y72526D02*
X78225D01*
X58767Y72568D02*
X78225D01*
X58753Y72610D02*
X78225D01*
X58730Y72652D02*
X78225D01*
Y72677D02*
Y72500D01*
Y58124D02*
Y58089D01*
G54D10*
X60376Y59750D02*
X76624D01*
X60376Y62531D02*
X76624D01*
X60376Y65312D02*
X76624D01*
X60376Y68093D02*
X76624D01*
X60376Y70874D02*
X76624D01*
G54D12*
X58775Y72500D03*
X78225Y72500D03*
G54D16*
X59110Y57816D02*
X78199D01*
X59036Y57890D02*
X78199D01*
X58962Y57964D02*
X78199D01*
X58888Y58038D02*
X78199D01*
G54D12*
X59107Y57783D02*
X58783Y58107D01*
X78225Y58089D02*
Y57765D01*
G54D16*
X59125Y57801D02*
X58801Y58125D01*
X78199Y58089D02*
Y57765D01*
G54D12*
X78225D02*
Y57750D01*
X64000Y57775D02*
X59124D01*
X61076Y46475D02*
X59900D01*
X61000Y42725D02*
X65500D01*
X64187Y57702D02*
X78225D01*
X64160Y57725D02*
X78225D01*
Y57750D02*
Y57677D01*
G54D18*
X66845Y55583D02*
X77844D01*
X66283Y56146D02*
X77844D01*
X65721Y56708D02*
X77844D01*
X65158Y57271D02*
X77844D01*
G54D12*
X66695Y55195D02*
X64195Y57695D01*
X78225Y57677D02*
Y55177D01*
G54D18*
X66965Y55464D02*
X64464Y57965D01*
X77844Y57677D02*
Y55177D01*
G54D12*
X65660Y42775D02*
X78225D01*
X65687Y42798D02*
X78225D01*
Y42823D02*
Y42750D01*
G54D13*
X66168Y43026D02*
X78047D01*
X66464Y43323D02*
X78047D01*
X66761Y43620D02*
X78047D01*
G54D12*
X65695Y42805D02*
X66695Y43805D01*
X78225Y43823D02*
Y42823D01*
G54D13*
X65821Y42679D02*
X66821Y43679D01*
X78047Y43823D02*
Y42823D01*
G54D12*
X66283Y26607D02*
X66248Y26642D01*
G54D13*
X67673Y25468D02*
X72327D01*
X67367Y25774D02*
X72633D01*
X67061Y26080D02*
X72939D01*
X66756Y26386D02*
X73244D01*
G54D12*
X67607Y25283D02*
X66283Y26607D01*
X73717Y26607D02*
X72393Y25283D01*
G54D13*
X67673Y25468D02*
X66409Y26733D01*
X73244Y26386D02*
X72327Y25468D01*
G54D12*
X66730Y43848D02*
X78225D01*
X66753Y43890D02*
X78225D01*
X66767Y43932D02*
X78225D01*
X66774Y43974D02*
X78225D01*
Y44000D02*
Y43823D01*
X66774Y55026D02*
X78225D01*
X66767Y55068D02*
X78225D01*
X66753Y55110D02*
X78225D01*
X66730Y55152D02*
X78225D01*
Y55177D02*
Y55000D01*
X66775Y44000D03*
X78225Y44000D03*
G54D10*
X68376Y45626D02*
X76624D01*
X68376Y48209D02*
X76624D01*
X68376Y50791D02*
X76624D01*
X68376Y53374D02*
X76624D01*
G54D12*
X66775Y55000D03*
X78225Y55000D03*
X72376Y25275D02*
X67624D01*
X72785Y85825D02*
X1025D01*
G54D16*
X1051Y85851D02*
Y87184D01*
X72723Y85851D02*
X1051D01*
G54D17*
X1102Y85902D02*
Y87133D01*
X72601Y85902D02*
X1102D01*
G54D12*
X1025Y87210D02*
X71400D01*
G54D16*
X71390Y87184D02*
X72723Y85851D01*
X1051Y87184D02*
X71390D01*
G54D17*
X71369Y87133D02*
X72601Y85902D01*
X1102Y87133D02*
X71369D01*
G54D12*
X1025Y90710D02*
X39400D01*
G54D16*
X39390Y90684D02*
X42700Y87374D01*
X1051Y90684D02*
X39390D01*
G54D17*
X39369Y90633D02*
X42578Y87425D01*
X1102Y90633D02*
X39369D01*
G54D13*
X39327Y90532D02*
X42332Y87526D01*
X1203Y90532D02*
X39327D01*
G54D18*
X39243Y90329D02*
X41842Y87729D01*
X1406Y90329D02*
X39243D01*
G54D12*
X1025Y101564D02*
X57674D01*
G54D16*
X57612Y101538D02*
X56890Y100816D01*
X1051Y101538D02*
X57612D01*
G54D17*
X57490Y101487D02*
X56869Y100867D01*
X1102Y101487D02*
X57490D01*
G54D12*
X56900Y100790D02*
X1025D01*
G54D16*
X56890Y100816D02*
X1051D01*
G54D17*
X56869Y100867D02*
X1102D01*
G54D12*
X78174Y80436D02*
X37454D01*
G54D16*
X78112Y80462D02*
X37464D01*
X72948Y85626D02*
X78112Y80462D01*
G54D17*
X77990Y80513D02*
X37485D01*
X72927Y85575D02*
X77990Y80513D01*
G54D13*
X77744Y80614D02*
X37527D01*
X72885Y85474D02*
X77744Y80614D01*
G54D18*
X77254Y80817D02*
X37611D01*
X72801Y85271D02*
X77254Y80817D01*
G54D12*
X37539Y80351D02*
X78225D01*
G54D16*
X78199Y80325D02*
Y78816D01*
X37601Y80325D02*
X78199D01*
G54D17*
X78148Y80274D02*
Y78867D01*
X37723Y80274D02*
X78148D01*
G54D12*
X78225Y78790D02*
X39100D01*
G54D16*
X39110Y78816D02*
X37601Y80325D01*
X78199Y78816D02*
X39110D01*
G54D17*
X39131Y78867D02*
X37723Y80274D01*
X78148Y78867D02*
X39131D01*
G54D12*
X51061Y52549D02*
X45475D01*
G54D16*
X45501Y52575D02*
Y53725D01*
X50999Y52575D02*
X45501D01*
G54D17*
X45552Y52626D02*
Y53674D01*
X50877Y52626D02*
X45552D01*
G54D12*
X45475Y53751D02*
X49859D01*
G54D16*
X45501Y53725D02*
X49849D01*
G54D17*
X45552Y53674D02*
X49828D01*
G54D12*
X49774Y53836D02*
X45526D01*
G54D16*
X45588Y53862D02*
X46010Y54284D01*
X49712Y53862D02*
X45588D01*
G54D12*
X46000Y54310D02*
X49300D01*
G54D16*
X46010Y54284D02*
X49290D01*
X49712Y53862D01*
G54D12*
X45639Y52351D02*
X51225D01*
X50400Y40790D02*
X47400D01*
G54D16*
X50390Y40816D02*
X47410D01*
X50700Y41126D02*
X50390Y40816D01*
X47410D02*
X47100Y41126D01*
G54D12*
X55075Y52651D02*
X56059D01*
X74759Y36149D02*
X56775D01*
G54D16*
X56801Y36175D02*
Y39538D01*
X74749Y36175D02*
X56801D01*
G54D17*
X56852Y36226D02*
Y39487D01*
X74728Y36226D02*
X56852D01*
G54D13*
X56953Y36327D02*
Y39386D01*
X74686Y36327D02*
X56953D01*
G54D18*
X57156Y36530D02*
Y39183D01*
X74602Y36530D02*
X57156D01*
G54D12*
X56775Y39564D02*
X78174D01*
G54D16*
X78112Y39538D02*
X74749Y36175D01*
X56801Y39538D02*
X78112D01*
G54D17*
X77990Y39487D02*
X74728Y36226D01*
X56852Y39487D02*
X77990D01*
G54D13*
X77744Y39386D02*
X74686Y36327D01*
X56953Y39386D02*
X77744D01*
G54D18*
X77254Y39183D02*
X74602Y36530D01*
X57156Y39183D02*
X77254D01*
G54D12*
X56826Y36064D02*
X74674D01*
G54D16*
X56888Y36038D02*
X74612D01*
X57698Y35228D02*
X56888Y36038D01*
G54D17*
X57010Y35987D02*
X74490D01*
X57719Y35279D02*
X57010Y35987D01*
G54D12*
X73725Y26649D02*
X66241D01*
G54D16*
X73699Y26675D02*
X66251D01*
X73699Y34949D02*
Y26675D01*
G54D17*
X73648Y26726D02*
X66272D01*
X73648Y34898D02*
Y26726D01*
G54D13*
X73547Y26827D02*
X66314D01*
X73547Y34797D02*
Y26827D01*
G54D18*
X73344Y27030D02*
X66398D01*
X73344Y34594D02*
Y27030D01*
G54D14*
X72937Y27437D02*
X66567D01*
X72937Y34187D02*
Y27437D01*
G54D12*
X66326Y26564D02*
X73674D01*
G54D16*
X73612Y26538D02*
X72390Y25316D01*
X66388Y26538D02*
X73612D01*
G54D17*
X73490Y26487D02*
X72369Y25367D01*
X66510Y26487D02*
X73490D01*
G54D12*
X72400Y25290D02*
X67600D01*
G54D16*
X72390Y25316D02*
X67610D01*
G54D17*
X72369Y25367D02*
X67631D01*
G54D16*
X67610Y25316D02*
X66388Y26538D01*
G54D17*
X67631Y25367D02*
X66510Y26487D01*
G54D11*
X57700Y109487D02*
G02X57737Y109450I0J-37D01*
X56902Y100774D02*
G02X56876Y100763I-27J26D01*
X7500D02*
G03X7314Y100686I-0J-263D01*
X6813Y100185D02*
G03X6737Y100000I187J-185D01*
Y94000D02*
G03X6814Y93814I263J-0D01*
X9815Y90813D02*
G03X10000Y90737I185J187D01*
X42814Y87314D02*
G03X43000Y87237I185J187D01*
X78226Y80402D02*
G02X78237Y80376I-26J-27D01*
X73814Y35186D02*
G03X73737Y35000I187J-185D01*
X72402Y25274D02*
G02X72376Y25263I-27J26D01*
X56774Y36098D02*
G02X56763Y36124I26J27D01*
Y40500D02*
G03X56686Y40686I-263J0D01*
X56185Y41187D02*
G03X56000Y41263I-185J-187D01*
X51000D02*
G03X50814Y41186I-0J-263D01*
X46774Y41398D02*
G02X46763Y41424I26J27D01*
X47098Y42726D02*
G02X47124Y42737I27J-26D01*
X49000D02*
G03X49186Y42814I0J263D01*
X49687Y43315D02*
G03X49763Y43500I-187J185D01*
Y46000D02*
G03X49686Y46186I-263J0D01*
X49285Y46587D02*
G03X49100Y46663I-185J-187D01*
X46274Y46798D02*
G02X46263Y46824I26J27D01*
X46398Y47826D02*
G02X46424Y47837I27J-26D01*
X48500D02*
G03X48686Y47914I0J263D01*
X49187Y48415D02*
G03X49263Y48600I-187J185D01*
Y50900D02*
G03X49186Y51086I-263J0D01*
X48285Y51987D02*
G03X48100Y52063I-185J-187D01*
X45474Y52498D02*
G02X45463Y52524I26J27D01*
X45998Y54326D02*
G02X46024Y54337I27J-26D01*
X51226Y52402D02*
G02X51237Y52376I-26J-27D01*
Y50500D02*
G03X51314Y50314I263J-0D01*
X51815Y49813D02*
G03X52000Y49737I185J187D01*
X54000D02*
G03X54186Y49814I0J263D01*
X54987Y50615D02*
G03X55063Y50800I-187J185D01*
X55098Y52726D02*
G02X55124Y52737I27J-26D01*
X56326Y52402D02*
G02X56337Y52376I-26J-27D01*
Y50800D02*
G03X56414Y50614I263J-0D01*
X57115Y49913D02*
G03X57300Y49837I185J187D01*
X61326Y49602D02*
G02X61337Y49576I-26J-27D01*
X61102Y46474D02*
G02X61076Y46463I-27J26D01*
X59900D02*
G03X59714Y46386I-0J-263D01*
X59313Y45985D02*
G03X59237Y45800I187J-185D01*
Y44500D02*
G03X59314Y44314I263J-0D01*
X60815Y42813D02*
G03X61000Y42737I185J187D01*
X65500D02*
G03X65686Y42814I0J263D01*
X66687Y43815D02*
G03X66763Y44000I-187J185D01*
Y55000D02*
G03X66686Y55186I-263J0D01*
X64185Y57687D02*
G03X64000Y57763I-185J-187D01*
X58774Y58098D02*
G02X58763Y58124I26J27D01*
Y72500D02*
G03X58686Y72686I-263J0D01*
X52686Y78686D02*
G03X52500Y78763I-185J-187D01*
X32186Y85686D02*
G03X32000Y85763I-185J-187D01*
X1050D02*
G02X1013Y85800I0J37D01*
Y109450D02*
G02X1050Y109487I37J0D01*
G54D12*
X1050Y85775D02*
G02X1025Y85800I0J25D01*
X71376Y87225D02*
G02X71393Y87217I-0J-24D01*
X42805Y87305D02*
G03X43000Y87225I195J195D01*
X39376Y90725D02*
G02X39393Y90717I-0J-24D01*
X9805Y90805D02*
G03X10000Y90725I195J195D01*
X6725Y94000D02*
G03X6805Y93805I276J0D01*
Y100195D02*
G03X6725Y100000I195J-195D01*
X7500Y100775D02*
G03X7305Y100695I0J-276D01*
X56893Y100783D02*
G02X56876Y100775I-18J17D01*
X57725Y101624D02*
G02X57717Y101607I-24J0D01*
X1025Y109450D02*
G02X1050Y109475I25J0D01*
X57700D02*
G02X57725Y109450I0J-25D01*
X32195Y85695D02*
G03X32000Y85775I-195J-195D01*
X78217Y80393D02*
G02X78225Y80376I-17J-18D01*
X39124Y78775D02*
G02X39107Y78783I0J24D01*
X45483Y52507D02*
G02X45475Y52524I17J18D01*
Y53776D02*
G02X45483Y53793I24J-0D01*
X51217Y52393D02*
G02X51225Y52376I-17J-18D01*
X45924Y52075D02*
G02X45907Y52083I0J24D01*
X46007Y54317D02*
G02X46024Y54325I18J-17D01*
X49276D02*
G02X49293Y54317I-0J-24D01*
X46283Y46807D02*
G02X46275Y46824I17J18D01*
Y47676D02*
G02X46283Y47693I24J-0D01*
X61325Y46724D02*
G02X61317Y46707I-24J0D01*
X46424Y46675D02*
G02X46407Y46683I0J24D01*
Y47817D02*
G02X46424Y47825I18J-17D01*
X46783Y41407D02*
G02X46775Y41424I17J18D01*
Y42376D02*
G02X46783Y42393I24J-0D01*
X51000Y41275D02*
G03X50805Y41195I0J-276D01*
X47107Y42717D02*
G02X47124Y42725I18J-17D01*
X47424Y40775D02*
G02X47407Y40783I0J24D01*
X50393D02*
G02X50376Y40775I-18J17D01*
X48295Y51995D02*
G03X48100Y52075I-195J-195D01*
X48500Y47825D02*
G03X48695Y47905I0J276D01*
X49000Y42725D02*
G03X49195Y42805I0J276D01*
X60805D02*
G03X61000Y42725I195J195D01*
X49295Y46595D02*
G03X49100Y46675I-195J-195D01*
X49195Y48405D02*
G03X49275Y48600I-195J195D01*
Y50900D02*
G03X49195Y51095I-276J0D01*
X61317Y49593D02*
G02X61325Y49576I-17J-18D01*
X51805Y49805D02*
G03X52000Y49725I195J195D01*
X51225Y50500D02*
G03X51305Y50305I276J0D01*
X61093Y46483D02*
G02X61076Y46475I-18J17D01*
X59900Y46475D02*
G03X59705Y46395I0J-276D01*
X49695Y43305D02*
G03X49775Y43500I-195J195D01*
Y46000D02*
G03X49695Y46195I-276J0D01*
X59225Y44500D02*
G03X59305Y44305I276J0D01*
Y45995D02*
G03X59225Y45800I195J-195D01*
X52695Y78695D02*
G03X52500Y78775I-195J-195D01*
X54000Y49725D02*
G03X54195Y49805I0J276D01*
X61076Y49825D02*
G02X61093Y49817I-0J-24D01*
X57105Y49905D02*
G03X57300Y49825I195J195D01*
X54995Y50605D02*
G03X55075Y50800I-195J195D01*
X56325D02*
G03X56405Y50605I276J0D01*
X56317Y52393D02*
G02X56325Y52376I-17J-18D01*
X55075Y52676D02*
G02X55083Y52693I24J-0D01*
X55107Y52717D02*
G02X55124Y52725I18J-17D01*
X55976D02*
G02X55993Y52717I-0J-24D01*
X56195Y41195D02*
G03X56000Y41275I-195J-195D01*
X56775Y40500D02*
G03X56695Y40695I-276J0D01*
X56783Y36107D02*
G02X56775Y36124I17J18D01*
X78225Y39624D02*
G02X78217Y39607I-24J0D01*
X73805Y35195D02*
G03X73725Y35000I195J-195D01*
X58775Y72500D02*
G03X58695Y72695I-276J0D01*
X58783Y58107D02*
G02X58775Y58124I17J18D01*
X59124Y57775D02*
G02X59107Y57783I0J24D01*
X64195Y57695D02*
G03X64000Y57775I-195J-195D01*
X65500Y42725D02*
G03X65695Y42805I0J276D01*
X73725Y26624D02*
G02X73717Y26607I-24J0D01*
X66695Y43805D02*
G03X66775Y44000I-195J195D01*
Y55000D02*
G03X66695Y55195I-276J0D01*
X67624Y25275D02*
G02X67607Y25283I0J24D01*
X72393D02*
G02X72376Y25275I-18J17D01*
G54D10*
X2626Y113126D02*
G01X94374D01*
X2626Y115500D02*
X94374D01*
X2626Y117874D02*
X94374D01*
G54D11*
X95987Y109450D02*
Y39800D01*
X95950Y39763D02*
X78800D01*
X78763Y39800D02*
Y80500D01*
X78686Y80686D02*
X71686Y87686D01*
X71500Y87763D02*
X43124D01*
X43099Y87773D01*
X39686Y91186D01*
X39500Y91263D02*
X10124D01*
X10099Y91273D01*
X7274Y94098D01*
X7263Y94124D02*
Y99876D01*
X7273Y99901D01*
X7598Y100226D01*
X7624Y100237D02*
X57000D01*
X57186Y100314D02*
X58187Y101315D01*
X58263Y101500D02*
Y109450D01*
X58300Y109487D02*
X95950D01*
G54D12*
X7275Y99876D02*
X95975D01*
X7275Y94124D02*
X95975D01*
X7300Y99911D02*
X95975D01*
X7300Y94089D02*
X95975D01*
X57074Y100235D02*
X95975D01*
X57115Y100250D02*
X95975D01*
X39574Y91265D02*
X95975D01*
X39615Y91250D02*
X95975D01*
X39712Y91177D02*
X95975D01*
X71574Y87765D02*
X95975D01*
X57212Y100323D02*
X95975D01*
X58211Y101323D02*
X95975D01*
X58275Y101500D02*
X95975D01*
X58275Y101500D02*
X95975D01*
X58275Y109450D02*
X95975D01*
X71615Y87750D02*
X95975D01*
X71712Y87677D02*
X95975D01*
X78711Y80677D02*
X95975D01*
X78775Y80500D02*
X95975D01*
X78775Y39800D02*
X95975D01*
X78775Y80500D02*
X95975D01*
G54D10*
X8876Y95750D02*
X94374D01*
X8876Y98250D02*
X94374D01*
G54D12*
X95975Y94124D02*
Y94089D01*
Y99911D02*
Y99876D01*
G54D18*
X10257Y91671D02*
X95594D01*
X9587Y92342D02*
X95594D01*
X8917Y93012D02*
X95594D01*
X8246Y93683D02*
X95594D01*
G54D12*
X10107Y91283D02*
X7283Y94107D01*
X95975Y94089D02*
Y91265D01*
G54D18*
X10257Y91671D02*
X8246Y93683D01*
X95594Y94089D02*
Y91265D01*
G54D16*
X7388Y99962D02*
X95949D01*
X7462Y100036D02*
X95949D01*
X7536Y100110D02*
X95949D01*
X7610Y100184D02*
X95949D01*
G54D12*
X7283Y99893D02*
X7607Y100217D01*
X95975Y100235D02*
Y99911D01*
G54D16*
X7301Y99875D02*
X7625Y100199D01*
X95949Y100235D02*
Y99911D01*
G54D12*
X95975Y100250D02*
Y100235D01*
X7624Y100225D02*
X57000D01*
X95975Y91265D02*
Y91250D01*
X39500Y91275D02*
X10124D01*
X39687Y91202D02*
X95975D01*
X39660Y91225D02*
X95975D01*
Y91250D02*
Y91177D01*
G54D14*
X43426Y88578D02*
X95187D01*
X42532Y89471D02*
X95187D01*
X41639Y90364D02*
X95187D01*
G54D12*
X43107Y87783D02*
X39695Y91195D01*
X95975Y91177D02*
Y87765D01*
G54D14*
X43426Y88578D02*
X40251Y91752D01*
X95187Y91177D02*
Y87765D01*
G54D12*
X95975D02*
Y87750D01*
X71500Y87775D02*
X43124D01*
X57160Y100275D02*
X95975D01*
X57187Y100298D02*
X95975D01*
Y100323D02*
Y100250D01*
G54D13*
X57668Y100526D02*
X95797D01*
X57964Y100823D02*
X95797D01*
X58261Y101120D02*
X95797D01*
G54D12*
X57195Y100305D02*
X58195Y101305D01*
X95975Y101323D02*
Y100323D01*
G54D13*
X57321Y100179D02*
X58321Y101179D01*
X95797Y101323D02*
Y100323D01*
G54D12*
X58230Y101348D02*
X95975D01*
X58253Y101390D02*
X95975D01*
X58267Y101432D02*
X95975D01*
X58274Y101474D02*
X95975D01*
Y101500D02*
Y101323D01*
X58275Y101500D03*
X95975Y101500D03*
G54D10*
X59876Y103126D02*
X94374D01*
X59876Y105475D02*
X94374D01*
X59876Y107824D02*
X94374D01*
G54D11*
X58265Y109463D02*
X95985D01*
X58272Y109475D02*
X95978D01*
X58300Y109487D02*
X95950D01*
G54D12*
X58300Y109475D02*
X95950D01*
X71687Y87702D02*
X95975D01*
X71660Y87725D02*
X95975D01*
Y87750D02*
Y87677D01*
G54D15*
X79350Y82303D02*
X94374D01*
X77476Y84177D02*
X94374D01*
X75602Y86051D02*
X94374D01*
G54D12*
X78695Y80695D02*
X71695Y87695D01*
X95975Y87677D02*
Y80677D01*
G54D15*
X79827Y81826D02*
X72826Y88827D01*
X94374Y87677D02*
Y80677D01*
G54D12*
X78774Y80526D02*
X95975D01*
X78767Y80568D02*
X95975D01*
X78753Y80610D02*
X95975D01*
X78730Y80652D02*
X95975D01*
Y80677D02*
Y80500D01*
G54D10*
X80376Y41426D02*
Y78874D01*
X83175Y41426D02*
Y78874D01*
X85975Y41426D02*
Y78874D01*
X88775Y41426D02*
Y78874D01*
X91575Y41426D02*
Y78874D01*
X94374Y41426D02*
Y78874D01*
G54D11*
X78800Y39763D02*
X95950D01*
X78772Y39775D02*
X95978D01*
X78765Y39787D02*
X95985D01*
G54D12*
X95950Y39775D02*
X78800D01*
X78775Y80500D03*
X95975Y80500D03*
X7326Y94064D02*
X95975D01*
G54D16*
X7388Y94038D02*
X95949D01*
X10110Y91316D02*
X7388Y94038D01*
G54D17*
X7510Y93987D02*
X95898D01*
X10131Y91367D02*
X7510Y93987D01*
G54D13*
X7756Y93886D02*
X95797D01*
X10173Y91468D02*
X7756Y93886D01*
G54D12*
X95975Y91290D02*
X10100D01*
G54D16*
X95949Y91316D02*
X10110D01*
G54D17*
X95898Y91367D02*
X10131D01*
G54D13*
X95797Y91468D02*
X10173D01*
G54D12*
X95975Y87790D02*
X43100D01*
G54D16*
X43110Y87816D02*
X39800Y91126D01*
X95949Y87816D02*
X43110D01*
G54D17*
X43131Y87867D02*
X39922Y91075D01*
X95898Y87867D02*
X43131D01*
G54D13*
X43173Y87968D02*
X40168Y90974D01*
X95797Y87968D02*
X43173D01*
G54D18*
X43257Y88171D02*
X40658Y90771D01*
X95594Y88171D02*
X43257D01*
G54D11*
X95950Y109487D02*
G02X95987Y109450I0J-37D01*
Y39800D02*
G02X95950Y39763I-37J0D01*
X78800D02*
G02X78763Y39800I0J37D01*
Y80500D02*
G03X78686Y80686I-263J0D01*
X71686Y87686D02*
G03X71500Y87763I-185J-187D01*
X39686Y91186D02*
G03X39500Y91263I-185J-187D01*
X7274Y94098D02*
G02X7263Y94124I26J27D01*
X7598Y100226D02*
G02X7624Y100237I27J-26D01*
X57000D02*
G03X57186Y100314I0J263D01*
X58187Y101315D02*
G03X58263Y101500I-187J185D01*
Y109450D02*
G02X58300Y109487I37J0D01*
G54D12*
X7283Y94107D02*
G02X7275Y94124I17J18D01*
Y99876D02*
G02X7283Y99893I24J-0D01*
X7607Y100217D02*
G02X7624Y100225I18J-17D01*
X10124Y91275D02*
G02X10107Y91283I0J24D01*
X39695Y91195D02*
G03X39500Y91275I-195J-195D01*
X43124Y87775D02*
G02X43107Y87783I0J24D01*
X57000Y100225D02*
G03X57195Y100305I0J276D01*
X58195Y101305D02*
G03X58275Y101500I-195J195D01*
Y109450D02*
G02X58300Y109475I25J0D01*
X95950D02*
G02X95975Y109450I0J-25D01*
X71695Y87695D02*
G03X71500Y87775I-195J-195D01*
X78775Y80500D02*
G03X78695Y80695I-276J0D01*
X78800Y39775D02*
G02X78775Y39800I0J25D01*
X95975D02*
G02X95950Y39775I-25J0D01*
G54D11*
X30337Y9700D02*
G01Y1650D01*
X30300Y1613D02*
X18050D01*
X18013Y1650D02*
Y9700D01*
X18050Y9737D02*
X30300D01*
G54D12*
X18025Y9700D02*
X30325D01*
X18025Y1650D02*
X30325D01*
G54D10*
X19626Y3276D02*
X28724D01*
X19626Y5675D02*
X28724D01*
X19626Y8074D02*
X28724D01*
G54D11*
X18050Y1613D02*
X30300D01*
X18022Y1625D02*
X30328D01*
X18015Y1637D02*
X30335D01*
G54D12*
X30300Y1625D02*
X18050D01*
G54D11*
X18015Y9713D02*
X30335D01*
X18022Y9725D02*
X30328D01*
X18050Y9737D02*
X30300D01*
G54D12*
X18050Y9725D02*
X30300D01*
G54D11*
Y9737D02*
G02X30337Y9700I0J-37D01*
Y1650D02*
G02X30300Y1613I-37J0D01*
X18050D02*
G02X18013Y1650I0J37D01*
Y9700D02*
G02X18050Y9737I37J0D01*
G54D12*
Y1625D02*
G02X18025Y1650I0J25D01*
X30325D02*
G02X30300Y1625I-25J0D01*
X18025Y9700D02*
G02X18050Y9725I25J0D01*
X30300D02*
G02X30325Y9700I0J-25D01*
G54D11*
X95987Y39200D02*
G01Y13800D01*
X95950Y13763D02*
X65800D01*
X65763Y13800D02*
Y17000D01*
X65686Y17186D02*
X59186Y23686D01*
X59000Y23763D02*
X54000D01*
X53814Y23686D02*
X52813Y22685D01*
X52737Y22500D02*
Y12111D01*
X52674Y12084D02*
X50131Y14627D01*
D03*
X48912Y14125D02*
Y13000D01*
X49121Y12496D02*
X52369Y9248D01*
X52737Y9021D02*
Y5650D01*
X52700Y5613D02*
X46050D01*
X46013Y5650D02*
Y6650D01*
X46650Y6387D02*
X47650D01*
X48363Y7100D02*
Y10100D01*
X47650Y10813D02*
X46650D01*
X46013Y10550D02*
Y10925D01*
X40337D02*
Y5550D01*
X40300Y5513D02*
X34400D01*
X34363Y5550D02*
Y12750D01*
X33350Y13763D02*
X33300D01*
X33263Y13800D02*
Y22376D01*
X33273Y22401D01*
X39186Y28314D01*
X39263Y28500D02*
Y35700D01*
X39300Y35737D02*
X56376D01*
X56401Y35727D01*
X67314Y24814D01*
X67500Y24737D02*
X72500D01*
X72686Y24814D02*
X74187Y26315D01*
X74263Y26500D02*
Y34876D01*
X74273Y34901D01*
X78598Y39226D01*
X78624Y39237D02*
X95950D01*
G54D12*
X33275Y13800D02*
X48900D01*
X33275Y14125D02*
X48900D01*
X33275Y14125D02*
X48900D01*
X33275Y14825D02*
X49436D01*
X33275Y22376D02*
X52725D01*
X33300Y22411D02*
X52725D01*
X33389Y22500D02*
X52725D01*
X33575Y13750D02*
X42798D01*
X33390Y22500D02*
X52725D01*
X33566Y22677D02*
X52789D01*
X34566Y23677D02*
X53788D01*
X34375Y5550D02*
X40325D01*
X34375Y10925D02*
X40325D01*
X34375Y12750D02*
X40986D01*
X34639Y23750D02*
X53885D01*
X35639Y24750D02*
X67385D01*
X72615D02*
X95975D01*
X35712Y24823D02*
X67288D01*
X39211Y28323D02*
X63788D01*
X39275Y28500D02*
X63611D01*
X39275Y35700D02*
X56411D01*
X39275Y28500D02*
X63611D01*
X43552Y13750D02*
X48900D01*
X45129Y13000D02*
X48900D01*
X45129Y13000D02*
X48900D01*
X45547Y12505D02*
X49095D01*
X46025Y6400D02*
X46461D01*
X47839D02*
X52725D01*
X46025Y5650D02*
X52725D01*
X46025Y6650D02*
X46082D01*
X46025Y10800D02*
X46461D01*
X46025Y10550D02*
X46082D01*
X46025Y10925D02*
X50675D01*
X48375Y7100D02*
X52725D01*
X47839Y10800D02*
X50800D01*
X48375Y9021D02*
X52725D01*
X48375Y9069D02*
X52626D01*
X48375Y9257D02*
X52343D01*
X48375Y10100D02*
X51500D01*
X49814Y14825D02*
X52725D01*
X50157Y14618D02*
X52725D01*
X52664Y12111D02*
X52725D01*
X52664Y12111D02*
X52725D01*
X59115Y23750D02*
X95975D01*
X59115D02*
X95975D01*
X59212Y23677D02*
X95975D01*
X65711Y17177D02*
X95975D01*
X65775Y13800D02*
X95975D01*
X65775Y17000D02*
X95975D01*
X65775Y17000D02*
X95975D01*
X72712Y24823D02*
X95975D01*
X74211Y26323D02*
X95975D01*
X74275Y26500D02*
X95975D01*
X74275Y34876D02*
X95975D01*
X74275Y26500D02*
X95975D01*
X74300Y34911D02*
X95975D01*
X78589Y39200D02*
X95975D01*
G54D11*
X33300Y13763D02*
X48912D01*
X33272Y13775D02*
X48912D01*
X33265Y13787D02*
X48912D01*
G54D12*
X48900Y13800D02*
Y13750D01*
X33350Y13775D02*
X33300D01*
G54D20*
X33352Y13902D02*
X48823D01*
X33352Y14023D02*
X48823D01*
G54D12*
X33275Y14125D03*
X48900Y14125D03*
G54D17*
X33352Y14227D02*
X48830D01*
X33352Y14392D02*
X48869D01*
X33352Y14558D02*
X48950D01*
X33352Y14723D02*
X49092D01*
G54D12*
X33275Y14125D02*
Y14825D01*
G54D17*
X33352Y14125D02*
Y14825D01*
G54D10*
X34876Y16451D02*
X51124D01*
X34876Y18601D02*
X51124D01*
X34876Y20750D02*
X51124D01*
G54D12*
X52725Y22411D02*
Y22376D01*
X33326Y22436D02*
X52725D01*
X33365Y22475D02*
X52725D01*
X33283Y22393D02*
X33372Y22482D01*
X52725Y22500D02*
Y22411D01*
G54D13*
X34536Y12953D02*
X40926D01*
X34444Y13250D02*
X41235D01*
X34252Y13547D02*
X41660D01*
G54D12*
X33372Y22482D03*
X52725Y22500D03*
X33416Y22526D02*
X52726D01*
X33458Y22568D02*
X52733D01*
X33500Y22610D02*
X52747D01*
X33542Y22652D02*
X52770D01*
X33372Y22482D02*
X33549Y22659D01*
G54D13*
X34022Y22880D02*
X52739D01*
X34318Y23177D02*
X53036D01*
X34615Y23474D02*
X53332D01*
G54D12*
X33549Y22659D02*
X34549Y23659D01*
X53805Y23695D02*
X52805Y22695D01*
G54D13*
X33675Y22533D02*
X34675Y23533D01*
X53679Y23821D02*
X52679Y22821D01*
G54D11*
X34400Y5513D02*
X40300D01*
X34372Y5525D02*
X40328D01*
X34365Y5537D02*
X40335D01*
G54D12*
X40300Y5525D02*
X34400D01*
G54D10*
X35976Y7176D02*
X38724D01*
X35976Y9299D02*
X38724D01*
G54D18*
X34756Y11331D02*
X39969D01*
X34756Y11837D02*
X40075D01*
X34756Y12344D02*
X40272D01*
G54D12*
X34375Y10925D02*
Y12750D01*
G54D18*
X34756Y10925D02*
Y12750D01*
G54D12*
X34592Y23702D02*
X53813D01*
X34615Y23725D02*
X53840D01*
X34549Y23659D02*
X34622Y23732D01*
G54D13*
X35095Y23953D02*
X95797D01*
X35391Y24250D02*
X95797D01*
X35688Y24547D02*
X95797D01*
G54D12*
X34622Y23732D02*
X35622Y24732D01*
X95975Y24750D02*
Y23750D01*
G54D13*
X34748Y23606D02*
X35748Y24606D01*
X95797Y24750D02*
Y23750D01*
G54D12*
X35665Y24775D02*
X67340D01*
X35688Y24798D02*
X67313D01*
X35622Y24732D02*
X35695Y24805D01*
G54D14*
X37639Y25636D02*
X65361D01*
X38576Y26573D02*
X64424D01*
X39514Y27510D02*
X63486D01*
G54D12*
X35695Y24805D02*
X39195Y28305D01*
X63805Y28305D02*
X67305Y24805D01*
G54D14*
X36252Y24248D02*
X39752Y27749D01*
X63248Y27748D02*
X66749Y24248D01*
G54D12*
X39230Y28348D02*
X63762D01*
X39253Y28390D02*
X63720D01*
X39267Y28432D02*
X63678D01*
X39274Y28474D02*
X63636D01*
X63628Y28482D02*
X63805Y28305D01*
G54D15*
X40876Y30126D02*
X59721D01*
X40876Y32100D02*
X57747D01*
X40876Y34074D02*
X55773D01*
G54D12*
X39275Y28500D02*
Y35700D01*
X56428Y35682D02*
X63628Y28482D01*
G54D15*
X40876Y28501D02*
Y34074D01*
X55773D02*
X62497Y27351D01*
G54D12*
X39275Y28500D03*
X63628Y28482D03*
X56393Y35717D02*
X56428Y35682D01*
X39300Y35725D02*
X56376D01*
G54D17*
X45131Y13102D02*
X48823D01*
X44907Y13284D02*
X48823D01*
X44627Y13466D02*
X48823D01*
X44246Y13648D02*
X48823D01*
G54D12*
X48900Y13750D02*
Y13000D01*
G54D17*
X48823Y13750D02*
Y13000D01*
G54D12*
X45109Y13019D03*
X48900Y13000D03*
G54D17*
X45570Y12607D02*
X48927D01*
X45461Y12752D02*
X48863D01*
X45336Y12898D02*
X48830D01*
G54D13*
X46196Y11128D02*
X50219D01*
X46144Y11519D02*
X49828D01*
X46038Y11911D02*
X49437D01*
X45872Y12302D02*
X49046D01*
G54D12*
X49112Y12487D02*
X50692Y10907D01*
G54D13*
X48986Y12361D02*
X50566Y10781D01*
G54D21*
X46203Y5853D02*
X52547D01*
X46203Y6197D02*
X52547D01*
G54D11*
X46050Y5613D02*
X52700D01*
X46022Y5625D02*
X52728D01*
X46015Y5637D02*
X52735D01*
G54D12*
X52700Y5625D02*
X46050D01*
G54D16*
X46051Y6451D02*
X46273D01*
X46051Y6525D02*
X46167D01*
X46051Y6599D02*
X46091D01*
G54D12*
X46025Y6400D02*
Y6650D01*
G54D16*
X46051Y6400D02*
Y6599D01*
G54D12*
X46070Y6665D02*
X46094Y6634D01*
G54D16*
X46051Y10601D02*
X46091D01*
X46051Y10675D02*
X46167D01*
X46051Y10749D02*
X46273D01*
G54D12*
X46025Y10550D02*
Y10800D01*
G54D16*
X46051Y10601D02*
Y10800D01*
G54D12*
X46094Y10566D02*
X46070Y10535D01*
X46025Y10825D02*
X50774D01*
X46025Y10863D02*
X50737D01*
X46025Y10900D02*
X50699D01*
X46025Y10800D02*
Y10925D01*
X50692Y10907D02*
X50817Y10782D01*
X47650Y10825D02*
X46650D01*
G54D17*
X48183Y6502D02*
X52648D01*
X48325Y6667D02*
X52648D01*
X48406Y6833D02*
X52648D01*
X48445Y6998D02*
X52648D01*
G54D12*
X52725Y7100D02*
Y6400D01*
G54D17*
X52648Y7100D02*
Y6400D01*
X48445Y10202D02*
X51290D01*
X48406Y10367D02*
X51124D01*
X48325Y10533D02*
X50959D01*
X48183Y10698D02*
X50793D01*
G54D12*
X50817Y10782D02*
X51517Y10082D01*
G54D17*
X50763Y10728D02*
X51463Y10028D01*
G54D22*
X49163Y7913D02*
X51937D01*
X49163Y8208D02*
X51937D01*
G54D12*
X48375Y9045D02*
X52702D01*
X48375Y9021D02*
Y9069D01*
Y9094D02*
X52564D01*
X48375Y9129D02*
X52500D01*
X48375Y9163D02*
X52449D01*
X48375Y9197D02*
X52405D01*
X48375Y9232D02*
X52368D01*
X48375Y9069D02*
Y9257D01*
G54D13*
X48553Y9460D02*
X51887D01*
X48553Y9679D02*
X51669D01*
X48553Y9897D02*
X51451D01*
G54D12*
X48375Y9257D02*
Y10100D01*
X51517Y10082D02*
X52360Y9239D01*
G54D13*
X48553Y9257D02*
Y10100D01*
X51391Y9956D02*
X52234Y9114D01*
G54D16*
X50143Y14669D02*
X52699D01*
X50081Y14722D02*
X52699D01*
X50002Y14774D02*
X52699D01*
G54D12*
X52725Y14825D02*
Y14618D01*
G54D16*
X52699Y14825D02*
Y14618D01*
X52650Y12162D02*
X52699D01*
X52558Y12254D02*
X52699D01*
X52465Y12347D02*
X52699D01*
X52372Y12439D02*
X52699D01*
X52280Y12532D02*
X52699D01*
X52187Y12624D02*
X52699D01*
X52095Y12717D02*
X52699D01*
X52002Y12809D02*
X52699D01*
X51910Y12902D02*
X52699D01*
X51817Y12994D02*
X52699D01*
X51725Y13087D02*
X52699D01*
X51632Y13179D02*
X52699D01*
X51540Y13272D02*
X52699D01*
X51447Y13364D02*
X52699D01*
X51355Y13457D02*
X52699D01*
X51262Y13550D02*
X52699D01*
X51170Y13642D02*
X52699D01*
X51077Y13735D02*
X52699D01*
X50985Y13827D02*
X52699D01*
X50892Y13920D02*
X52699D01*
X50800Y14012D02*
X52699D01*
X50707Y14105D02*
X52699D01*
X50615Y14197D02*
X52699D01*
X50522Y14290D02*
X52699D01*
X50430Y14382D02*
X52699D01*
X50337Y14475D02*
X52699D01*
X50245Y14567D02*
X52699D01*
G54D12*
X52647Y12129D02*
X50140Y14636D01*
X52725Y14618D02*
Y12111D01*
G54D16*
X52665Y12147D02*
X50158Y14654D01*
X52699Y14618D02*
Y12162D01*
G54D12*
X52647Y12129D03*
X52725Y12111D03*
X52683Y12093D02*
X52647Y12129D01*
X59000Y23775D02*
X54000D01*
X59187Y23702D02*
X95975D01*
X59160Y23725D02*
X95975D01*
Y23750D02*
Y23677D01*
G54D14*
X66014Y17990D02*
X95187D01*
X64795Y19208D02*
X95187D01*
X63576Y20427D02*
X95187D01*
X62358Y21646D02*
X95187D01*
X61139Y22864D02*
X95187D01*
G54D12*
X65695Y17195D02*
X59195Y23695D01*
X95975Y23677D02*
Y17177D01*
G54D14*
X66252Y17751D02*
X59751Y24252D01*
X95187Y23677D02*
Y17177D01*
G54D12*
X65774Y17026D02*
X95975D01*
X65767Y17068D02*
X95975D01*
X65753Y17110D02*
X95975D01*
X65730Y17152D02*
X95975D01*
Y17177D02*
Y17000D01*
G54D11*
X65800Y13763D02*
X95950D01*
X65772Y13775D02*
X95978D01*
X65765Y13787D02*
X95985D01*
G54D12*
X95950Y13775D02*
X65800D01*
G54D22*
X66563Y14613D02*
X95187D01*
X66563Y16187D02*
X95187D01*
G54D12*
X65775Y17000D03*
X95975Y17000D03*
X67500Y24725D02*
X72500D01*
X72660Y24775D02*
X95975D01*
X72687Y24798D02*
X95975D01*
Y24823D02*
Y24750D01*
G54D13*
X73168Y25026D02*
X95797D01*
X73532Y25391D02*
X95797D01*
X73897Y25755D02*
X95797D01*
X74261Y26120D02*
X95797D01*
G54D12*
X72695Y24805D02*
X74195Y26305D01*
X95975Y26323D02*
Y24823D01*
G54D13*
X72821Y24679D02*
X74321Y26179D01*
X95797Y26323D02*
Y24823D01*
G54D12*
X74230Y26348D02*
X95975D01*
X74253Y26390D02*
X95975D01*
X74267Y26432D02*
X95975D01*
X74274Y26474D02*
X95975D01*
Y26500D02*
Y26323D01*
G54D10*
X75876Y28126D02*
X94374D01*
X75876Y30688D02*
X94374D01*
X75876Y33250D02*
X94374D01*
G54D12*
X74275Y26500D03*
X95975Y26500D03*
Y34911D02*
Y34876D01*
G54D14*
X76227Y35724D02*
X95187D01*
X77559Y37055D02*
X95187D01*
X78891Y38387D02*
X95187D01*
G54D12*
X74283Y34893D02*
X78572Y39182D01*
X95975Y39200D02*
Y34911D01*
G54D14*
X76227Y35724D02*
X78891Y38387D01*
X95187D02*
Y34911D01*
G54D12*
X78572Y39182D02*
X78607Y39217D01*
X78624Y39225D02*
X95950D01*
X33669Y13725D02*
X42639D01*
G54D16*
X33801Y13699D02*
X42417D01*
G54D17*
X33987Y13648D02*
X42104D01*
G54D12*
X67500Y24725D02*
X72500D01*
X35615D02*
X67500D01*
G54D16*
Y24699D02*
X72500D01*
X35625D02*
X67500D01*
G54D17*
Y24648D02*
X72500D01*
X35646D02*
X67500D01*
G54D12*
X72500Y24725D02*
X95975D01*
G54D16*
X72500Y24699D02*
X95949D01*
G54D17*
X72500Y24648D02*
X95898D01*
G54D12*
X54000Y23775D02*
X34665D01*
X95975D02*
X54000D01*
G54D16*
Y23801D02*
X34727D01*
X95949D02*
X54000D01*
G54D17*
Y23852D02*
X34849D01*
X95898D02*
X54000D01*
G54D12*
X39275Y35675D02*
X56435D01*
G54D16*
X39301Y35649D02*
X56425D01*
X39301Y28551D02*
Y35649D01*
G54D17*
X39352Y35598D02*
X56404D01*
X39352Y28602D02*
Y35598D01*
G54D13*
X39453Y35497D02*
X56362D01*
X39453Y28703D02*
Y35497D01*
G54D18*
X39656Y35294D02*
X56278D01*
X39656Y28906D02*
Y35294D01*
G54D14*
X40063Y34887D02*
X56109D01*
X40063Y29313D02*
Y34887D01*
G54D16*
X56425Y35649D02*
X63523Y28551D01*
G54D17*
X56404Y35598D02*
X63401Y28602D01*
G54D13*
X56362Y35497D02*
X63155Y28703D01*
G54D18*
X56278Y35294D02*
X62665Y28906D01*
G54D14*
X56109Y34887D02*
X61684Y29313D01*
G54D12*
X46025Y6625D02*
X46102D01*
Y10575D02*
X46025D01*
X52725Y12136D02*
X52640D01*
X95975Y34936D02*
X74326D01*
G54D16*
X74388Y34962D02*
X78575Y39149D01*
X95949Y34962D02*
X74388D01*
G54D17*
X74510Y35013D02*
X78596Y39098D01*
X95898Y35013D02*
X74510D01*
G54D13*
X74756Y35114D02*
X78638Y38997D01*
X95797Y35114D02*
X74756D01*
G54D18*
X75246Y35317D02*
X78722Y38794D01*
X95594Y35317D02*
X75246D01*
G54D12*
X78565Y39175D02*
X95975D01*
G54D16*
X78575Y39149D02*
X95949D01*
G54D17*
X78596Y39098D02*
X95898D01*
G54D13*
X78638Y38997D02*
X95797D01*
G54D18*
X78722Y38794D02*
X95594D01*
G54D16*
X95949Y39149D02*
Y34962D01*
G54D17*
X95898Y39098D02*
Y35013D01*
G54D13*
X95797Y38997D02*
Y35114D01*
G54D18*
X95594Y38794D02*
Y35317D01*
G54D11*
X95950Y39237D02*
G02X95987Y39200I0J-37D01*
Y13800D02*
G02X95950Y13763I-37J0D01*
X65800D02*
G02X65763Y13800I0J37D01*
Y17000D02*
G03X65686Y17186I-263J0D01*
X59186Y23686D02*
G03X59000Y23763I-185J-187D01*
X54000D02*
G03X53814Y23686I-0J-263D01*
X52813Y22685D02*
G03X52737Y22500I187J-185D01*
Y12111D02*
G02X52674Y12084I-37J-0D01*
X50131Y14627D02*
G03X48912Y14125I-506J-502D01*
Y13000D02*
G03X49121Y12496I713J-0D01*
X52369Y9248D02*
G03X52709Y9057I506J502D01*
G02X52737Y9021I-9J-36D01*
Y5650D02*
G02X52700Y5613I-37J0D01*
X46050D02*
G02X46013Y5650I0J37D01*
Y6650D02*
G02X46080Y6672I37J0D01*
G03X46650Y6387I570J428D01*
X47650D02*
G03X48363Y7100I0J713D01*
Y10100D02*
G03X47650Y10813I-713J0D01*
X46650D02*
G03X46080Y10528I0J-713D01*
G02X46013Y10550I-30J22D01*
Y10925D02*
G03X40337Y10925I-2838J0D01*
Y5550D02*
G02X40300Y5513I-37J0D01*
X34400D02*
G02X34363Y5550I0J37D01*
Y12750D02*
G03X33350Y13763I-1013J0D01*
X33300D02*
G02X33263Y13800I0J37D01*
X39186Y28314D02*
G03X39263Y28500I-187J185D01*
Y35700D02*
G02X39300Y35737I37J0D01*
X67314Y24814D02*
G03X67500Y24737I185J187D01*
X72500D02*
G03X72686Y24814I0J263D01*
X74187Y26315D02*
G03X74263Y26500I-187J185D01*
X78598Y39226D02*
G02X78624Y39237I27J-26D01*
G54D12*
X33300Y13775D02*
G02X33275Y13800I0J25D01*
X49625Y14850D02*
G03X48900Y14125I0J-725D01*
G54D17*
X49625Y14927D02*
G03X48823Y14125I0J-802D01*
G54D12*
X33275Y22376D02*
G02X33283Y22393I24J-0D01*
X34375Y12750D02*
G03X33350Y13775I-1025J0D01*
X43175D02*
G03X40999Y12766I0J-2850D01*
G54D13*
X34553Y12750D02*
G03X34252Y13547I-1203J0D01*
X43175Y13953D02*
G03X40864Y12881I0J-3028D01*
G54D12*
X52805Y22695D02*
G03X52725Y22500I195J-195D01*
X34400Y5525D02*
G02X34375Y5550I0J25D01*
X40325D02*
G02X40300Y5525I-25J0D01*
X40999Y12766D02*
G03X40325Y10925I2176J-1841D01*
G54D18*
X40708Y13013D02*
G03X39944Y10925I2467J-2088D01*
G54D12*
X54000Y23775D02*
G03X53805Y23695I0J-276D01*
X67305Y24805D02*
G03X67500Y24725I195J195D01*
X39195Y28305D02*
G03X39275Y28500I-195J195D01*
Y35700D02*
G02X39282Y35717I25J0D01*
G02X39300Y35725I18J-17D01*
X56376D02*
G02X56393Y35717I-0J-24D01*
X45109Y13019D02*
G03X43175Y13775I-1934J-2094D01*
G54D17*
X45161Y13075D02*
G03X43175Y13852I-1986J-2150D01*
G54D12*
X45538Y12519D02*
G03X45109Y13019I-2363J-1594D01*
X48900Y13000D02*
G03X49112Y12487I725J0D01*
G54D17*
X45601Y12562D02*
G03X45161Y13075I-2426J-1637D01*
X48823Y13000D02*
G03X49058Y12433I802J0D01*
G54D12*
X46025Y10925D02*
G03X45538Y12519I-2850J0D01*
G54D13*
X46203Y10925D02*
G03X45685Y12619I-3028J0D01*
G54D12*
X46050Y5625D02*
G02X46025Y5650I0J25D01*
X52725D02*
G02X52700Y5625I-25J0D01*
X46094Y6634D02*
G03X46650Y6375I556J466D01*
G54D16*
X46075Y6617D02*
G03X46650Y6349I575J483D01*
G54D12*
X46025Y6650D02*
G02X46030Y6665I25J0D01*
X46650Y10825D02*
G03X46094Y10566I0J-725D01*
G54D16*
X46650Y10851D02*
G03X46075Y10583I0J-751D01*
G54D12*
X46030Y10535D02*
G02X46025Y10550I20J15D01*
X46030Y6665D02*
G02X46050Y6675I20J-15D01*
G02X46070Y6665I0J-25D01*
X46050Y10525D02*
G02X46030Y10535I0J25D01*
X46070D02*
G02X46050Y10525I-20J15D01*
X47650Y6375D02*
G03X48375Y7100I0J725D01*
G54D17*
X47650Y6298D02*
G03X48452Y7100I0J802D01*
G54D12*
X48375Y10100D02*
G03X47650Y10825I-725J0D01*
G54D17*
X48452Y10100D02*
G03X47650Y10902I-802J0D01*
G54D12*
X52706Y9044D02*
G02X52725Y9021I-6J-24D01*
X52360Y9239D02*
G03X52706Y9044I515J511D01*
X50140Y14636D02*
G03X49625Y14850I-515J-511D01*
G54D16*
X50158Y14654D02*
G03X49625Y14876I-533J-529D01*
G54D12*
X52725Y12111D02*
G02X52717Y12093I-25J0D01*
X52700Y12086D02*
G02X52683Y12093I0J25D01*
X52717Y12093D02*
G02X52700Y12086I-17J18D01*
X59195Y23695D02*
G03X59000Y23775I-195J-195D01*
X65775Y17000D02*
G03X65695Y17195I-276J0D01*
X65800Y13775D02*
G02X65775Y13800I0J25D01*
X95975D02*
G02X95950Y13775I-25J0D01*
X72500Y24725D02*
G03X72695Y24805I0J276D01*
X74195Y26305D02*
G03X74275Y26500I-195J195D01*
Y34876D02*
G02X74283Y34893I24J-0D01*
X95968Y39217D02*
G02X95975Y39200I-18J-17D01*
X78607Y39217D02*
G02X78624Y39225I18J-17D01*
X95950D02*
G02X95968Y39217I0J-25D01*
G54D16*
X34400Y12801D02*
G03X33801Y13699I-1050J-51D01*
G54D17*
X34447Y12852D02*
G03X33987Y13648I-1097J-102D01*
G54D11*
X52376Y78237D02*
G01X52402Y78226D01*
X58226Y72402D01*
X58237Y72376D02*
Y58000D01*
X58314Y57814D02*
X58815Y57313D01*
X59000Y57237D02*
X63876D01*
X63902Y57226D01*
X66226Y54902D01*
X66237Y54876D02*
Y44124D01*
X66226Y44098D01*
X65402Y43274D01*
X65376Y43263D02*
X61124D01*
X61098Y43274D01*
X59774Y44598D01*
X59763Y44624D02*
Y45676D01*
X59774Y45702D01*
X59998Y45926D01*
X60024Y45937D02*
X61200D01*
X61386Y46014D02*
X61787Y46415D01*
X61863Y46600D02*
Y49700D01*
X61786Y49886D02*
X61385Y50287D01*
X61200Y50363D02*
X57424D01*
X57398Y50374D01*
X56874Y50898D01*
X56863Y50924D02*
Y52500D01*
X56786Y52686D02*
X56285Y53187D01*
X56100Y53263D02*
X55000D01*
X54814Y53186D02*
X54613Y52985D01*
X54537Y52800D02*
Y50924D01*
X54526Y50898D01*
X53902Y50274D01*
X53876Y50263D02*
X52124D01*
X52098Y50274D01*
X51774Y50598D01*
X51763Y50624D02*
Y52500D01*
X51686Y52686D02*
X49585Y54787D01*
X49400Y54863D02*
X45900D01*
X45714Y54786D02*
X45013Y54085D01*
X44937Y53900D02*
Y52400D01*
X45014Y52214D02*
X45615Y51613D01*
X45800Y51537D02*
X47976D01*
X48002Y51526D01*
X48726Y50802D01*
X48737Y50776D02*
Y48724D01*
X48726Y48698D01*
X48402Y48374D01*
X48376Y48363D02*
X46300D01*
X46114Y48286D02*
X45813Y47985D01*
X45737Y47800D02*
Y46700D01*
X45814Y46514D02*
X46115Y46213D01*
X46300Y46137D02*
X48976D01*
X49002Y46126D01*
X49226Y45902D01*
X49237Y45876D02*
Y43624D01*
X49226Y43598D01*
X48902Y43274D01*
X48876Y43263D02*
X47000D01*
X46814Y43186D02*
X46313Y42685D01*
X46237Y42500D02*
Y41300D01*
X46314Y41114D02*
X47115Y40313D01*
X47300Y40237D02*
X50500D01*
X50686Y40314D02*
X51098Y40726D01*
X51124Y40737D01*
X55876D01*
X55902Y40726D01*
X56226Y40402D01*
X56237Y40376D02*
Y36300D01*
X56200Y36263D02*
X39300D01*
X39263Y36300D02*
Y78237D01*
X52376D01*
G54D12*
X39275Y36300D02*
X56225D01*
X39275Y40250D02*
X47185D01*
X50615D02*
X56225D01*
X39275Y40323D02*
X47088D01*
X39275Y41123D02*
X46289D01*
X39275Y41300D02*
X46225D01*
X39275Y41300D02*
X46225D01*
X39275Y42500D02*
X46225D01*
X39275Y42500D02*
X46225D01*
X39275Y42677D02*
X46289D01*
X39275Y43177D02*
X46788D01*
X39275Y43250D02*
X46885D01*
X39275Y43265D02*
X46926D01*
X39275Y43589D02*
X49200D01*
X39275Y43624D02*
X49225D01*
X39275Y45876D02*
X49225D01*
X39275Y45911D02*
X49200D01*
X39275Y46135D02*
X46226D01*
X39275Y46150D02*
X46185D01*
X39275Y46223D02*
X46088D01*
X39275Y46523D02*
X45789D01*
X39275Y46700D02*
X45725D01*
X39275Y46700D02*
X45725D01*
X39275Y47800D02*
X45725D01*
X39275Y47800D02*
X45725D01*
X39275Y47977D02*
X45789D01*
X39275Y48277D02*
X46088D01*
X39275Y48350D02*
X46185D01*
X39275Y48365D02*
X46226D01*
X39275Y48689D02*
X48700D01*
X39275Y48724D02*
X48725D01*
X39275Y50776D02*
X48725D01*
X39275Y50811D02*
X48700D01*
X39275Y51535D02*
X45726D01*
X39275Y51550D02*
X45685D01*
X39275Y51623D02*
X45588D01*
X39275Y52223D02*
X44989D01*
X39275Y52400D02*
X44925D01*
X39275Y52400D02*
X44925D01*
X39275Y53900D02*
X44925D01*
X39275Y53900D02*
X44925D01*
X39275Y54077D02*
X44989D01*
X39275Y54777D02*
X45688D01*
X39275Y54850D02*
X45785D01*
X39275Y54876D02*
X66225D01*
X39275Y54911D02*
X66200D01*
X39275Y57235D02*
X58926D01*
X39275Y57250D02*
X58885D01*
X39275Y57323D02*
X58788D01*
X39275Y57823D02*
X58289D01*
X39275Y58000D02*
X58225D01*
X39275Y58000D02*
X58225D01*
X39275Y72376D02*
X58225D01*
X39275Y72411D02*
X58200D01*
X49515Y54850D02*
X66225D01*
X49515D02*
X66225D01*
X49612Y54777D02*
X66225D01*
X50712Y40323D02*
X56225D01*
X50765Y40376D02*
X56225D01*
X50800Y40411D02*
X56200D01*
X51139Y53250D02*
X54885D01*
X51212Y53177D02*
X54788D01*
X51412Y52977D02*
X54589D01*
X51589Y52800D02*
X54525D01*
X51589Y52800D02*
X54525D01*
X51711Y52677D02*
X54525D01*
X51775Y50624D02*
X54235D01*
X51775Y50889D02*
X54500D01*
X51775Y50924D02*
X54525D01*
X51775Y52500D02*
X54525D01*
X51775Y52500D02*
X54525D01*
X51800Y50589D02*
X54200D01*
X56215Y53250D02*
X66225D01*
X56215D02*
X66225D01*
X56312Y53177D02*
X66225D01*
X56811Y52677D02*
X66225D01*
X56875Y52500D02*
X66225D01*
X56875Y50924D02*
X66225D01*
X56875Y52500D02*
X66225D01*
X56900Y50889D02*
X66225D01*
X61274Y50365D02*
X66225D01*
X59775Y45676D02*
X66225D01*
X59775Y44624D02*
X66225D01*
X59800Y45711D02*
X66225D01*
X59800Y44589D02*
X66225D01*
X61274Y45935D02*
X66225D01*
X61315Y45950D02*
X66225D01*
X60265Y44124D02*
X66225D01*
X60300Y44089D02*
X66200D01*
X61315Y50350D02*
X66225D01*
X61412Y46023D02*
X66225D01*
X61811Y46423D02*
X66225D01*
X61412Y50277D02*
X66225D01*
X61875Y46600D02*
X66225D01*
X61811Y49877D02*
X66225D01*
X61875Y49700D02*
X66225D01*
X61875Y46600D02*
X66225D01*
X61875Y49700D02*
X66225D01*
G54D11*
X39300Y36263D02*
X56200D01*
X39272Y36275D02*
X56228D01*
X39265Y36287D02*
X56235D01*
G54D12*
X56200Y36275D02*
X39300D01*
G54D10*
X40876Y37926D02*
X54624D01*
X40876Y38624D02*
X54624D01*
G54D12*
X39275Y40275D02*
X47140D01*
X39275Y40298D02*
X47113D01*
X39275Y40250D02*
Y40323D01*
G54D17*
X39352Y40425D02*
X46878D01*
X39352Y40574D02*
X46729D01*
X39352Y40723D02*
X46579D01*
X39352Y40872D02*
X46430D01*
X39352Y41021D02*
X46281D01*
G54D12*
X39275Y40323D02*
Y41123D01*
X46305Y41105D02*
X47105Y40305D01*
G54D17*
X39352Y40323D02*
Y41123D01*
X46251Y41051D02*
X47051Y40251D01*
G54D12*
X39275Y41148D02*
X46270D01*
X39275Y41190D02*
X46247D01*
X39275Y41232D02*
X46233D01*
X39275Y41274D02*
X46226D01*
X39275Y41123D02*
Y41300D01*
D03*
X46225Y41300D03*
G54D19*
X39656Y41706D02*
X45844D01*
X39656Y42094D02*
X45844D01*
G54D12*
X39275Y42500D03*
X46225Y42500D03*
X39275Y42526D02*
X46226D01*
X39275Y42568D02*
X46233D01*
X39275Y42610D02*
X46247D01*
X39275Y42652D02*
X46270D01*
X39275Y42500D02*
Y42677D01*
G54D17*
X39352Y42779D02*
X46281D01*
X39352Y42927D02*
X46429D01*
X39352Y43075D02*
X46578D01*
G54D12*
X39275Y42677D02*
Y43177D01*
X46805Y43195D02*
X46305Y42695D01*
G54D17*
X39352Y42677D02*
Y43177D01*
X46751Y43249D02*
X46251Y42749D01*
G54D12*
X39275Y43202D02*
X46813D01*
X39275Y43225D02*
X46840D01*
X39275Y43177D02*
Y43250D01*
Y43265D01*
G54D16*
X39301Y43316D02*
X48890D01*
X39301Y43390D02*
X48964D01*
X39301Y43464D02*
X49038D01*
X39301Y43538D02*
X49112D01*
G54D12*
X39275Y43265D02*
Y43589D01*
X49217Y43607D02*
X48893Y43283D01*
G54D16*
X39301Y43265D02*
Y43589D01*
X49199Y43625D02*
X48875Y43301D01*
G54D12*
X39275Y43589D02*
Y43624D01*
G54D22*
X40063Y44437D02*
X48437D01*
X40063Y45063D02*
X48437D01*
G54D12*
X39275Y45876D02*
Y45911D01*
G54D16*
X39301Y45962D02*
X49112D01*
X39301Y46023D02*
X49051D01*
X39301Y46084D02*
X48990D01*
G54D12*
X39275Y45911D02*
Y46135D01*
X48993Y46117D02*
X49217Y45893D01*
G54D16*
X39301Y45911D02*
Y46135D01*
X48975Y46099D02*
X49199Y45875D01*
G54D12*
X39275Y46135D02*
Y46150D01*
Y46175D02*
X46140D01*
X39275Y46198D02*
X46113D01*
X39275Y46150D02*
Y46223D01*
G54D16*
X39301Y46274D02*
X46000D01*
X39301Y46340D02*
X45934D01*
X39301Y46406D02*
X45868D01*
X39301Y46472D02*
X45802D01*
G54D12*
X39275Y46223D02*
Y46523D01*
X45805Y46505D02*
X46105Y46205D01*
G54D16*
X39301Y46223D02*
Y46523D01*
X45787Y46487D02*
X46087Y46187D01*
G54D12*
X39275Y46548D02*
X45770D01*
X39275Y46590D02*
X45747D01*
X39275Y46632D02*
X45733D01*
X39275Y46674D02*
X45726D01*
X39275Y46523D02*
Y46700D01*
D03*
X45725Y46700D03*
G54D19*
X39656Y47106D02*
X45344D01*
X39656Y47394D02*
X45344D01*
G54D12*
X39275Y47800D03*
X45725Y47800D03*
X39275Y47826D02*
X45726D01*
X39275Y47868D02*
X45733D01*
X39275Y47910D02*
X45747D01*
X39275Y47952D02*
X45770D01*
X39275Y47800D02*
Y47977D01*
G54D16*
X39301Y48028D02*
X45802D01*
X39301Y48094D02*
X45868D01*
X39301Y48160D02*
X45934D01*
X39301Y48226D02*
X46000D01*
G54D12*
X39275Y47977D02*
Y48277D01*
X46105Y48295D02*
X45805Y47995D01*
G54D16*
X39301Y47977D02*
Y48277D01*
X46087Y48313D02*
X45787Y48013D01*
G54D12*
X39275Y48302D02*
X46113D01*
X39275Y48325D02*
X46140D01*
X39275Y48277D02*
Y48350D01*
Y48365D01*
G54D16*
X39301Y48416D02*
X48390D01*
X39301Y48490D02*
X48464D01*
X39301Y48564D02*
X48538D01*
X39301Y48638D02*
X48612D01*
G54D12*
X39275Y48365D02*
Y48689D01*
X48717Y48707D02*
X48393Y48383D01*
G54D16*
X39301Y48365D02*
Y48689D01*
X48699Y48725D02*
X48375Y48401D01*
G54D12*
X39275Y48689D02*
Y48724D01*
G54D22*
X40063Y49537D02*
X47937D01*
X40063Y49963D02*
X47937D01*
G54D12*
X39275Y50776D02*
Y50811D01*
G54D17*
X39352Y50913D02*
X48490D01*
X39352Y51086D02*
X48316D01*
X39352Y51260D02*
X48143D01*
X39352Y51433D02*
X47969D01*
G54D12*
X39275Y50811D02*
Y51535D01*
X47993Y51517D02*
X48717Y50793D01*
G54D17*
X39352Y50811D02*
Y51535D01*
X47969Y51433D02*
X48490Y50913D01*
G54D12*
X39275Y51535D02*
Y51550D01*
Y51575D02*
X45640D01*
X39275Y51598D02*
X45613D01*
X39275Y51550D02*
Y51623D01*
G54D17*
X39352Y51725D02*
X45378D01*
X39352Y51857D02*
X45245D01*
X39352Y51989D02*
X45113D01*
X39352Y52121D02*
X44981D01*
G54D12*
X39275Y51623D02*
Y52223D01*
X45005Y52205D02*
X45605Y51605D01*
G54D17*
X39352Y51623D02*
Y52223D01*
X44951Y52151D02*
X45551Y51551D01*
G54D12*
X39275Y52248D02*
X44970D01*
X39275Y52290D02*
X44947D01*
X39275Y52332D02*
X44933D01*
X39275Y52374D02*
X44926D01*
X39275Y52223D02*
Y52400D01*
D03*
X44925Y52400D03*
G54D19*
X39656Y52806D02*
X44544D01*
X39656Y53494D02*
X44544D01*
G54D12*
X39275Y53900D03*
X44925Y53900D03*
X39275Y53926D02*
X44926D01*
X39275Y53968D02*
X44933D01*
X39275Y54010D02*
X44947D01*
X39275Y54052D02*
X44970D01*
X39275Y53900D02*
Y54077D01*
G54D17*
X39352Y54179D02*
X44981D01*
X39352Y54344D02*
X45147D01*
X39352Y54510D02*
X45312D01*
X39352Y54675D02*
X45478D01*
G54D12*
X39275Y54077D02*
Y54777D01*
X45705Y54795D02*
X45005Y54095D01*
G54D17*
X39352Y54077D02*
Y54777D01*
X45651Y54849D02*
X44951Y54149D01*
G54D12*
X39275Y54802D02*
X45713D01*
X39275Y54825D02*
X45740D01*
X39275Y54777D02*
Y54850D01*
G54D23*
X39263Y54863D02*
X66237D01*
X39263Y54863D02*
X66237D01*
G54D12*
X39275Y54876D02*
Y54911D01*
G54D18*
X39656Y55317D02*
X65254D01*
X39656Y56073D02*
X64498D01*
X39656Y56829D02*
X63743D01*
G54D12*
X39275Y54911D02*
Y57235D01*
X63893Y57217D02*
X66217Y54893D01*
G54D18*
X39656Y54911D02*
Y57235D01*
X63743Y56829D02*
X65254Y55317D01*
G54D12*
X39275Y57235D02*
Y57250D01*
Y57275D02*
X58840D01*
X39275Y57298D02*
X58813D01*
X39275Y57250D02*
Y57323D01*
G54D17*
X39352Y57425D02*
X58578D01*
X39352Y57573D02*
X58429D01*
X39352Y57721D02*
X58281D01*
G54D12*
X39275Y57323D02*
Y57823D01*
X58305Y57805D02*
X58805Y57305D01*
G54D17*
X39352Y57323D02*
Y57823D01*
X58251Y57751D02*
X58751Y57251D01*
G54D12*
X39275Y57848D02*
X58270D01*
X39275Y57890D02*
X58247D01*
X39275Y57932D02*
X58233D01*
X39275Y57974D02*
X58226D01*
X39275Y57823D02*
Y58000D01*
D03*
X58225Y58000D03*
G54D10*
X40876Y59626D02*
X56624D01*
X40876Y62407D02*
X56624D01*
X40876Y65188D02*
X56624D01*
X40876Y67969D02*
X56624D01*
X40876Y70750D02*
X56624D01*
G54D12*
X39275Y72376D02*
Y72411D01*
G54D14*
X40063Y73224D02*
X56273D01*
X40063Y74623D02*
X54873D01*
X40063Y76023D02*
X53474D01*
X40063Y77422D02*
X52074D01*
G54D12*
X39275Y72411D02*
Y78225D01*
X52393Y78217D02*
X58217Y72393D01*
G54D14*
X40063Y72411D02*
Y77422D01*
X52074D02*
X56273Y73224D01*
G54D12*
X39275Y78225D02*
X52376D01*
X45800Y51525D02*
X47976D01*
X49400Y54875D02*
X45900D01*
X46300Y46125D02*
X48976D01*
X48376Y48375D02*
X46300D01*
X48876Y43275D02*
X47000D01*
X47300Y40225D02*
X50500D01*
X49587Y54802D02*
X66225D01*
X49560Y54825D02*
X66225D01*
Y54850D02*
Y54777D01*
G54D13*
X51188Y53453D02*
X66047D01*
X50815Y53827D02*
X66047D01*
X50441Y54200D02*
X66047D01*
X50068Y54574D02*
X66047D01*
G54D12*
X51122Y53268D02*
X49595Y54795D01*
X66225Y54777D02*
Y53250D01*
G54D13*
X51248Y53394D02*
X49721Y54921D01*
X66047Y54777D02*
Y53250D01*
G54D12*
X50660Y40275D02*
X56225D01*
X50687Y40298D02*
X56225D01*
Y40323D02*
Y40250D01*
X50738Y40348D02*
X56225D01*
X50741Y40351D02*
X56225D01*
X50695Y40305D02*
X50748Y40358D01*
X56225Y40376D02*
Y40323D01*
X50748Y40358D02*
X50783Y40393D01*
G54D16*
X50888Y40462D02*
X56112D01*
X50962Y40536D02*
X56038D01*
X51036Y40610D02*
X55964D01*
X51110Y40684D02*
X55890D01*
G54D12*
X50783Y40393D02*
X51107Y40717D01*
X55893Y40717D02*
X56217Y40393D01*
G54D16*
X50801Y40375D02*
X51125Y40699D01*
X55875D02*
X56199Y40375D01*
G54D12*
X51124Y40725D02*
X55876D01*
X51188Y53202D02*
X54813D01*
X51165Y53225D02*
X54840D01*
X51195Y53195D02*
X51122Y53268D01*
X51388Y53002D02*
X54612D01*
X51350Y53040D02*
X54650D01*
X51313Y53077D02*
X54687D01*
X51276Y53114D02*
X54724D01*
X51238Y53152D02*
X54762D01*
X51395Y52995D02*
X51195Y53195D01*
X54805Y53195D02*
X54605Y52995D01*
X51564Y52826D02*
X54526D01*
X51522Y52868D02*
X54533D01*
X51480Y52910D02*
X54547D01*
X51438Y52952D02*
X54570D01*
X51572Y52818D02*
X51395Y52995D01*
X51572Y52818D03*
X54525Y52800D03*
X51688Y52702D02*
X54525D01*
X51651Y52738D02*
X54525D01*
X51615Y52775D02*
X54525D01*
X51695Y52695D02*
X51572Y52818D01*
X54525Y52800D02*
Y52677D01*
X51774Y52526D02*
X54525D01*
X51767Y52568D02*
X54525D01*
X51753Y52610D02*
X54525D01*
X51730Y52652D02*
X54525D01*
Y52677D02*
Y52500D01*
X54252Y50642D02*
X54217Y50607D01*
G54D16*
X51801Y50675D02*
X54249D01*
X51801Y50756D02*
X54331D01*
X51801Y50838D02*
X54412D01*
G54D12*
X51775Y50624D02*
Y50889D01*
X54517Y50907D02*
X54252Y50642D01*
G54D16*
X51801Y50675D02*
Y50889D01*
X54499Y50925D02*
X54234Y50660D01*
G54D12*
X51775Y50889D02*
Y50924D01*
G54D19*
X52156Y51330D02*
X54144D01*
X52156Y52094D02*
X54144D01*
G54D12*
X51775Y52500D03*
X54525Y52500D03*
G54D16*
X52110Y50316D02*
X53890D01*
X52036Y50390D02*
X53964D01*
X51962Y50464D02*
X54038D01*
X51888Y50538D02*
X54112D01*
G54D12*
X52107Y50283D02*
X51783Y50607D01*
X54217Y50607D02*
X53893Y50283D01*
G54D16*
X52125Y50301D02*
X51801Y50625D01*
X54199D02*
X53875Y50301D01*
G54D12*
X53876Y50275D02*
X52124D01*
X56100Y53275D02*
X55000D01*
X56287Y53202D02*
X66225D01*
X56260Y53225D02*
X66225D01*
Y53250D02*
Y53177D01*
G54D17*
X56819Y52779D02*
X66148D01*
X56671Y52927D02*
X66148D01*
X56522Y53075D02*
X66148D01*
G54D12*
X56795Y52695D02*
X56295Y53195D01*
X66225Y53177D02*
Y52677D01*
G54D17*
X56849Y52749D02*
X56349Y53249D01*
X66148Y53177D02*
Y52677D01*
G54D12*
X56874Y52526D02*
X66225D01*
X56867Y52568D02*
X66225D01*
X56853Y52610D02*
X66225D01*
X56830Y52652D02*
X66225D01*
Y52677D02*
Y52500D01*
G54D19*
X57256Y51330D02*
X65844D01*
X57256Y52094D02*
X65844D01*
G54D12*
X66225Y50924D02*
Y50889D01*
X56875Y52500D03*
X66225Y52500D03*
G54D17*
X57431Y50467D02*
X66148D01*
X57271Y50627D02*
X66148D01*
X57110Y50787D02*
X66148D01*
G54D12*
X57407Y50383D02*
X56883Y50907D01*
X66225Y50889D02*
Y50365D01*
G54D17*
X57431Y50467D02*
X57110Y50787D01*
X66148Y50889D02*
Y50365D01*
G54D12*
X66225D02*
Y50350D01*
X61200Y50375D02*
X57424D01*
X59000Y57225D02*
X63876D01*
G54D19*
X60156Y45030D02*
X65844D01*
X60156Y45270D02*
X65844D01*
G54D12*
X66225Y44624D02*
Y44589D01*
Y45711D02*
Y45676D01*
G54D17*
X60272Y44226D02*
X66148D01*
X60141Y44357D02*
X66148D01*
X60010Y44487D02*
X66148D01*
G54D12*
X60248Y44142D02*
X59783Y44607D01*
X66225Y44589D02*
Y44124D01*
G54D17*
X60302Y44196D02*
X60010Y44487D01*
X66148Y44589D02*
Y44226D01*
G54D16*
X59888Y45762D02*
X66199D01*
X59949Y45823D02*
X66199D01*
X60010Y45884D02*
X66199D01*
G54D12*
X59783Y45693D02*
X60007Y45917D01*
X66225Y45935D02*
Y45711D01*
G54D16*
X59801Y45675D02*
X60025Y45899D01*
X66199Y45935D02*
Y45711D01*
G54D12*
X66225Y45950D02*
Y45935D01*
X60024Y45925D02*
X61200D01*
X60283Y44107D02*
X60248Y44142D01*
G54D13*
X61173Y43468D02*
X65327D01*
X60964Y43677D02*
X65536D01*
X60756Y43886D02*
X65744D01*
G54D12*
X61107Y43283D02*
X60283Y44107D01*
X66217Y44107D02*
X65393Y43283D01*
G54D13*
X61173Y43468D02*
X60409Y44233D01*
X65744Y43886D02*
X65327Y43468D01*
G54D12*
X65376Y43275D02*
X61124D01*
X61387Y50302D02*
X66225D01*
X61360Y50325D02*
X66225D01*
Y50350D02*
Y50277D01*
X61360Y45975D02*
X66225D01*
X61387Y45998D02*
X66225D01*
Y46023D02*
Y45950D01*
G54D16*
X61500Y46074D02*
X66199D01*
X61574Y46148D02*
X66199D01*
X61649Y46223D02*
X66199D01*
X61723Y46298D02*
X66199D01*
X61798Y46372D02*
X66199D01*
G54D12*
X61395Y46005D02*
X61795Y46405D01*
X66225Y46423D02*
Y46023D01*
G54D16*
X61413Y45987D02*
X61813Y46387D01*
X66199Y46423D02*
Y46023D01*
X61798Y49928D02*
X66199D01*
X61723Y50002D02*
X66199D01*
X61649Y50077D02*
X66199D01*
X61574Y50152D02*
X66199D01*
X61500Y50226D02*
X66199D01*
G54D12*
X61795Y49895D02*
X61395Y50295D01*
X66225Y50277D02*
Y49877D01*
G54D16*
X61813Y49913D02*
X61413Y50313D01*
X66199Y50277D02*
Y49877D01*
G54D12*
X61830Y46448D02*
X66225D01*
X61853Y46490D02*
X66225D01*
X61867Y46532D02*
X66225D01*
X61874Y46574D02*
X66225D01*
Y46600D02*
Y46423D01*
X61874Y49726D02*
X66225D01*
X61867Y49768D02*
X66225D01*
X61853Y49810D02*
X66225D01*
X61830Y49852D02*
X66225D01*
Y49877D02*
Y49700D01*
G54D22*
X62663Y47413D02*
X65437D01*
X62663Y48887D02*
X65437D01*
G54D12*
X61875Y46600D03*
X66225Y46600D03*
X61875Y49700D03*
X66225Y49700D03*
X39275Y51510D02*
X48000D01*
G54D16*
X47990Y51484D02*
X48612Y50862D01*
X39301Y51484D02*
X47990D01*
G54D12*
X48674Y50836D02*
X39275D01*
G54D16*
X48612Y50862D02*
X39301D01*
G54D12*
X39275Y57210D02*
X63900D01*
G54D16*
X63890Y57184D02*
X66112Y54962D01*
X39301Y57184D02*
X63890D01*
G54D17*
X63869Y57133D02*
X65990Y55013D01*
X39352Y57133D02*
X63869D01*
G54D13*
X63827Y57032D02*
X65744Y55114D01*
X39453Y57032D02*
X63827D01*
G54D12*
X66174Y54936D02*
X39275D01*
G54D16*
X66112Y54962D02*
X39301D01*
G54D17*
X65990Y55013D02*
X39352D01*
G54D13*
X65744Y55114D02*
X39453D01*
G54D12*
X39275Y78210D02*
X52400D01*
G54D16*
X39301Y78184D02*
X52390D01*
X39301Y72462D02*
Y78184D01*
G54D17*
X39352Y78133D02*
X52369D01*
X39352Y72513D02*
Y78133D01*
G54D13*
X39453Y78032D02*
X52327D01*
X39453Y72614D02*
Y78032D01*
G54D18*
X39656Y77829D02*
X52243D01*
X39656Y72817D02*
Y77829D01*
G54D16*
X52390Y78184D02*
X58112Y72462D01*
G54D17*
X52369Y78133D02*
X57990Y72513D01*
G54D13*
X52327Y78032D02*
X57744Y72614D01*
G54D18*
X52243Y77829D02*
X57254Y72817D01*
G54D12*
X58174Y72436D02*
X39275D01*
G54D16*
X58112Y72462D02*
X39301D01*
G54D17*
X57990Y72513D02*
X39352D01*
G54D13*
X57744Y72614D02*
X39453D01*
G54D18*
X57254Y72817D02*
X39656D01*
G54D12*
X55000Y53275D02*
X51115D01*
X66225D02*
X55000D01*
G54D16*
Y53301D02*
X51125D01*
X66199D02*
X55000D01*
G54D17*
Y53352D02*
X51146D01*
X66148D02*
X55000D01*
G54D12*
X54259Y50649D02*
X51775D01*
X56926Y50864D02*
X66225D01*
G54D16*
X56988Y50838D02*
X66199D01*
X57410Y50416D02*
X56988Y50838D01*
G54D12*
X66225Y50390D02*
X57400D01*
G54D16*
X66199Y50416D02*
X57410D01*
G54D12*
X59826Y44564D02*
X66225D01*
G54D16*
X59888Y44538D02*
X66199D01*
X60251Y44175D02*
X59888Y44538D01*
G54D12*
X66225Y44149D02*
X60241D01*
G54D16*
X66199Y44175D02*
X60251D01*
X66199Y44538D02*
Y44175D01*
G54D12*
X60326Y44064D02*
X66174D01*
G54D16*
X66112Y44038D02*
X65390Y43316D01*
X60388Y44038D02*
X66112D01*
G54D17*
X65990Y43987D02*
X65369Y43367D01*
X60510Y43987D02*
X65990D01*
G54D12*
X65400Y43290D02*
X61100D01*
G54D16*
X65390Y43316D02*
X61110D01*
G54D17*
X65369Y43367D02*
X61131D01*
G54D16*
X61110Y43316D02*
X60388Y44038D01*
G54D17*
X61131Y43367D02*
X60510Y43987D01*
G54D11*
X58226Y72402D02*
G02X58237Y72376I-26J-27D01*
Y58000D02*
G03X58314Y57814I263J-0D01*
X58815Y57313D02*
G03X59000Y57237I185J187D01*
X66226Y54902D02*
G02X66237Y54876I-26J-27D01*
X65402Y43274D02*
G02X65376Y43263I-27J26D01*
X59774Y44598D02*
G02X59763Y44624I26J27D01*
X59998Y45926D02*
G02X60024Y45937I27J-26D01*
X61200D02*
G03X61386Y46014I0J263D01*
X61787Y46415D02*
G03X61863Y46600I-187J185D01*
Y49700D02*
G03X61786Y49886I-263J0D01*
X61385Y50287D02*
G03X61200Y50363I-185J-187D01*
X56874Y50898D02*
G02X56863Y50924I26J27D01*
Y52500D02*
G03X56786Y52686I-263J0D01*
X56285Y53187D02*
G03X56100Y53263I-185J-187D01*
X55000D02*
G03X54814Y53186I-0J-263D01*
X54613Y52985D02*
G03X54537Y52800I187J-185D01*
X53902Y50274D02*
G02X53876Y50263I-27J26D01*
X51774Y50598D02*
G02X51763Y50624I26J27D01*
Y52500D02*
G03X51686Y52686I-263J0D01*
X49585Y54787D02*
G03X49400Y54863I-185J-187D01*
X45900D02*
G03X45714Y54786I-0J-263D01*
X45013Y54085D02*
G03X44937Y53900I187J-185D01*
Y52400D02*
G03X45014Y52214I263J-0D01*
X45615Y51613D02*
G03X45800Y51537I185J187D01*
X48726Y50802D02*
G02X48737Y50776I-26J-27D01*
X48402Y48374D02*
G02X48376Y48363I-27J26D01*
X46300D02*
G03X46114Y48286I-0J-263D01*
X45813Y47985D02*
G03X45737Y47800I187J-185D01*
Y46700D02*
G03X45814Y46514I263J-0D01*
X46115Y46213D02*
G03X46300Y46137I185J187D01*
X49226Y45902D02*
G02X49237Y45876I-26J-27D01*
X48902Y43274D02*
G02X48876Y43263I-27J26D01*
X47000D02*
G03X46814Y43186I-0J-263D01*
X46313Y42685D02*
G03X46237Y42500I187J-185D01*
Y41300D02*
G03X46314Y41114I263J-0D01*
X47115Y40313D02*
G03X47300Y40237I185J187D01*
X50500D02*
G03X50686Y40314I0J263D01*
X56226Y40402D02*
G02X56237Y40376I-26J-27D01*
Y36300D02*
G02X56200Y36263I-37J0D01*
X39300D02*
G02X39263Y36300I0J37D01*
G54D12*
X39300Y36275D02*
G02X39275Y36300I0J25D01*
X56225D02*
G02X56200Y36275I-25J0D01*
X47105Y40305D02*
G03X47300Y40225I195J195D01*
X46225Y41300D02*
G03X46305Y41105I276J0D01*
Y42695D02*
G03X46225Y42500I195J-195D01*
X47000Y43275D02*
G03X46805Y43195I0J-276D01*
X48893Y43283D02*
G02X48876Y43275I-18J17D01*
X49225Y43624D02*
G02X49217Y43607I-25J1D01*
X49217Y45893D02*
G02X49225Y45876I-17J-18D01*
X48976Y46125D02*
G02X48993Y46117I-0J-25D01*
X46105Y46205D02*
G03X46300Y46125I195J195D01*
X45725Y46700D02*
G03X45805Y46505I276J0D01*
Y47995D02*
G03X45725Y47800I195J-195D01*
X46300Y48375D02*
G03X46105Y48295I0J-276D01*
X48393Y48383D02*
G02X48376Y48375I-18J17D01*
X48725Y48724D02*
G02X48717Y48707I-25J1D01*
X48717Y50793D02*
G02X48725Y50776I-17J-18D01*
X47976Y51525D02*
G02X47993Y51517I-0J-25D01*
X45605Y51605D02*
G03X45800Y51525I195J195D01*
X44925Y52400D02*
G03X45005Y52205I276J0D01*
Y54095D02*
G03X44925Y53900I195J-195D01*
X45900Y54875D02*
G03X45705Y54795I0J-276D01*
X66217Y54893D02*
G02X66225Y54876I-17J-18D01*
X63876Y57225D02*
G02X63893Y57217I-0J-25D01*
X58805Y57305D02*
G03X59000Y57225I195J195D01*
X58225Y58000D02*
G03X58305Y57805I276J0D01*
X58217Y72393D02*
G02X58225Y72376I-17J-18D01*
X52376Y78225D02*
G02X52393Y78217I-1J-25D01*
X49595Y54795D02*
G03X49400Y54875I-195J-195D01*
X50500Y40225D02*
G03X50695Y40305I0J276D01*
X56217Y40393D02*
G02X56225Y40376I-17J-18D01*
X51107Y40717D02*
G02X51124Y40725I18J-17D01*
X55876D02*
G02X55893Y40717I-1J-25D01*
X55000Y53275D02*
G03X54805Y53195I0J-276D01*
X54605Y52995D02*
G03X54525Y52800I195J-195D01*
X51775Y52500D02*
G03X51695Y52695I-276J0D01*
X51783Y50607D02*
G02X51775Y50624I17J18D01*
X54525Y50924D02*
G02X54517Y50907I-25J1D01*
X52124Y50275D02*
G02X52107Y50283I1J25D01*
X53893Y50283D02*
G02X53876Y50275I-18J17D01*
X56295Y53195D02*
G03X56100Y53275I-195J-195D01*
X56875Y52500D02*
G03X56795Y52695I-276J0D01*
X56883Y50907D02*
G02X56875Y50924I17J18D01*
X57424Y50375D02*
G02X57407Y50383I0J25D01*
X59783Y44607D02*
G02X59775Y44624I17J18D01*
Y45676D02*
G02X59783Y45693I25J-1D01*
X60007Y45917D02*
G02X60024Y45925I18J-17D01*
X66225Y44124D02*
G02X66217Y44107I-25J1D01*
X61124Y43275D02*
G02X61107Y43283I1J25D01*
X65393Y43283D02*
G02X65376Y43275I-18J17D01*
X61395Y50295D02*
G03X61200Y50375I-195J-195D01*
X61200Y45925D02*
G03X61395Y46005I0J276D01*
X61795Y46405D02*
G03X61875Y46600I-195J195D01*
Y49700D02*
G03X61795Y49895I-276J0D01*
G54D11*
X58876Y23237D02*
G01X58901Y23227D01*
X65226Y16902D01*
X65237Y16876D02*
Y13794D01*
X65204Y13757D03*
X64537Y13000D02*
Y5650D01*
X64500Y5613D02*
X58650D01*
X58613Y5650D02*
Y7450D01*
X55687D02*
Y5650D01*
X55650Y5613D02*
X53300D01*
X53263Y5650D02*
Y9063D01*
X53285Y9096D03*
X53713Y9750D02*
Y10750D01*
X53502Y11256D02*
X53274Y11484D01*
X53263Y11510D02*
Y22376D01*
X53273Y22401D01*
X54098Y23226D01*
X54124Y23237D02*
X58876D01*
G54D12*
X53275Y11511D02*
X64525D01*
X53275Y11511D02*
X64525D01*
X53275Y7450D02*
X55675D01*
X53275Y5650D02*
X55675D01*
X53275Y8900D02*
X56880D01*
X53275Y9063D02*
X64525D01*
X53338Y9108D02*
X64525D01*
X53275Y13000D02*
X64525D01*
X53275Y13744D02*
X65083D01*
X53275Y13794D02*
X65225D01*
X53275Y13794D02*
X65225D01*
X53275Y16876D02*
X65225D01*
X53275Y16911D02*
X65200D01*
X53275Y22376D02*
X59735D01*
X53300Y22411D02*
X59700D01*
X53300Y11475D02*
X64525D01*
X53725Y9750D02*
X64525D01*
X53528Y11247D02*
X64525D01*
X53725Y10750D02*
X64525D01*
X53725Y9750D02*
X64525D01*
X53725Y10750D02*
X64525D01*
X57420Y8900D02*
X64525D01*
X58625Y7450D02*
X64525D01*
X58625Y5650D02*
X64525D01*
Y11511D02*
Y11475D01*
X53275Y11511D03*
X64525Y11511D03*
G54D22*
X54063Y6463D02*
X54887D01*
X54063Y6637D02*
X54887D01*
G54D11*
X53300Y5613D02*
X55650D01*
X53272Y5625D02*
X55678D01*
X53265Y5637D02*
X55685D01*
G54D12*
X55650Y5625D02*
X53300D01*
G54D13*
X53453Y7653D02*
X55509D01*
X53453Y8001D02*
X55591D01*
X53453Y8349D02*
X55763D01*
X53453Y8697D02*
X56064D01*
G54D12*
X53275Y7450D02*
Y8900D01*
G54D13*
X53453Y7450D02*
Y8900D01*
G54D24*
X53301Y8951D02*
X64499D01*
X53301Y9012D02*
X64499D01*
G54D12*
X53292Y9086D02*
X64525D01*
Y9108D02*
Y9063D01*
G54D19*
X53656Y11917D02*
X64144D01*
X53656Y12594D02*
X64144D01*
G54D17*
X53352Y13102D02*
X64454D01*
X53352Y13282D02*
X64496D01*
X53352Y13462D02*
X64585D01*
X53352Y13642D02*
X64741D01*
G54D12*
X53275Y13000D02*
Y13744D01*
G54D17*
X53352Y13000D02*
Y13744D01*
G54D12*
X53275D02*
Y13794D01*
D03*
X65225Y13794D03*
G54D22*
X54063Y14607D02*
X64437D01*
X54063Y16063D02*
X64437D01*
G54D12*
X53275Y16876D02*
Y16911D01*
G54D14*
X54063Y17724D02*
X63273D01*
X54063Y19004D02*
X61993D01*
X54063Y20283D02*
X60713D01*
X54063Y21563D02*
X59433D01*
G54D12*
X53275Y16911D02*
Y22376D01*
X59752Y22358D02*
X65217Y16893D01*
G54D14*
X54063Y16911D02*
Y21563D01*
X59195Y21801D02*
X63273Y17724D01*
G54D12*
X59717Y22393D02*
X59752Y22358D01*
G54D16*
X53514Y11298D02*
X64499D01*
X53451Y11361D02*
X64499D01*
X53388Y11424D02*
X64499D01*
G54D12*
X53511Y11265D02*
X53283Y11493D01*
X64525Y11475D02*
Y11247D01*
G54D16*
X53529Y11283D02*
X53301Y11511D01*
X64499Y11475D02*
Y11247D01*
G54D13*
X53756Y22614D02*
X59244D01*
X53964Y22823D02*
X59036D01*
X54173Y23032D02*
X58827D01*
G54D12*
X53283Y22393D02*
X54107Y23217D01*
X58893D02*
X59717Y22393D01*
G54D13*
X53756Y22614D02*
X54173Y23032D01*
X58827D02*
X59591Y22267D01*
G54D17*
X53592Y9210D02*
X64448D01*
X53698Y9356D02*
X64448D01*
X53762Y9502D02*
X64448D01*
X53795Y9648D02*
X64448D01*
G54D12*
X64525Y9750D02*
Y9108D01*
G54D17*
X64448Y9750D02*
Y9108D01*
X53795Y10852D02*
X64448D01*
X53762Y10999D02*
X64448D01*
X53697Y11145D02*
X64448D01*
G54D12*
X64525Y11247D02*
Y10750D01*
G54D17*
X64448Y11247D02*
Y10750D01*
G54D19*
X54106Y10156D02*
X64144D01*
X54106Y10344D02*
X64144D01*
G54D12*
X53725Y9750D03*
X64525Y9750D03*
X53725Y10750D03*
X64525Y10750D03*
X54124Y23225D02*
X58876D01*
G54D13*
X58791Y7653D02*
X64347D01*
X58709Y8001D02*
X64347D01*
X58537Y8349D02*
X64347D01*
X58236Y8697D02*
X64347D01*
G54D12*
X64525Y8900D02*
Y7450D01*
G54D13*
X64347Y8900D02*
Y7450D01*
G54D22*
X59413Y6463D02*
X63737D01*
X59413Y6637D02*
X63737D01*
G54D11*
X58650Y5613D02*
X64500D01*
X58622Y5625D02*
X64528D01*
X58615Y5637D02*
X64535D01*
G54D12*
X64500Y5625D02*
X58650D01*
X53275Y13719D02*
X65009D01*
G54D16*
X53301Y13693D02*
X64899D01*
G54D12*
X53275Y22351D02*
X59759D01*
G54D16*
X53301Y22325D02*
X59749D01*
X53301Y16962D02*
Y22325D01*
G54D17*
X53352Y22274D02*
X59728D01*
X53352Y17013D02*
Y22274D01*
G54D13*
X53453Y22173D02*
X59686D01*
X53453Y17114D02*
Y22173D01*
G54D18*
X53656Y21970D02*
X59602D01*
X53656Y17317D02*
Y21970D01*
G54D12*
X65174Y16936D02*
X53275D01*
G54D16*
X65112Y16962D02*
X53301D01*
X59749Y22325D02*
X65112Y16962D01*
G54D17*
X64990Y17013D02*
X53352D01*
X59728Y22274D02*
X64990Y17013D01*
G54D13*
X64744Y17114D02*
X53453D01*
X59686Y22173D02*
X64744Y17114D01*
G54D18*
X64254Y17317D02*
X53656D01*
X59602Y21970D02*
X64254Y17317D01*
G54D12*
X59674Y22436D02*
X53326D01*
G54D16*
X53388Y22462D02*
X54110Y23184D01*
X59612Y22462D02*
X53388D01*
G54D17*
X53510Y22513D02*
X54131Y23133D01*
X59490Y22513D02*
X53510D01*
G54D12*
X54100Y23210D02*
X58900D01*
G54D16*
X54110Y23184D02*
X58890D01*
G54D17*
X54131Y23133D02*
X58869D01*
G54D16*
X58890Y23184D02*
X59612Y22462D01*
G54D17*
X58869Y23133D02*
X59490Y22513D01*
G54D12*
X64525Y9133D02*
X53383D01*
G54D16*
X64499Y9159D02*
X53463D01*
G54D11*
X65226Y16902D02*
G02X65237Y16876I-26J-27D01*
Y13794D02*
G02X65204Y13757I-37J-0D01*
X65204Y13757D02*
G03X64537Y13000I96J-757D01*
Y5650D02*
G02X64500Y5613I-37J0D01*
X58650D02*
G02X58613Y5650I0J37D01*
Y7450D02*
G03X55687Y7450I-1463J0D01*
Y5650D02*
G02X55650Y5613I-37J0D01*
X53300D02*
G02X53263Y5650I0J37D01*
Y9063D02*
G02X53285Y9096I37J-0D01*
X53285Y9096D02*
G03X53713Y9750I-285J653D01*
Y10750D02*
G03X53502Y11256I-713J0D01*
X53274Y11484D02*
G02X53263Y11510I26J27D01*
X54098Y23226D02*
G02X54124Y23237I27J-26D01*
G54D12*
X53283Y11493D02*
G02X53275Y11511I17J18D01*
X53300Y5625D02*
G02X53275Y5650I0J25D01*
X55675D02*
G02X55650Y5625I-25J0D01*
X57150Y8925D02*
G03X55675Y7450I0J-1475D01*
G54D13*
X57150Y9103D02*
G03X55497Y7450I0J-1653D01*
G54D12*
X53275Y9063D02*
G02X53290Y9085I24J-0D01*
X65203Y13769D02*
G03X64525Y13000I97J-769D01*
G54D17*
X64741Y13642D02*
G03X64448Y13000I559J-642D01*
G54D12*
X65225Y13794D02*
G02X65203Y13769I-25J0D01*
X65217Y16893D02*
G02X65225Y16876I-17J-18D01*
X53275Y22376D02*
G02X53283Y22393I24J-0D01*
X53290Y9085D02*
G03X53725Y9750I-290J665D01*
G54D17*
X53592Y9210D02*
G03X53802Y9750I-593J540D01*
G54D12*
X53725Y10750D02*
G03X53511Y11265I-725J0D01*
G54D17*
X53802Y10750D02*
G03X53565Y11319I-802J0D01*
G54D12*
X54107Y23217D02*
G02X54124Y23225I18J-17D01*
X58876D02*
G02X58893Y23217I-0J-24D01*
X58625Y7450D02*
G03X57150Y8925I-1475J0D01*
G54D13*
X58803Y7450D02*
G03X57150Y9103I-1653J0D01*
G54D12*
X58650Y5625D02*
G02X58625Y5650I0J25D01*
X64525D02*
G02X64500Y5625I-25J0D01*
G54D16*
X64899Y13693D02*
G03X64501Y13051I401J-693D01*
X53463Y9159D02*
G03X53749Y9699I-464J591D01*
G54D11*
X95987Y9700D02*
G01Y1550D01*
X95950Y1513D02*
X68350D01*
X68313Y1550D02*
Y9700D01*
X68350Y9737D02*
X95950D01*
G54D12*
X68325Y9700D02*
X95975D01*
X68325Y1550D02*
X95975D01*
G54D10*
X69926Y3176D02*
X94374D01*
X69926Y5625D02*
X94374D01*
X69926Y8074D02*
X94374D01*
G54D11*
X68350Y1513D02*
X95950D01*
X68322Y1525D02*
X95978D01*
X68315Y1537D02*
X95985D01*
G54D12*
X95950Y1525D02*
X68350D01*
G54D11*
X68315Y9713D02*
X95985D01*
X68322Y9725D02*
X95978D01*
X68350Y9737D02*
X95950D01*
G54D12*
X68350Y9725D02*
X95950D01*
G54D11*
Y9737D02*
G02X95987Y9700I0J-37D01*
Y1550D02*
G02X95950Y1513I-37J0D01*
X68350D02*
G02X68313Y1550I0J37D01*
Y9700D02*
G02X68350Y9737I37J0D01*
G54D12*
Y1525D02*
G02X68325Y1550I0J25D01*
X95975D02*
G02X95950Y1525I-25J0D01*
X68325Y9700D02*
G02X68350Y9725I25J0D01*
X95950D02*
G02X95975Y9700I0J-25D01*
%LPD*%
G75*
X95975Y9700D02*
G54D11*
X71187Y68100D02*
G01Y67100D01*
X70500Y66413D02*
X67500D01*
X66813Y67100D02*
Y68100D01*
X67500Y68787D02*
X70500D01*
G54D12*
X66825Y68100D02*
X71175D01*
X66825Y67100D02*
X71175D01*
G54D19*
X67206Y67506D02*
X70794D01*
X67206Y67694D02*
X70794D01*
G54D17*
X67500Y66502D02*
X70500D01*
X67087Y66667D02*
X70913D01*
X66965Y66833D02*
X71035D01*
X66910Y66998D02*
X71090D01*
G54D12*
X70500Y66425D02*
X67500D01*
G54D17*
X66910Y68202D02*
X71090D01*
X66965Y68367D02*
X71035D01*
X67087Y68533D02*
X70913D01*
X67500Y68698D02*
X70500D01*
G54D12*
X67500Y68775D02*
X70500D01*
G54D16*
Y66451D02*
X67500D01*
Y68749D02*
X70500D01*
G54D11*
Y68787D02*
G02X71187Y68100I0J-687D01*
Y67100D02*
G02X70500Y66413I-687J0D01*
X67500D02*
G02X66813Y67100I0J687D01*
Y68100D02*
G02X67500Y68787I687J0D01*
G54D12*
Y66425D02*
G02X66825Y67100I0J675D01*
X71175D02*
G02X70500Y66425I-675J0D01*
G54D17*
X67500Y66502D02*
G02X66902Y67100I0J598D01*
X71098D02*
G02X70500Y66502I-598J0D01*
G54D12*
X66825Y68100D02*
G02X67500Y68775I675J0D01*
X70500D02*
G02X71175Y68100I0J-675D01*
G54D17*
X66902D02*
G02X67500Y68698I598J0D01*
X70500D02*
G02X71098Y68100I0J-598D01*
G54D16*
X71147Y67049D02*
G02X70500Y66451I-647J51D01*
X67500D02*
G02X66853Y67049I0J649D01*
Y68151D02*
G02X67500Y68749I647J-51D01*
X70500D02*
G02X71147Y68151I0J-649D01*
G54D11*
X74187Y64600D02*
G01Y60500D01*
X73500Y59813D02*
X72300D01*
X71613Y60500D02*
Y64600D01*
X72300Y65287D02*
X73500D01*
G54D12*
X71625Y64600D02*
X74175D01*
X71625Y60500D02*
X74175D01*
G54D22*
X72413Y61313D02*
Y63787D01*
X73387Y61313D02*
Y63787D01*
G54D17*
X72300Y59902D02*
X73500D01*
X71887Y60067D02*
X73913D01*
X71765Y60233D02*
X74035D01*
X71710Y60398D02*
X74090D01*
G54D12*
X73500Y59825D02*
X72300D01*
G54D17*
X71710Y64702D02*
X74090D01*
X71765Y64867D02*
X74035D01*
X71887Y65033D02*
X73913D01*
X72300Y65198D02*
X73500D01*
G54D12*
X72300Y65275D02*
X73500D01*
G54D16*
Y59851D02*
X72300D01*
Y65249D02*
X73500D01*
G54D11*
Y65287D02*
G02X74187Y64600I0J-687D01*
Y60500D02*
G02X73500Y59813I-687J0D01*
X72300D02*
G02X71613Y60500I0J687D01*
Y64600D02*
G02X72300Y65287I687J0D01*
G54D12*
Y59825D02*
G02X71625Y60500I0J675D01*
X74175D02*
G02X73500Y59825I-675J0D01*
G54D17*
X72300Y59902D02*
G02X71702Y60500I0J598D01*
X74098D02*
G02X73500Y59902I-598J0D01*
G54D12*
X71625Y64600D02*
G02X72300Y65275I675J0D01*
X73500D02*
G02X74175Y64600I0J-675D01*
G54D17*
X71702D02*
G02X72300Y65198I598J0D01*
X73500D02*
G02X74098Y64600I0J-598D01*
G54D16*
X74147Y60449D02*
G02X73500Y59851I-647J51D01*
X72300D02*
G02X71653Y60449I0J649D01*
Y64651D02*
G02X72300Y65249I647J-51D01*
X73500D02*
G02X74147Y64651I0J-649D01*
G54D11*
X84187Y99000D02*
G01Y98000D01*
X83500Y97313D02*
X77500D01*
X76813Y98000D02*
Y99000D01*
X77500Y99687D02*
X83500D01*
G54D12*
X76825Y99000D02*
X84175D01*
X76825Y98000D02*
X84175D01*
G54D19*
X77206Y98406D02*
X83794D01*
X77206Y98594D02*
X83794D01*
G54D17*
X77500Y97402D02*
X83500D01*
X77087Y97567D02*
X83913D01*
X76965Y97733D02*
X84035D01*
X76910Y97898D02*
X84090D01*
G54D12*
X83500Y97325D02*
X77500D01*
G54D17*
X76910Y99102D02*
X84090D01*
X76965Y99267D02*
X84035D01*
X77087Y99433D02*
X83913D01*
X77500Y99598D02*
X83500D01*
G54D12*
X77500Y99675D02*
X83500D01*
G54D16*
Y97351D02*
X77500D01*
Y99649D02*
X83500D01*
G54D11*
Y99687D02*
G02X84187Y99000I0J-687D01*
Y98000D02*
G02X83500Y97313I-687J0D01*
X77500D02*
G02X76813Y98000I0J687D01*
Y99000D02*
G02X77500Y99687I687J0D01*
G54D12*
Y97325D02*
G02X76825Y98000I0J675D01*
X84175D02*
G02X83500Y97325I-675J0D01*
G54D17*
X77500Y97402D02*
G02X76902Y98000I0J598D01*
X84098D02*
G02X83500Y97402I-598J0D01*
G54D12*
X76825Y99000D02*
G02X77500Y99675I675J0D01*
X83500D02*
G02X84175Y99000I0J-675D01*
G54D17*
X76902D02*
G02X77500Y99598I598J0D01*
X83500D02*
G02X84098Y99000I0J-598D01*
G54D16*
X84147Y97949D02*
G02X83500Y97351I-647J51D01*
X77500D02*
G02X76853Y97949I0J649D01*
Y99051D02*
G02X77500Y99649I647J-51D01*
X83500D02*
G02X84147Y99051I0J-649D01*
G54D11*
X80387Y93800D02*
G01Y92500D01*
X79700Y91813D02*
X77400D01*
X76713Y92500D02*
Y93800D01*
X77400Y94487D02*
X79700D01*
G54D12*
X76725Y93800D02*
X80375D01*
X76725Y92500D02*
X80375D01*
G54D19*
X77106Y92906D02*
X79994D01*
X77106Y93394D02*
X79994D01*
G54D17*
X77400Y91902D02*
X79700D01*
X76987Y92067D02*
X80113D01*
X76865Y92233D02*
X80235D01*
X76810Y92398D02*
X80290D01*
G54D12*
X79700Y91825D02*
X77400D01*
G54D17*
X76810Y93902D02*
X80290D01*
X76865Y94067D02*
X80235D01*
X76987Y94233D02*
X80113D01*
X77400Y94398D02*
X79700D01*
G54D12*
X77400Y94475D02*
X79700D01*
G54D16*
Y91851D02*
X77400D01*
Y94449D02*
X79700D01*
G54D11*
Y94487D02*
G02X80387Y93800I0J-687D01*
Y92500D02*
G02X79700Y91813I-687J0D01*
X77400D02*
G02X76713Y92500I0J687D01*
Y93800D02*
G02X77400Y94487I687J0D01*
G54D12*
Y91825D02*
G02X76725Y92500I0J675D01*
X80375D02*
G02X79700Y91825I-675J0D01*
G54D17*
X77400Y91902D02*
G02X76802Y92500I0J598D01*
X80298D02*
G02X79700Y91902I-598J0D01*
G54D12*
X76725Y93800D02*
G02X77400Y94475I675J0D01*
X79700D02*
G02X80375Y93800I0J-675D01*
G54D17*
X76802D02*
G02X77400Y94398I598J0D01*
X79700D02*
G02X80298Y93800I0J-598D01*
G54D16*
X80347Y92449D02*
G02X79700Y91851I-647J51D01*
X77400D02*
G02X76753Y92449I0J649D01*
Y93851D02*
G02X77400Y94449I647J-51D01*
X79700D02*
G02X80347Y93851I0J-649D01*
G54D11*
X94437Y71000D02*
G01Y69500D01*
X93750Y68813D02*
X90000D01*
X89313Y69500D02*
Y71000D01*
X90000Y71687D02*
X93750D01*
G54D12*
X89325Y71000D02*
X94425D01*
X89325Y69500D02*
X94425D01*
G54D19*
X89706Y69906D02*
X94044D01*
X89706Y70594D02*
X94044D01*
G54D17*
X90000Y68902D02*
X93750D01*
X89587Y69067D02*
X94163D01*
X89465Y69233D02*
X94285D01*
X89410Y69398D02*
X94340D01*
G54D12*
X93750Y68825D02*
X90000D01*
G54D17*
X89410Y71102D02*
X94340D01*
X89465Y71267D02*
X94285D01*
X89587Y71433D02*
X94163D01*
X90000Y71598D02*
X93750D01*
G54D12*
X90000Y71675D02*
X93750D01*
G54D16*
Y68851D02*
X90000D01*
Y71649D02*
X93750D01*
G54D11*
Y71687D02*
G02X94437Y71000I0J-687D01*
Y69500D02*
G02X93750Y68813I-687J0D01*
X90000D02*
G02X89313Y69500I0J687D01*
Y71000D02*
G02X90000Y71687I687J0D01*
G54D12*
Y68825D02*
G02X89325Y69500I0J675D01*
X94425D02*
G02X93750Y68825I-675J0D01*
G54D17*
X90000Y68902D02*
G02X89402Y69500I0J598D01*
X94348D02*
G02X93750Y68902I-598J0D01*
G54D12*
X89325Y71000D02*
G02X90000Y71675I675J0D01*
X93750D02*
G02X94425Y71000I0J-675D01*
G54D17*
X89402D02*
G02X90000Y71598I598J0D01*
X93750D02*
G02X94348Y71000I0J-598D01*
G54D16*
X94397Y69449D02*
G02X93750Y68851I-647J51D01*
X90000D02*
G02X89353Y69449I0J649D01*
Y71051D02*
G02X90000Y71649I647J-51D01*
X93750D02*
G02X94397Y71051I0J-649D01*
G54D11*
X83187Y70000D02*
G01Y68000D01*
X82500Y67313D02*
X80500D01*
X79813Y68000D02*
Y70000D01*
X80500Y70687D02*
X82500D01*
G54D12*
X79825Y70000D02*
X83175D01*
X79825Y68000D02*
X83175D01*
G54D22*
X80613Y68813D02*
X82387D01*
X80613Y69187D02*
X82387D01*
G54D17*
X80500Y67402D02*
X82500D01*
X80087Y67567D02*
X82913D01*
X79965Y67733D02*
X83035D01*
X79910Y67898D02*
X83090D01*
G54D12*
X82500Y67325D02*
X80500D01*
G54D17*
X79910Y70102D02*
X83090D01*
X79965Y70267D02*
X83035D01*
X80087Y70433D02*
X82913D01*
X80500Y70598D02*
X82500D01*
G54D12*
X80500Y70675D02*
X82500D01*
G54D16*
Y67351D02*
X80500D01*
Y70649D02*
X82500D01*
G54D11*
Y70687D02*
G02X83187Y70000I0J-687D01*
Y68000D02*
G02X82500Y67313I-687J0D01*
X80500D02*
G02X79813Y68000I0J687D01*
Y70000D02*
G02X80500Y70687I687J0D01*
G54D12*
Y67325D02*
G02X79825Y68000I0J675D01*
X83175D02*
G02X82500Y67325I-675J0D01*
G54D17*
X80500Y67402D02*
G02X79902Y68000I0J598D01*
X83098D02*
G02X82500Y67402I-598J0D01*
G54D12*
X79825Y70000D02*
G02X80500Y70675I675J0D01*
X82500D02*
G02X83175Y70000I0J-675D01*
G54D17*
X79902D02*
G02X80500Y70598I598J0D01*
X82500D02*
G02X83098Y70000I0J-598D01*
G54D16*
X83147Y67949D02*
G02X82500Y67351I-647J51D01*
X80500D02*
G02X79853Y67949I0J649D01*
Y70051D02*
G02X80500Y70649I647J-51D01*
X82500D02*
G02X83147Y70051I0J-649D01*
G54D11*
X95187Y58250D02*
G01Y57000D01*
X94500Y56313D02*
X90750D01*
X90063Y57000D02*
Y58250D01*
X90750Y58937D02*
X94500D01*
G54D12*
X90075Y58250D02*
X95175D01*
X90075Y57000D02*
X95175D01*
G54D19*
X90456Y57406D02*
X94794D01*
X90456Y57844D02*
X94794D01*
G54D17*
X90750Y56402D02*
X94500D01*
X90337Y56567D02*
X94913D01*
X90215Y56733D02*
X95035D01*
X90160Y56898D02*
X95090D01*
G54D12*
X94500Y56325D02*
X90750D01*
G54D17*
X90160Y58352D02*
X95090D01*
X90215Y58517D02*
X95035D01*
X90337Y58683D02*
X94913D01*
X90750Y58848D02*
X94500D01*
G54D12*
X90750Y58925D02*
X94500D01*
G54D16*
Y56351D02*
X90750D01*
Y58899D02*
X94500D01*
G54D11*
Y58937D02*
G02X95187Y58250I0J-687D01*
Y57000D02*
G02X94500Y56313I-687J0D01*
X90750D02*
G02X90063Y57000I0J687D01*
Y58250D02*
G02X90750Y58937I687J0D01*
G54D12*
Y56325D02*
G02X90075Y57000I0J675D01*
X95175D02*
G02X94500Y56325I-675J0D01*
G54D17*
X90750Y56402D02*
G02X90152Y57000I0J598D01*
X95098D02*
G02X94500Y56402I-598J0D01*
G54D12*
X90075Y58250D02*
G02X90750Y58925I675J0D01*
X94500D02*
G02X95175Y58250I0J-675D01*
G54D17*
X90152D02*
G02X90750Y58848I598J0D01*
X94500D02*
G02X95098Y58250I0J-598D01*
G54D16*
X95147Y56949D02*
G02X94500Y56351I-647J51D01*
X90750D02*
G02X90103Y56949I0J649D01*
Y58301D02*
G02X90750Y58899I647J-51D01*
X94500D02*
G02X95147Y58301I0J-649D01*
G54D11*
X46687Y23500D02*
G01Y21500D01*
X46000Y20813D02*
X44750D01*
X44063Y21500D02*
Y23500D01*
X44750Y24187D02*
X46000D01*
G54D12*
X44075Y23500D02*
X46675D01*
X44075Y21500D02*
X46675D01*
G54D22*
X44863Y22313D02*
X45887D01*
X44863Y22687D02*
X45887D01*
G54D17*
X44750Y20902D02*
X46000D01*
X44337Y21067D02*
X46413D01*
X44215Y21233D02*
X46535D01*
X44160Y21398D02*
X46590D01*
G54D12*
X46000Y20825D02*
X44750D01*
G54D17*
X44160Y23602D02*
X46590D01*
X44215Y23767D02*
X46535D01*
X44337Y23933D02*
X46413D01*
X44750Y24098D02*
X46000D01*
G54D12*
X44750Y24175D02*
X46000D01*
G54D16*
Y20851D02*
X44750D01*
Y24149D02*
X46000D01*
G54D11*
Y24187D02*
G02X46687Y23500I0J-687D01*
Y21500D02*
G02X46000Y20813I-687J0D01*
X44750D02*
G02X44063Y21500I0J687D01*
Y23500D02*
G02X44750Y24187I687J0D01*
G54D12*
Y20825D02*
G02X44075Y21500I0J675D01*
X46675D02*
G02X46000Y20825I-675J0D01*
G54D17*
X44750Y20902D02*
G02X44152Y21500I0J598D01*
X46598D02*
G02X46000Y20902I-598J0D01*
G54D12*
X44075Y23500D02*
G02X44750Y24175I675J0D01*
X46000D02*
G02X46675Y23500I0J-675D01*
G54D17*
X44152D02*
G02X44750Y24098I598J0D01*
X46000D02*
G02X46598Y23500I0J-598D01*
G54D16*
X46647Y21449D02*
G02X46000Y20851I-647J51D01*
X44750D02*
G02X44103Y21449I0J649D01*
Y23551D02*
G02X44750Y24149I647J-51D01*
X46000D02*
G02X46647Y23551I0J-649D01*
G54D25*
X14280Y77410D02*
G01Y79410D01*
X12780Y74410D02*
Y76410D01*
X14280Y71410D02*
Y73410D01*
Y60010D02*
Y62010D01*
X12780Y57010D02*
Y59010D01*
X14280Y54010D02*
Y56010D01*
Y42610D02*
Y44610D01*
X12780Y39610D02*
Y41610D01*
X14280Y36610D02*
Y38610D01*
Y25210D02*
Y27210D01*
X12780Y22210D02*
Y24210D01*
X14280Y19210D02*
Y21210D01*
G54D26*
X8500Y4250D03*
X7500D03*
X6500D03*
X24120Y12500D03*
X23120D03*
X25120D03*
X36500Y4250D03*
X38500D03*
X37500D03*
X71000Y12500D03*
X70000D03*
X69000D03*
X94500D03*
X93500D03*
X92500D03*
G54D27*
X42300Y42000D03*
X43800Y40900D03*
X65900Y73850D03*
X65100D03*
X65900Y74650D03*
X65100D03*
G54D11*
X14331Y24046D02*
X14475Y24024D01*
X14613Y23978D01*
X14728Y23916D01*
X14564Y23752D01*
X14504Y23780D01*
X14402Y23811D01*
X14296Y23823D01*
X14189Y23816D01*
X14085Y23791D01*
X13996Y23752D01*
X13832Y23916D01*
X13906Y23959D01*
X14042Y24013D01*
X14185Y24042D01*
X14331Y24046D01*
G54D12*
X13861Y23919D02*
X14696D01*
X13968Y23970D02*
X14597D01*
X14017Y23990D02*
X14539D01*
X13956Y23810D02*
X14111D01*
X13962Y23803D02*
X14084D01*
X14163Y24025D02*
X14387D01*
X13987Y23779D02*
X14027D01*
X14448Y23810D02*
X14604D01*
X14487Y23798D02*
X14592D01*
X14559Y23768D02*
X14563D01*
X13931Y23835D02*
X14629D01*
X13902Y23864D02*
X14658D01*
X13873Y23894D02*
X14687D01*
X13939Y23828D02*
X13853Y23914D01*
X14707Y23913D02*
X14621Y23828D01*
X13906Y23944D02*
X14649D01*
X13907Y23945D02*
X14648D01*
X13853Y23914D02*
X13911Y23948D01*
X14642Y23948D02*
X14707Y23913D01*
X13911Y23948D02*
X13958Y23966D01*
X14608Y23966D02*
X14642Y23948D01*
X13945Y23821D02*
X13939Y23828D01*
X14296Y23835D02*
X14187Y23829D01*
X13969Y23797D02*
X13945Y23821D01*
X14187Y23829D02*
X14081Y23803D01*
X13958Y23966D02*
X14045Y24000D01*
X14505Y24001D02*
X14608Y23966D01*
X13999Y23767D02*
X13969Y23797D01*
X14081Y23803D02*
X13999Y23767D01*
X14045Y24000D02*
X14101Y24012D01*
X14472Y24012D02*
X14505Y24001D01*
X14101Y24012D02*
X14186Y24029D01*
X14354Y24029D02*
X14472Y24012D01*
X14186Y24029D02*
X14330Y24033D01*
X14354Y24029D01*
X14404Y23823D02*
X14296Y23835D01*
X14621Y23828D02*
X14610Y23816D01*
X14509Y23792D02*
X14404Y23823D01*
X14610Y23816D02*
X14580Y23786D01*
X14561Y23768D02*
X14509Y23792D01*
X14580Y23786D02*
X14561Y23768D01*
G54D11*
X14986Y23658D02*
X15029Y23584D01*
X15083Y23448D01*
X15112Y23305D01*
X15116Y23159D01*
X15094Y23015D01*
X15048Y22877D01*
X14986Y22762D01*
X14822Y22926D01*
X14850Y22986D01*
X14881Y23088D01*
X14893Y23194D01*
X14886Y23301D01*
X14861Y23405D01*
X14822Y23494D01*
X14986Y23658D01*
G54D12*
X14842Y22923D02*
X15051D01*
X14865Y22991D02*
X15073D01*
X14842Y23497D02*
X15050D01*
X14936Y23590D02*
X15012D01*
X14854Y23452D02*
X15068D01*
X14871Y23012D02*
X15080D01*
X14893Y23091D02*
X15093D01*
X14874Y23401D02*
X15080D01*
X14894Y22872D02*
X15031D01*
X14901Y23159D02*
X15103D01*
X14897Y23307D02*
X15099D01*
X14899Y23299D02*
X15099D01*
X14905Y23195D02*
X15102D01*
X14869Y22897D02*
X15041D01*
X14868Y22898D02*
X15042D01*
X14877Y22890D02*
X14838Y22929D01*
X15053Y22931D02*
X15036Y22882D01*
X14847Y22949D02*
X15059D01*
X14855Y22965D02*
X15064D01*
X14838Y22929D02*
X14862Y22981D01*
X15075Y22999D02*
X15053Y22931D01*
X14845Y23474D02*
X15059D01*
X14850Y23462D02*
X14837Y23491D01*
X15054Y23487D02*
X15070Y23445D01*
X14868Y23522D02*
X15040D01*
X14911Y23564D02*
X15023D01*
X14837Y23491D02*
X14918Y23572D01*
X15018Y23579D02*
X15054Y23487D01*
X14866Y23426D02*
X15074D01*
X14865Y23427D02*
X15074D01*
X14873Y23409D02*
X14850Y23462D01*
X15070Y23445D02*
X15080Y23396D01*
X14862Y22981D02*
X14869Y23005D01*
X15082Y23018D02*
X15075Y22999D01*
X14879Y23037D02*
X15085D01*
X14887Y23065D02*
X15089D01*
X14869Y23005D02*
X14893Y23086D01*
X15093Y23095D02*
X15082Y23018D01*
X14892Y23332D02*
X15093D01*
X14881Y23375D02*
X15085D01*
X14896Y23313D02*
X14873Y23409D01*
X15080Y23396D02*
X15099Y23304D01*
X14960Y22806D02*
X14996D01*
X14920Y22846D02*
X15017D01*
X14983Y22783D02*
X14877Y22890D01*
X15036Y22882D02*
X14983Y22783D01*
X14897Y23116D02*
X15096D01*
X14898Y23133D02*
X15099D01*
X14893Y23086D02*
X14901Y23156D01*
X15103Y23160D02*
X15093Y23095D01*
X14899Y23303D02*
X14896Y23313D01*
X15099Y23304D02*
X15099Y23298D01*
X14904Y23220D02*
X15101D01*
X14902Y23247D02*
X15101D01*
X14900Y23274D02*
X15100D01*
X14905Y23194D02*
X14899Y23303D01*
X15099Y23298D02*
X15102Y23194D01*
X14901Y23156D02*
X14905Y23194D01*
X15102Y23194D02*
X15103Y23160D01*
X14961Y23615D02*
X14996D01*
X14918Y23572D02*
X14984Y23637D01*
X15018Y23579D01*
G54D11*
X14564Y22668D02*
X14728Y22504D01*
X14654Y22461D01*
X14518Y22407D01*
X14375Y22378D01*
X14229Y22374D01*
X14085Y22396D01*
X13947Y22442D01*
X13832Y22504D01*
X13996Y22668D01*
X14056Y22640D01*
X14158Y22609D01*
X14264Y22597D01*
X14371Y22604D01*
X14475Y22629D01*
X14564Y22668D01*
G54D12*
X13864Y22501D02*
X14699D01*
X13956Y22610D02*
X14112D01*
X14449D02*
X14604D01*
X13963Y22450D02*
X14592D01*
X13968Y22622D02*
X14073D01*
X13997Y22652D02*
X14001D01*
X14021Y22430D02*
X14543D01*
X14173Y22395D02*
X14397D01*
X14476Y22617D02*
X14598D01*
X14533Y22641D02*
X14573D01*
X13912Y22475D02*
X14653D01*
X13911Y22476D02*
X14654D01*
X13918Y22472D02*
X13853Y22507D01*
X14707Y22506D02*
X14649Y22472D01*
X13873Y22526D02*
X14687D01*
X13902Y22556D02*
X14658D01*
X13931Y22585D02*
X14629D01*
X13853Y22507D02*
X13939Y22592D01*
X14621D02*
X14707Y22506D01*
X13952Y22454D02*
X13918Y22472D01*
X14649Y22472D02*
X14602Y22454D01*
X13939Y22592D02*
X13950Y22604D01*
X14156Y22597D02*
X14264Y22585D01*
X13950Y22604D02*
X13980Y22634D01*
X14051Y22628D02*
X14156Y22597D01*
X14055Y22419D02*
X13952Y22454D01*
X14602Y22454D02*
X14515Y22420D01*
X13980Y22634D02*
X13999Y22652D01*
X14051Y22628D01*
X14088Y22408D02*
X14055Y22419D01*
X14515Y22420D02*
X14459Y22408D01*
X14206Y22391D02*
X14088Y22408D01*
X14459Y22408D02*
X14374Y22391D01*
X14230Y22387D02*
X14206Y22391D01*
X14374Y22391D02*
X14230Y22387D01*
X14264Y22585D02*
X14373Y22591D01*
X14615Y22599D02*
X14621Y22592D01*
X14373Y22591D02*
X14479Y22617D01*
X14591Y22623D02*
X14615Y22599D01*
X14479Y22617D02*
X14561Y22653D01*
X14591Y22623D01*
G54D11*
X13574Y23658D02*
X13738Y23494D01*
X13710Y23434D01*
X13679Y23332D01*
X13667Y23226D01*
X13674Y23119D01*
X13699Y23015D01*
X13738Y22926D01*
X13574Y22762D01*
X13531Y22836D01*
X13477Y22972D01*
X13448Y23115D01*
X13444Y23261D01*
X13466Y23405D01*
X13512Y23543D01*
X13574Y23658D01*
G54D12*
X13457Y23261D02*
X13659D01*
X13467Y23329D02*
X13667D01*
X13458Y23225D02*
X13655D01*
X13461Y23121D02*
X13661D01*
X13461Y23113D02*
X13663D01*
X13480Y23408D02*
X13689D01*
X13487Y23429D02*
X13695D01*
X13480Y23019D02*
X13686D01*
X13509Y23497D02*
X13718D01*
X13492Y22968D02*
X13706D01*
X13510Y22923D02*
X13718D01*
X13529Y23548D02*
X13666D01*
X13548Y22830D02*
X13624D01*
X13458Y23226D02*
X13457Y23260D01*
X13659Y23264D02*
X13655Y23226D01*
X13461Y23287D02*
X13662D01*
X13464Y23304D02*
X13663D01*
X13457Y23260D02*
X13467Y23325D01*
X13667Y23334D02*
X13659Y23264D01*
X13460Y23146D02*
X13660D01*
X13459Y23173D02*
X13658D01*
X13459Y23200D02*
X13656D01*
X13461Y23122D02*
X13458Y23226D01*
X13655Y23226D02*
X13661Y23117D01*
X13461Y23116D02*
X13461Y23122D01*
X13661Y23117D02*
X13664Y23107D01*
X13475Y23045D02*
X13679D01*
X13467Y23088D02*
X13668D01*
X13480Y23024D02*
X13461Y23116D01*
X13664Y23107D02*
X13687Y23011D01*
X13471Y23355D02*
X13673D01*
X13475Y23383D02*
X13681D01*
X13467Y23325D02*
X13478Y23402D01*
X13691Y23415D02*
X13667Y23334D01*
X13478Y23402D02*
X13485Y23421D01*
X13698Y23439D02*
X13691Y23415D01*
X13486Y22993D02*
X13695D01*
X13486Y22994D02*
X13694D01*
X13490Y22975D02*
X13480Y23024D01*
X13687Y23011D02*
X13710Y22958D01*
X13496Y23455D02*
X13705D01*
X13501Y23471D02*
X13713D01*
X13485Y23421D02*
X13507Y23489D01*
X13722Y23491D02*
X13698Y23439D01*
X13501Y22946D02*
X13715D01*
X13506Y22933D02*
X13490Y22975D01*
X13710Y22958D02*
X13723Y22929D01*
X13537Y22856D02*
X13649D01*
X13520Y22898D02*
X13692D01*
X13542Y22841D02*
X13506Y22933D01*
X13723Y22929D02*
X13642Y22848D01*
X13518Y23522D02*
X13692D01*
X13519Y23523D02*
X13691D01*
X13507Y23489D02*
X13524Y23538D01*
X13683Y23530D02*
X13722Y23491D01*
X13543Y23574D02*
X13640D01*
X13564Y23614D02*
X13600D01*
X13524Y23538D02*
X13577Y23637D01*
X13683Y23530D01*
X13564Y22805D02*
X13599D01*
X13576Y22783D02*
X13542Y22841D01*
X13642Y22848D02*
X13576Y22783D01*
G54D11*
X12831Y20546D02*
X12975Y20524D01*
X13113Y20478D01*
X13228Y20416D01*
X13064Y20252D01*
X13004Y20280D01*
X12902Y20311D01*
X12796Y20323D01*
X12689Y20316D01*
X12585Y20291D01*
X12496Y20252D01*
X12332Y20416D01*
X12406Y20459D01*
X12542Y20513D01*
X12685Y20542D01*
X12831Y20546D01*
G54D12*
X12361Y20419D02*
X13196D01*
X12468Y20470D02*
X13097D01*
X12517Y20490D02*
X13039D01*
X12456Y20310D02*
X12611D01*
X12462Y20303D02*
X12584D01*
X12663Y20525D02*
X12887D01*
X12487Y20279D02*
X12527D01*
X12948Y20310D02*
X13104D01*
X12987Y20298D02*
X13092D01*
X13059Y20268D02*
X13063D01*
X12431Y20335D02*
X13129D01*
X12402Y20364D02*
X13158D01*
X12373Y20394D02*
X13187D01*
X12439Y20328D02*
X12353Y20414D01*
X13207Y20413D02*
X13121Y20328D01*
X12406Y20444D02*
X13149D01*
X12407Y20445D02*
X13148D01*
X12353Y20414D02*
X12411Y20448D01*
X13142Y20448D02*
X13207Y20413D01*
X12411Y20448D02*
X12458Y20466D01*
X13108Y20466D02*
X13142Y20448D01*
X12445Y20321D02*
X12439Y20328D01*
X12796Y20335D02*
X12687Y20329D01*
X12469Y20297D02*
X12445Y20321D01*
X12687Y20329D02*
X12581Y20303D01*
X12458Y20466D02*
X12545Y20500D01*
X13005Y20501D02*
X13108Y20466D01*
X12499Y20267D02*
X12469Y20297D01*
X12581Y20303D02*
X12499Y20267D01*
X12545Y20500D02*
X12601Y20512D01*
X12972Y20512D02*
X13005Y20501D01*
X12601Y20512D02*
X12686Y20529D01*
X12854Y20529D02*
X12972Y20512D01*
X12686Y20529D02*
X12830Y20533D01*
X12854Y20529D01*
X12904Y20323D02*
X12796Y20335D01*
X13121Y20328D02*
X13110Y20316D01*
X13009Y20292D02*
X12904Y20323D01*
X13110Y20316D02*
X13080Y20286D01*
X13061Y20268D02*
X13009Y20292D01*
X13080Y20286D02*
X13061Y20268D01*
G54D11*
X13486Y20158D02*
X13529Y20084D01*
X13583Y19948D01*
X13612Y19805D01*
X13616Y19659D01*
X13594Y19515D01*
X13548Y19377D01*
X13486Y19262D01*
X13322Y19426D01*
X13350Y19486D01*
X13381Y19588D01*
X13393Y19694D01*
X13386Y19801D01*
X13361Y19905D01*
X13322Y19994D01*
X13486Y20158D01*
G54D12*
X13342Y19423D02*
X13551D01*
X13365Y19491D02*
X13573D01*
X13342Y19997D02*
X13550D01*
X13436Y20090D02*
X13512D01*
X13354Y19952D02*
X13568D01*
X13371Y19512D02*
X13580D01*
X13393Y19591D02*
X13593D01*
X13374Y19901D02*
X13580D01*
X13394Y19372D02*
X13531D01*
X13401Y19659D02*
X13603D01*
X13397Y19807D02*
X13599D01*
X13399Y19799D02*
X13599D01*
X13405Y19695D02*
X13602D01*
X13369Y19397D02*
X13541D01*
X13368Y19398D02*
X13542D01*
X13377Y19390D02*
X13338Y19429D01*
X13553Y19431D02*
X13536Y19382D01*
X13347Y19449D02*
X13559D01*
X13355Y19465D02*
X13564D01*
X13338Y19429D02*
X13362Y19481D01*
X13575Y19499D02*
X13553Y19431D01*
X13345Y19974D02*
X13559D01*
X13350Y19962D02*
X13337Y19991D01*
X13554Y19987D02*
X13570Y19945D01*
X13368Y20022D02*
X13540D01*
X13411Y20064D02*
X13523D01*
X13337Y19991D02*
X13418Y20072D01*
X13518Y20079D02*
X13554Y19987D01*
X13366Y19926D02*
X13574D01*
X13365Y19927D02*
X13574D01*
X13373Y19909D02*
X13350Y19962D01*
X13570Y19945D02*
X13580Y19896D01*
X13362Y19481D02*
X13369Y19505D01*
X13582Y19518D02*
X13575Y19499D01*
X13379Y19537D02*
X13585D01*
X13387Y19565D02*
X13589D01*
X13369Y19505D02*
X13393Y19586D01*
X13593Y19595D02*
X13582Y19518D01*
X13392Y19832D02*
X13593D01*
X13381Y19875D02*
X13585D01*
X13396Y19813D02*
X13373Y19909D01*
X13580Y19896D02*
X13599Y19804D01*
X13460Y19306D02*
X13496D01*
X13420Y19346D02*
X13517D01*
X13483Y19283D02*
X13377Y19390D01*
X13536Y19382D02*
X13483Y19283D01*
X13397Y19616D02*
X13596D01*
X13398Y19633D02*
X13599D01*
X13393Y19586D02*
X13401Y19656D01*
X13603Y19660D02*
X13593Y19595D01*
X13399Y19803D02*
X13396Y19813D01*
X13599Y19804D02*
X13599Y19798D01*
X13404Y19720D02*
X13601D01*
X13402Y19747D02*
X13601D01*
X13400Y19774D02*
X13600D01*
X13405Y19694D02*
X13399Y19803D01*
X13599Y19798D02*
X13602Y19694D01*
X13401Y19656D02*
X13405Y19694D01*
X13602Y19694D02*
X13603Y19660D01*
X13461Y20115D02*
X13496D01*
X13418Y20072D02*
X13484Y20137D01*
X13518Y20079D01*
G54D11*
X13064Y19168D02*
X13228Y19004D01*
X13154Y18961D01*
X13018Y18907D01*
X12875Y18878D01*
X12729Y18874D01*
X12585Y18896D01*
X12447Y18942D01*
X12332Y19004D01*
X12496Y19168D01*
X12556Y19140D01*
X12658Y19109D01*
X12764Y19097D01*
X12871Y19104D01*
X12975Y19129D01*
X13064Y19168D01*
G54D12*
X12364Y19001D02*
X13199D01*
X12456Y19110D02*
X12612D01*
X12949D02*
X13104D01*
X12463Y18950D02*
X13092D01*
X12468Y19122D02*
X12573D01*
X12497Y19152D02*
X12501D01*
X12521Y18930D02*
X13043D01*
X12673Y18895D02*
X12897D01*
X12976Y19117D02*
X13098D01*
X13033Y19141D02*
X13073D01*
X12412Y18975D02*
X13153D01*
X12411Y18976D02*
X13154D01*
X12418Y18972D02*
X12353Y19007D01*
X13207Y19006D02*
X13149Y18972D01*
X12373Y19026D02*
X13187D01*
X12402Y19056D02*
X13158D01*
X12431Y19085D02*
X13129D01*
X12353Y19007D02*
X12439Y19092D01*
X13121D02*
X13207Y19006D01*
X12452Y18954D02*
X12418Y18972D01*
X13149Y18972D02*
X13102Y18954D01*
X12439Y19092D02*
X12450Y19104D01*
X12656Y19097D02*
X12764Y19085D01*
X12450Y19104D02*
X12480Y19134D01*
X12551Y19128D02*
X12656Y19097D01*
X12555Y18919D02*
X12452Y18954D01*
X13102Y18954D02*
X13015Y18920D01*
X12480Y19134D02*
X12499Y19152D01*
X12551Y19128D01*
X12588Y18908D02*
X12555Y18919D01*
X13015Y18920D02*
X12959Y18908D01*
X12706Y18891D02*
X12588Y18908D01*
X12959Y18908D02*
X12874Y18891D01*
X12730Y18887D02*
X12706Y18891D01*
X12874Y18891D02*
X12730Y18887D01*
X12764Y19085D02*
X12873Y19091D01*
X13115Y19099D02*
X13121Y19092D01*
X12873Y19091D02*
X12979Y19117D01*
X13091Y19123D02*
X13115Y19099D01*
X12979Y19117D02*
X13061Y19153D01*
X13091Y19123D01*
G54D11*
X12074Y20158D02*
X12238Y19994D01*
X12210Y19934D01*
X12179Y19832D01*
X12167Y19726D01*
X12174Y19619D01*
X12199Y19515D01*
X12238Y19426D01*
X12074Y19262D01*
X12031Y19336D01*
X11977Y19472D01*
X11948Y19615D01*
X11944Y19761D01*
X11966Y19905D01*
X12012Y20043D01*
X12074Y20158D01*
G54D12*
X11957Y19761D02*
X12159D01*
X11967Y19829D02*
X12167D01*
X11958Y19725D02*
X12155D01*
X11961Y19621D02*
X12161D01*
X11961Y19613D02*
X12163D01*
X11980Y19908D02*
X12189D01*
X11987Y19929D02*
X12195D01*
X11980Y19519D02*
X12186D01*
X12009Y19997D02*
X12218D01*
X11992Y19468D02*
X12206D01*
X12010Y19423D02*
X12218D01*
X12029Y20048D02*
X12166D01*
X12048Y19330D02*
X12124D01*
X11958Y19726D02*
X11957Y19760D01*
X12159Y19764D02*
X12155Y19726D01*
X11961Y19787D02*
X12162D01*
X11964Y19804D02*
X12163D01*
X11957Y19760D02*
X11967Y19825D01*
X12167Y19834D02*
X12159Y19764D01*
X11960Y19646D02*
X12160D01*
X11959Y19673D02*
X12158D01*
X11959Y19700D02*
X12156D01*
X11961Y19622D02*
X11958Y19726D01*
X12155Y19726D02*
X12161Y19617D01*
X11961Y19616D02*
X11961Y19622D01*
X12161Y19617D02*
X12164Y19607D01*
X11975Y19545D02*
X12179D01*
X11967Y19588D02*
X12168D01*
X11980Y19524D02*
X11961Y19616D01*
X12164Y19607D02*
X12187Y19511D01*
X11971Y19855D02*
X12173D01*
X11975Y19883D02*
X12181D01*
X11967Y19825D02*
X11978Y19902D01*
X12191Y19915D02*
X12167Y19834D01*
X11978Y19902D02*
X11985Y19921D01*
X12198Y19939D02*
X12191Y19915D01*
X11986Y19493D02*
X12195D01*
X11986Y19494D02*
X12194D01*
X11990Y19475D02*
X11980Y19524D01*
X12187Y19511D02*
X12210Y19458D01*
X11996Y19955D02*
X12205D01*
X12001Y19971D02*
X12213D01*
X11985Y19921D02*
X12007Y19989D01*
X12222Y19991D02*
X12198Y19939D01*
X12001Y19446D02*
X12215D01*
X12006Y19433D02*
X11990Y19475D01*
X12210Y19458D02*
X12223Y19429D01*
X12037Y19356D02*
X12149D01*
X12020Y19398D02*
X12192D01*
X12042Y19341D02*
X12006Y19433D01*
X12223Y19429D02*
X12142Y19348D01*
X12018Y20022D02*
X12192D01*
X12019Y20023D02*
X12191D01*
X12007Y19989D02*
X12024Y20038D01*
X12183Y20030D02*
X12222Y19991D01*
X12043Y20074D02*
X12140D01*
X12064Y20114D02*
X12100D01*
X12024Y20038D02*
X12077Y20137D01*
X12183Y20030D01*
X12064Y19305D02*
X12099D01*
X12076Y19283D02*
X12042Y19341D01*
X12142Y19348D02*
X12076Y19283D01*
G54D11*
X12831Y37946D02*
X12975Y37924D01*
X13113Y37878D01*
X13228Y37816D01*
X13064Y37652D01*
X13004Y37680D01*
X12902Y37711D01*
X12796Y37723D01*
X12689Y37716D01*
X12585Y37691D01*
X12496Y37652D01*
X12332Y37816D01*
X12406Y37859D01*
X12542Y37913D01*
X12685Y37942D01*
X12831Y37946D01*
G54D12*
X12361Y37819D02*
X13196D01*
X12468Y37870D02*
X13097D01*
X12517Y37890D02*
X13039D01*
X12456Y37710D02*
X12611D01*
X12462Y37703D02*
X12584D01*
X12663Y37925D02*
X12887D01*
X12487Y37679D02*
X12527D01*
X12948Y37710D02*
X13104D01*
X12987Y37698D02*
X13092D01*
X13059Y37668D02*
X13063D01*
X12431Y37735D02*
X13129D01*
X12402Y37764D02*
X13158D01*
X12373Y37794D02*
X13187D01*
X12439Y37728D02*
X12353Y37814D01*
X13207Y37813D02*
X13121Y37728D01*
X12406Y37845D02*
X13149D01*
X12407Y37845D02*
X13148D01*
X12353Y37814D02*
X12411Y37848D01*
X13142Y37848D02*
X13207Y37813D01*
X12411Y37848D02*
X12458Y37866D01*
X13108Y37866D02*
X13142Y37848D01*
X12445Y37721D02*
X12439Y37728D01*
X12796Y37735D02*
X12687Y37729D01*
X12469Y37697D02*
X12445Y37721D01*
X12687Y37729D02*
X12581Y37703D01*
X12458Y37866D02*
X12545Y37900D01*
X13005Y37901D02*
X13108Y37866D01*
X12499Y37667D02*
X12469Y37697D01*
X12581Y37703D02*
X12499Y37667D01*
X12545Y37900D02*
X12601Y37912D01*
X12972Y37912D02*
X13005Y37901D01*
X12601Y37912D02*
X12686Y37929D01*
X12854Y37929D02*
X12972Y37912D01*
X12686Y37929D02*
X12830Y37933D01*
X12854Y37929D01*
X12904Y37723D02*
X12796Y37735D01*
X13121Y37728D02*
X13110Y37716D01*
X13009Y37692D02*
X12904Y37723D01*
X13110Y37716D02*
X13080Y37686D01*
X13061Y37668D02*
X13009Y37692D01*
X13080Y37686D02*
X13061Y37668D01*
G54D11*
X13486Y37558D02*
X13529Y37484D01*
X13583Y37348D01*
X13612Y37205D01*
X13616Y37059D01*
X13594Y36915D01*
X13548Y36777D01*
X13486Y36662D01*
X13322Y36826D01*
X13350Y36886D01*
X13381Y36988D01*
X13393Y37094D01*
X13386Y37201D01*
X13361Y37305D01*
X13322Y37394D01*
X13486Y37558D01*
G54D12*
X13342Y36823D02*
X13551D01*
X13365Y36891D02*
X13573D01*
X13342Y37397D02*
X13550D01*
X13436Y37490D02*
X13512D01*
X13354Y37352D02*
X13568D01*
X13371Y36912D02*
X13580D01*
X13393Y36991D02*
X13593D01*
X13374Y37301D02*
X13580D01*
X13394Y36772D02*
X13531D01*
X13401Y37059D02*
X13603D01*
X13397Y37207D02*
X13599D01*
X13399Y37199D02*
X13599D01*
X13405Y37095D02*
X13602D01*
X13369Y36797D02*
X13541D01*
X13368Y36798D02*
X13542D01*
X13377Y36790D02*
X13338Y36829D01*
X13553Y36831D02*
X13536Y36782D01*
X13347Y36849D02*
X13559D01*
X13355Y36865D02*
X13564D01*
X13338Y36829D02*
X13362Y36881D01*
X13575Y36899D02*
X13553Y36831D01*
X13345Y37374D02*
X13559D01*
X13350Y37362D02*
X13337Y37391D01*
X13554Y37387D02*
X13570Y37345D01*
X13368Y37422D02*
X13540D01*
X13411Y37464D02*
X13523D01*
X13337Y37391D02*
X13418Y37472D01*
X13518Y37479D02*
X13554Y37387D01*
X13366Y37326D02*
X13574D01*
X13365Y37327D02*
X13574D01*
X13373Y37309D02*
X13350Y37362D01*
X13570Y37345D02*
X13580Y37296D01*
X13362Y36881D02*
X13369Y36905D01*
X13582Y36918D02*
X13575Y36899D01*
X13379Y36937D02*
X13585D01*
X13387Y36965D02*
X13589D01*
X13369Y36905D02*
X13393Y36986D01*
X13593Y36995D02*
X13582Y36918D01*
X13392Y37232D02*
X13593D01*
X13381Y37275D02*
X13585D01*
X13396Y37213D02*
X13373Y37309D01*
X13580Y37296D02*
X13599Y37204D01*
X13460Y36706D02*
X13496D01*
X13420Y36746D02*
X13517D01*
X13483Y36683D02*
X13377Y36790D01*
X13536Y36782D02*
X13483Y36683D01*
X13397Y37016D02*
X13596D01*
X13398Y37033D02*
X13599D01*
X13393Y36986D02*
X13401Y37056D01*
X13603Y37060D02*
X13593Y36995D01*
X13399Y37203D02*
X13396Y37213D01*
X13599Y37204D02*
X13599Y37198D01*
X13404Y37120D02*
X13601D01*
X13402Y37147D02*
X13601D01*
X13400Y37174D02*
X13600D01*
X13405Y37094D02*
X13399Y37203D01*
X13599Y37198D02*
X13602Y37094D01*
X13401Y37056D02*
X13405Y37094D01*
X13602Y37094D02*
X13603Y37060D01*
X13461Y37515D02*
X13496D01*
X13418Y37472D02*
X13484Y37537D01*
X13518Y37479D01*
G54D11*
X13064Y36568D02*
X13228Y36404D01*
X13154Y36361D01*
X13018Y36307D01*
X12875Y36278D01*
X12729Y36274D01*
X12585Y36296D01*
X12447Y36342D01*
X12332Y36404D01*
X12496Y36568D01*
X12556Y36540D01*
X12658Y36509D01*
X12764Y36497D01*
X12871Y36504D01*
X12975Y36529D01*
X13064Y36568D01*
G54D12*
X12364Y36401D02*
X13199D01*
X12456Y36510D02*
X12612D01*
X12949D02*
X13104D01*
X12463Y36350D02*
X13092D01*
X12468Y36522D02*
X12573D01*
X12497Y36552D02*
X12501D01*
X12521Y36330D02*
X13043D01*
X12673Y36295D02*
X12897D01*
X12976Y36517D02*
X13098D01*
X13033Y36541D02*
X13073D01*
X12412Y36375D02*
X13153D01*
X12411Y36375D02*
X13154D01*
X12418Y36372D02*
X12353Y36407D01*
X13207Y36406D02*
X13149Y36372D01*
X12373Y36426D02*
X13187D01*
X12402Y36456D02*
X13158D01*
X12431Y36485D02*
X13129D01*
X12353Y36407D02*
X12439Y36492D01*
X13121D02*
X13207Y36406D01*
X12452Y36354D02*
X12418Y36372D01*
X13149Y36372D02*
X13102Y36354D01*
X12439Y36492D02*
X12450Y36504D01*
X12656Y36497D02*
X12764Y36485D01*
X12450Y36504D02*
X12480Y36534D01*
X12551Y36528D02*
X12656Y36497D01*
X12555Y36319D02*
X12452Y36354D01*
X13102Y36354D02*
X13015Y36320D01*
X12480Y36534D02*
X12499Y36552D01*
X12551Y36528D01*
X12588Y36308D02*
X12555Y36319D01*
X13015Y36320D02*
X12959Y36308D01*
X12706Y36291D02*
X12588Y36308D01*
X12959Y36308D02*
X12874Y36291D01*
X12730Y36287D02*
X12706Y36291D01*
X12874Y36291D02*
X12730Y36287D01*
X12764Y36485D02*
X12873Y36491D01*
X13115Y36499D02*
X13121Y36492D01*
X12873Y36491D02*
X12979Y36517D01*
X13091Y36523D02*
X13115Y36499D01*
X12979Y36517D02*
X13061Y36553D01*
X13091Y36523D01*
G54D11*
X12074Y37558D02*
X12238Y37394D01*
X12210Y37334D01*
X12179Y37232D01*
X12167Y37126D01*
X12174Y37019D01*
X12199Y36915D01*
X12238Y36826D01*
X12074Y36662D01*
X12031Y36736D01*
X11977Y36872D01*
X11948Y37015D01*
X11944Y37161D01*
X11966Y37305D01*
X12012Y37443D01*
X12074Y37558D01*
G54D12*
X11957Y37161D02*
X12159D01*
X11967Y37229D02*
X12167D01*
X11958Y37125D02*
X12155D01*
X11961Y37021D02*
X12161D01*
X11961Y37013D02*
X12163D01*
X11980Y37308D02*
X12189D01*
X11987Y37329D02*
X12195D01*
X11980Y36919D02*
X12186D01*
X12009Y37397D02*
X12218D01*
X11992Y36868D02*
X12206D01*
X12010Y36823D02*
X12218D01*
X12029Y37448D02*
X12166D01*
X12048Y36730D02*
X12124D01*
X11958Y37126D02*
X11957Y37160D01*
X12159Y37164D02*
X12155Y37126D01*
X11961Y37187D02*
X12162D01*
X11964Y37204D02*
X12163D01*
X11957Y37160D02*
X11967Y37225D01*
X12167Y37234D02*
X12159Y37164D01*
X11960Y37046D02*
X12160D01*
X11959Y37073D02*
X12158D01*
X11959Y37100D02*
X12156D01*
X11961Y37022D02*
X11958Y37126D01*
X12155Y37126D02*
X12161Y37017D01*
X11961Y37016D02*
X11961Y37022D01*
X12161Y37017D02*
X12164Y37007D01*
X11975Y36945D02*
X12179D01*
X11967Y36988D02*
X12168D01*
X11980Y36924D02*
X11961Y37016D01*
X12164Y37007D02*
X12187Y36911D01*
X11971Y37255D02*
X12173D01*
X11975Y37283D02*
X12181D01*
X11967Y37225D02*
X11978Y37302D01*
X12191Y37315D02*
X12167Y37234D01*
X11978Y37302D02*
X11985Y37321D01*
X12198Y37339D02*
X12191Y37315D01*
X11986Y36893D02*
X12195D01*
X11986Y36894D02*
X12194D01*
X11990Y36875D02*
X11980Y36924D01*
X12187Y36911D02*
X12210Y36858D01*
X11996Y37355D02*
X12205D01*
X12001Y37371D02*
X12213D01*
X11985Y37321D02*
X12007Y37389D01*
X12222Y37391D02*
X12198Y37339D01*
X12001Y36846D02*
X12215D01*
X12006Y36833D02*
X11990Y36875D01*
X12210Y36858D02*
X12223Y36829D01*
X12037Y36756D02*
X12149D01*
X12020Y36798D02*
X12192D01*
X12042Y36741D02*
X12006Y36833D01*
X12223Y36829D02*
X12142Y36748D01*
X12018Y37422D02*
X12192D01*
X12019Y37423D02*
X12191D01*
X12007Y37389D02*
X12024Y37438D01*
X12183Y37430D02*
X12222Y37391D01*
X12043Y37474D02*
X12140D01*
X12064Y37514D02*
X12100D01*
X12024Y37438D02*
X12077Y37537D01*
X12183Y37430D01*
X12064Y36705D02*
X12099D01*
X12076Y36683D02*
X12042Y36741D01*
X12142Y36748D02*
X12076Y36683D01*
G54D11*
X14331Y41446D02*
X14475Y41424D01*
X14613Y41378D01*
X14728Y41316D01*
X14564Y41152D01*
X14504Y41180D01*
X14402Y41211D01*
X14296Y41223D01*
X14189Y41216D01*
X14085Y41191D01*
X13996Y41152D01*
X13832Y41316D01*
X13906Y41359D01*
X14042Y41413D01*
X14185Y41442D01*
X14331Y41446D01*
G54D12*
X13861Y41319D02*
X14696D01*
X13968Y41370D02*
X14597D01*
X14017Y41390D02*
X14539D01*
X13956Y41210D02*
X14111D01*
X13962Y41203D02*
X14084D01*
X14163Y41425D02*
X14387D01*
X13987Y41179D02*
X14027D01*
X14448Y41210D02*
X14604D01*
X14487Y41198D02*
X14592D01*
X14559Y41168D02*
X14563D01*
X13931Y41235D02*
X14629D01*
X13902Y41264D02*
X14658D01*
X13873Y41294D02*
X14687D01*
X13939Y41228D02*
X13853Y41314D01*
X14707Y41313D02*
X14621Y41228D01*
X13906Y41345D02*
X14649D01*
X13907Y41345D02*
X14648D01*
X13853Y41314D02*
X13911Y41348D01*
X14642Y41348D02*
X14707Y41313D01*
X13911Y41348D02*
X13958Y41366D01*
X14608Y41366D02*
X14642Y41348D01*
X13945Y41221D02*
X13939Y41228D01*
X14296Y41235D02*
X14187Y41229D01*
X13969Y41197D02*
X13945Y41221D01*
X14187Y41229D02*
X14081Y41203D01*
X13958Y41366D02*
X14045Y41400D01*
X14505Y41401D02*
X14608Y41366D01*
X13999Y41167D02*
X13969Y41197D01*
X14081Y41203D02*
X13999Y41167D01*
X14045Y41400D02*
X14101Y41412D01*
X14472Y41412D02*
X14505Y41401D01*
X14101Y41412D02*
X14186Y41429D01*
X14354Y41429D02*
X14472Y41412D01*
X14186Y41429D02*
X14330Y41433D01*
X14354Y41429D01*
X14404Y41223D02*
X14296Y41235D01*
X14621Y41228D02*
X14610Y41216D01*
X14509Y41192D02*
X14404Y41223D01*
X14610Y41216D02*
X14580Y41186D01*
X14561Y41168D02*
X14509Y41192D01*
X14580Y41186D02*
X14561Y41168D01*
G54D11*
X14986Y41058D02*
X15029Y40984D01*
X15083Y40848D01*
X15112Y40705D01*
X15116Y40559D01*
X15094Y40415D01*
X15048Y40277D01*
X14986Y40162D01*
X14822Y40326D01*
X14850Y40386D01*
X14881Y40488D01*
X14893Y40594D01*
X14886Y40701D01*
X14861Y40805D01*
X14822Y40894D01*
X14986Y41058D01*
G54D12*
X14842Y40323D02*
X15051D01*
X14865Y40391D02*
X15073D01*
X14842Y40897D02*
X15050D01*
X14936Y40990D02*
X15012D01*
X14854Y40852D02*
X15068D01*
X14871Y40412D02*
X15080D01*
X14893Y40491D02*
X15093D01*
X14874Y40801D02*
X15080D01*
X14894Y40272D02*
X15031D01*
X14901Y40559D02*
X15103D01*
X14897Y40707D02*
X15099D01*
X14899Y40699D02*
X15099D01*
X14905Y40595D02*
X15102D01*
X14869Y40297D02*
X15041D01*
X14868Y40298D02*
X15042D01*
X14877Y40290D02*
X14838Y40329D01*
X15053Y40331D02*
X15036Y40282D01*
X14847Y40349D02*
X15059D01*
X14855Y40365D02*
X15064D01*
X14838Y40329D02*
X14862Y40381D01*
X15075Y40399D02*
X15053Y40331D01*
X14845Y40874D02*
X15059D01*
X14850Y40862D02*
X14837Y40891D01*
X15054Y40887D02*
X15070Y40845D01*
X14868Y40922D02*
X15040D01*
X14911Y40964D02*
X15023D01*
X14837Y40891D02*
X14918Y40972D01*
X15018Y40979D02*
X15054Y40887D01*
X14866Y40826D02*
X15074D01*
X14865Y40827D02*
X15074D01*
X14873Y40809D02*
X14850Y40862D01*
X15070Y40845D02*
X15080Y40796D01*
X14862Y40381D02*
X14869Y40405D01*
X15082Y40418D02*
X15075Y40399D01*
X14879Y40437D02*
X15085D01*
X14887Y40465D02*
X15089D01*
X14869Y40405D02*
X14893Y40486D01*
X15093Y40495D02*
X15082Y40418D01*
X14892Y40732D02*
X15093D01*
X14881Y40775D02*
X15085D01*
X14896Y40713D02*
X14873Y40809D01*
X15080Y40796D02*
X15099Y40704D01*
X14960Y40206D02*
X14996D01*
X14920Y40246D02*
X15017D01*
X14983Y40183D02*
X14877Y40290D01*
X15036Y40282D02*
X14983Y40183D01*
X14897Y40516D02*
X15096D01*
X14898Y40533D02*
X15099D01*
X14893Y40486D02*
X14901Y40556D01*
X15103Y40560D02*
X15093Y40495D01*
X14899Y40703D02*
X14896Y40713D01*
X15099Y40704D02*
X15099Y40698D01*
X14904Y40620D02*
X15101D01*
X14902Y40647D02*
X15101D01*
X14900Y40674D02*
X15100D01*
X14905Y40594D02*
X14899Y40703D01*
X15099Y40698D02*
X15102Y40594D01*
X14901Y40556D02*
X14905Y40594D01*
X15102Y40594D02*
X15103Y40560D01*
X14961Y41015D02*
X14996D01*
X14918Y40972D02*
X14984Y41037D01*
X15018Y40979D01*
G54D11*
X14564Y40068D02*
X14728Y39904D01*
X14654Y39861D01*
X14518Y39807D01*
X14375Y39778D01*
X14229Y39774D01*
X14085Y39796D01*
X13947Y39842D01*
X13832Y39904D01*
X13996Y40068D01*
X14056Y40040D01*
X14158Y40009D01*
X14264Y39997D01*
X14371Y40004D01*
X14475Y40029D01*
X14564Y40068D01*
G54D12*
X13864Y39901D02*
X14699D01*
X13956Y40010D02*
X14112D01*
X14449D02*
X14604D01*
X13963Y39850D02*
X14592D01*
X13968Y40022D02*
X14073D01*
X13997Y40052D02*
X14001D01*
X14021Y39830D02*
X14543D01*
X14173Y39795D02*
X14397D01*
X14476Y40017D02*
X14598D01*
X14533Y40041D02*
X14573D01*
X13912Y39875D02*
X14653D01*
X13911Y39875D02*
X14654D01*
X13918Y39872D02*
X13853Y39907D01*
X14707Y39906D02*
X14649Y39872D01*
X13873Y39926D02*
X14687D01*
X13902Y39956D02*
X14658D01*
X13931Y39985D02*
X14629D01*
X13853Y39907D02*
X13939Y39992D01*
X14621D02*
X14707Y39906D01*
X13952Y39854D02*
X13918Y39872D01*
X14649Y39872D02*
X14602Y39854D01*
X13939Y39992D02*
X13950Y40004D01*
X14156Y39997D02*
X14264Y39985D01*
X13950Y40004D02*
X13980Y40034D01*
X14051Y40028D02*
X14156Y39997D01*
X14055Y39819D02*
X13952Y39854D01*
X14602Y39854D02*
X14515Y39820D01*
X13980Y40034D02*
X13999Y40052D01*
X14051Y40028D01*
X14088Y39808D02*
X14055Y39819D01*
X14515Y39820D02*
X14459Y39808D01*
X14206Y39791D02*
X14088Y39808D01*
X14459Y39808D02*
X14374Y39791D01*
X14230Y39787D02*
X14206Y39791D01*
X14374Y39791D02*
X14230Y39787D01*
X14264Y39985D02*
X14373Y39991D01*
X14615Y39999D02*
X14621Y39992D01*
X14373Y39991D02*
X14479Y40017D01*
X14591Y40023D02*
X14615Y39999D01*
X14479Y40017D02*
X14561Y40053D01*
X14591Y40023D01*
G54D11*
X13574Y41058D02*
X13738Y40894D01*
X13710Y40834D01*
X13679Y40732D01*
X13667Y40626D01*
X13674Y40519D01*
X13699Y40415D01*
X13738Y40326D01*
X13574Y40162D01*
X13531Y40236D01*
X13477Y40372D01*
X13448Y40515D01*
X13444Y40661D01*
X13466Y40805D01*
X13512Y40943D01*
X13574Y41058D01*
G54D12*
X13457Y40661D02*
X13659D01*
X13467Y40729D02*
X13667D01*
X13458Y40625D02*
X13655D01*
X13461Y40521D02*
X13661D01*
X13461Y40513D02*
X13663D01*
X13480Y40808D02*
X13689D01*
X13487Y40829D02*
X13695D01*
X13480Y40419D02*
X13686D01*
X13509Y40897D02*
X13718D01*
X13492Y40368D02*
X13706D01*
X13510Y40323D02*
X13718D01*
X13529Y40948D02*
X13666D01*
X13548Y40230D02*
X13624D01*
X13458Y40626D02*
X13457Y40660D01*
X13659Y40664D02*
X13655Y40626D01*
X13461Y40687D02*
X13662D01*
X13464Y40704D02*
X13663D01*
X13457Y40660D02*
X13467Y40725D01*
X13667Y40734D02*
X13659Y40664D01*
X13460Y40546D02*
X13660D01*
X13459Y40573D02*
X13658D01*
X13459Y40600D02*
X13656D01*
X13461Y40522D02*
X13458Y40626D01*
X13655Y40626D02*
X13661Y40517D01*
X13461Y40516D02*
X13461Y40522D01*
X13661Y40517D02*
X13664Y40507D01*
X13475Y40445D02*
X13679D01*
X13467Y40488D02*
X13668D01*
X13480Y40424D02*
X13461Y40516D01*
X13664Y40507D02*
X13687Y40411D01*
X13471Y40755D02*
X13673D01*
X13475Y40783D02*
X13681D01*
X13467Y40725D02*
X13478Y40802D01*
X13691Y40815D02*
X13667Y40734D01*
X13478Y40802D02*
X13485Y40821D01*
X13698Y40839D02*
X13691Y40815D01*
X13486Y40393D02*
X13695D01*
X13486Y40394D02*
X13694D01*
X13490Y40375D02*
X13480Y40424D01*
X13687Y40411D02*
X13710Y40358D01*
X13496Y40855D02*
X13705D01*
X13501Y40871D02*
X13713D01*
X13485Y40821D02*
X13507Y40889D01*
X13722Y40891D02*
X13698Y40839D01*
X13501Y40346D02*
X13715D01*
X13506Y40333D02*
X13490Y40375D01*
X13710Y40358D02*
X13723Y40329D01*
X13537Y40256D02*
X13649D01*
X13520Y40298D02*
X13692D01*
X13542Y40241D02*
X13506Y40333D01*
X13723Y40329D02*
X13642Y40248D01*
X13518Y40922D02*
X13692D01*
X13519Y40923D02*
X13691D01*
X13507Y40889D02*
X13524Y40938D01*
X13683Y40930D02*
X13722Y40891D01*
X13543Y40974D02*
X13640D01*
X13564Y41014D02*
X13600D01*
X13524Y40938D02*
X13577Y41037D01*
X13683Y40930D01*
X13564Y40205D02*
X13599D01*
X13576Y40183D02*
X13542Y40241D01*
X13642Y40248D02*
X13576Y40183D01*
G54D11*
X14331Y58846D02*
X14475Y58824D01*
X14613Y58778D01*
X14728Y58716D01*
X14564Y58552D01*
X14504Y58580D01*
X14402Y58611D01*
X14296Y58623D01*
X14189Y58616D01*
X14085Y58591D01*
X13996Y58552D01*
X13832Y58716D01*
X13906Y58759D01*
X14042Y58813D01*
X14185Y58842D01*
X14331Y58846D01*
G54D12*
X13861Y58719D02*
X14696D01*
X13968Y58770D02*
X14597D01*
X14017Y58790D02*
X14539D01*
X13956Y58610D02*
X14111D01*
X13962Y58603D02*
X14084D01*
X14163Y58825D02*
X14387D01*
X13987Y58579D02*
X14027D01*
X14448Y58610D02*
X14604D01*
X14487Y58598D02*
X14592D01*
X14559Y58568D02*
X14563D01*
X13931Y58635D02*
X14629D01*
X13902Y58664D02*
X14658D01*
X13873Y58694D02*
X14687D01*
X13939Y58628D02*
X13853Y58714D01*
X14707Y58713D02*
X14621Y58628D01*
X13906Y58744D02*
X14649D01*
X13907Y58745D02*
X14648D01*
X13853Y58714D02*
X13911Y58748D01*
X14642Y58748D02*
X14707Y58713D01*
X13911Y58748D02*
X13958Y58766D01*
X14608Y58766D02*
X14642Y58748D01*
X13945Y58621D02*
X13939Y58628D01*
X14296Y58635D02*
X14187Y58629D01*
X13969Y58597D02*
X13945Y58621D01*
X14187Y58629D02*
X14081Y58603D01*
X13958Y58766D02*
X14045Y58800D01*
X14505Y58801D02*
X14608Y58766D01*
X13999Y58567D02*
X13969Y58597D01*
X14081Y58603D02*
X13999Y58567D01*
X14045Y58800D02*
X14101Y58812D01*
X14472Y58812D02*
X14505Y58801D01*
X14101Y58812D02*
X14186Y58829D01*
X14354Y58829D02*
X14472Y58812D01*
X14186Y58829D02*
X14330Y58833D01*
X14354Y58829D01*
X14404Y58623D02*
X14296Y58635D01*
X14621Y58628D02*
X14610Y58616D01*
X14509Y58592D02*
X14404Y58623D01*
X14610Y58616D02*
X14580Y58586D01*
X14561Y58568D02*
X14509Y58592D01*
X14580Y58586D02*
X14561Y58568D01*
G54D11*
X14986Y58458D02*
X15029Y58384D01*
X15083Y58248D01*
X15112Y58105D01*
X15116Y57959D01*
X15094Y57815D01*
X15048Y57677D01*
X14986Y57562D01*
X14822Y57726D01*
X14850Y57786D01*
X14881Y57888D01*
X14893Y57994D01*
X14886Y58101D01*
X14861Y58205D01*
X14822Y58294D01*
X14986Y58458D01*
G54D12*
X14842Y57723D02*
X15051D01*
X14865Y57791D02*
X15073D01*
X14842Y58297D02*
X15050D01*
X14936Y58390D02*
X15012D01*
X14854Y58252D02*
X15068D01*
X14871Y57812D02*
X15080D01*
X14893Y57891D02*
X15093D01*
X14874Y58201D02*
X15080D01*
X14894Y57672D02*
X15031D01*
X14901Y57959D02*
X15103D01*
X14897Y58107D02*
X15099D01*
X14899Y58099D02*
X15099D01*
X14905Y57995D02*
X15102D01*
X14869Y57697D02*
X15041D01*
X14868Y57698D02*
X15042D01*
X14877Y57690D02*
X14838Y57729D01*
X15053Y57731D02*
X15036Y57682D01*
X14847Y57749D02*
X15059D01*
X14855Y57765D02*
X15064D01*
X14838Y57729D02*
X14862Y57781D01*
X15075Y57799D02*
X15053Y57731D01*
X14845Y58274D02*
X15059D01*
X14850Y58262D02*
X14837Y58291D01*
X15054Y58287D02*
X15070Y58245D01*
X14868Y58322D02*
X15040D01*
X14911Y58364D02*
X15023D01*
X14837Y58291D02*
X14918Y58372D01*
X15018Y58379D02*
X15054Y58287D01*
X14866Y58226D02*
X15074D01*
X14865Y58227D02*
X15074D01*
X14873Y58209D02*
X14850Y58262D01*
X15070Y58245D02*
X15080Y58196D01*
X14862Y57781D02*
X14869Y57805D01*
X15082Y57818D02*
X15075Y57799D01*
X14879Y57837D02*
X15085D01*
X14887Y57865D02*
X15089D01*
X14869Y57805D02*
X14893Y57886D01*
X15093Y57895D02*
X15082Y57818D01*
X14892Y58132D02*
X15093D01*
X14881Y58175D02*
X15085D01*
X14896Y58113D02*
X14873Y58209D01*
X15080Y58196D02*
X15099Y58104D01*
X14960Y57606D02*
X14996D01*
X14920Y57646D02*
X15017D01*
X14983Y57583D02*
X14877Y57690D01*
X15036Y57682D02*
X14983Y57583D01*
X14897Y57916D02*
X15096D01*
X14898Y57933D02*
X15099D01*
X14893Y57886D02*
X14901Y57956D01*
X15103Y57960D02*
X15093Y57895D01*
X14899Y58103D02*
X14896Y58113D01*
X15099Y58104D02*
X15099Y58098D01*
X14904Y58020D02*
X15101D01*
X14902Y58047D02*
X15101D01*
X14900Y58074D02*
X15100D01*
X14905Y57994D02*
X14899Y58103D01*
X15099Y58098D02*
X15102Y57994D01*
X14901Y57956D02*
X14905Y57994D01*
X15102Y57994D02*
X15103Y57960D01*
X14961Y58415D02*
X14996D01*
X14918Y58372D02*
X14984Y58437D01*
X15018Y58379D01*
G54D11*
X14564Y57468D02*
X14728Y57304D01*
X14654Y57261D01*
X14518Y57207D01*
X14375Y57178D01*
X14229Y57174D01*
X14085Y57196D01*
X13947Y57242D01*
X13832Y57304D01*
X13996Y57468D01*
X14056Y57440D01*
X14158Y57409D01*
X14264Y57397D01*
X14371Y57404D01*
X14475Y57429D01*
X14564Y57468D01*
G54D12*
X13864Y57301D02*
X14699D01*
X13956Y57410D02*
X14112D01*
X14449D02*
X14604D01*
X13963Y57250D02*
X14592D01*
X13968Y57422D02*
X14073D01*
X13997Y57452D02*
X14001D01*
X14021Y57230D02*
X14543D01*
X14173Y57195D02*
X14397D01*
X14476Y57417D02*
X14598D01*
X14533Y57441D02*
X14573D01*
X13912Y57275D02*
X14653D01*
X13911Y57276D02*
X14654D01*
X13918Y57272D02*
X13853Y57307D01*
X14707Y57306D02*
X14649Y57272D01*
X13873Y57326D02*
X14687D01*
X13902Y57356D02*
X14658D01*
X13931Y57385D02*
X14629D01*
X13853Y57307D02*
X13939Y57392D01*
X14621D02*
X14707Y57306D01*
X13952Y57254D02*
X13918Y57272D01*
X14649Y57272D02*
X14602Y57254D01*
X13939Y57392D02*
X13950Y57404D01*
X14156Y57397D02*
X14264Y57385D01*
X13950Y57404D02*
X13980Y57434D01*
X14051Y57428D02*
X14156Y57397D01*
X14055Y57219D02*
X13952Y57254D01*
X14602Y57254D02*
X14515Y57220D01*
X13980Y57434D02*
X13999Y57452D01*
X14051Y57428D01*
X14088Y57208D02*
X14055Y57219D01*
X14515Y57220D02*
X14459Y57208D01*
X14206Y57191D02*
X14088Y57208D01*
X14459Y57208D02*
X14374Y57191D01*
X14230Y57187D02*
X14206Y57191D01*
X14374Y57191D02*
X14230Y57187D01*
X14264Y57385D02*
X14373Y57391D01*
X14615Y57399D02*
X14621Y57392D01*
X14373Y57391D02*
X14479Y57417D01*
X14591Y57423D02*
X14615Y57399D01*
X14479Y57417D02*
X14561Y57453D01*
X14591Y57423D01*
G54D11*
X13574Y58458D02*
X13738Y58294D01*
X13710Y58234D01*
X13679Y58132D01*
X13667Y58026D01*
X13674Y57919D01*
X13699Y57815D01*
X13738Y57726D01*
X13574Y57562D01*
X13531Y57636D01*
X13477Y57772D01*
X13448Y57915D01*
X13444Y58061D01*
X13466Y58205D01*
X13512Y58343D01*
X13574Y58458D01*
G54D12*
X13457Y58061D02*
X13659D01*
X13467Y58129D02*
X13667D01*
X13458Y58025D02*
X13655D01*
X13461Y57921D02*
X13661D01*
X13461Y57913D02*
X13663D01*
X13480Y58208D02*
X13689D01*
X13487Y58229D02*
X13695D01*
X13480Y57819D02*
X13686D01*
X13509Y58297D02*
X13718D01*
X13492Y57768D02*
X13706D01*
X13510Y57723D02*
X13718D01*
X13529Y58348D02*
X13666D01*
X13548Y57630D02*
X13624D01*
X13458Y58026D02*
X13457Y58060D01*
X13659Y58064D02*
X13655Y58026D01*
X13461Y58087D02*
X13662D01*
X13464Y58104D02*
X13663D01*
X13457Y58060D02*
X13467Y58125D01*
X13667Y58134D02*
X13659Y58064D01*
X13460Y57946D02*
X13660D01*
X13459Y57973D02*
X13658D01*
X13459Y58000D02*
X13656D01*
X13461Y57922D02*
X13458Y58026D01*
X13655Y58026D02*
X13661Y57917D01*
X13461Y57916D02*
X13461Y57922D01*
X13661Y57917D02*
X13664Y57907D01*
X13475Y57845D02*
X13679D01*
X13467Y57888D02*
X13668D01*
X13480Y57824D02*
X13461Y57916D01*
X13664Y57907D02*
X13687Y57811D01*
X13471Y58155D02*
X13673D01*
X13475Y58183D02*
X13681D01*
X13467Y58125D02*
X13478Y58202D01*
X13691Y58215D02*
X13667Y58134D01*
X13478Y58202D02*
X13485Y58221D01*
X13698Y58239D02*
X13691Y58215D01*
X13486Y57793D02*
X13695D01*
X13486Y57794D02*
X13694D01*
X13490Y57775D02*
X13480Y57824D01*
X13687Y57811D02*
X13710Y57758D01*
X13496Y58255D02*
X13705D01*
X13501Y58271D02*
X13713D01*
X13485Y58221D02*
X13507Y58289D01*
X13722Y58291D02*
X13698Y58239D01*
X13501Y57746D02*
X13715D01*
X13506Y57733D02*
X13490Y57775D01*
X13710Y57758D02*
X13723Y57729D01*
X13537Y57656D02*
X13649D01*
X13520Y57698D02*
X13692D01*
X13542Y57641D02*
X13506Y57733D01*
X13723Y57729D02*
X13642Y57648D01*
X13518Y58322D02*
X13692D01*
X13519Y58323D02*
X13691D01*
X13507Y58289D02*
X13524Y58338D01*
X13683Y58330D02*
X13722Y58291D01*
X13543Y58374D02*
X13640D01*
X13564Y58414D02*
X13600D01*
X13524Y58338D02*
X13577Y58437D01*
X13683Y58330D01*
X13564Y57605D02*
X13599D01*
X13576Y57583D02*
X13542Y57641D01*
X13642Y57648D02*
X13576Y57583D01*
G54D11*
X12831Y55346D02*
X12975Y55324D01*
X13113Y55278D01*
X13228Y55216D01*
X13064Y55052D01*
X13004Y55080D01*
X12902Y55111D01*
X12796Y55123D01*
X12689Y55116D01*
X12585Y55091D01*
X12496Y55052D01*
X12332Y55216D01*
X12406Y55259D01*
X12542Y55313D01*
X12685Y55342D01*
X12831Y55346D01*
G54D12*
X12361Y55219D02*
X13196D01*
X12468Y55270D02*
X13097D01*
X12517Y55290D02*
X13039D01*
X12456Y55110D02*
X12611D01*
X12462Y55103D02*
X12584D01*
X12663Y55325D02*
X12887D01*
X12487Y55079D02*
X12527D01*
X12948Y55110D02*
X13104D01*
X12987Y55098D02*
X13092D01*
X13059Y55068D02*
X13063D01*
X12431Y55135D02*
X13129D01*
X12402Y55164D02*
X13158D01*
X12373Y55194D02*
X13187D01*
X12439Y55128D02*
X12353Y55214D01*
X13207Y55213D02*
X13121Y55128D01*
X12406Y55245D02*
X13149D01*
X12407Y55245D02*
X13148D01*
X12353Y55214D02*
X12411Y55248D01*
X13142Y55248D02*
X13207Y55213D01*
X12411Y55248D02*
X12458Y55266D01*
X13108Y55266D02*
X13142Y55248D01*
X12445Y55121D02*
X12439Y55128D01*
X12796Y55135D02*
X12687Y55129D01*
X12469Y55097D02*
X12445Y55121D01*
X12687Y55129D02*
X12581Y55103D01*
X12458Y55266D02*
X12545Y55300D01*
X13005Y55301D02*
X13108Y55266D01*
X12499Y55067D02*
X12469Y55097D01*
X12581Y55103D02*
X12499Y55067D01*
X12545Y55300D02*
X12601Y55312D01*
X12972Y55312D02*
X13005Y55301D01*
X12601Y55312D02*
X12686Y55329D01*
X12854Y55329D02*
X12972Y55312D01*
X12686Y55329D02*
X12830Y55333D01*
X12854Y55329D01*
X12904Y55123D02*
X12796Y55135D01*
X13121Y55128D02*
X13110Y55116D01*
X13009Y55092D02*
X12904Y55123D01*
X13110Y55116D02*
X13080Y55086D01*
X13061Y55068D02*
X13009Y55092D01*
X13080Y55086D02*
X13061Y55068D01*
G54D11*
X13486Y54958D02*
X13529Y54884D01*
X13583Y54748D01*
X13612Y54605D01*
X13616Y54459D01*
X13594Y54315D01*
X13548Y54177D01*
X13486Y54062D01*
X13322Y54226D01*
X13350Y54286D01*
X13381Y54388D01*
X13393Y54494D01*
X13386Y54601D01*
X13361Y54705D01*
X13322Y54794D01*
X13486Y54958D01*
G54D12*
X13342Y54223D02*
X13551D01*
X13365Y54291D02*
X13573D01*
X13342Y54797D02*
X13550D01*
X13436Y54890D02*
X13512D01*
X13354Y54752D02*
X13568D01*
X13371Y54312D02*
X13580D01*
X13393Y54391D02*
X13593D01*
X13374Y54701D02*
X13580D01*
X13394Y54172D02*
X13531D01*
X13401Y54459D02*
X13603D01*
X13397Y54607D02*
X13599D01*
X13399Y54599D02*
X13599D01*
X13405Y54495D02*
X13602D01*
X13369Y54197D02*
X13541D01*
X13368Y54198D02*
X13542D01*
X13377Y54190D02*
X13338Y54229D01*
X13553Y54231D02*
X13536Y54182D01*
X13347Y54249D02*
X13559D01*
X13355Y54265D02*
X13564D01*
X13338Y54229D02*
X13362Y54281D01*
X13575Y54299D02*
X13553Y54231D01*
X13345Y54774D02*
X13559D01*
X13350Y54762D02*
X13337Y54791D01*
X13554Y54787D02*
X13570Y54745D01*
X13368Y54822D02*
X13540D01*
X13411Y54864D02*
X13523D01*
X13337Y54791D02*
X13418Y54872D01*
X13518Y54879D02*
X13554Y54787D01*
X13366Y54726D02*
X13574D01*
X13365Y54727D02*
X13574D01*
X13373Y54709D02*
X13350Y54762D01*
X13570Y54745D02*
X13580Y54696D01*
X13362Y54281D02*
X13369Y54305D01*
X13582Y54318D02*
X13575Y54299D01*
X13379Y54337D02*
X13585D01*
X13387Y54365D02*
X13589D01*
X13369Y54305D02*
X13393Y54386D01*
X13593Y54395D02*
X13582Y54318D01*
X13392Y54632D02*
X13593D01*
X13381Y54675D02*
X13585D01*
X13396Y54613D02*
X13373Y54709D01*
X13580Y54696D02*
X13599Y54604D01*
X13460Y54106D02*
X13496D01*
X13420Y54146D02*
X13517D01*
X13483Y54083D02*
X13377Y54190D01*
X13536Y54182D02*
X13483Y54083D01*
X13397Y54416D02*
X13596D01*
X13398Y54433D02*
X13599D01*
X13393Y54386D02*
X13401Y54456D01*
X13603Y54460D02*
X13593Y54395D01*
X13399Y54603D02*
X13396Y54613D01*
X13599Y54604D02*
X13599Y54598D01*
X13404Y54520D02*
X13601D01*
X13402Y54547D02*
X13601D01*
X13400Y54574D02*
X13600D01*
X13405Y54494D02*
X13399Y54603D01*
X13599Y54598D02*
X13602Y54494D01*
X13401Y54456D02*
X13405Y54494D01*
X13602Y54494D02*
X13603Y54460D01*
X13461Y54915D02*
X13496D01*
X13418Y54872D02*
X13484Y54937D01*
X13518Y54879D01*
G54D11*
X13064Y53968D02*
X13228Y53804D01*
X13154Y53761D01*
X13018Y53707D01*
X12875Y53678D01*
X12729Y53674D01*
X12585Y53696D01*
X12447Y53742D01*
X12332Y53804D01*
X12496Y53968D01*
X12556Y53940D01*
X12658Y53909D01*
X12764Y53897D01*
X12871Y53904D01*
X12975Y53929D01*
X13064Y53968D01*
G54D12*
X12364Y53801D02*
X13199D01*
X12456Y53910D02*
X12612D01*
X12949D02*
X13104D01*
X12463Y53750D02*
X13092D01*
X12468Y53922D02*
X12573D01*
X12497Y53952D02*
X12501D01*
X12521Y53730D02*
X13043D01*
X12673Y53695D02*
X12897D01*
X12976Y53917D02*
X13098D01*
X13033Y53941D02*
X13073D01*
X12412Y53775D02*
X13153D01*
X12411Y53776D02*
X13154D01*
X12418Y53772D02*
X12353Y53807D01*
X13207Y53806D02*
X13149Y53772D01*
X12373Y53826D02*
X13187D01*
X12402Y53856D02*
X13158D01*
X12431Y53885D02*
X13129D01*
X12353Y53807D02*
X12439Y53892D01*
X13121D02*
X13207Y53806D01*
X12452Y53754D02*
X12418Y53772D01*
X13149Y53772D02*
X13102Y53754D01*
X12439Y53892D02*
X12450Y53904D01*
X12656Y53897D02*
X12764Y53885D01*
X12450Y53904D02*
X12480Y53934D01*
X12551Y53928D02*
X12656Y53897D01*
X12555Y53719D02*
X12452Y53754D01*
X13102Y53754D02*
X13015Y53720D01*
X12480Y53934D02*
X12499Y53952D01*
X12551Y53928D01*
X12588Y53708D02*
X12555Y53719D01*
X13015Y53720D02*
X12959Y53708D01*
X12706Y53691D02*
X12588Y53708D01*
X12959Y53708D02*
X12874Y53691D01*
X12730Y53687D02*
X12706Y53691D01*
X12874Y53691D02*
X12730Y53687D01*
X12764Y53885D02*
X12873Y53891D01*
X13115Y53899D02*
X13121Y53892D01*
X12873Y53891D02*
X12979Y53917D01*
X13091Y53923D02*
X13115Y53899D01*
X12979Y53917D02*
X13061Y53953D01*
X13091Y53923D01*
G54D11*
X12074Y54958D02*
X12238Y54794D01*
X12210Y54734D01*
X12179Y54632D01*
X12167Y54526D01*
X12174Y54419D01*
X12199Y54315D01*
X12238Y54226D01*
X12074Y54062D01*
X12031Y54136D01*
X11977Y54272D01*
X11948Y54415D01*
X11944Y54561D01*
X11966Y54705D01*
X12012Y54843D01*
X12074Y54958D01*
G54D12*
X11957Y54561D02*
X12159D01*
X11967Y54629D02*
X12167D01*
X11958Y54525D02*
X12155D01*
X11961Y54421D02*
X12161D01*
X11961Y54413D02*
X12163D01*
X11980Y54708D02*
X12189D01*
X11987Y54729D02*
X12195D01*
X11980Y54319D02*
X12186D01*
X12009Y54797D02*
X12218D01*
X11992Y54268D02*
X12206D01*
X12010Y54223D02*
X12218D01*
X12029Y54848D02*
X12166D01*
X12048Y54130D02*
X12124D01*
X11958Y54526D02*
X11957Y54560D01*
X12159Y54564D02*
X12155Y54526D01*
X11961Y54587D02*
X12162D01*
X11964Y54604D02*
X12163D01*
X11957Y54560D02*
X11967Y54625D01*
X12167Y54634D02*
X12159Y54564D01*
X11960Y54446D02*
X12160D01*
X11959Y54473D02*
X12158D01*
X11959Y54500D02*
X12156D01*
X11961Y54422D02*
X11958Y54526D01*
X12155Y54526D02*
X12161Y54417D01*
X11961Y54416D02*
X11961Y54422D01*
X12161Y54417D02*
X12164Y54407D01*
X11975Y54345D02*
X12179D01*
X11967Y54388D02*
X12168D01*
X11980Y54324D02*
X11961Y54416D01*
X12164Y54407D02*
X12187Y54311D01*
X11971Y54655D02*
X12173D01*
X11975Y54683D02*
X12181D01*
X11967Y54625D02*
X11978Y54702D01*
X12191Y54715D02*
X12167Y54634D01*
X11978Y54702D02*
X11985Y54721D01*
X12198Y54739D02*
X12191Y54715D01*
X11986Y54293D02*
X12195D01*
X11986Y54294D02*
X12194D01*
X11990Y54275D02*
X11980Y54324D01*
X12187Y54311D02*
X12210Y54258D01*
X11996Y54755D02*
X12205D01*
X12001Y54771D02*
X12213D01*
X11985Y54721D02*
X12007Y54789D01*
X12222Y54791D02*
X12198Y54739D01*
X12001Y54246D02*
X12215D01*
X12006Y54233D02*
X11990Y54275D01*
X12210Y54258D02*
X12223Y54229D01*
X12037Y54156D02*
X12149D01*
X12020Y54198D02*
X12192D01*
X12042Y54141D02*
X12006Y54233D01*
X12223Y54229D02*
X12142Y54148D01*
X12018Y54822D02*
X12192D01*
X12019Y54823D02*
X12191D01*
X12007Y54789D02*
X12024Y54838D01*
X12183Y54830D02*
X12222Y54791D01*
X12043Y54874D02*
X12140D01*
X12064Y54914D02*
X12100D01*
X12024Y54838D02*
X12077Y54937D01*
X12183Y54830D01*
X12064Y54105D02*
X12099D01*
X12076Y54083D02*
X12042Y54141D01*
X12142Y54148D02*
X12076Y54083D01*
G54D11*
X12831Y72746D02*
X12975Y72724D01*
X13113Y72678D01*
X13228Y72616D01*
X13064Y72452D01*
X13004Y72480D01*
X12902Y72511D01*
X12796Y72523D01*
X12689Y72516D01*
X12585Y72491D01*
X12496Y72452D01*
X12332Y72616D01*
X12406Y72659D01*
X12542Y72713D01*
X12685Y72742D01*
X12831Y72746D01*
G54D12*
X12361Y72619D02*
X13196D01*
X12468Y72670D02*
X13097D01*
X12517Y72690D02*
X13039D01*
X12456Y72510D02*
X12611D01*
X12462Y72503D02*
X12584D01*
X12663Y72725D02*
X12887D01*
X12487Y72479D02*
X12527D01*
X12948Y72510D02*
X13104D01*
X12987Y72498D02*
X13092D01*
X13059Y72468D02*
X13063D01*
X12431Y72535D02*
X13129D01*
X12402Y72564D02*
X13158D01*
X12373Y72594D02*
X13187D01*
X12439Y72528D02*
X12353Y72614D01*
X13207Y72613D02*
X13121Y72528D01*
X12406Y72645D02*
X13149D01*
X12407Y72645D02*
X13148D01*
X12353Y72614D02*
X12411Y72648D01*
X13142Y72648D02*
X13207Y72613D01*
X12411Y72648D02*
X12458Y72666D01*
X13108Y72666D02*
X13142Y72648D01*
X12445Y72521D02*
X12439Y72528D01*
X12796Y72535D02*
X12687Y72529D01*
X12469Y72497D02*
X12445Y72521D01*
X12687Y72529D02*
X12581Y72503D01*
X12458Y72666D02*
X12545Y72700D01*
X13005Y72701D02*
X13108Y72666D01*
X12499Y72467D02*
X12469Y72497D01*
X12581Y72503D02*
X12499Y72467D01*
X12545Y72700D02*
X12601Y72712D01*
X12972Y72712D02*
X13005Y72701D01*
X12601Y72712D02*
X12686Y72729D01*
X12854Y72729D02*
X12972Y72712D01*
X12686Y72729D02*
X12830Y72733D01*
X12854Y72729D01*
X12904Y72523D02*
X12796Y72535D01*
X13121Y72528D02*
X13110Y72516D01*
X13009Y72492D02*
X12904Y72523D01*
X13110Y72516D02*
X13080Y72486D01*
X13061Y72468D02*
X13009Y72492D01*
X13080Y72486D02*
X13061Y72468D01*
G54D11*
X13486Y72358D02*
X13529Y72284D01*
X13583Y72148D01*
X13612Y72005D01*
X13616Y71859D01*
X13594Y71715D01*
X13548Y71577D01*
X13486Y71462D01*
X13322Y71626D01*
X13350Y71686D01*
X13381Y71788D01*
X13393Y71894D01*
X13386Y72001D01*
X13361Y72105D01*
X13322Y72194D01*
X13486Y72358D01*
G54D12*
X13342Y71623D02*
X13551D01*
X13365Y71691D02*
X13573D01*
X13342Y72197D02*
X13550D01*
X13436Y72290D02*
X13512D01*
X13354Y72152D02*
X13568D01*
X13371Y71712D02*
X13580D01*
X13393Y71791D02*
X13593D01*
X13374Y72101D02*
X13580D01*
X13394Y71572D02*
X13531D01*
X13401Y71859D02*
X13603D01*
X13397Y72007D02*
X13599D01*
X13399Y71999D02*
X13599D01*
X13405Y71895D02*
X13602D01*
X13369Y71597D02*
X13541D01*
X13368Y71598D02*
X13542D01*
X13377Y71590D02*
X13338Y71629D01*
X13553Y71631D02*
X13536Y71582D01*
X13347Y71649D02*
X13559D01*
X13355Y71665D02*
X13564D01*
X13338Y71629D02*
X13362Y71681D01*
X13575Y71699D02*
X13553Y71631D01*
X13345Y72174D02*
X13559D01*
X13350Y72162D02*
X13337Y72191D01*
X13554Y72187D02*
X13570Y72145D01*
X13368Y72222D02*
X13540D01*
X13411Y72264D02*
X13523D01*
X13337Y72191D02*
X13418Y72272D01*
X13518Y72279D02*
X13554Y72187D01*
X13366Y72126D02*
X13574D01*
X13365Y72127D02*
X13574D01*
X13373Y72109D02*
X13350Y72162D01*
X13570Y72145D02*
X13580Y72096D01*
X13362Y71681D02*
X13369Y71705D01*
X13582Y71718D02*
X13575Y71699D01*
X13379Y71737D02*
X13585D01*
X13387Y71765D02*
X13589D01*
X13369Y71705D02*
X13393Y71786D01*
X13593Y71795D02*
X13582Y71718D01*
X13392Y72032D02*
X13593D01*
X13381Y72075D02*
X13585D01*
X13396Y72013D02*
X13373Y72109D01*
X13580Y72096D02*
X13599Y72004D01*
X13460Y71506D02*
X13496D01*
X13420Y71546D02*
X13517D01*
X13483Y71483D02*
X13377Y71590D01*
X13536Y71582D02*
X13483Y71483D01*
X13397Y71816D02*
X13596D01*
X13398Y71833D02*
X13599D01*
X13393Y71786D02*
X13401Y71856D01*
X13603Y71860D02*
X13593Y71795D01*
X13399Y72003D02*
X13396Y72013D01*
X13599Y72004D02*
X13599Y71998D01*
X13404Y71920D02*
X13601D01*
X13402Y71947D02*
X13601D01*
X13400Y71974D02*
X13600D01*
X13405Y71894D02*
X13399Y72003D01*
X13599Y71998D02*
X13602Y71894D01*
X13401Y71856D02*
X13405Y71894D01*
X13602Y71894D02*
X13603Y71860D01*
X13461Y72315D02*
X13496D01*
X13418Y72272D02*
X13484Y72337D01*
X13518Y72279D01*
G54D11*
X13064Y71368D02*
X13228Y71204D01*
X13154Y71161D01*
X13018Y71107D01*
X12875Y71078D01*
X12729Y71074D01*
X12585Y71096D01*
X12447Y71142D01*
X12332Y71204D01*
X12496Y71368D01*
X12556Y71340D01*
X12658Y71309D01*
X12764Y71297D01*
X12871Y71304D01*
X12975Y71329D01*
X13064Y71368D01*
G54D12*
X12364Y71201D02*
X13199D01*
X12456Y71310D02*
X12612D01*
X12949D02*
X13104D01*
X12463Y71150D02*
X13092D01*
X12468Y71322D02*
X12573D01*
X12497Y71352D02*
X12501D01*
X12521Y71130D02*
X13043D01*
X12673Y71095D02*
X12897D01*
X12976Y71317D02*
X13098D01*
X13033Y71341D02*
X13073D01*
X12412Y71175D02*
X13153D01*
X12411Y71176D02*
X13154D01*
X12418Y71172D02*
X12353Y71207D01*
X13207Y71206D02*
X13149Y71172D01*
X12373Y71226D02*
X13187D01*
X12402Y71256D02*
X13158D01*
X12431Y71285D02*
X13129D01*
X12353Y71207D02*
X12439Y71292D01*
X13121D02*
X13207Y71206D01*
X12452Y71154D02*
X12418Y71172D01*
X13149Y71172D02*
X13102Y71154D01*
X12439Y71292D02*
X12450Y71304D01*
X12656Y71297D02*
X12764Y71285D01*
X12450Y71304D02*
X12480Y71334D01*
X12551Y71328D02*
X12656Y71297D01*
X12555Y71119D02*
X12452Y71154D01*
X13102Y71154D02*
X13015Y71120D01*
X12480Y71334D02*
X12499Y71352D01*
X12551Y71328D01*
X12588Y71108D02*
X12555Y71119D01*
X13015Y71120D02*
X12959Y71108D01*
X12706Y71091D02*
X12588Y71108D01*
X12959Y71108D02*
X12874Y71091D01*
X12730Y71087D02*
X12706Y71091D01*
X12874Y71091D02*
X12730Y71087D01*
X12764Y71285D02*
X12873Y71291D01*
X13115Y71299D02*
X13121Y71292D01*
X12873Y71291D02*
X12979Y71317D01*
X13091Y71323D02*
X13115Y71299D01*
X12979Y71317D02*
X13061Y71353D01*
X13091Y71323D01*
G54D11*
X12074Y72358D02*
X12238Y72194D01*
X12210Y72134D01*
X12179Y72032D01*
X12167Y71926D01*
X12174Y71819D01*
X12199Y71715D01*
X12238Y71626D01*
X12074Y71462D01*
X12031Y71536D01*
X11977Y71672D01*
X11948Y71815D01*
X11944Y71961D01*
X11966Y72105D01*
X12012Y72243D01*
X12074Y72358D01*
G54D12*
X11957Y71961D02*
X12159D01*
X11967Y72029D02*
X12167D01*
X11958Y71925D02*
X12155D01*
X11961Y71821D02*
X12161D01*
X11961Y71813D02*
X12163D01*
X11980Y72108D02*
X12189D01*
X11987Y72129D02*
X12195D01*
X11980Y71719D02*
X12186D01*
X12009Y72197D02*
X12218D01*
X11992Y71668D02*
X12206D01*
X12010Y71623D02*
X12218D01*
X12029Y72248D02*
X12166D01*
X12048Y71530D02*
X12124D01*
X11958Y71926D02*
X11957Y71960D01*
X12159Y71964D02*
X12155Y71926D01*
X11961Y71987D02*
X12162D01*
X11964Y72004D02*
X12163D01*
X11957Y71960D02*
X11967Y72025D01*
X12167Y72034D02*
X12159Y71964D01*
X11960Y71846D02*
X12160D01*
X11959Y71873D02*
X12158D01*
X11959Y71900D02*
X12156D01*
X11961Y71822D02*
X11958Y71926D01*
X12155Y71926D02*
X12161Y71817D01*
X11961Y71816D02*
X11961Y71822D01*
X12161Y71817D02*
X12164Y71807D01*
X11975Y71745D02*
X12179D01*
X11967Y71788D02*
X12168D01*
X11980Y71724D02*
X11961Y71816D01*
X12164Y71807D02*
X12187Y71711D01*
X11971Y72055D02*
X12173D01*
X11975Y72083D02*
X12181D01*
X11967Y72025D02*
X11978Y72102D01*
X12191Y72115D02*
X12167Y72034D01*
X11978Y72102D02*
X11985Y72121D01*
X12198Y72139D02*
X12191Y72115D01*
X11986Y71693D02*
X12195D01*
X11986Y71694D02*
X12194D01*
X11990Y71675D02*
X11980Y71724D01*
X12187Y71711D02*
X12210Y71658D01*
X11996Y72155D02*
X12205D01*
X12001Y72171D02*
X12213D01*
X11985Y72121D02*
X12007Y72189D01*
X12222Y72191D02*
X12198Y72139D01*
X12001Y71646D02*
X12215D01*
X12006Y71633D02*
X11990Y71675D01*
X12210Y71658D02*
X12223Y71629D01*
X12037Y71556D02*
X12149D01*
X12020Y71598D02*
X12192D01*
X12042Y71541D02*
X12006Y71633D01*
X12223Y71629D02*
X12142Y71548D01*
X12018Y72222D02*
X12192D01*
X12019Y72223D02*
X12191D01*
X12007Y72189D02*
X12024Y72238D01*
X12183Y72230D02*
X12222Y72191D01*
X12043Y72274D02*
X12140D01*
X12064Y72314D02*
X12100D01*
X12024Y72238D02*
X12077Y72337D01*
X12183Y72230D01*
X12064Y71505D02*
X12099D01*
X12076Y71483D02*
X12042Y71541D01*
X12142Y71548D02*
X12076Y71483D01*
G54D11*
X14331Y76246D02*
X14475Y76224D01*
X14613Y76178D01*
X14728Y76116D01*
X14564Y75952D01*
X14504Y75980D01*
X14402Y76011D01*
X14296Y76023D01*
X14189Y76016D01*
X14085Y75991D01*
X13996Y75952D01*
X13832Y76116D01*
X13906Y76159D01*
X14042Y76213D01*
X14185Y76242D01*
X14331Y76246D01*
G54D12*
X13861Y76119D02*
X14696D01*
X13968Y76170D02*
X14597D01*
X14017Y76190D02*
X14539D01*
X13956Y76010D02*
X14111D01*
X13962Y76003D02*
X14084D01*
X14163Y76225D02*
X14387D01*
X13987Y75979D02*
X14027D01*
X14448Y76010D02*
X14604D01*
X14487Y75998D02*
X14592D01*
X14559Y75968D02*
X14563D01*
X13931Y76035D02*
X14629D01*
X13902Y76064D02*
X14658D01*
X13873Y76094D02*
X14687D01*
X13939Y76028D02*
X13853Y76114D01*
X14707Y76113D02*
X14621Y76028D01*
X13906Y76145D02*
X14649D01*
X13907Y76145D02*
X14648D01*
X13853Y76114D02*
X13911Y76148D01*
X14642Y76148D02*
X14707Y76113D01*
X13911Y76148D02*
X13958Y76166D01*
X14608Y76166D02*
X14642Y76148D01*
X13945Y76021D02*
X13939Y76028D01*
X14296Y76035D02*
X14187Y76029D01*
X13969Y75997D02*
X13945Y76021D01*
X14187Y76029D02*
X14081Y76003D01*
X13958Y76166D02*
X14045Y76200D01*
X14505Y76201D02*
X14608Y76166D01*
X13999Y75967D02*
X13969Y75997D01*
X14081Y76003D02*
X13999Y75967D01*
X14045Y76200D02*
X14101Y76212D01*
X14472Y76212D02*
X14505Y76201D01*
X14101Y76212D02*
X14186Y76229D01*
X14354Y76229D02*
X14472Y76212D01*
X14186Y76229D02*
X14330Y76233D01*
X14354Y76229D01*
X14404Y76023D02*
X14296Y76035D01*
X14621Y76028D02*
X14610Y76016D01*
X14509Y75992D02*
X14404Y76023D01*
X14610Y76016D02*
X14580Y75986D01*
X14561Y75968D02*
X14509Y75992D01*
X14580Y75986D02*
X14561Y75968D01*
G54D11*
X14986Y75858D02*
X15029Y75784D01*
X15083Y75648D01*
X15112Y75505D01*
X15116Y75359D01*
X15094Y75215D01*
X15048Y75077D01*
X14986Y74962D01*
X14822Y75126D01*
X14850Y75186D01*
X14881Y75288D01*
X14893Y75394D01*
X14886Y75501D01*
X14861Y75605D01*
X14822Y75694D01*
X14986Y75858D01*
G54D12*
X14842Y75123D02*
X15051D01*
X14865Y75191D02*
X15073D01*
X14842Y75697D02*
X15050D01*
X14936Y75790D02*
X15012D01*
X14854Y75652D02*
X15068D01*
X14871Y75212D02*
X15080D01*
X14893Y75291D02*
X15093D01*
X14874Y75601D02*
X15080D01*
X14894Y75072D02*
X15031D01*
X14901Y75359D02*
X15103D01*
X14897Y75507D02*
X15099D01*
X14899Y75499D02*
X15099D01*
X14905Y75395D02*
X15102D01*
X14869Y75097D02*
X15041D01*
X14868Y75098D02*
X15042D01*
X14877Y75090D02*
X14838Y75129D01*
X15053Y75131D02*
X15036Y75082D01*
X14847Y75149D02*
X15059D01*
X14855Y75165D02*
X15064D01*
X14838Y75129D02*
X14862Y75181D01*
X15075Y75199D02*
X15053Y75131D01*
X14845Y75674D02*
X15059D01*
X14850Y75662D02*
X14837Y75691D01*
X15054Y75687D02*
X15070Y75645D01*
X14868Y75722D02*
X15040D01*
X14911Y75764D02*
X15023D01*
X14837Y75691D02*
X14918Y75772D01*
X15018Y75779D02*
X15054Y75687D01*
X14866Y75626D02*
X15074D01*
X14865Y75627D02*
X15074D01*
X14873Y75609D02*
X14850Y75662D01*
X15070Y75645D02*
X15080Y75596D01*
X14862Y75181D02*
X14869Y75205D01*
X15082Y75218D02*
X15075Y75199D01*
X14879Y75237D02*
X15085D01*
X14887Y75265D02*
X15089D01*
X14869Y75205D02*
X14893Y75286D01*
X15093Y75295D02*
X15082Y75218D01*
X14892Y75532D02*
X15093D01*
X14881Y75575D02*
X15085D01*
X14896Y75513D02*
X14873Y75609D01*
X15080Y75596D02*
X15099Y75504D01*
X14960Y75006D02*
X14996D01*
X14920Y75046D02*
X15017D01*
X14983Y74983D02*
X14877Y75090D01*
X15036Y75082D02*
X14983Y74983D01*
X14897Y75316D02*
X15096D01*
X14898Y75333D02*
X15099D01*
X14893Y75286D02*
X14901Y75356D01*
X15103Y75360D02*
X15093Y75295D01*
X14899Y75503D02*
X14896Y75513D01*
X15099Y75504D02*
X15099Y75498D01*
X14904Y75420D02*
X15101D01*
X14902Y75447D02*
X15101D01*
X14900Y75474D02*
X15100D01*
X14905Y75394D02*
X14899Y75503D01*
X15099Y75498D02*
X15102Y75394D01*
X14901Y75356D02*
X14905Y75394D01*
X15102Y75394D02*
X15103Y75360D01*
X14961Y75815D02*
X14996D01*
X14918Y75772D02*
X14984Y75837D01*
X15018Y75779D01*
G54D11*
X14564Y74868D02*
X14728Y74704D01*
X14654Y74661D01*
X14518Y74607D01*
X14375Y74578D01*
X14229Y74574D01*
X14085Y74596D01*
X13947Y74642D01*
X13832Y74704D01*
X13996Y74868D01*
X14056Y74840D01*
X14158Y74809D01*
X14264Y74797D01*
X14371Y74804D01*
X14475Y74829D01*
X14564Y74868D01*
G54D12*
X13864Y74701D02*
X14699D01*
X13956Y74810D02*
X14112D01*
X14449D02*
X14604D01*
X13963Y74650D02*
X14592D01*
X13968Y74822D02*
X14073D01*
X13997Y74852D02*
X14001D01*
X14021Y74630D02*
X14543D01*
X14173Y74595D02*
X14397D01*
X14476Y74817D02*
X14598D01*
X14533Y74841D02*
X14573D01*
X13912Y74675D02*
X14653D01*
X13911Y74676D02*
X14654D01*
X13918Y74672D02*
X13853Y74707D01*
X14707Y74706D02*
X14649Y74672D01*
X13873Y74726D02*
X14687D01*
X13902Y74756D02*
X14658D01*
X13931Y74785D02*
X14629D01*
X13853Y74707D02*
X13939Y74792D01*
X14621D02*
X14707Y74706D01*
X13952Y74654D02*
X13918Y74672D01*
X14649Y74672D02*
X14602Y74654D01*
X13939Y74792D02*
X13950Y74804D01*
X14156Y74797D02*
X14264Y74785D01*
X13950Y74804D02*
X13980Y74834D01*
X14051Y74828D02*
X14156Y74797D01*
X14055Y74619D02*
X13952Y74654D01*
X14602Y74654D02*
X14515Y74620D01*
X13980Y74834D02*
X13999Y74852D01*
X14051Y74828D01*
X14088Y74608D02*
X14055Y74619D01*
X14515Y74620D02*
X14459Y74608D01*
X14206Y74591D02*
X14088Y74608D01*
X14459Y74608D02*
X14374Y74591D01*
X14230Y74587D02*
X14206Y74591D01*
X14374Y74591D02*
X14230Y74587D01*
X14264Y74785D02*
X14373Y74791D01*
X14615Y74799D02*
X14621Y74792D01*
X14373Y74791D02*
X14479Y74817D01*
X14591Y74823D02*
X14615Y74799D01*
X14479Y74817D02*
X14561Y74853D01*
X14591Y74823D01*
G54D11*
X13574Y75858D02*
X13738Y75694D01*
X13710Y75634D01*
X13679Y75532D01*
X13667Y75426D01*
X13674Y75319D01*
X13699Y75215D01*
X13738Y75126D01*
X13574Y74962D01*
X13531Y75036D01*
X13477Y75172D01*
X13448Y75315D01*
X13444Y75461D01*
X13466Y75605D01*
X13512Y75743D01*
X13574Y75858D01*
G54D12*
X13457Y75461D02*
X13659D01*
X13467Y75529D02*
X13667D01*
X13458Y75425D02*
X13655D01*
X13461Y75321D02*
X13661D01*
X13461Y75313D02*
X13663D01*
X13480Y75608D02*
X13689D01*
X13487Y75629D02*
X13695D01*
X13480Y75219D02*
X13686D01*
X13509Y75697D02*
X13718D01*
X13492Y75168D02*
X13706D01*
X13510Y75123D02*
X13718D01*
X13529Y75748D02*
X13666D01*
X13548Y75030D02*
X13624D01*
X13458Y75426D02*
X13457Y75460D01*
X13659Y75464D02*
X13655Y75426D01*
X13461Y75487D02*
X13662D01*
X13464Y75504D02*
X13663D01*
X13457Y75460D02*
X13467Y75525D01*
X13667Y75534D02*
X13659Y75464D01*
X13460Y75346D02*
X13660D01*
X13459Y75373D02*
X13658D01*
X13459Y75400D02*
X13656D01*
X13461Y75322D02*
X13458Y75426D01*
X13655Y75426D02*
X13661Y75317D01*
X13461Y75316D02*
X13461Y75322D01*
X13661Y75317D02*
X13664Y75307D01*
X13475Y75245D02*
X13679D01*
X13467Y75288D02*
X13668D01*
X13480Y75224D02*
X13461Y75316D01*
X13664Y75307D02*
X13687Y75211D01*
X13471Y75555D02*
X13673D01*
X13475Y75583D02*
X13681D01*
X13467Y75525D02*
X13478Y75602D01*
X13691Y75615D02*
X13667Y75534D01*
X13478Y75602D02*
X13485Y75621D01*
X13698Y75639D02*
X13691Y75615D01*
X13486Y75193D02*
X13695D01*
X13486Y75194D02*
X13694D01*
X13490Y75175D02*
X13480Y75224D01*
X13687Y75211D02*
X13710Y75158D01*
X13496Y75655D02*
X13705D01*
X13501Y75671D02*
X13713D01*
X13485Y75621D02*
X13507Y75689D01*
X13722Y75691D02*
X13698Y75639D01*
X13501Y75146D02*
X13715D01*
X13506Y75133D02*
X13490Y75175D01*
X13710Y75158D02*
X13723Y75129D01*
X13537Y75056D02*
X13649D01*
X13520Y75098D02*
X13692D01*
X13542Y75041D02*
X13506Y75133D01*
X13723Y75129D02*
X13642Y75048D01*
X13518Y75722D02*
X13692D01*
X13519Y75723D02*
X13691D01*
X13507Y75689D02*
X13524Y75738D01*
X13683Y75730D02*
X13722Y75691D01*
X13543Y75774D02*
X13640D01*
X13564Y75814D02*
X13600D01*
X13524Y75738D02*
X13577Y75837D01*
X13683Y75730D01*
X13564Y75005D02*
X13599D01*
X13576Y74983D02*
X13542Y75041D01*
X13642Y75048D02*
X13576Y74983D01*
G54D28*
X54000Y45500D03*
X51800Y43300D03*
Y45500D03*
X54000Y43300D03*
X51800Y47700D03*
X54000D03*
X56200Y43300D03*
Y45500D03*
Y47700D03*
G54D29*
X82340Y76880D03*
Y81960D03*
Y87040D03*
Y92120D03*
G54D30*
X4900Y8940D03*
Y88940D03*
G54D31*
X1500Y85500D03*
X2779Y86819D03*
Y91061D03*
X1500Y92000D03*
Y95000D03*
X1900Y88940D03*
X1500Y100000D03*
Y102500D03*
Y97500D03*
Y107000D03*
Y109000D03*
Y105000D03*
X10000Y86500D03*
X4900Y85940D03*
X7021Y86819D03*
X9000Y92500D03*
X7021Y91061D03*
X4900Y91940D03*
X10000Y90000D03*
X7900Y88940D03*
X8000Y102500D03*
X10000D03*
X9000D03*
X4750Y109000D03*
X7500D03*
Y105000D03*
X17650Y19960D03*
Y37360D03*
Y54760D03*
Y72160D03*
X17500Y86500D03*
X11500Y94400D03*
X17500Y90000D03*
X15400Y98500D03*
X16500Y96500D03*
X18000Y109000D03*
X11000Y106500D03*
X14400D03*
X11000Y109000D03*
X14200D03*
X20750Y16660D03*
X20850Y19960D03*
X20750Y34060D03*
X20850Y37360D03*
X20750Y51460D03*
X20850Y54760D03*
Y72160D03*
X20750Y68860D03*
X20300Y86100D03*
X22300D03*
X21300D03*
X24000Y94400D03*
X21500Y92500D03*
X18500Y95000D03*
X23600Y89100D03*
X20500Y102500D03*
X21500D03*
X22500D03*
X18400Y106500D03*
X21600Y109000D03*
X22500Y105000D03*
X30450Y30550D03*
Y32450D03*
Y31500D03*
Y47950D03*
Y49850D03*
Y48900D03*
Y65350D03*
Y66300D03*
Y67250D03*
X32000Y85800D03*
X27000Y85700D03*
X32000Y92000D03*
X28700Y91200D03*
X31400Y95600D03*
X32000Y89400D03*
X27300Y89500D03*
X26300Y96500D03*
X30900Y106500D03*
X27000Y109000D03*
X30600D03*
X34100Y16500D03*
X35500Y14500D03*
X37050Y22200D03*
X34200Y22500D03*
X38700Y22700D03*
X32900Y18050D03*
X34950Y20050D03*
X37100Y20100D03*
X38250Y21000D03*
X39250Y24350D03*
X36400Y24700D03*
X38600Y26800D03*
X39400Y41800D03*
X38900Y50900D03*
X39500Y80000D03*
Y83500D03*
Y87000D03*
X35700Y87300D03*
X34000Y92500D03*
X36500Y94400D03*
Y90000D03*
X38500Y90500D03*
X33000Y102500D03*
X34000D03*
X35000D03*
X36500Y98500D03*
X34000Y106500D03*
X33100Y109000D03*
X37200D03*
X37500Y105000D03*
X46650Y7100D03*
Y8100D03*
Y9100D03*
Y10100D03*
X40200Y14300D03*
X44900Y14100D03*
X44750Y23500D03*
Y22500D03*
X46000D03*
Y23500D03*
X44750Y21500D03*
X46000D03*
X40100Y23300D03*
X39900Y19900D03*
X41600D03*
X42900Y19400D03*
X44600Y19800D03*
X45700D03*
X44800Y29850D03*
X42550Y30850D03*
X42500Y24800D03*
X44100Y24500D03*
X46500Y25400D03*
X41350Y26450D03*
X45600Y27000D03*
X42950Y28050D03*
X40500Y28800D03*
X40350Y37550D03*
Y31850D03*
X42600Y33000D03*
X44850Y32850D03*
X40350Y35200D03*
X42550D03*
X44850Y35250D03*
X46000Y35400D03*
X44550Y45500D03*
X43000D03*
X42600Y39650D03*
X44850Y38650D03*
X40350Y40050D03*
X44550Y42100D03*
X41050Y43550D03*
X44650Y43800D03*
X44350Y47200D03*
X41550D03*
X44350Y48900D03*
X40050D03*
X42750Y50700D03*
X42500Y52500D03*
X46800Y54600D03*
X40000Y55350D03*
X43750D03*
X40000Y57550D03*
X43750D03*
X46150D03*
X40050Y59750D03*
X43750D03*
X40050Y61950D03*
X43750D03*
X40050Y64200D03*
X43750Y64150D03*
X41000Y66550D03*
X43750Y66350D03*
Y68550D03*
X41000Y69750D03*
X42500Y71500D03*
X43000Y77000D03*
X45000Y75000D03*
X46000Y83300D03*
X42500Y85000D03*
X43500Y92500D03*
X46500D03*
X42500Y90000D03*
X44000D03*
X46500Y102500D03*
X45500D03*
X43500Y97000D03*
X43400Y106500D03*
X41250Y109000D03*
X45000D03*
Y105000D03*
X47650Y7100D03*
Y8100D03*
Y9100D03*
X51000Y7250D03*
X49000Y9000D03*
X51000D03*
X49000Y7250D03*
X49900Y16650D03*
X47650Y10100D03*
X49000Y10750D03*
X53000Y9750D03*
X51875Y10750D03*
X53000D03*
X50750Y11875D03*
X51875D03*
X49625Y13000D03*
X50750D03*
X49625Y14125D03*
X52300Y19300D03*
X52700Y23400D03*
X51300Y23900D03*
X48700Y17300D03*
X50100Y18400D03*
Y19800D03*
X48900Y21900D03*
X51300Y21800D03*
X48400Y25400D03*
X48900Y27000D03*
X51350D03*
X53750D03*
X48900Y29750D03*
X51350D03*
X53750D03*
X48900Y32000D03*
X51350D03*
X53750D03*
X49100Y34650D03*
X51000Y34500D03*
X53750Y33700D03*
X52300Y35550D03*
X54000Y36550D03*
X52200Y39200D03*
X51000Y38900D03*
X47250Y40250D03*
X49750Y49750D03*
X50600Y55050D03*
Y56300D03*
X49450Y57450D03*
X52300Y55050D03*
Y57700D03*
X50450Y59600D03*
X54000Y59200D03*
Y55150D03*
Y57100D03*
X47000Y59750D03*
X52750Y60450D03*
X47250Y61900D03*
X51300D03*
X54050Y62350D03*
X47250Y64150D03*
X49450D03*
X52350Y64050D03*
X47250Y66350D03*
X50400D03*
X53350Y66250D03*
X47250Y68500D03*
X50400D03*
X54000D03*
X50500Y71000D03*
X52900Y81050D03*
X52500Y75000D03*
X52400Y83900D03*
X53900D03*
X52750Y86500D03*
X48000Y82400D03*
X49000Y94400D03*
X51750Y88750D03*
X48500Y90000D03*
X53500D03*
X47500Y102500D03*
X53500Y96500D03*
X49200Y106600D03*
X52500Y106500D03*
X49000Y109000D03*
X52500D03*
X59380Y14500D03*
X60380D03*
X59600Y23300D03*
X56250Y21150D03*
Y20150D03*
X57600Y31000D03*
X58200Y24100D03*
X56250Y27000D03*
X58300D03*
X60300Y26300D03*
X56000Y29750D03*
Y32000D03*
X55950Y34000D03*
X55700Y36550D03*
X57300Y36750D03*
X60400Y36800D03*
X59400Y49400D03*
X58150Y50250D03*
X59600Y52800D03*
X55700Y59200D03*
Y55050D03*
Y57100D03*
X57400Y59200D03*
Y55050D03*
Y57100D03*
X59350Y61300D03*
X55250Y64350D03*
X59250Y63500D03*
X61000Y65000D03*
X56500Y66250D03*
X55700Y60700D03*
X57400Y62100D03*
X58000Y68000D03*
X55000Y71000D03*
X60000Y72000D03*
X54500Y79000D03*
X58000D03*
X57000Y75000D03*
X55250Y85000D03*
X56750D03*
X58250D03*
X59750Y84750D03*
X61250D03*
X54600Y86500D03*
X59000Y86000D03*
X54600Y88500D03*
X59000Y93500D03*
X55500Y92000D03*
X57000Y93500D03*
X58500Y102000D03*
X56000Y98000D03*
X60000Y97800D03*
X55900Y106500D03*
X56000Y109000D03*
X60000D03*
X57500Y105000D03*
X66000Y14500D03*
X62700Y23400D03*
X64000D03*
X66000D03*
Y17500D03*
X64000Y18700D03*
Y21100D03*
X66000D03*
X61700D03*
X63900Y26300D03*
X62100Y28300D03*
X66000Y28500D03*
X62100Y27000D03*
X64800Y31900D03*
X64500Y34700D03*
X66250Y44300D03*
X61500Y52000D03*
X64200Y45800D03*
X64000Y47200D03*
X68000Y46200D03*
X66200Y49000D03*
X65100D03*
X62900Y52100D03*
X62800Y49300D03*
X61500Y53100D03*
X64150Y54550D03*
X67500Y54700D03*
X62200Y58200D03*
X63600D03*
X64500Y61500D03*
X67000Y65000D03*
X67500Y67100D03*
X64000Y68000D03*
X67500Y68100D03*
X67100Y70400D03*
X64700Y71400D03*
X67200Y77000D03*
X68000Y81500D03*
X61500Y77000D03*
X62700Y74400D03*
X62000Y83300D03*
X64550Y84450D03*
X65600Y83450D03*
X67300Y83650D03*
X66950Y85200D03*
X67750Y87000D03*
X67000Y88000D03*
X66250Y87000D03*
X61900Y87400D03*
X63500Y91500D03*
X65400Y91400D03*
X67000D03*
X62000Y93500D03*
X65400Y93200D03*
X67000D03*
X65500Y95000D03*
X67750Y89000D03*
X66250D03*
X65500Y101500D03*
X63000Y96000D03*
X62000Y98000D03*
X65000Y108500D03*
X65200Y103800D03*
X70000Y14500D03*
X74500D03*
X72700Y23400D03*
X69400D03*
X70000Y17500D03*
X74500D03*
X70000Y21100D03*
X74400D03*
X72000Y31100D03*
Y26400D03*
Y29300D03*
X75500Y35000D03*
Y36500D03*
X73500Y34500D03*
X73900Y32600D03*
X72900Y45500D03*
X72500Y38500D03*
X70400Y42800D03*
X72500Y44000D03*
X68800Y41000D03*
X69200Y52800D03*
X73000Y48500D03*
Y51500D03*
X69200Y48050D03*
X72800Y53950D03*
X69000Y57000D03*
X72300Y64600D03*
Y60500D03*
X73500D03*
X72300Y61900D03*
X73500D03*
X72300Y63300D03*
X73500D03*
Y64600D03*
X70700Y61600D03*
Y64300D03*
X70500Y67100D03*
X73500Y66000D03*
X68800Y63100D03*
X68500Y67100D03*
X69500D03*
X70500Y68100D03*
X73500Y68600D03*
X68500Y68100D03*
X69500D03*
Y73000D03*
X74300Y77050D03*
X70500Y81500D03*
X74900Y80900D03*
X69500Y78000D03*
X68500Y84700D03*
X74000Y83000D03*
X71800Y89500D03*
X70100Y91400D03*
X75000Y93000D03*
X68800Y91400D03*
X68500Y93200D03*
X70000Y106000D03*
X75500Y104500D03*
X78700Y16000D03*
X82000Y16200D03*
X80000Y17100D03*
X79000Y21400D03*
X78500Y35000D03*
X80000D03*
X81500D03*
X78500Y36500D03*
X80000D03*
X81500D03*
X77000Y35000D03*
Y36500D03*
X81700Y45350D03*
X77500Y38500D03*
X80000Y40000D03*
X77000Y43500D03*
X82000Y47800D03*
X77000Y47000D03*
Y51000D03*
X80200Y50600D03*
X79500Y53400D03*
X82600Y57200D03*
X81700Y53400D03*
X82500Y68000D03*
Y69000D03*
X80500Y68000D03*
X81500D03*
X80500Y69000D03*
X81500D03*
X80500Y70000D03*
X81500D03*
X82500D03*
X81500Y72500D03*
Y74250D03*
X76600Y74150D03*
X82500Y79300D03*
X82200Y84500D03*
X78500Y87000D03*
X79900D03*
X78600Y88500D03*
X79700D03*
X77200Y84500D03*
X77600Y82900D03*
X79800D03*
X77400Y92500D03*
X79700D03*
X77400Y93800D03*
X78600D03*
X79700D03*
X78600Y92500D03*
X80400Y89300D03*
Y90500D03*
X82400Y89600D03*
X77500Y99000D03*
X78500D03*
X79500D03*
X80500D03*
X81500D03*
X82500D03*
X77500Y96000D03*
X81000D03*
X77500Y98000D03*
X78500D03*
X79500D03*
X80500D03*
X81500D03*
X82500D03*
X84500Y16000D03*
X87000Y14500D03*
X83000Y16200D03*
X86400Y17600D03*
X86500Y21000D03*
X84500Y19500D03*
X86000Y28500D03*
X83000Y35000D03*
Y36500D03*
X84000Y37500D03*
X85000Y33500D03*
X87500Y40000D03*
X88000Y43500D03*
X85000Y44000D03*
X84000Y41000D03*
X86800Y46000D03*
X85500Y48300D03*
X87400D03*
Y51300D03*
X83500Y48000D03*
X87400Y52800D03*
X85500Y55500D03*
X85400Y54100D03*
X83900Y57200D03*
X85000Y69500D03*
X88000D03*
X86000Y71000D03*
Y77500D03*
Y87000D03*
Y82000D03*
Y91500D03*
X85000Y99000D03*
X87250Y100000D03*
X83500Y99000D03*
Y98000D03*
X84500Y108500D03*
X87250Y105500D03*
X92500Y14500D03*
X95500D03*
X90000D03*
X95500Y23500D03*
Y17000D03*
Y19000D03*
X92900Y21000D03*
X92000Y17000D03*
X90500Y19000D03*
X90000Y21500D03*
X95500Y30000D03*
X92600Y25100D03*
X95500Y37500D03*
X90500D03*
X95500Y33500D03*
X90000D03*
X95500Y41000D03*
X94000Y42000D03*
X95500Y45000D03*
X90500Y41000D03*
X91500Y45000D03*
X93500Y46500D03*
X95500Y48500D03*
X93500Y50500D03*
X95500Y52500D03*
X91500Y48500D03*
Y52500D03*
X95500Y55250D03*
X93250Y57000D03*
X94500D03*
X93250Y58250D03*
X94500D03*
X95500Y59750D03*
X91500Y55500D03*
X90750Y57000D03*
X92000D03*
X90750Y58250D03*
X92000D03*
X95500Y62000D03*
Y64500D03*
Y67000D03*
X92500Y69500D03*
X93750D03*
X95500Y70000D03*
X92500Y71000D03*
X93750D03*
X95500Y72500D03*
X90000Y69500D03*
X91250D03*
X90000Y71000D03*
X91250D03*
X95500Y76500D03*
X90000D03*
X95500Y87000D03*
X90000D03*
X95500Y82000D03*
X90000D03*
X95500Y92000D03*
X90000Y92500D03*
X93000Y100000D03*
X95500Y102500D03*
X90000D03*
X95500Y97500D03*
X90000D03*
X95500Y109000D03*
X90000D03*
X93000Y105500D03*
G54D25*
X14280Y21210D03*
Y19210D03*
X12780Y22210D03*
Y24210D03*
X14280Y27210D03*
Y25210D03*
X12780Y26710D03*
X14280Y36610D03*
Y44610D03*
Y42610D03*
Y38610D03*
X12780Y39610D03*
Y41610D03*
Y44110D03*
X14280Y60010D03*
Y56010D03*
Y54010D03*
X12780Y57010D03*
Y59010D03*
X14280Y62010D03*
X12780Y61510D03*
X14280Y73410D03*
Y71410D03*
X12780Y74410D03*
X14280Y79410D03*
Y77410D03*
X12780Y76410D03*
Y78910D03*
G54D32*
X46500Y28800D03*
X46400Y32500D03*
X47000Y77000D03*
X42000Y83000D03*
X51250Y15500D03*
X51000Y80000D03*
X58000Y33000D03*
X59750Y77750D03*
X72500Y73500D03*
Y81500D03*
G54D33*
X5330Y31600D03*
X7870D03*
X5330Y49000D03*
X7870D03*
X5330Y66400D03*
X7870D03*
X5330Y83800D03*
X7870D03*
G54D34*
X84880Y74330D03*
Y94670D03*
G54D35*
X10780Y16640D03*
Y29780D03*
Y34040D03*
Y47180D03*
Y51440D03*
Y64580D03*
Y68840D03*
Y81980D03*
G54D36*
X92500Y79420D03*
Y89580D03*
%LPC*%
G75*
X92500Y89580D02*
G54D37*
X1900Y8940D03*
X1500Y6000D03*
X2779Y6819D03*
X1500Y15000D03*
X2779Y11061D03*
X1500Y12000D03*
X2000Y23300D03*
Y18300D03*
Y20800D03*
Y25800D03*
Y28300D03*
Y38200D03*
Y35700D03*
Y40700D03*
Y43200D03*
Y45700D03*
Y53100D03*
Y55600D03*
Y58100D03*
Y60600D03*
Y63100D03*
Y70500D03*
Y73000D03*
Y78000D03*
Y80500D03*
Y75500D03*
X10000Y9000D03*
X7900Y8940D03*
X4900Y5940D03*
X8500Y6000D03*
X7021Y6819D03*
X5000Y15000D03*
X8500D03*
X7021Y11061D03*
X4900Y11940D03*
X8500Y12000D03*
X8250Y22710D03*
X10000Y19160D03*
X7900Y30200D03*
X8750Y26660D03*
X10000Y36560D03*
X8750Y44060D03*
X8250Y40110D03*
X7900Y47600D03*
X10000Y53960D03*
X8250Y57510D03*
X8750Y61460D03*
X7900Y65000D03*
X10000Y71360D03*
X8750Y78860D03*
X8250Y74910D03*
X9200Y85100D03*
X10000Y94500D03*
X9000D03*
X8000D03*
X13500Y6000D03*
X17800Y15150D03*
X13300Y15550D03*
X14800D03*
X12000Y10000D03*
X13500Y12000D03*
X16000Y23160D03*
X15050Y17900D03*
X15900Y18650D03*
X11250Y21160D03*
Y22160D03*
X16000Y21660D03*
X18000Y26050D03*
X11250Y24510D03*
X16000Y24660D03*
X11250Y25660D03*
X16000Y27400D03*
X17500Y32250D03*
X15050Y35300D03*
X15900Y36050D03*
X18000Y43450D03*
X11250Y38560D03*
Y39560D03*
X16000Y39060D03*
Y40560D03*
X11250Y41910D03*
X16000Y42060D03*
X11250Y43060D03*
X16000Y44800D03*
X15050Y52700D03*
X17800Y49950D03*
X15900Y53450D03*
X11250Y56960D03*
Y55960D03*
X16000Y56460D03*
Y57960D03*
X11250Y59400D03*
X16000Y59460D03*
X18000Y60850D03*
X17500Y67000D03*
X11250Y60460D03*
X16000Y62200D03*
X13400Y67000D03*
X15400D03*
X15050Y70110D03*
X15900Y70860D03*
X11250Y74360D03*
Y73360D03*
X16000Y73860D03*
X18000Y78260D03*
X11250Y76850D03*
X16000Y76860D03*
X11250Y77860D03*
X16000Y79610D03*
Y75360D03*
X16500Y84500D03*
X16300Y82000D03*
X13650Y82050D03*
X13750Y92250D03*
X15250D03*
X20000Y15100D03*
X23000Y15150D03*
X19700Y22500D03*
X21500Y22650D03*
X23000D03*
Y17750D03*
Y20150D03*
X18400Y22050D03*
Y24150D03*
X23000Y37550D03*
X20000Y32500D03*
X22000Y32900D03*
X23000Y35150D03*
X18400Y39450D03*
X19700Y39900D03*
X21500Y40050D03*
X23000D03*
X18400Y41550D03*
X20000Y49900D03*
X22000Y50400D03*
X23000Y52550D03*
Y54950D03*
X18400Y56850D03*
X19700Y57300D03*
X21500Y57450D03*
X18400Y58950D03*
X23000Y69950D03*
Y72360D03*
X18400Y74260D03*
X20000Y67300D03*
X22000Y67700D03*
X18400Y76360D03*
X19700Y74700D03*
X21500Y74860D03*
X23000D03*
X22500Y94500D03*
X21500D03*
X20500D03*
X18400Y101700D03*
X26000Y15150D03*
X29000Y15550D03*
X30450Y15600D03*
X32000Y14500D03*
X32250Y23700D03*
X26500Y22650D03*
X27850Y22600D03*
X29300Y24000D03*
X31900Y20200D03*
X26000Y17800D03*
X29500D03*
X26500Y20150D03*
X28650Y20200D03*
X30600Y22100D03*
X32500Y27200D03*
X30200Y26300D03*
X26500Y37550D03*
X28600D03*
X32000Y34450D03*
X30900Y33400D03*
X26000Y35150D03*
X29500Y35250D03*
X31200Y36800D03*
X32000Y40850D03*
X30400Y39300D03*
X26500Y40050D03*
X27950D03*
X30000Y42050D03*
X30200Y43700D03*
X31750Y50350D03*
X32000Y51900D03*
X26000Y52550D03*
X29000D03*
X31950Y55000D03*
X31850Y58150D03*
X26500Y54950D03*
X28650Y55050D03*
X26500Y57450D03*
X27950D03*
X28900Y58400D03*
X30200Y61100D03*
X32000Y69900D03*
Y72400D03*
X26000Y69950D03*
X29000D03*
X26500Y72360D03*
X29000D03*
X32000Y67500D03*
Y81000D03*
Y74900D03*
X26500Y74860D03*
X28500D03*
X26250Y92250D03*
X27750D03*
X30900Y101700D03*
X37250Y15750D03*
X36250Y16750D03*
X37250D03*
X36250Y15750D03*
X37250Y17750D03*
Y18750D03*
X36250D03*
Y17750D03*
X34400Y25850D03*
X36400Y27800D03*
X34900Y29500D03*
X38250Y29700D03*
X38000Y37550D03*
X36750Y31400D03*
X38050Y32850D03*
X33100Y35700D03*
X38000Y35200D03*
X34500Y37000D03*
X32900Y38600D03*
X34500Y40150D03*
X38000Y40100D03*
X33300Y42200D03*
X34500Y43400D03*
X37800Y43500D03*
X32600Y44700D03*
X34500Y46550D03*
X37800Y46700D03*
Y49900D03*
X35000Y52500D03*
X38000D03*
X33500Y53400D03*
X35000Y54950D03*
X38000Y55350D03*
X34450Y57500D03*
X38000Y57550D03*
X33400Y59700D03*
X34900D03*
X38000Y59750D03*
X34900Y61900D03*
X38000Y61950D03*
X37750Y63150D03*
X34900Y65600D03*
X38000Y66150D03*
X35000Y69200D03*
X38000Y69450D03*
X34900Y72300D03*
X38500Y72250D03*
X37800Y76200D03*
X34800Y74900D03*
X38750Y92250D03*
X35000Y94500D03*
X33000D03*
X34000D03*
X46000Y40100D03*
X46800Y52800D03*
X41600Y79600D03*
X43200D03*
X41600Y81200D03*
X43200D03*
X45500Y88300D03*
X40250Y92250D03*
X46500Y94500D03*
X45500D03*
Y89900D03*
X43400Y101700D03*
X47950Y42100D03*
X47800Y45500D03*
X54000Y39600D03*
X49100Y38950D03*
X48000Y43800D03*
X47600Y47200D03*
X50600Y51650D03*
X47600Y48900D03*
X47200Y50700D03*
X52300Y51600D03*
X54000Y51850D03*
X49000Y75700D03*
X51000D03*
X49000Y77500D03*
X51000D03*
X47100Y88300D03*
X51250Y92250D03*
X52750D03*
X47500Y94500D03*
X47100Y89900D03*
X59030Y7250D03*
Y8550D03*
X55800Y14900D03*
Y16650D03*
X57600Y10000D03*
X56400Y11200D03*
X59900Y10800D03*
X58500Y12500D03*
X55800Y13300D03*
X60950Y13450D03*
X58100Y14500D03*
X55700Y22300D03*
X58100Y16950D03*
X56000Y18100D03*
X54700Y19300D03*
X57150Y19250D03*
X57300Y21850D03*
X54200Y21900D03*
X57300Y40100D03*
X60400Y38600D03*
X60700Y45400D03*
X55700Y39900D03*
X60800Y47200D03*
X55700Y51750D03*
X57400D03*
X60100Y58550D03*
Y59850D03*
X55900Y101700D03*
X61000Y102500D03*
X60000D03*
X58000Y97800D03*
X61000Y106500D03*
Y105500D03*
Y104500D03*
Y103500D03*
X60000Y106500D03*
Y105500D03*
Y104500D03*
Y103500D03*
X64100Y16300D03*
X61450Y15400D03*
X62300Y11600D03*
X64000Y11500D03*
Y10500D03*
Y13750D03*
X61700Y18700D03*
X68000Y26300D03*
X64300Y29500D03*
X62000Y35800D03*
X64500Y39300D03*
X61850Y44300D03*
X62000Y102500D03*
X63000D03*
X62000Y103500D03*
X63000D03*
X69500Y26300D03*
X75500Y28875D03*
Y30125D03*
X76625D03*
X77750D03*
X78875D03*
Y28875D03*
X77750D03*
X76625D03*
X80000Y43500D03*
X87100Y32300D03*
X91000D03*
X94500Y65250D03*
X93250D03*
X92000D03*
X94500Y64250D03*
X93250D03*
X92000D03*
X90750Y65250D03*
Y64250D03*
G54D26*
X62130Y7150D03*
X64150D03*
X62130Y7930D03*
X64150Y7900D03*
X62130Y8680D03*
X64150Y8700D03*
M02*
