*
%FSLAX43Y43*%
%MOMM*%
%ADD10C,7.000000*%
%ADD11C,1.500000*%
%ADD12C,0.750000*%
%ADD13C,0.025400*%
%ADD14C,0.050800*%
%ADD15R,0.800000X0.800000*%
%ADD16C,0.100000*%
%ADD17R,0.700000X0.700000*%
%ADD18R,0.300000X0.300000*%
%ADD19C,0.650000*%
%ADD20C,0.600000*%
%ADD21C,3.750000*%
%ADD22R,0.500000X0.500000*%
%ADD23R,0.400000X0.400000*%
%ADD24R,1.000000X1.000000*%
%ADD25R,2.200000X2.200000*%
%ADD26C,1.600000*%
%ADD27R,1.100000X1.100000*%
%ADD28R,1.200000X1.200000*%
%ADD29C,3.250000*%
%ADD30R,2.400000X2.400000*%
%ADD31R,1.300000X1.300000*%
%ADD32C,1.000000*%
%ADD33R,1.900000X1.900000*%
%ADD34R,1.500000X1.500000*%
%ADD35R,1.700000X1.700000*%
%ADD36R,6.500000X6.500000*%
%ADD37R,3.000000X3.000000*%
%ADD38C,0.406400*%
%ADD39C,0.101600*%
%ADD40C,0.203200*%
%ADD41C,2.000000*%
%ADD42R,0.250000X0.250000*%
%ADD43R,0.600000X0.600000*%
%ADD44C,3.500000*%
%ADD45R,1.400000X1.400000*%
%ADD46R,1.950000X1.950000*%
%ADD47C,5.000000*%
%ADD48R,1.625600X1.625600*%
%ADD49R,0.812800X0.812800*%
%ADD50C,0.200000*%
%ADD51R,2.600000X2.600000*%
%ADD52C,0.500000*%
%ADD53C,0.250000*%
%IPPOS*%
%LNr1*%
%LPD*%
G75*
G54D10*
X4900Y8940D03*
Y88940D03*
G54D11*
X14280Y23210D03*
Y21210D03*
X12780Y22210D03*
Y24210D03*
X14280Y25210D03*
Y42610D03*
Y40610D03*
Y38610D03*
X12780Y39610D03*
Y41610D03*
X14280Y60010D03*
Y58010D03*
Y56010D03*
X12780Y57010D03*
Y59010D03*
X14280Y73410D03*
X12780Y74410D03*
X14280Y77410D03*
Y75410D03*
X12780Y76410D03*
G54D12*
X1900Y8940D03*
X1500Y6000D03*
X2779Y6819D03*
X1500Y15000D03*
X2779Y11061D03*
X1500Y12000D03*
X2000Y23300D03*
Y18300D03*
Y20800D03*
Y25800D03*
Y28300D03*
Y38200D03*
Y35700D03*
Y40700D03*
Y43200D03*
Y45700D03*
Y53100D03*
Y55600D03*
Y58100D03*
Y60600D03*
Y63100D03*
Y70500D03*
Y73000D03*
Y78000D03*
Y80500D03*
Y75500D03*
X1500Y85500D03*
X2779Y86819D03*
Y91061D03*
X1500Y92000D03*
Y95000D03*
X1900Y88940D03*
X1500Y100000D03*
Y102500D03*
Y97500D03*
Y107000D03*
Y109000D03*
Y105000D03*
X10000Y9000D03*
X7900Y8940D03*
X4900Y5940D03*
X8500Y6000D03*
X7021Y6819D03*
X5000Y15000D03*
X8500D03*
X7021Y11061D03*
X4900Y11940D03*
X8500Y12000D03*
X8250Y22710D03*
X10000Y19160D03*
X7900Y30200D03*
X8750Y26660D03*
X10000Y36560D03*
X8750Y44060D03*
X8250Y40110D03*
X7900Y47600D03*
X10000Y53960D03*
X8250Y57510D03*
X8750Y61460D03*
X7900Y65000D03*
X10000Y71360D03*
X8750Y78860D03*
X8250Y74910D03*
X10000Y86500D03*
X9200Y85100D03*
X4900Y85940D03*
X7021Y86819D03*
X9000Y92500D03*
X7021Y91061D03*
X4900Y91940D03*
X10000Y90000D03*
X7900Y88940D03*
X10000Y94500D03*
X9000D03*
X8000D03*
Y102500D03*
X10000D03*
X9000D03*
X4750Y109000D03*
X7500D03*
Y105000D03*
X13500Y6000D03*
X17800Y15150D03*
X13300Y15550D03*
X14800D03*
X12000Y10000D03*
X13500Y12000D03*
X16000Y23160D03*
X15050Y17900D03*
X15900Y18650D03*
X11250Y21160D03*
Y22160D03*
X16000Y21660D03*
X17650Y19960D03*
X18000Y26050D03*
X11250Y24510D03*
X16000Y24660D03*
X11250Y25660D03*
X16000Y27400D03*
X17500Y32250D03*
X15050Y35300D03*
X15900Y36050D03*
X17650Y37360D03*
X18000Y43450D03*
X11250Y38560D03*
Y39560D03*
X16000Y39060D03*
Y40560D03*
X11250Y41910D03*
X16000Y42060D03*
X11250Y43060D03*
X16000Y44800D03*
X15050Y52700D03*
X17800Y49950D03*
X15900Y53450D03*
X11250Y56960D03*
Y55960D03*
X16000Y56460D03*
Y57960D03*
X11250Y59400D03*
X16000Y59460D03*
X17650Y54760D03*
X18000Y60850D03*
X17500Y67000D03*
X11250Y60460D03*
X16000Y62200D03*
X13400Y67000D03*
X15400D03*
X15050Y70110D03*
X15900Y70860D03*
X11250Y74360D03*
Y73360D03*
X16000Y73860D03*
X17650Y72160D03*
X18000Y78260D03*
X11250Y76850D03*
X16000Y76860D03*
X11250Y77860D03*
X16000Y79610D03*
Y75360D03*
X16500Y84500D03*
X17500Y86500D03*
X16300Y82000D03*
X13650Y82050D03*
X11500Y94400D03*
X17500Y90000D03*
X13750Y92250D03*
X15250D03*
X15400Y98500D03*
X16500Y96500D03*
X18000Y109000D03*
X11000Y106500D03*
X14400D03*
X11000Y109000D03*
X14200D03*
X20000Y15100D03*
X23000Y15150D03*
X20750Y16660D03*
X19700Y22500D03*
X21500Y22650D03*
X23000D03*
Y17750D03*
Y20150D03*
X18400Y22050D03*
X20850Y19960D03*
X18400Y24150D03*
X23000Y37550D03*
X20000Y32500D03*
X22000Y32900D03*
X23000Y35150D03*
X20750Y34060D03*
X20850Y37360D03*
X18400Y39450D03*
X19700Y39900D03*
X21500Y40050D03*
X23000D03*
X18400Y41550D03*
X20000Y49900D03*
X22000Y50400D03*
X23000Y52550D03*
X20750Y51460D03*
X23000Y54950D03*
X18400Y56850D03*
X19700Y57300D03*
X21500Y57450D03*
X18400Y58950D03*
X20850Y54760D03*
X23000Y69950D03*
Y72360D03*
X18400Y74260D03*
X20000Y67300D03*
X22000Y67700D03*
X20850Y72160D03*
X20750Y68860D03*
X18400Y76360D03*
X19700Y74700D03*
X21500Y74860D03*
X23000D03*
X20300Y86100D03*
X22300D03*
X21300D03*
X24000Y94400D03*
X21500Y92500D03*
X18500Y95000D03*
X23600Y89100D03*
X22500Y94500D03*
X21500D03*
X20500D03*
X18400Y101700D03*
X20500Y102500D03*
X21500D03*
X22500D03*
X18400Y106500D03*
X21600Y109000D03*
X22500Y105000D03*
X26000Y15150D03*
X29000Y15550D03*
X30450Y15600D03*
X32000Y14500D03*
X32250Y23700D03*
X26500Y22650D03*
X27850Y22600D03*
X29300Y24000D03*
X31900Y20200D03*
X26000Y17800D03*
X29500D03*
X26500Y20150D03*
X28650Y20200D03*
X30600Y22100D03*
X30450Y30550D03*
X32500Y27200D03*
X30200Y26300D03*
X30450Y32450D03*
Y31500D03*
X26500Y37550D03*
X28600D03*
X32000Y34450D03*
X30900Y33400D03*
X26000Y35150D03*
X29500Y35250D03*
X31200Y36800D03*
X32000Y40850D03*
X30400Y39300D03*
X26500Y40050D03*
X27950D03*
X30000Y42050D03*
X30200Y43700D03*
X30450Y47950D03*
Y49850D03*
Y48900D03*
X31750Y50350D03*
X32000Y51900D03*
X26000Y52550D03*
X29000D03*
X31950Y55000D03*
X31850Y58150D03*
X26500Y54950D03*
X28650Y55050D03*
X26500Y57450D03*
X27950D03*
X28900Y58400D03*
X30450Y65350D03*
Y66300D03*
X30200Y61100D03*
X30450Y67250D03*
X32000Y69900D03*
Y72400D03*
X26000Y69950D03*
X29000D03*
X26500Y72360D03*
X29000D03*
X32000Y67500D03*
Y81000D03*
Y74900D03*
X26500Y74860D03*
X28500D03*
X32000Y85800D03*
X27000Y85700D03*
X32000Y92000D03*
X28700Y91200D03*
X31400Y95600D03*
X32000Y89400D03*
X27300Y89500D03*
X26250Y92250D03*
X27750D03*
X30900Y101700D03*
X26300Y96500D03*
X30900Y106500D03*
X27000Y109000D03*
X30600D03*
X34100Y16500D03*
X35500Y14500D03*
X37250Y15750D03*
X36250Y16750D03*
X37250D03*
X36250Y15750D03*
X37050Y22200D03*
X34200Y22500D03*
X38700Y22700D03*
X32900Y18050D03*
X34950Y20050D03*
X37100Y20100D03*
X38250Y21000D03*
X37250Y17750D03*
Y18750D03*
X36250D03*
Y17750D03*
X39250Y24350D03*
X36400Y24700D03*
X34400Y25850D03*
X38600Y26800D03*
X36400Y27800D03*
X34900Y29500D03*
X38250Y29700D03*
X38000Y37550D03*
X36750Y31400D03*
X38050Y32850D03*
X33100Y35700D03*
X38000Y35200D03*
X34500Y37000D03*
X39400Y41800D03*
X32900Y38600D03*
X34500Y40150D03*
X38000Y40100D03*
X33300Y42200D03*
X34500Y43400D03*
X37800Y43500D03*
X32600Y44700D03*
X34500Y46550D03*
X37800Y46700D03*
Y49900D03*
X38900Y50900D03*
X35000Y52500D03*
X38000D03*
X33500Y53400D03*
X35000Y54950D03*
X38000Y55350D03*
X34450Y57500D03*
X38000Y57550D03*
X33400Y59700D03*
X34900D03*
X38000Y59750D03*
X34900Y61900D03*
X38000Y61950D03*
X37750Y63150D03*
X34900Y65600D03*
X38000Y66150D03*
X35000Y69200D03*
X38000Y69450D03*
X34900Y72300D03*
X38500Y72250D03*
X39500Y80000D03*
X37800Y76200D03*
X34800Y74900D03*
X39500Y83500D03*
Y87000D03*
X35700Y87300D03*
X34000Y92500D03*
X36500Y94400D03*
Y90000D03*
X38500Y90500D03*
X38750Y92250D03*
X35000Y94500D03*
X33000D03*
X34000D03*
X33000Y102500D03*
X34000D03*
X35000D03*
X36500Y98500D03*
X34000Y106500D03*
X33100Y109000D03*
X37200D03*
X37500Y105000D03*
X46650Y7100D03*
Y8100D03*
Y9100D03*
Y10100D03*
X40200Y14300D03*
X44900Y14100D03*
X44750Y23500D03*
Y22500D03*
X46000D03*
Y23500D03*
X44750Y21500D03*
X46000D03*
X40100Y23300D03*
X39900Y19900D03*
X41600D03*
X42900Y19400D03*
X44600Y19800D03*
X45700D03*
X44800Y29850D03*
X42550Y30850D03*
X42500Y24800D03*
X44100Y24500D03*
X46500Y25400D03*
X41350Y26450D03*
X45600Y27000D03*
X42950Y28050D03*
X40500Y28800D03*
X40350Y37550D03*
Y31850D03*
X42600Y33000D03*
X44850Y32850D03*
X40350Y35200D03*
X42550D03*
X44850Y35250D03*
X46000Y35400D03*
X44550Y45500D03*
X43000D03*
X42600Y39650D03*
X44850Y38650D03*
X40350Y40050D03*
X44550Y42100D03*
X41050Y43550D03*
X44650Y43800D03*
X46000Y40100D03*
X46800Y52800D03*
X44350Y47200D03*
X41550D03*
X44350Y48900D03*
X40050D03*
X42750Y50700D03*
X42500Y52500D03*
X46800Y54600D03*
X40000Y55350D03*
X43750D03*
X40000Y57550D03*
X43750D03*
X46150D03*
X40050Y59750D03*
X43750D03*
X40050Y61950D03*
X43750D03*
X40050Y64200D03*
X43750Y64150D03*
X41000Y66550D03*
X43750Y66350D03*
Y68550D03*
X41000Y69750D03*
X42500Y71500D03*
X41600Y79600D03*
X43200D03*
X41600Y81200D03*
X43200D03*
X43000Y77000D03*
X45000Y75000D03*
X46000Y83300D03*
X42500Y85000D03*
X45500Y88300D03*
X43500Y92500D03*
X46500D03*
X42500Y90000D03*
X44000D03*
X40250Y92250D03*
X46500Y94500D03*
X45500D03*
Y89900D03*
X43400Y101700D03*
X46500Y102500D03*
X45500D03*
X43500Y97000D03*
X43400Y106500D03*
X41250Y109000D03*
X45000D03*
Y105000D03*
X47650Y7100D03*
Y8100D03*
Y9100D03*
X51000Y7250D03*
X49000Y9000D03*
X51000D03*
X49000Y7250D03*
X49900Y16650D03*
X47650Y10100D03*
X49000Y10750D03*
X53000Y9750D03*
X51875Y10750D03*
X53000D03*
X50750Y11875D03*
X51875D03*
X49625Y13000D03*
X50750D03*
X49625Y14125D03*
X52300Y19300D03*
X52700Y23400D03*
X51300Y23900D03*
X48700Y17300D03*
X50100Y18400D03*
Y19800D03*
X48900Y21900D03*
X51300Y21800D03*
X48400Y25400D03*
X48900Y27000D03*
X51350D03*
X53750D03*
X48900Y29750D03*
X51350D03*
X53750D03*
X48900Y32000D03*
X51350D03*
X53750D03*
X49100Y34650D03*
X51000Y34500D03*
X53750Y33700D03*
X52300Y35550D03*
X54000Y36550D03*
X47950Y42100D03*
X52200Y39200D03*
X51000Y38900D03*
X47250Y40250D03*
X47800Y45500D03*
X54000Y39600D03*
X49100Y38950D03*
X48000Y43800D03*
X47600Y47200D03*
X50600Y51650D03*
X49750Y49750D03*
X47600Y48900D03*
X47200Y50700D03*
X52300Y51600D03*
X54000Y51850D03*
X50600Y55050D03*
Y56300D03*
X49450Y57450D03*
X52300Y55050D03*
Y57700D03*
X50450Y59600D03*
X54000Y59200D03*
Y55150D03*
Y57100D03*
X47000Y59750D03*
X52750Y60450D03*
X47250Y61900D03*
X51300D03*
X54050Y62350D03*
X47250Y64150D03*
X49450D03*
X52350Y64050D03*
X47250Y66350D03*
X50400D03*
X53350Y66250D03*
X47250Y68500D03*
X50400D03*
X54000D03*
X50500Y71000D03*
X52900Y81050D03*
X52500Y75000D03*
X49000Y75700D03*
X51000D03*
X49000Y77500D03*
X51000D03*
X52400Y83900D03*
X53900D03*
X52750Y86500D03*
X48000Y82400D03*
X47100Y88300D03*
X49000Y94400D03*
X51750Y88750D03*
X48500Y90000D03*
X53500D03*
X51250Y92250D03*
X52750D03*
X47500Y94500D03*
X47100Y89900D03*
X47500Y102500D03*
X53500Y96500D03*
X49200Y106600D03*
X52500Y106500D03*
X49000Y109000D03*
X52500D03*
X59030Y7250D03*
Y8550D03*
X55800Y14900D03*
Y16650D03*
X57600Y10000D03*
X56400Y11200D03*
X59900Y10800D03*
X58500Y12500D03*
X55800Y13300D03*
X60950Y13450D03*
X58100Y14500D03*
X59380D03*
X60380D03*
X55700Y22300D03*
X59600Y23300D03*
X58100Y16950D03*
X56000Y18100D03*
X54700Y19300D03*
X57150Y19250D03*
X57300Y21850D03*
X54200Y21900D03*
X56250Y21150D03*
Y20150D03*
X57600Y31000D03*
X58200Y24100D03*
X56250Y27000D03*
X58300D03*
X60300Y26300D03*
X56000Y29750D03*
Y32000D03*
X55950Y34000D03*
X55700Y36550D03*
X57300Y36750D03*
X60400Y36800D03*
X57300Y40100D03*
X60400Y38600D03*
X60700Y45400D03*
X55700Y39900D03*
X60800Y47200D03*
X55700Y51750D03*
X59400Y49400D03*
X58150Y50250D03*
X59600Y52800D03*
X57400Y51750D03*
X60100Y58550D03*
Y59850D03*
X55700Y59200D03*
Y55050D03*
Y57100D03*
X57400Y59200D03*
Y55050D03*
Y57100D03*
X59350Y61300D03*
X55250Y64350D03*
X59250Y63500D03*
X61000Y65000D03*
X56500Y66250D03*
X55700Y60700D03*
X57400Y62100D03*
X58000Y68000D03*
X55000Y71000D03*
X60000Y72000D03*
X54500Y79000D03*
X58000D03*
X57000Y75000D03*
X55250Y85000D03*
X56750D03*
X58250D03*
X59750Y84750D03*
X61250D03*
X54600Y86500D03*
X59000Y86000D03*
X54600Y88500D03*
X59000Y93500D03*
X55500Y92000D03*
X57000Y93500D03*
X55900Y101700D03*
X58500Y102000D03*
X56000Y98000D03*
X60000Y97800D03*
X61000Y102500D03*
X60000D03*
X58000Y97800D03*
X55900Y106500D03*
X56000Y109000D03*
X60000D03*
X57500Y105000D03*
X61000Y106500D03*
Y105500D03*
Y104500D03*
Y103500D03*
X60000Y106500D03*
Y105500D03*
Y104500D03*
Y103500D03*
X64100Y16300D03*
X61450Y15400D03*
X62300Y11600D03*
X64000Y11500D03*
Y10500D03*
Y13750D03*
X66000Y14500D03*
X62700Y23400D03*
X64000D03*
X66000D03*
Y17500D03*
X64000Y18700D03*
Y21100D03*
X66000D03*
X61700Y18700D03*
Y21100D03*
X68000Y26300D03*
X64300Y29500D03*
X63900Y26300D03*
X62100Y28300D03*
X66000Y28500D03*
X62100Y27000D03*
X62000Y35800D03*
X64800Y31900D03*
X64500Y34700D03*
Y39300D03*
X66250Y44300D03*
X61850D03*
X61500Y52000D03*
X64200Y45800D03*
X64000Y47200D03*
X68000Y46200D03*
X66200Y49000D03*
X65100D03*
X62900Y52100D03*
X62800Y49300D03*
X61500Y53100D03*
X64150Y54550D03*
X67500Y54700D03*
X62200Y58200D03*
X63600D03*
X64500Y61500D03*
X67000Y65000D03*
X67500Y67100D03*
X64000Y68000D03*
X67500Y68100D03*
X67100Y70400D03*
X64700Y71400D03*
X67200Y77000D03*
X68000Y81500D03*
X61500Y77000D03*
X62700Y74400D03*
X62000Y83300D03*
X64550Y84450D03*
X65600Y83450D03*
X67300Y83650D03*
X66950Y85200D03*
X67750Y87000D03*
X67000Y88000D03*
X66250Y87000D03*
X61900Y87400D03*
X63500Y91500D03*
X65400Y91400D03*
X67000D03*
X62000Y93500D03*
X65400Y93200D03*
X67000D03*
X65500Y95000D03*
X67750Y89000D03*
X66250D03*
X65500Y101500D03*
X63000Y96000D03*
X62000Y98000D03*
Y102500D03*
X63000D03*
X65000Y108500D03*
X65200Y103800D03*
X62000Y103500D03*
X63000D03*
X70000Y14500D03*
X74500D03*
X72700Y23400D03*
X69400D03*
X70000Y17500D03*
X74500D03*
X70000Y21100D03*
X74400D03*
X69500Y26300D03*
X72000Y31100D03*
Y26400D03*
Y29300D03*
X75500Y28875D03*
Y30125D03*
Y35000D03*
Y36500D03*
X73500Y34500D03*
X73900Y32600D03*
X72900Y45500D03*
X72500Y38500D03*
X70400Y42800D03*
X72500Y44000D03*
X68800Y41000D03*
X69200Y52800D03*
X73000Y48500D03*
Y51500D03*
X69200Y48050D03*
X72800Y53950D03*
X69000Y57000D03*
X72300Y64600D03*
Y60500D03*
X73500D03*
X72300Y61900D03*
X73500D03*
X72300Y63300D03*
X73500D03*
Y64600D03*
X70700Y61600D03*
Y64300D03*
X70500Y67100D03*
X73500Y66000D03*
X68800Y63100D03*
X68500Y67100D03*
X69500D03*
X70500Y68100D03*
X73500Y68600D03*
X68500Y68100D03*
X69500D03*
Y73000D03*
X74300Y77050D03*
X70500Y81500D03*
X74900Y80900D03*
X69500Y78000D03*
X68500Y84700D03*
X74000Y83000D03*
X71800Y89500D03*
X70100Y91400D03*
X75000Y93000D03*
X68800Y91400D03*
X68500Y93200D03*
X70000Y106000D03*
X75500Y104500D03*
X78700Y16000D03*
X82000Y16200D03*
X80000Y17100D03*
X79000Y21400D03*
X76625Y30125D03*
X77750D03*
X78875D03*
Y28875D03*
X77750D03*
X76625D03*
X78500Y35000D03*
X80000D03*
X81500D03*
X78500Y36500D03*
X80000D03*
X81500D03*
X77000Y35000D03*
Y36500D03*
X81700Y45350D03*
X77500Y38500D03*
X80000Y40000D03*
X77000Y43500D03*
X80000D03*
X82000Y47800D03*
X77000Y47000D03*
Y51000D03*
X80200Y50600D03*
X79500Y53400D03*
X82600Y57200D03*
X81700Y53400D03*
X82500Y68000D03*
Y69000D03*
X80500Y68000D03*
X81500D03*
X80500Y69000D03*
X81500D03*
X80500Y70000D03*
X81500D03*
X82500D03*
X81500Y72500D03*
Y74250D03*
X76600Y74150D03*
X82500Y79300D03*
X82200Y84500D03*
X78500Y87000D03*
X79900D03*
X78600Y88500D03*
X79700D03*
X77200Y84500D03*
X77600Y82900D03*
X79800D03*
X77400Y92500D03*
X79700D03*
X77400Y93800D03*
X78600D03*
X79700D03*
X78600Y92500D03*
X80400Y89300D03*
Y90500D03*
X82400Y89600D03*
X77500Y99000D03*
X78500D03*
X79500D03*
X80500D03*
X81500D03*
X82500D03*
X77500Y96000D03*
X81000D03*
X77500Y98000D03*
X78500D03*
X79500D03*
X80500D03*
X81500D03*
X82500D03*
X84500Y16000D03*
X87000Y14500D03*
X83000Y16200D03*
X86400Y17600D03*
X86500Y21000D03*
X84500Y19500D03*
X86000Y28500D03*
X83000Y35000D03*
Y36500D03*
X84000Y37500D03*
X85000Y33500D03*
X87100Y32300D03*
X87500Y40000D03*
X88000Y43500D03*
X85000Y44000D03*
X84000Y41000D03*
X86800Y46000D03*
X85500Y48300D03*
X87400D03*
Y51300D03*
X83500Y48000D03*
X87400Y52800D03*
X85500Y55500D03*
X85400Y54100D03*
X83900Y57200D03*
X85000Y69500D03*
X88000D03*
X86000Y71000D03*
Y77500D03*
Y87000D03*
Y82000D03*
Y91500D03*
X85000Y99000D03*
X87250Y100000D03*
X83500Y99000D03*
Y98000D03*
X84500Y108500D03*
X87250Y105500D03*
X92500Y14500D03*
X95500D03*
X90000D03*
X95500Y23500D03*
Y17000D03*
Y19000D03*
X92900Y21000D03*
X92000Y17000D03*
X90500Y19000D03*
X90000Y21500D03*
X95500Y30000D03*
X92600Y25100D03*
X95500Y37500D03*
X90500D03*
X95500Y33500D03*
X90000D03*
X91000Y32300D03*
X95500Y41000D03*
X94000Y42000D03*
X95500Y45000D03*
X90500Y41000D03*
X91500Y45000D03*
X93500Y46500D03*
X95500Y48500D03*
X93500Y50500D03*
X95500Y52500D03*
X91500Y48500D03*
Y52500D03*
X95500Y55250D03*
X93250Y57000D03*
X94500D03*
X93250Y58250D03*
X94500D03*
X95500Y59750D03*
X91500Y55500D03*
X90750Y57000D03*
X92000D03*
X90750Y58250D03*
X92000D03*
X95500Y62000D03*
Y64500D03*
Y67000D03*
X94500Y65250D03*
X93250D03*
X92000D03*
X94500Y64250D03*
X93250D03*
X92000D03*
X90750Y65250D03*
Y64250D03*
X92500Y69500D03*
X93750D03*
X95500Y70000D03*
X92500Y71000D03*
X93750D03*
X95500Y72500D03*
X90000Y69500D03*
X91250D03*
X90000Y71000D03*
X91250D03*
X95500Y76500D03*
X90000D03*
X95500Y87000D03*
X90000D03*
X95500Y82000D03*
X90000D03*
X95500Y92000D03*
X90000Y92500D03*
X93000Y100000D03*
X95500Y102500D03*
X90000D03*
X95500Y97500D03*
X90000D03*
X95500Y109000D03*
X90000D03*
X93000Y105500D03*
G54D13*
X14267Y19947D02*
X14395Y19938D01*
X14520Y19907D01*
X14637Y19855D01*
X14744Y19783D01*
X14836Y19694D01*
X14912Y19590D01*
X14968Y19474D01*
X15004Y19351D01*
X15017Y19223D01*
X15008Y19095D01*
X14977Y18970D01*
X14925Y18853D01*
X14853Y18746D01*
X14764Y18654D01*
X14660Y18578D01*
X14544Y18522D01*
X14421Y18486D01*
X14293Y18473D01*
X14165Y18482D01*
X14040Y18513D01*
X13922Y18565D01*
X13816Y18637D01*
X13724Y18727D01*
X13648Y18830D01*
X13592Y18946D01*
X13556Y19070D01*
X13543Y19197D01*
X13552Y19326D01*
X13553Y19332D01*
X13628Y19555D01*
X13707Y19674D01*
X13796Y19767D01*
X13900Y19842D01*
X14016Y19898D01*
X14139Y19934D01*
X14267Y19947D01*
G54D14*
X13556Y19197D02*
X15003D01*
X13557Y19223D02*
X15004D01*
X13565Y19328D02*
X14993D01*
X13568Y19336D02*
X14993D01*
X13567Y19093D02*
X14995D01*
X13574Y19353D02*
X14990D01*
X13570Y19067D02*
X14989D01*
X13616Y19479D02*
X14952D01*
X13599Y18966D02*
X14962D01*
X13608Y18941D02*
X14951D01*
X13647Y19560D02*
X14913D01*
X13671Y19596D02*
X14892D01*
X13654Y18846D02*
X14906D01*
X13668Y18824D02*
X14890D01*
X13732Y19682D02*
X14830D01*
X13751Y19702D02*
X14810D01*
X13730Y18738D02*
X14828D01*
X13750Y18718D02*
X14809D01*
X13831Y19776D02*
X14732D01*
X13854Y19793D02*
X14707D01*
X13828Y18644D02*
X14729D01*
X13853Y18627D02*
X14706D01*
X13951Y19853D02*
X14611D01*
X13978Y19866D02*
X14582D01*
X13949Y18567D02*
X14609D01*
X13978Y18554D02*
X14582D01*
X14102Y19910D02*
X14457D01*
X14133Y19919D02*
X14421D01*
X14103Y18510D02*
X14458D01*
X14139Y18501D02*
X14427D01*
X13564Y19118D02*
X14997D01*
X13561Y19145D02*
X14999D01*
X13558Y19172D02*
X15001D01*
X13566Y19095D02*
X13556Y19198D01*
X15003Y19199D02*
X14995Y19097D01*
X13556Y19198D02*
X13557Y19221D01*
X15004Y19223D02*
X15003Y19199D01*
X13559Y19248D02*
X15002D01*
X13561Y19275D02*
X14999D01*
X13563Y19302D02*
X14996D01*
X13557Y19221D02*
X13564Y19324D01*
X14994Y19325D02*
X15004Y19223D01*
X13564Y19324D02*
X13566Y19328D01*
X14993Y19333D02*
X14994Y19325D01*
X13569Y19072D02*
X13566Y19095D01*
X14995Y19097D02*
X14990Y19073D01*
X13566Y19328D02*
X13571Y19345D01*
X14991Y19348D02*
X14993Y19333D01*
X13592Y18991D02*
X14969D01*
X13585Y19016D02*
X14975D01*
X13578Y19042D02*
X14982D01*
X13597Y18973D02*
X13569Y19072D01*
X14990Y19073D02*
X14965Y18974D01*
X13583Y19378D02*
X14982D01*
X13595Y19416D02*
X14972D01*
X13608Y19453D02*
X14961D01*
X13571Y19345D02*
X13614Y19471D01*
X14956Y19470D02*
X14991Y19348D01*
X13604Y18951D02*
X13597Y18973D01*
X14965Y18974D02*
X14955Y18952D01*
X13642Y18872D02*
X14919D01*
X13620Y18916D02*
X14939D01*
X13649Y18858D02*
X13604Y18951D01*
X14955Y18952D02*
X14914Y18859D01*
X13625Y19504D02*
X14939D01*
X13635Y19535D02*
X14924D01*
X13614Y19471D02*
X13640Y19549D01*
X14917Y19549D02*
X14956Y19470D01*
X13640Y19549D02*
X13662Y19582D01*
X14901Y19583D02*
X14917Y19549D01*
X13659Y18837D02*
X13649Y18858D01*
X14914Y18859D02*
X14900Y18838D01*
X13712Y18763D02*
X14849D01*
X13687Y18799D02*
X14873D01*
X13720Y18753D02*
X13659Y18837D01*
X14900Y18838D02*
X14843Y18754D01*
X13688Y19622D02*
X14873D01*
X13711Y19657D02*
X14848D01*
X13662Y19582D02*
X13717Y19666D01*
X14840Y19667D02*
X14901Y19583D01*
X13717Y19666D02*
X13735Y19684D01*
X14827Y19685D02*
X14840Y19667D01*
X13733Y18735D02*
X13720Y18753D01*
X14843Y18754D02*
X14825Y18736D01*
X13801Y18669D02*
X14761D01*
X13777Y18693D02*
X14784D01*
X13808Y18662D02*
X13733Y18735D01*
X14825Y18736D02*
X14755Y18663D01*
X13776Y19727D02*
X14783D01*
X13799Y19751D02*
X14759D01*
X13735Y19684D02*
X13805Y19757D01*
X14752Y19758D02*
X14827Y19685D01*
X13805Y19757D02*
X13826Y19772D01*
X14736Y19773D02*
X14752Y19758D01*
X13824Y18647D02*
X13808Y18662D01*
X14755Y18663D02*
X14734Y18648D01*
X13905Y18593D02*
X14658D01*
X13891Y18602D02*
X14671D01*
X13911Y18588D02*
X13824Y18647D01*
X14734Y18648D02*
X14653Y18589D01*
X13889Y19818D02*
X14669D01*
X13902Y19828D02*
X14655D01*
X13826Y19772D02*
X13907Y19831D01*
X14649Y19832D02*
X14736Y19773D01*
X13907Y19831D02*
X13932Y19843D01*
X14631Y19844D02*
X14649Y19832D01*
X13929Y18577D02*
X13911Y18588D01*
X14653Y18589D02*
X14628Y18577D01*
X14028Y18532D02*
X14536D01*
X14026Y18533D02*
X13929Y18577D01*
X14628Y18577D02*
X14540Y18534D01*
X14024Y19888D02*
X14531D01*
X13932Y19843D02*
X14020Y19886D01*
X14534Y19887D02*
X14631Y19844D01*
X14020Y19886D02*
X14049Y19895D01*
X14516Y19895D02*
X14534Y19887D01*
X14044Y18525D02*
X14026Y18533D01*
X14540Y18534D02*
X14511Y18525D01*
X14151Y18499D02*
X14044Y18525D01*
X14511Y18525D02*
X14418Y18499D01*
X14049Y19895D02*
X14142Y19921D01*
X14409Y19922D02*
X14516Y19895D01*
X14142Y19921D02*
X14183Y19926D01*
X14393Y19926D02*
X14409Y19922D01*
X14167Y18495D02*
X14151Y18499D01*
X14418Y18499D02*
X14377Y18495D01*
X14293Y18486D02*
X14167Y18495D01*
X14377Y18495D02*
X14293Y18486D01*
X14183Y19926D02*
X14267Y19934D01*
X14393Y19926D01*
G54D13*
X14267Y37347D02*
X14395Y37338D01*
X14520Y37307D01*
X14637Y37255D01*
X14744Y37183D01*
X14836Y37094D01*
X14912Y36990D01*
X14968Y36874D01*
X15004Y36751D01*
X15017Y36623D01*
X15008Y36495D01*
X14977Y36370D01*
X14925Y36253D01*
X14853Y36146D01*
X14764Y36054D01*
X14660Y35978D01*
X14544Y35922D01*
X14421Y35886D01*
X14293Y35873D01*
X14165Y35882D01*
X14040Y35913D01*
X13922Y35965D01*
X13816Y36037D01*
X13724Y36127D01*
X13648Y36230D01*
X13592Y36346D01*
X13556Y36470D01*
X13543Y36597D01*
X13552Y36726D01*
X13553Y36732D01*
X13628Y36955D01*
X13707Y37074D01*
X13796Y37167D01*
X13900Y37242D01*
X14016Y37298D01*
X14139Y37334D01*
X14267Y37347D01*
G54D14*
X13556Y36597D02*
X15003D01*
X13557Y36623D02*
X15004D01*
X13565Y36728D02*
X14993D01*
X13568Y36736D02*
X14993D01*
X13567Y36493D02*
X14995D01*
X13574Y36753D02*
X14990D01*
X13570Y36467D02*
X14989D01*
X13616Y36879D02*
X14952D01*
X13599Y36366D02*
X14962D01*
X13608Y36341D02*
X14951D01*
X13647Y36960D02*
X14913D01*
X13671Y36996D02*
X14892D01*
X13654Y36246D02*
X14906D01*
X13668Y36224D02*
X14890D01*
X13732Y37082D02*
X14830D01*
X13751Y37102D02*
X14810D01*
X13730Y36138D02*
X14828D01*
X13750Y36118D02*
X14809D01*
X13831Y37176D02*
X14732D01*
X13854Y37193D02*
X14707D01*
X13828Y36044D02*
X14729D01*
X13853Y36027D02*
X14706D01*
X13951Y37253D02*
X14611D01*
X13978Y37266D02*
X14582D01*
X13949Y35967D02*
X14609D01*
X13978Y35954D02*
X14582D01*
X14102Y37310D02*
X14457D01*
X14133Y37319D02*
X14421D01*
X14103Y35910D02*
X14458D01*
X14139Y35901D02*
X14427D01*
X13564Y36518D02*
X14997D01*
X13561Y36545D02*
X14999D01*
X13558Y36572D02*
X15001D01*
X13566Y36495D02*
X13556Y36598D01*
X15003Y36599D02*
X14995Y36497D01*
X13556Y36598D02*
X13557Y36621D01*
X15004Y36623D02*
X15003Y36599D01*
X13559Y36648D02*
X15002D01*
X13561Y36675D02*
X14999D01*
X13563Y36702D02*
X14996D01*
X13557Y36621D02*
X13564Y36724D01*
X14994Y36725D02*
X15004Y36623D01*
X13564Y36724D02*
X13566Y36728D01*
X14993Y36733D02*
X14994Y36725D01*
X13569Y36472D02*
X13566Y36495D01*
X14995Y36497D02*
X14990Y36473D01*
X13566Y36728D02*
X13571Y36745D01*
X14991Y36748D02*
X14993Y36733D01*
X13592Y36391D02*
X14969D01*
X13585Y36416D02*
X14975D01*
X13578Y36442D02*
X14982D01*
X13597Y36373D02*
X13569Y36472D01*
X14990Y36473D02*
X14965Y36374D01*
X13583Y36778D02*
X14982D01*
X13595Y36816D02*
X14972D01*
X13608Y36853D02*
X14961D01*
X13571Y36745D02*
X13614Y36871D01*
X14956Y36870D02*
X14991Y36748D01*
X13604Y36351D02*
X13597Y36373D01*
X14965Y36374D02*
X14955Y36352D01*
X13642Y36272D02*
X14919D01*
X13620Y36316D02*
X14939D01*
X13649Y36258D02*
X13604Y36351D01*
X14955Y36352D02*
X14914Y36259D01*
X13625Y36904D02*
X14939D01*
X13635Y36935D02*
X14924D01*
X13614Y36871D02*
X13640Y36949D01*
X14917Y36949D02*
X14956Y36870D01*
X13640Y36949D02*
X13662Y36982D01*
X14901Y36983D02*
X14917Y36949D01*
X13659Y36237D02*
X13649Y36258D01*
X14914Y36259D02*
X14900Y36238D01*
X13712Y36163D02*
X14849D01*
X13687Y36199D02*
X14873D01*
X13720Y36153D02*
X13659Y36237D01*
X14900Y36238D02*
X14843Y36154D01*
X13688Y37022D02*
X14873D01*
X13711Y37057D02*
X14848D01*
X13662Y36982D02*
X13717Y37066D01*
X14840Y37067D02*
X14901Y36983D01*
X13717Y37066D02*
X13735Y37084D01*
X14827Y37085D02*
X14840Y37067D01*
X13733Y36135D02*
X13720Y36153D01*
X14843Y36154D02*
X14825Y36136D01*
X13801Y36069D02*
X14761D01*
X13777Y36093D02*
X14784D01*
X13808Y36062D02*
X13733Y36135D01*
X14825Y36136D02*
X14755Y36063D01*
X13776Y37127D02*
X14783D01*
X13799Y37151D02*
X14759D01*
X13735Y37084D02*
X13805Y37157D01*
X14752Y37158D02*
X14827Y37085D01*
X13805Y37157D02*
X13826Y37172D01*
X14736Y37173D02*
X14752Y37158D01*
X13824Y36047D02*
X13808Y36062D01*
X14755Y36063D02*
X14734Y36048D01*
X13905Y35993D02*
X14658D01*
X13891Y36002D02*
X14671D01*
X13911Y35988D02*
X13824Y36047D01*
X14734Y36048D02*
X14653Y35989D01*
X13889Y37218D02*
X14669D01*
X13902Y37228D02*
X14655D01*
X13826Y37172D02*
X13907Y37231D01*
X14649Y37232D02*
X14736Y37173D01*
X13907Y37231D02*
X13932Y37243D01*
X14631Y37244D02*
X14649Y37232D01*
X13929Y35977D02*
X13911Y35988D01*
X14653Y35989D02*
X14628Y35977D01*
X14028Y35932D02*
X14536D01*
X14026Y35933D02*
X13929Y35977D01*
X14628Y35977D02*
X14540Y35934D01*
X14024Y37288D02*
X14531D01*
X13932Y37243D02*
X14020Y37286D01*
X14534Y37287D02*
X14631Y37244D01*
X14020Y37286D02*
X14049Y37295D01*
X14516Y37295D02*
X14534Y37287D01*
X14044Y35925D02*
X14026Y35933D01*
X14540Y35934D02*
X14511Y35925D01*
X14151Y35899D02*
X14044Y35925D01*
X14511Y35925D02*
X14418Y35899D01*
X14049Y37295D02*
X14142Y37321D01*
X14409Y37322D02*
X14516Y37295D01*
X14142Y37321D02*
X14183Y37326D01*
X14393Y37326D02*
X14409Y37322D01*
X14167Y35895D02*
X14151Y35899D01*
X14418Y35899D02*
X14377Y35895D01*
X14293Y35886D02*
X14167Y35895D01*
X14377Y35895D02*
X14293Y35886D01*
X14183Y37326D02*
X14267Y37334D01*
X14393Y37326D01*
G54D13*
X14267Y54747D02*
X14395Y54738D01*
X14520Y54707D01*
X14637Y54655D01*
X14744Y54583D01*
X14836Y54494D01*
X14912Y54390D01*
X14968Y54274D01*
X15004Y54151D01*
X15017Y54023D01*
X15008Y53895D01*
X14977Y53770D01*
X14925Y53653D01*
X14853Y53546D01*
X14764Y53454D01*
X14660Y53378D01*
X14544Y53322D01*
X14421Y53286D01*
X14293Y53273D01*
X14165Y53282D01*
X14040Y53313D01*
X13922Y53365D01*
X13816Y53437D01*
X13724Y53527D01*
X13648Y53630D01*
X13592Y53746D01*
X13556Y53870D01*
X13543Y53997D01*
X13552Y54126D01*
X13553Y54132D01*
X13628Y54355D01*
X13707Y54474D01*
X13796Y54567D01*
X13900Y54642D01*
X14016Y54698D01*
X14139Y54734D01*
X14267Y54747D01*
G54D14*
X13556Y53997D02*
X15003D01*
X13557Y54023D02*
X15004D01*
X13565Y54128D02*
X14993D01*
X13568Y54136D02*
X14993D01*
X13567Y53893D02*
X14995D01*
X13574Y54153D02*
X14990D01*
X13570Y53867D02*
X14989D01*
X13616Y54279D02*
X14952D01*
X13599Y53766D02*
X14962D01*
X13608Y53741D02*
X14951D01*
X13647Y54360D02*
X14913D01*
X13671Y54396D02*
X14892D01*
X13654Y53646D02*
X14906D01*
X13668Y53624D02*
X14890D01*
X13732Y54482D02*
X14830D01*
X13751Y54502D02*
X14810D01*
X13730Y53538D02*
X14828D01*
X13750Y53518D02*
X14809D01*
X13831Y54576D02*
X14732D01*
X13854Y54593D02*
X14707D01*
X13828Y53444D02*
X14729D01*
X13853Y53427D02*
X14706D01*
X13951Y54653D02*
X14611D01*
X13978Y54666D02*
X14582D01*
X13949Y53367D02*
X14609D01*
X13978Y53354D02*
X14582D01*
X14102Y54710D02*
X14457D01*
X14133Y54719D02*
X14421D01*
X14103Y53310D02*
X14458D01*
X14139Y53301D02*
X14427D01*
X13564Y53918D02*
X14997D01*
X13561Y53945D02*
X14999D01*
X13558Y53972D02*
X15001D01*
X13566Y53895D02*
X13556Y53998D01*
X15003Y53999D02*
X14995Y53897D01*
X13556Y53998D02*
X13557Y54021D01*
X15004Y54023D02*
X15003Y53999D01*
X13559Y54048D02*
X15002D01*
X13561Y54075D02*
X14999D01*
X13563Y54102D02*
X14996D01*
X13557Y54021D02*
X13564Y54124D01*
X14994Y54125D02*
X15004Y54023D01*
X13564Y54124D02*
X13566Y54128D01*
X14993Y54133D02*
X14994Y54125D01*
X13569Y53872D02*
X13566Y53895D01*
X14995Y53897D02*
X14990Y53873D01*
X13566Y54128D02*
X13571Y54145D01*
X14991Y54148D02*
X14993Y54133D01*
X13592Y53791D02*
X14969D01*
X13585Y53816D02*
X14975D01*
X13578Y53842D02*
X14982D01*
X13597Y53773D02*
X13569Y53872D01*
X14990Y53873D02*
X14965Y53774D01*
X13583Y54178D02*
X14982D01*
X13595Y54216D02*
X14972D01*
X13608Y54253D02*
X14961D01*
X13571Y54145D02*
X13614Y54271D01*
X14956Y54270D02*
X14991Y54148D01*
X13604Y53751D02*
X13597Y53773D01*
X14965Y53774D02*
X14955Y53752D01*
X13642Y53672D02*
X14919D01*
X13620Y53716D02*
X14939D01*
X13649Y53658D02*
X13604Y53751D01*
X14955Y53752D02*
X14914Y53659D01*
X13625Y54304D02*
X14939D01*
X13635Y54335D02*
X14924D01*
X13614Y54271D02*
X13640Y54349D01*
X14917Y54349D02*
X14956Y54270D01*
X13640Y54349D02*
X13662Y54382D01*
X14901Y54383D02*
X14917Y54349D01*
X13659Y53637D02*
X13649Y53658D01*
X14914Y53659D02*
X14900Y53638D01*
X13712Y53563D02*
X14849D01*
X13687Y53599D02*
X14873D01*
X13720Y53553D02*
X13659Y53637D01*
X14900Y53638D02*
X14843Y53554D01*
X13688Y54422D02*
X14873D01*
X13711Y54457D02*
X14848D01*
X13662Y54382D02*
X13717Y54466D01*
X14840Y54467D02*
X14901Y54383D01*
X13717Y54466D02*
X13735Y54484D01*
X14827Y54485D02*
X14840Y54467D01*
X13733Y53535D02*
X13720Y53553D01*
X14843Y53554D02*
X14825Y53536D01*
X13801Y53469D02*
X14761D01*
X13777Y53493D02*
X14784D01*
X13808Y53462D02*
X13733Y53535D01*
X14825Y53536D02*
X14755Y53463D01*
X13776Y54527D02*
X14783D01*
X13799Y54551D02*
X14759D01*
X13735Y54484D02*
X13805Y54557D01*
X14752Y54558D02*
X14827Y54485D01*
X13805Y54557D02*
X13826Y54572D01*
X14736Y54573D02*
X14752Y54558D01*
X13824Y53447D02*
X13808Y53462D01*
X14755Y53463D02*
X14734Y53448D01*
X13905Y53393D02*
X14658D01*
X13891Y53402D02*
X14671D01*
X13911Y53388D02*
X13824Y53447D01*
X14734Y53448D02*
X14653Y53389D01*
X13889Y54618D02*
X14669D01*
X13902Y54628D02*
X14655D01*
X13826Y54572D02*
X13907Y54631D01*
X14649Y54632D02*
X14736Y54573D01*
X13907Y54631D02*
X13932Y54643D01*
X14631Y54644D02*
X14649Y54632D01*
X13929Y53377D02*
X13911Y53388D01*
X14653Y53389D02*
X14628Y53377D01*
X14028Y53332D02*
X14536D01*
X14026Y53333D02*
X13929Y53377D01*
X14628Y53377D02*
X14540Y53334D01*
X14024Y54688D02*
X14531D01*
X13932Y54643D02*
X14020Y54686D01*
X14534Y54687D02*
X14631Y54644D01*
X14020Y54686D02*
X14049Y54695D01*
X14516Y54695D02*
X14534Y54687D01*
X14044Y53325D02*
X14026Y53333D01*
X14540Y53334D02*
X14511Y53325D01*
X14151Y53299D02*
X14044Y53325D01*
X14511Y53325D02*
X14418Y53299D01*
X14049Y54695D02*
X14142Y54721D01*
X14409Y54722D02*
X14516Y54695D01*
X14142Y54721D02*
X14183Y54726D01*
X14393Y54726D02*
X14409Y54722D01*
X14167Y53295D02*
X14151Y53299D01*
X14418Y53299D02*
X14377Y53295D01*
X14293Y53286D02*
X14167Y53295D01*
X14377Y53295D02*
X14293Y53286D01*
X14183Y54726D02*
X14267Y54734D01*
X14393Y54726D01*
G54D13*
X14267Y72147D02*
X14395Y72138D01*
X14520Y72107D01*
X14637Y72055D01*
X14744Y71983D01*
X14836Y71894D01*
X14912Y71790D01*
X14968Y71674D01*
X15004Y71551D01*
X15017Y71423D01*
X15008Y71295D01*
X14977Y71170D01*
X14925Y71053D01*
X14853Y70946D01*
X14764Y70854D01*
X14660Y70778D01*
X14544Y70722D01*
X14421Y70686D01*
X14293Y70673D01*
X14165Y70682D01*
X14040Y70713D01*
X13922Y70765D01*
X13816Y70837D01*
X13724Y70927D01*
X13648Y71030D01*
X13592Y71146D01*
X13556Y71270D01*
X13543Y71397D01*
X13552Y71526D01*
X13553Y71532D01*
X13628Y71755D01*
X13707Y71874D01*
X13796Y71967D01*
X13900Y72042D01*
X14016Y72098D01*
X14139Y72134D01*
X14267Y72147D01*
G54D14*
X13556Y71397D02*
X15003D01*
X13557Y71423D02*
X15004D01*
X13565Y71527D02*
X14993D01*
X13568Y71536D02*
X14993D01*
X13567Y71293D02*
X14995D01*
X13574Y71553D02*
X14990D01*
X13570Y71267D02*
X14989D01*
X13616Y71679D02*
X14952D01*
X13599Y71166D02*
X14962D01*
X13608Y71141D02*
X14951D01*
X13647Y71760D02*
X14913D01*
X13671Y71796D02*
X14892D01*
X13654Y71046D02*
X14906D01*
X13668Y71024D02*
X14890D01*
X13732Y71882D02*
X14830D01*
X13751Y71902D02*
X14810D01*
X13730Y70938D02*
X14828D01*
X13750Y70918D02*
X14809D01*
X13831Y71976D02*
X14732D01*
X13854Y71993D02*
X14707D01*
X13828Y70844D02*
X14729D01*
X13853Y70827D02*
X14706D01*
X13951Y72053D02*
X14611D01*
X13978Y72066D02*
X14582D01*
X13949Y70767D02*
X14609D01*
X13978Y70754D02*
X14582D01*
X14102Y72110D02*
X14457D01*
X14133Y72119D02*
X14421D01*
X14103Y70710D02*
X14458D01*
X14139Y70701D02*
X14427D01*
X13564Y71318D02*
X14997D01*
X13561Y71345D02*
X14999D01*
X13558Y71372D02*
X15001D01*
X13566Y71295D02*
X13556Y71398D01*
X15003Y71399D02*
X14995Y71297D01*
X13556Y71398D02*
X13557Y71421D01*
X15004Y71423D02*
X15003Y71399D01*
X13559Y71448D02*
X15002D01*
X13561Y71475D02*
X14999D01*
X13563Y71502D02*
X14996D01*
X13557Y71421D02*
X13564Y71524D01*
X14994Y71525D02*
X15004Y71423D01*
X13564Y71524D02*
X13566Y71528D01*
X14993Y71533D02*
X14994Y71525D01*
X13569Y71272D02*
X13566Y71295D01*
X14995Y71297D02*
X14990Y71273D01*
X13566Y71528D02*
X13571Y71545D01*
X14991Y71548D02*
X14993Y71533D01*
X13592Y71191D02*
X14969D01*
X13585Y71216D02*
X14975D01*
X13578Y71242D02*
X14982D01*
X13597Y71173D02*
X13569Y71272D01*
X14990Y71273D02*
X14965Y71174D01*
X13583Y71578D02*
X14982D01*
X13595Y71616D02*
X14972D01*
X13608Y71653D02*
X14961D01*
X13571Y71545D02*
X13614Y71671D01*
X14956Y71670D02*
X14991Y71548D01*
X13604Y71151D02*
X13597Y71173D01*
X14965Y71174D02*
X14955Y71152D01*
X13642Y71072D02*
X14919D01*
X13620Y71116D02*
X14939D01*
X13649Y71058D02*
X13604Y71151D01*
X14955Y71152D02*
X14914Y71059D01*
X13625Y71704D02*
X14939D01*
X13635Y71735D02*
X14924D01*
X13614Y71671D02*
X13640Y71749D01*
X14917Y71749D02*
X14956Y71670D01*
X13640Y71749D02*
X13662Y71782D01*
X14901Y71783D02*
X14917Y71749D01*
X13659Y71037D02*
X13649Y71058D01*
X14914Y71059D02*
X14900Y71038D01*
X13712Y70963D02*
X14849D01*
X13687Y70999D02*
X14873D01*
X13720Y70953D02*
X13659Y71037D01*
X14900Y71038D02*
X14843Y70954D01*
X13688Y71822D02*
X14873D01*
X13711Y71857D02*
X14848D01*
X13662Y71782D02*
X13717Y71866D01*
X14840Y71867D02*
X14901Y71783D01*
X13717Y71866D02*
X13735Y71884D01*
X14827Y71885D02*
X14840Y71867D01*
X13733Y70935D02*
X13720Y70953D01*
X14843Y70954D02*
X14825Y70936D01*
X13801Y70869D02*
X14761D01*
X13777Y70893D02*
X14784D01*
X13808Y70862D02*
X13733Y70935D01*
X14825Y70936D02*
X14755Y70863D01*
X13776Y71927D02*
X14783D01*
X13799Y71951D02*
X14759D01*
X13735Y71884D02*
X13805Y71957D01*
X14752Y71958D02*
X14827Y71885D01*
X13805Y71957D02*
X13826Y71972D01*
X14736Y71973D02*
X14752Y71958D01*
X13824Y70847D02*
X13808Y70862D01*
X14755Y70863D02*
X14734Y70848D01*
X13905Y70793D02*
X14658D01*
X13891Y70802D02*
X14671D01*
X13911Y70788D02*
X13824Y70847D01*
X14734Y70848D02*
X14653Y70789D01*
X13889Y72018D02*
X14669D01*
X13902Y72028D02*
X14655D01*
X13826Y71972D02*
X13907Y72031D01*
X14649Y72032D02*
X14736Y71973D01*
X13907Y72031D02*
X13932Y72043D01*
X14631Y72044D02*
X14649Y72032D01*
X13929Y70777D02*
X13911Y70788D01*
X14653Y70789D02*
X14628Y70777D01*
X14028Y70732D02*
X14536D01*
X14026Y70733D02*
X13929Y70777D01*
X14628Y70777D02*
X14540Y70734D01*
X14024Y72088D02*
X14531D01*
X13932Y72043D02*
X14020Y72086D01*
X14534Y72087D02*
X14631Y72044D01*
X14020Y72086D02*
X14049Y72095D01*
X14516Y72095D02*
X14534Y72087D01*
X14044Y70725D02*
X14026Y70733D01*
X14540Y70734D02*
X14511Y70725D01*
X14151Y70699D02*
X14044Y70725D01*
X14511Y70725D02*
X14418Y70699D01*
X14049Y72095D02*
X14142Y72121D01*
X14409Y72122D02*
X14516Y72095D01*
X14142Y72121D02*
X14183Y72126D01*
X14393Y72126D02*
X14409Y72122D01*
X14167Y70695D02*
X14151Y70699D01*
X14418Y70699D02*
X14377Y70695D01*
X14293Y70686D02*
X14167Y70695D01*
X14377Y70695D02*
X14293Y70686D01*
X14183Y72126D02*
X14267Y72134D01*
X14393Y72126D01*
G54D15*
X1350Y31600D02*
X1450D01*
G54D16*
X1000Y32000D02*
X1800D01*
X1000Y31200D02*
X1800D01*
G54D15*
X3150Y31600D02*
X3250D01*
G54D16*
X2800Y32000D02*
X3600D01*
X2800Y31200D02*
X3600D01*
G54D15*
X1350Y49000D02*
X1450D01*
G54D16*
X1000Y49400D02*
X1800D01*
X1000Y48600D02*
X1800D01*
G54D15*
X3150Y49000D02*
X3250D01*
G54D16*
X2800Y49400D02*
X3600D01*
X2800Y48600D02*
X3600D01*
G54D15*
X1350Y66400D02*
X1450D01*
G54D16*
X1000Y66800D02*
X1800D01*
X1000Y66000D02*
X1800D01*
G54D15*
X3150Y66400D02*
X3250D01*
G54D16*
X2800Y66800D02*
X3600D01*
X2800Y66000D02*
X3600D01*
G54D15*
X1350Y83800D02*
X1450D01*
G54D16*
X1000Y84200D02*
X1800D01*
X1000Y83400D02*
X1800D01*
G54D15*
X3150Y83800D02*
X3250D01*
G54D16*
X2800Y84200D02*
X3600D01*
X2800Y83400D02*
X3600D01*
G54D15*
X14050Y32250D02*
X14150D01*
G54D16*
X13700Y32650D02*
X14500D01*
X13700Y31850D02*
X14500D01*
G54D15*
X15850Y32250D02*
X15950D01*
G54D16*
X15500Y32650D02*
X16300D01*
X15500Y31850D02*
X16300D01*
G54D15*
X14050Y49650D02*
X14150D01*
G54D16*
X13700Y50050D02*
X14500D01*
X13700Y49250D02*
X14500D01*
G54D15*
X15850Y49650D02*
X15950D01*
G54D16*
X15500Y50050D02*
X16300D01*
X15500Y49250D02*
X16300D01*
G54D15*
X13050Y84500D02*
X13150D01*
G54D16*
X12700Y84900D02*
X13500D01*
X12700Y84100D02*
X13500D01*
G54D15*
X14850Y84500D02*
X14950D01*
G54D16*
X14500Y84900D02*
X15300D01*
X14500Y84100D02*
X15300D01*
G54D15*
X16550Y105000D02*
X16650D01*
G54D16*
X16200Y105400D02*
X17000D01*
X16200Y104600D02*
X17000D01*
G54D15*
X18350Y105000D02*
X18450D01*
G54D16*
X18000Y105400D02*
X18800D01*
X18000Y104600D02*
X18800D01*
G54D15*
X29050Y105000D02*
X29150D01*
G54D16*
X28700Y105400D02*
X29500D01*
X28700Y104600D02*
X29500D01*
G54D15*
X30850Y105000D02*
X30950D01*
G54D16*
X30500Y105400D02*
X31300D01*
X30500Y104600D02*
X31300D01*
G54D15*
X41550Y105000D02*
X41650D01*
G54D16*
X41200Y105400D02*
X42000D01*
X41200Y104600D02*
X42000D01*
G54D15*
X43350Y105000D02*
X43450D01*
G54D16*
X43000Y105400D02*
X43800D01*
X43000Y104600D02*
X43800D01*
G54D15*
X54050Y105000D02*
X54150D01*
G54D16*
X53700Y105400D02*
X54500D01*
X53700Y104600D02*
X54500D01*
G54D15*
X55850Y105000D02*
X55950D01*
G54D16*
X55500Y105400D02*
X56300D01*
X55500Y104600D02*
X56300D01*
G54D15*
X61050Y29500D02*
X61150D01*
G54D16*
X60700Y29900D02*
X61500D01*
X60700Y29100D02*
X61500D01*
G54D15*
X62850Y29500D02*
X62950D01*
G54D16*
X62500Y29900D02*
X63300D01*
X62500Y29100D02*
X63300D01*
G54D15*
X81550Y43500D02*
X81650D01*
G54D16*
X81200Y43900D02*
X82000D01*
X81200Y43100D02*
X82000D01*
G54D15*
X89050Y23000D02*
X89150D01*
G54D16*
X88700Y23400D02*
X89500D01*
X88700Y22600D02*
X89500D01*
G54D15*
X83350Y43500D02*
X83450D01*
G54D16*
X83000Y43900D02*
X83800D01*
X83000Y43100D02*
X83800D01*
G54D15*
X83550Y46000D02*
X83650D01*
G54D16*
X83200Y46400D02*
X84000D01*
X83200Y45600D02*
X84000D01*
G54D15*
X85350Y46000D02*
X85450D01*
G54D16*
X85000Y46400D02*
X85800D01*
X85000Y45600D02*
X85800D01*
G54D15*
X90850Y23000D02*
X90950D01*
G54D16*
X90500Y23400D02*
X91300D01*
X90500Y22600D02*
X91300D01*
G54D17*
X24400Y20860D03*
Y21960D03*
Y38260D03*
Y39360D03*
Y55660D03*
Y56760D03*
Y73060D03*
Y74160D03*
X25400Y20860D03*
Y21960D03*
Y38260D03*
Y39360D03*
Y55660D03*
Y56760D03*
Y73060D03*
Y74160D03*
X45800Y43800D03*
X45700Y42100D03*
Y45500D03*
X46500Y48900D03*
X45500D03*
X46500Y47200D03*
X45500D03*
X46800Y43800D03*
X46700Y42100D03*
Y45500D03*
X60700Y49300D03*
X61700D03*
X61800Y45800D03*
X62800D03*
X61800Y47200D03*
X62800D03*
X67200Y48050D03*
X65000D03*
X66000D03*
X68200D03*
G54D18*
X18575Y18960D02*
X19050D01*
X18575Y19460D02*
X19050D01*
X18575Y20460D02*
X19050D01*
X18575Y20960D02*
X19050D01*
X19450D02*
X19926D01*
X19450Y20460D02*
X19926D01*
X19450Y19460D02*
X19926D01*
X19450Y18960D02*
X19926D01*
X18575Y36360D02*
X19050D01*
X18575Y36860D02*
X19050D01*
X18575Y37860D02*
X19050D01*
X19450D02*
X19926D01*
X19450Y36860D02*
X19926D01*
X19450Y36360D02*
X19926D01*
X18575Y38360D02*
X19050D01*
X19450D02*
X19926D01*
X18575Y53760D02*
X19050D01*
X18575Y54260D02*
X19050D01*
X18575Y55260D02*
X19050D01*
X18575Y55760D02*
X19050D01*
X19450D02*
X19926D01*
X19450Y55260D02*
X19926D01*
X19450Y54260D02*
X19926D01*
X19450Y53760D02*
X19926D01*
X18575Y71160D02*
X19050D01*
X18575Y71660D02*
X19050D01*
X18575Y72660D02*
X19050D01*
X18575Y73160D02*
X19050D01*
X19450D02*
X19926D01*
X19450Y72660D02*
X19926D01*
X19450Y71660D02*
X19926D01*
X19450Y71160D02*
X19926D01*
G54D13*
X12767Y20447D02*
X12895Y20438D01*
X13020Y20407D01*
X13138Y20355D01*
X13244Y20283D01*
X13336Y20193D01*
X13412Y20090D01*
X13468Y19974D01*
X13504Y19850D01*
X13517Y19723D01*
X13508Y19594D01*
X13507Y19588D01*
X13432Y19365D01*
X13353Y19246D01*
X13264Y19153D01*
X13160Y19078D01*
X13044Y19022D01*
X12921Y18986D01*
X12793Y18973D01*
X12665Y18982D01*
X12540Y19013D01*
X12423Y19065D01*
X12316Y19137D01*
X12224Y19226D01*
X12148Y19330D01*
X12092Y19446D01*
X12056Y19569D01*
X12043Y19697D01*
X12052Y19825D01*
X12083Y19950D01*
X12135Y20067D01*
X12207Y20174D01*
X12296Y20266D01*
X12400Y20342D01*
X12516Y20398D01*
X12639Y20434D01*
X12767Y20447D01*
G54D14*
X12057Y19723D02*
X13504D01*
X12056Y19697D02*
X13503D01*
X12065Y19827D02*
X13493D01*
X12071Y19853D02*
X13490D01*
X12067Y19593D02*
X13495D01*
X12067Y19585D02*
X13492D01*
X12070Y19567D02*
X13486D01*
X12098Y19954D02*
X13461D01*
X12109Y19979D02*
X13452D01*
X12108Y19441D02*
X13444D01*
X12154Y20074D02*
X13406D01*
X12147Y19360D02*
X13413D01*
X12170Y20096D02*
X13392D01*
X12168Y19324D02*
X13389D01*
X12232Y20182D02*
X13330D01*
X12251Y20202D02*
X13310D01*
X12230Y19238D02*
X13328D01*
X12250Y19218D02*
X13309D01*
X12331Y20276D02*
X13232D01*
X12354Y20293D02*
X13207D01*
X12328Y19144D02*
X13229D01*
X12353Y19127D02*
X13206D01*
X12451Y20353D02*
X13111D01*
X12478Y20366D02*
X13082D01*
X12449Y19067D02*
X13109D01*
X12478Y19054D02*
X13082D01*
X12602Y20410D02*
X12957D01*
X12633Y20419D02*
X12921D01*
X12603Y19010D02*
X12958D01*
X12639Y19001D02*
X12927D01*
X12056Y19697D02*
X12057Y19721D01*
X13504Y19722D02*
X13503Y19699D01*
X12064Y19618D02*
X13497D01*
X12061Y19645D02*
X13499D01*
X12058Y19672D02*
X13501D01*
X12066Y19595D02*
X12056Y19697D01*
X13503Y19699D02*
X13496Y19596D01*
X12059Y19748D02*
X13502D01*
X12061Y19775D02*
X13499D01*
X12063Y19802D02*
X13496D01*
X12057Y19721D02*
X12065Y19823D01*
X13494Y19825D02*
X13504Y19722D01*
X12065Y19823D02*
X12070Y19847D01*
X13491Y19848D02*
X13494Y19825D01*
X12067Y19587D02*
X12066Y19595D01*
X13496Y19596D02*
X13494Y19592D01*
X12069Y19572D02*
X12067Y19587D01*
X13494Y19592D02*
X13489Y19575D01*
X12099Y19467D02*
X13452D01*
X12088Y19504D02*
X13465D01*
X12078Y19542D02*
X13477D01*
X12104Y19450D02*
X12069Y19572D01*
X13489Y19575D02*
X13446Y19449D01*
X12078Y19878D02*
X13482D01*
X12085Y19904D02*
X13475D01*
X12091Y19929D02*
X13468D01*
X12070Y19847D02*
X12095Y19946D01*
X13463Y19947D02*
X13491Y19848D01*
X12095Y19946D02*
X12105Y19968D01*
X13456Y19969D02*
X13463Y19947D01*
X12136Y19385D02*
X13425D01*
X12121Y19416D02*
X13435D01*
X12143Y19371D02*
X12104Y19450D01*
X13446Y19449D02*
X13420Y19371D01*
X12121Y20004D02*
X13440D01*
X12141Y20048D02*
X13418D01*
X12105Y19968D02*
X12146Y20061D01*
X13411Y20062D02*
X13456Y19969D01*
X12159Y19337D02*
X12143Y19371D01*
X13420Y19371D02*
X13398Y19338D01*
X12146Y20061D02*
X12160Y20082D01*
X13401Y20083D02*
X13411Y20062D01*
X12212Y19263D02*
X13349D01*
X12187Y19298D02*
X13372D01*
X12220Y19253D02*
X12159Y19337D01*
X13398Y19338D02*
X13343Y19254D01*
X12187Y20121D02*
X13373D01*
X12211Y20157D02*
X13348D01*
X12160Y20082D02*
X12217Y20166D01*
X13340Y20167D02*
X13401Y20083D01*
X12217Y20166D02*
X12235Y20184D01*
X13327Y20185D02*
X13340Y20167D01*
X12233Y19235D02*
X12220Y19253D01*
X13343Y19254D02*
X13325Y19236D01*
X12301Y19169D02*
X13261D01*
X12277Y19193D02*
X13284D01*
X12308Y19162D02*
X12233Y19235D01*
X13325Y19236D02*
X13255Y19163D01*
X12276Y20227D02*
X13283D01*
X12299Y20251D02*
X13259D01*
X12235Y20184D02*
X12305Y20257D01*
X13252Y20258D02*
X13327Y20185D01*
X12305Y20257D02*
X12326Y20272D01*
X13236Y20273D02*
X13252Y20258D01*
X12324Y19147D02*
X12308Y19162D01*
X13255Y19163D02*
X13234Y19148D01*
X12405Y19092D02*
X13158D01*
X12391Y19102D02*
X13171D01*
X12411Y19088D02*
X12324Y19147D01*
X13234Y19148D02*
X13153Y19089D01*
X12389Y20318D02*
X13169D01*
X12402Y20327D02*
X13155D01*
X12326Y20272D02*
X12407Y20331D01*
X13149Y20332D02*
X13236Y20273D01*
X12407Y20331D02*
X12432Y20343D01*
X13131Y20343D02*
X13149Y20332D01*
X12429Y19076D02*
X12411Y19088D01*
X13153Y19089D02*
X13128Y19077D01*
X12529Y19032D02*
X13036D01*
X12526Y19033D02*
X12429Y19076D01*
X13128Y19077D02*
X13040Y19034D01*
X12524Y20388D02*
X13032D01*
X12432Y20343D02*
X12520Y20386D01*
X13034Y20387D02*
X13131Y20343D01*
X12520Y20386D02*
X12549Y20395D01*
X13016Y20395D02*
X13034Y20387D01*
X12544Y19025D02*
X12526Y19033D01*
X13040Y19034D02*
X13011Y19025D01*
X12651Y18998D02*
X12544Y19025D01*
X13011Y19025D02*
X12918Y18999D01*
X12549Y20395D02*
X12642Y20421D01*
X12909Y20421D02*
X13016Y20395D01*
X12642Y20421D02*
X12683Y20425D01*
X12893Y20425D02*
X12909Y20421D01*
X12667Y18994D02*
X12651Y18998D01*
X12918Y18999D02*
X12877Y18994D01*
X12793Y18986D02*
X12667Y18994D01*
X12877Y18994D02*
X12793Y18986D01*
X12683Y20425D02*
X12767Y20434D01*
X12893Y20425D01*
G54D13*
X12767Y37847D02*
X12895Y37838D01*
X13020Y37807D01*
X13138Y37755D01*
X13244Y37683D01*
X13336Y37593D01*
X13412Y37490D01*
X13468Y37374D01*
X13504Y37250D01*
X13517Y37123D01*
X13508Y36994D01*
X13507Y36988D01*
X13432Y36765D01*
X13353Y36646D01*
X13264Y36553D01*
X13160Y36478D01*
X13044Y36422D01*
X12921Y36386D01*
X12793Y36373D01*
X12665Y36382D01*
X12540Y36413D01*
X12423Y36465D01*
X12316Y36537D01*
X12224Y36626D01*
X12148Y36730D01*
X12092Y36846D01*
X12056Y36969D01*
X12043Y37097D01*
X12052Y37225D01*
X12083Y37350D01*
X12135Y37467D01*
X12207Y37574D01*
X12296Y37666D01*
X12400Y37742D01*
X12516Y37798D01*
X12639Y37834D01*
X12767Y37847D01*
G54D14*
X12057Y37123D02*
X13504D01*
X12056Y37097D02*
X13503D01*
X12065Y37227D02*
X13493D01*
X12071Y37253D02*
X13490D01*
X12067Y36993D02*
X13495D01*
X12067Y36985D02*
X13492D01*
X12070Y36967D02*
X13486D01*
X12098Y37354D02*
X13461D01*
X12109Y37379D02*
X13452D01*
X12108Y36841D02*
X13444D01*
X12154Y37474D02*
X13406D01*
X12147Y36760D02*
X13413D01*
X12170Y37496D02*
X13392D01*
X12168Y36724D02*
X13389D01*
X12232Y37582D02*
X13330D01*
X12251Y37602D02*
X13310D01*
X12230Y36638D02*
X13328D01*
X12250Y36618D02*
X13309D01*
X12331Y37676D02*
X13232D01*
X12354Y37693D02*
X13207D01*
X12328Y36544D02*
X13229D01*
X12353Y36527D02*
X13206D01*
X12451Y37753D02*
X13111D01*
X12478Y37766D02*
X13082D01*
X12449Y36467D02*
X13109D01*
X12478Y36454D02*
X13082D01*
X12602Y37810D02*
X12957D01*
X12633Y37819D02*
X12921D01*
X12603Y36410D02*
X12958D01*
X12639Y36401D02*
X12927D01*
X12056Y37097D02*
X12057Y37121D01*
X13504Y37122D02*
X13503Y37099D01*
X12064Y37018D02*
X13497D01*
X12061Y37045D02*
X13499D01*
X12058Y37072D02*
X13501D01*
X12066Y36995D02*
X12056Y37097D01*
X13503Y37099D02*
X13496Y36996D01*
X12059Y37148D02*
X13502D01*
X12061Y37175D02*
X13499D01*
X12063Y37202D02*
X13496D01*
X12057Y37121D02*
X12065Y37223D01*
X13494Y37225D02*
X13504Y37122D01*
X12065Y37223D02*
X12070Y37247D01*
X13491Y37248D02*
X13494Y37225D01*
X12067Y36987D02*
X12066Y36995D01*
X13496Y36996D02*
X13494Y36992D01*
X12069Y36972D02*
X12067Y36987D01*
X13494Y36992D02*
X13489Y36975D01*
X12099Y36867D02*
X13452D01*
X12088Y36904D02*
X13465D01*
X12078Y36942D02*
X13477D01*
X12104Y36850D02*
X12069Y36972D01*
X13489Y36975D02*
X13446Y36849D01*
X12078Y37278D02*
X13482D01*
X12085Y37304D02*
X13475D01*
X12091Y37329D02*
X13468D01*
X12070Y37247D02*
X12095Y37346D01*
X13463Y37347D02*
X13491Y37248D01*
X12095Y37346D02*
X12105Y37368D01*
X13456Y37369D02*
X13463Y37347D01*
X12136Y36785D02*
X13425D01*
X12121Y36816D02*
X13435D01*
X12143Y36771D02*
X12104Y36850D01*
X13446Y36849D02*
X13420Y36771D01*
X12121Y37404D02*
X13440D01*
X12141Y37448D02*
X13418D01*
X12105Y37368D02*
X12146Y37461D01*
X13411Y37462D02*
X13456Y37369D01*
X12159Y36737D02*
X12143Y36771D01*
X13420Y36771D02*
X13398Y36738D01*
X12146Y37461D02*
X12160Y37482D01*
X13401Y37483D02*
X13411Y37462D01*
X12212Y36663D02*
X13349D01*
X12187Y36698D02*
X13372D01*
X12220Y36653D02*
X12159Y36737D01*
X13398Y36738D02*
X13343Y36654D01*
X12187Y37521D02*
X13373D01*
X12211Y37557D02*
X13348D01*
X12160Y37482D02*
X12217Y37566D01*
X13340Y37567D02*
X13401Y37483D01*
X12217Y37566D02*
X12235Y37584D01*
X13327Y37585D02*
X13340Y37567D01*
X12233Y36635D02*
X12220Y36653D01*
X13343Y36654D02*
X13325Y36636D01*
X12301Y36569D02*
X13261D01*
X12277Y36593D02*
X13284D01*
X12308Y36562D02*
X12233Y36635D01*
X13325Y36636D02*
X13255Y36563D01*
X12276Y37627D02*
X13283D01*
X12299Y37651D02*
X13259D01*
X12235Y37584D02*
X12305Y37657D01*
X13252Y37658D02*
X13327Y37585D01*
X12305Y37657D02*
X12326Y37672D01*
X13236Y37673D02*
X13252Y37658D01*
X12324Y36547D02*
X12308Y36562D01*
X13255Y36563D02*
X13234Y36548D01*
X12405Y36492D02*
X13158D01*
X12391Y36502D02*
X13171D01*
X12411Y36488D02*
X12324Y36547D01*
X13234Y36548D02*
X13153Y36489D01*
X12389Y37718D02*
X13169D01*
X12402Y37727D02*
X13155D01*
X12326Y37672D02*
X12407Y37731D01*
X13149Y37732D02*
X13236Y37673D01*
X12407Y37731D02*
X12432Y37743D01*
X13131Y37743D02*
X13149Y37732D01*
X12429Y36476D02*
X12411Y36488D01*
X13153Y36489D02*
X13128Y36477D01*
X12529Y36432D02*
X13036D01*
X12526Y36433D02*
X12429Y36476D01*
X13128Y36477D02*
X13040Y36434D01*
X12524Y37788D02*
X13032D01*
X12432Y37743D02*
X12520Y37786D01*
X13034Y37787D02*
X13131Y37743D01*
X12520Y37786D02*
X12549Y37795D01*
X13016Y37795D02*
X13034Y37787D01*
X12544Y36425D02*
X12526Y36433D01*
X13040Y36434D02*
X13011Y36425D01*
X12651Y36398D02*
X12544Y36425D01*
X13011Y36425D02*
X12918Y36399D01*
X12549Y37795D02*
X12642Y37821D01*
X12909Y37821D02*
X13016Y37795D01*
X12642Y37821D02*
X12683Y37825D01*
X12893Y37825D02*
X12909Y37821D01*
X12667Y36394D02*
X12651Y36398D01*
X12918Y36399D02*
X12877Y36394D01*
X12793Y36386D02*
X12667Y36394D01*
X12877Y36394D02*
X12793Y36386D01*
X12683Y37825D02*
X12767Y37834D01*
X12893Y37825D01*
G54D13*
X12767Y55247D02*
X12895Y55238D01*
X13020Y55207D01*
X13138Y55155D01*
X13244Y55083D01*
X13336Y54993D01*
X13412Y54890D01*
X13468Y54774D01*
X13504Y54650D01*
X13517Y54523D01*
X13508Y54394D01*
X13507Y54388D01*
X13432Y54165D01*
X13353Y54046D01*
X13264Y53953D01*
X13160Y53878D01*
X13044Y53822D01*
X12921Y53786D01*
X12793Y53773D01*
X12665Y53782D01*
X12540Y53813D01*
X12423Y53865D01*
X12316Y53937D01*
X12224Y54026D01*
X12148Y54130D01*
X12092Y54246D01*
X12056Y54369D01*
X12043Y54497D01*
X12052Y54625D01*
X12083Y54750D01*
X12135Y54867D01*
X12207Y54974D01*
X12296Y55066D01*
X12400Y55142D01*
X12516Y55198D01*
X12639Y55234D01*
X12767Y55247D01*
G54D14*
X12057Y54523D02*
X13504D01*
X12056Y54497D02*
X13503D01*
X12065Y54627D02*
X13493D01*
X12071Y54653D02*
X13490D01*
X12067Y54393D02*
X13495D01*
X12067Y54385D02*
X13492D01*
X12070Y54367D02*
X13486D01*
X12098Y54754D02*
X13461D01*
X12109Y54779D02*
X13452D01*
X12108Y54241D02*
X13444D01*
X12154Y54874D02*
X13406D01*
X12147Y54160D02*
X13413D01*
X12170Y54896D02*
X13392D01*
X12168Y54124D02*
X13389D01*
X12232Y54982D02*
X13330D01*
X12251Y55002D02*
X13310D01*
X12230Y54038D02*
X13328D01*
X12250Y54018D02*
X13309D01*
X12331Y55076D02*
X13232D01*
X12354Y55093D02*
X13207D01*
X12328Y53944D02*
X13229D01*
X12353Y53927D02*
X13206D01*
X12451Y55153D02*
X13111D01*
X12478Y55166D02*
X13082D01*
X12449Y53867D02*
X13109D01*
X12478Y53854D02*
X13082D01*
X12602Y55210D02*
X12957D01*
X12633Y55219D02*
X12921D01*
X12603Y53810D02*
X12958D01*
X12639Y53801D02*
X12927D01*
X12056Y54497D02*
X12057Y54521D01*
X13504Y54522D02*
X13503Y54499D01*
X12064Y54418D02*
X13497D01*
X12061Y54445D02*
X13499D01*
X12058Y54472D02*
X13501D01*
X12066Y54395D02*
X12056Y54497D01*
X13503Y54499D02*
X13496Y54396D01*
X12059Y54548D02*
X13502D01*
X12061Y54575D02*
X13499D01*
X12063Y54602D02*
X13496D01*
X12057Y54521D02*
X12065Y54623D01*
X13494Y54625D02*
X13504Y54522D01*
X12065Y54623D02*
X12070Y54647D01*
X13491Y54648D02*
X13494Y54625D01*
X12067Y54387D02*
X12066Y54395D01*
X13496Y54396D02*
X13494Y54392D01*
X12069Y54372D02*
X12067Y54387D01*
X13494Y54392D02*
X13489Y54375D01*
X12099Y54267D02*
X13452D01*
X12088Y54304D02*
X13465D01*
X12078Y54342D02*
X13477D01*
X12104Y54250D02*
X12069Y54372D01*
X13489Y54375D02*
X13446Y54249D01*
X12078Y54678D02*
X13482D01*
X12085Y54704D02*
X13475D01*
X12091Y54729D02*
X13468D01*
X12070Y54647D02*
X12095Y54746D01*
X13463Y54747D02*
X13491Y54648D01*
X12095Y54746D02*
X12105Y54768D01*
X13456Y54769D02*
X13463Y54747D01*
X12136Y54185D02*
X13425D01*
X12121Y54216D02*
X13435D01*
X12143Y54171D02*
X12104Y54250D01*
X13446Y54249D02*
X13420Y54171D01*
X12121Y54804D02*
X13440D01*
X12141Y54848D02*
X13418D01*
X12105Y54768D02*
X12146Y54861D01*
X13411Y54862D02*
X13456Y54769D01*
X12159Y54137D02*
X12143Y54171D01*
X13420Y54171D02*
X13398Y54138D01*
X12146Y54861D02*
X12160Y54882D01*
X13401Y54883D02*
X13411Y54862D01*
X12212Y54063D02*
X13349D01*
X12187Y54098D02*
X13372D01*
X12220Y54053D02*
X12159Y54137D01*
X13398Y54138D02*
X13343Y54054D01*
X12187Y54921D02*
X13373D01*
X12211Y54957D02*
X13348D01*
X12160Y54882D02*
X12217Y54966D01*
X13340Y54967D02*
X13401Y54883D01*
X12217Y54966D02*
X12235Y54984D01*
X13327Y54985D02*
X13340Y54967D01*
X12233Y54035D02*
X12220Y54053D01*
X13343Y54054D02*
X13325Y54036D01*
X12301Y53969D02*
X13261D01*
X12277Y53993D02*
X13284D01*
X12308Y53962D02*
X12233Y54035D01*
X13325Y54036D02*
X13255Y53963D01*
X12276Y55027D02*
X13283D01*
X12299Y55051D02*
X13259D01*
X12235Y54984D02*
X12305Y55057D01*
X13252Y55058D02*
X13327Y54985D01*
X12305Y55057D02*
X12326Y55072D01*
X13236Y55073D02*
X13252Y55058D01*
X12324Y53947D02*
X12308Y53962D01*
X13255Y53963D02*
X13234Y53948D01*
X12405Y53892D02*
X13158D01*
X12391Y53902D02*
X13171D01*
X12411Y53888D02*
X12324Y53947D01*
X13234Y53948D02*
X13153Y53889D01*
X12389Y55118D02*
X13169D01*
X12402Y55127D02*
X13155D01*
X12326Y55072D02*
X12407Y55131D01*
X13149Y55132D02*
X13236Y55073D01*
X12407Y55131D02*
X12432Y55143D01*
X13131Y55143D02*
X13149Y55132D01*
X12429Y53876D02*
X12411Y53888D01*
X13153Y53889D02*
X13128Y53877D01*
X12529Y53832D02*
X13036D01*
X12526Y53833D02*
X12429Y53876D01*
X13128Y53877D02*
X13040Y53834D01*
X12524Y55188D02*
X13032D01*
X12432Y55143D02*
X12520Y55186D01*
X13034Y55187D02*
X13131Y55143D01*
X12520Y55186D02*
X12549Y55195D01*
X13016Y55195D02*
X13034Y55187D01*
X12544Y53825D02*
X12526Y53833D01*
X13040Y53834D02*
X13011Y53825D01*
X12651Y53798D02*
X12544Y53825D01*
X13011Y53825D02*
X12918Y53799D01*
X12549Y55195D02*
X12642Y55221D01*
X12909Y55221D02*
X13016Y55195D01*
X12642Y55221D02*
X12683Y55225D01*
X12893Y55225D02*
X12909Y55221D01*
X12667Y53794D02*
X12651Y53798D01*
X12918Y53799D02*
X12877Y53794D01*
X12793Y53786D02*
X12667Y53794D01*
X12877Y53794D02*
X12793Y53786D01*
X12683Y55225D02*
X12767Y55234D01*
X12893Y55225D01*
G54D13*
X12767Y72647D02*
X12895Y72638D01*
X13020Y72607D01*
X13138Y72555D01*
X13244Y72483D01*
X13336Y72393D01*
X13412Y72290D01*
X13468Y72174D01*
X13504Y72050D01*
X13517Y71923D01*
X13508Y71794D01*
X13507Y71788D01*
X13432Y71565D01*
X13353Y71446D01*
X13264Y71353D01*
X13160Y71278D01*
X13044Y71222D01*
X12921Y71186D01*
X12793Y71173D01*
X12665Y71182D01*
X12540Y71213D01*
X12423Y71265D01*
X12316Y71337D01*
X12224Y71426D01*
X12148Y71530D01*
X12092Y71646D01*
X12056Y71769D01*
X12043Y71897D01*
X12052Y72025D01*
X12083Y72150D01*
X12135Y72267D01*
X12207Y72374D01*
X12296Y72466D01*
X12400Y72542D01*
X12516Y72598D01*
X12639Y72634D01*
X12767Y72647D01*
G54D14*
X12057Y71923D02*
X13504D01*
X12056Y71897D02*
X13503D01*
X12065Y72027D02*
X13493D01*
X12071Y72053D02*
X13490D01*
X12067Y71792D02*
X13495D01*
X12067Y71785D02*
X13492D01*
X12070Y71767D02*
X13486D01*
X12098Y72154D02*
X13461D01*
X12109Y72179D02*
X13452D01*
X12108Y71641D02*
X13444D01*
X12154Y72274D02*
X13406D01*
X12147Y71560D02*
X13413D01*
X12170Y72296D02*
X13392D01*
X12168Y71524D02*
X13389D01*
X12232Y72382D02*
X13330D01*
X12251Y72402D02*
X13310D01*
X12230Y71438D02*
X13328D01*
X12250Y71418D02*
X13309D01*
X12331Y72476D02*
X13232D01*
X12354Y72493D02*
X13207D01*
X12328Y71344D02*
X13229D01*
X12353Y71327D02*
X13206D01*
X12451Y72553D02*
X13111D01*
X12478Y72566D02*
X13082D01*
X12449Y71267D02*
X13109D01*
X12478Y71254D02*
X13082D01*
X12602Y72610D02*
X12957D01*
X12633Y72619D02*
X12921D01*
X12603Y71210D02*
X12958D01*
X12639Y71201D02*
X12927D01*
X12056Y71897D02*
X12057Y71921D01*
X13504Y71922D02*
X13503Y71899D01*
X12064Y71818D02*
X13497D01*
X12061Y71845D02*
X13499D01*
X12058Y71872D02*
X13501D01*
X12066Y71795D02*
X12056Y71897D01*
X13503Y71899D02*
X13496Y71796D01*
X12059Y71948D02*
X13502D01*
X12061Y71975D02*
X13499D01*
X12063Y72002D02*
X13496D01*
X12057Y71921D02*
X12065Y72023D01*
X13494Y72025D02*
X13504Y71922D01*
X12065Y72023D02*
X12070Y72047D01*
X13491Y72048D02*
X13494Y72025D01*
X12067Y71787D02*
X12066Y71795D01*
X13496Y71796D02*
X13494Y71792D01*
X12069Y71772D02*
X12067Y71787D01*
X13494Y71792D02*
X13489Y71775D01*
X12099Y71667D02*
X13452D01*
X12088Y71704D02*
X13465D01*
X12078Y71742D02*
X13477D01*
X12104Y71650D02*
X12069Y71772D01*
X13489Y71775D02*
X13446Y71649D01*
X12078Y72078D02*
X13482D01*
X12085Y72104D02*
X13475D01*
X12091Y72129D02*
X13468D01*
X12070Y72047D02*
X12095Y72146D01*
X13463Y72147D02*
X13491Y72048D01*
X12095Y72146D02*
X12105Y72168D01*
X13456Y72169D02*
X13463Y72147D01*
X12136Y71585D02*
X13425D01*
X12121Y71616D02*
X13435D01*
X12143Y71571D02*
X12104Y71650D01*
X13446Y71649D02*
X13420Y71571D01*
X12121Y72204D02*
X13440D01*
X12141Y72248D02*
X13418D01*
X12105Y72168D02*
X12146Y72261D01*
X13411Y72262D02*
X13456Y72169D01*
X12159Y71537D02*
X12143Y71571D01*
X13420Y71571D02*
X13398Y71538D01*
X12146Y72261D02*
X12160Y72282D01*
X13401Y72283D02*
X13411Y72262D01*
X12212Y71463D02*
X13349D01*
X12187Y71498D02*
X13372D01*
X12220Y71453D02*
X12159Y71537D01*
X13398Y71538D02*
X13343Y71454D01*
X12187Y72321D02*
X13373D01*
X12211Y72357D02*
X13348D01*
X12160Y72282D02*
X12217Y72366D01*
X13340Y72367D02*
X13401Y72283D01*
X12217Y72366D02*
X12235Y72384D01*
X13327Y72385D02*
X13340Y72367D01*
X12233Y71435D02*
X12220Y71453D01*
X13343Y71454D02*
X13325Y71436D01*
X12301Y71369D02*
X13261D01*
X12277Y71393D02*
X13284D01*
X12308Y71362D02*
X12233Y71435D01*
X13325Y71436D02*
X13255Y71363D01*
X12276Y72427D02*
X13283D01*
X12299Y72451D02*
X13259D01*
X12235Y72384D02*
X12305Y72457D01*
X13252Y72458D02*
X13327Y72385D01*
X12305Y72457D02*
X12326Y72472D01*
X13236Y72473D02*
X13252Y72458D01*
X12324Y71347D02*
X12308Y71362D01*
X13255Y71363D02*
X13234Y71348D01*
X12405Y71292D02*
X13158D01*
X12391Y71302D02*
X13171D01*
X12411Y71288D02*
X12324Y71347D01*
X13234Y71348D02*
X13153Y71289D01*
X12389Y72518D02*
X13169D01*
X12402Y72527D02*
X13155D01*
X12326Y72472D02*
X12407Y72531D01*
X13149Y72532D02*
X13236Y72473D01*
X12407Y72531D02*
X12432Y72543D01*
X13131Y72543D02*
X13149Y72532D01*
X12429Y71276D02*
X12411Y71288D01*
X13153Y71289D02*
X13128Y71277D01*
X12529Y71232D02*
X13036D01*
X12526Y71233D02*
X12429Y71276D01*
X13128Y71277D02*
X13040Y71234D01*
X12524Y72588D02*
X13032D01*
X12432Y72543D02*
X12520Y72586D01*
X13034Y72587D02*
X13131Y72543D01*
X12520Y72586D02*
X12549Y72595D01*
X13016Y72595D02*
X13034Y72587D01*
X12544Y71225D02*
X12526Y71233D01*
X13040Y71234D02*
X13011Y71225D01*
X12651Y71198D02*
X12544Y71225D01*
X13011Y71225D02*
X12918Y71199D01*
X12549Y72595D02*
X12642Y72621D01*
X12909Y72621D02*
X13016Y72595D01*
X12642Y72621D02*
X12683Y72625D01*
X12893Y72625D02*
X12909Y72621D01*
X12667Y71194D02*
X12651Y71198D01*
X12918Y71199D02*
X12877Y71194D01*
X12793Y71186D02*
X12667Y71194D01*
X12877Y71194D02*
X12793Y71186D01*
X12683Y72625D02*
X12767Y72634D01*
X12893Y72625D01*
G54D19*
X42300Y42000D03*
X43800Y40900D03*
X62130Y7150D03*
X64150D03*
X62130Y7930D03*
X64150Y7900D03*
X62130Y8680D03*
X64150Y8700D03*
X65900Y73850D03*
X65100D03*
X65900Y74650D03*
X65100D03*
G54D20*
X8500Y4250D03*
X7500D03*
X6500D03*
X24120Y12500D03*
X23120D03*
X25120D03*
X36500Y4250D03*
X38500D03*
X37500D03*
X71000Y12500D03*
X70000D03*
X69000D03*
X94500D03*
X93500D03*
X92500D03*
G54D21*
X10780Y16640D03*
Y29780D03*
Y34040D03*
Y47180D03*
Y51440D03*
Y64580D03*
Y68840D03*
Y81980D03*
G54D22*
X18675Y19960D02*
X18949D01*
X19551D02*
X19825D01*
X18675Y37360D02*
X18949D01*
X19551D02*
X19825D01*
X18675Y54760D02*
X18949D01*
X19551D02*
X19825D01*
X18675Y72160D02*
X18949D01*
X19551D02*
X19825D01*
G54D23*
X60150Y15800D02*
Y16000D01*
X59600Y15800D02*
Y16000D01*
Y17050D02*
Y17250D01*
X60150Y17050D02*
Y17250D01*
X63075Y15800D02*
Y16000D01*
X62525Y15800D02*
Y16000D01*
Y17050D02*
Y17250D01*
X63075Y17050D02*
Y17250D01*
X53075Y20340D02*
X53275D01*
X53075Y20890D02*
X53275D01*
X54325D02*
X54525D01*
X54325Y20340D02*
X54525D01*
G54D24*
X17750Y30775D02*
Y30825D01*
Y28675D02*
Y28725D01*
Y48175D02*
Y48225D01*
Y46075D02*
Y46125D01*
Y65575D02*
Y65625D01*
Y63475D02*
Y63525D01*
Y80875D02*
Y80925D01*
Y82975D02*
Y83025D01*
X60100Y56625D02*
Y56675D01*
Y54525D02*
Y54575D01*
G54D25*
X67600Y106000D03*
X63400D03*
X74400Y90500D03*
X78600D03*
X86900Y67000D03*
X91100D03*
G54D26*
X5330Y31600D03*
X7870D03*
X5330Y49000D03*
X7870D03*
X5330Y66400D03*
X7870D03*
X5330Y83800D03*
X7870D03*
X46500Y28800D03*
X46400Y32500D03*
X47000Y77000D03*
X42000Y83000D03*
X51250Y15500D03*
X51000Y80000D03*
X58000Y33000D03*
X59750Y77750D03*
X72500Y73500D03*
Y81500D03*
G54D17*
X52300Y36700D03*
Y37700D03*
Y52800D03*
Y53800D03*
X50600Y52800D03*
Y53800D03*
X60425Y19625D03*
Y18625D03*
X59325Y19625D03*
Y18625D03*
X55700Y37700D03*
X54000D03*
X57300Y37900D03*
X55700Y38700D03*
X54000D03*
X57300Y38900D03*
X59600Y51700D03*
Y50700D03*
X54000Y53000D03*
Y54000D03*
X57400Y52900D03*
Y53900D03*
X55700Y52900D03*
Y53900D03*
X64150Y53500D03*
Y52500D03*
G54D27*
X19550Y24000D02*
X19950D01*
G54D16*
X19050Y24550D02*
X20450D01*
X19050Y23450D02*
X20450D01*
G54D27*
X19550Y26000D02*
X19950D01*
G54D16*
X19050Y26550D02*
X20450D01*
X19050Y25450D02*
X20450D01*
G54D27*
X19550Y41400D02*
X19950D01*
G54D16*
X19050Y41950D02*
X20450D01*
X19050Y40850D02*
X20450D01*
G54D27*
X19550Y43400D02*
X19950D01*
G54D16*
X19050Y43950D02*
X20450D01*
X19050Y42850D02*
X20450D01*
G54D27*
X19550Y58800D02*
X19950D01*
G54D16*
X19050Y59350D02*
X20450D01*
X19050Y58250D02*
X20450D01*
G54D27*
X19550Y60800D02*
X19950D01*
G54D16*
X19050Y61350D02*
X20450D01*
X19050Y60250D02*
X20450D01*
G54D27*
X19550Y76200D02*
X19950D01*
G54D16*
X19050Y76750D02*
X20450D01*
X19050Y75650D02*
X20450D01*
G54D27*
X19550Y78200D02*
X19950D01*
G54D16*
X19050Y78750D02*
X20450D01*
X19050Y77650D02*
X20450D01*
G54D27*
X70300Y69500D02*
X70700D01*
G54D16*
X69800Y70050D02*
X71200D01*
X69800Y68950D02*
X71200D01*
G54D27*
X70300Y71500D02*
X70700D01*
G54D16*
X69800Y72050D02*
X71200D01*
X69800Y70950D02*
X71200D01*
G54D27*
X83300Y49500D02*
X83700D01*
G54D16*
X82800Y50050D02*
X84200D01*
X82800Y48950D02*
X84200D01*
G54D27*
X83300Y51500D02*
X83700D01*
G54D16*
X82800Y52050D02*
X84200D01*
X82800Y50950D02*
X84200D01*
G54D28*
X61050Y31600D02*
Y31900D01*
X62950Y31600D02*
Y31900D01*
X62000Y34100D02*
Y34400D01*
X87050Y26100D02*
Y26400D01*
X88950Y26100D02*
Y26400D01*
X88000Y28600D02*
Y28900D01*
G54D13*
X14293Y27947D02*
X14421Y27934D01*
X14544Y27898D01*
X14660Y27842D01*
X14764Y27766D01*
X14853Y27674D01*
X14925Y27567D01*
X14977Y27450D01*
X15008Y27325D01*
X15017Y27197D01*
X15004Y27069D01*
X14968Y26946D01*
X14912Y26830D01*
X14836Y26726D01*
X14744Y26637D01*
X14637Y26565D01*
X14520Y26513D01*
X14395Y26482D01*
X14267Y26473D01*
X14139Y26486D01*
X14016Y26522D01*
X13900Y26578D01*
X13796Y26654D01*
X13707Y26746D01*
X13628Y26866D01*
X13626Y26872D01*
X13552Y27095D01*
X13543Y27223D01*
X13556Y27351D01*
X13592Y27474D01*
X13648Y27590D01*
X13724Y27694D01*
X13816Y27783D01*
X13922Y27855D01*
X14040Y27907D01*
X14165Y27938D01*
X14293Y27947D01*
G54D14*
X13567Y27327D02*
X14995D01*
X13556Y27223D02*
X15003D01*
X13557Y27197D02*
X15004D01*
X13566Y27093D02*
X14993D01*
X13570Y27353D02*
X14989D01*
X13599Y27454D02*
X14962D01*
X13574Y27067D02*
X14990D01*
X13608Y27479D02*
X14951D01*
X13654Y27574D02*
X14906D01*
X13616Y26941D02*
X14952D01*
X13642Y26867D02*
X14916D01*
X13647Y26860D02*
X14913D01*
X13668Y27596D02*
X14890D01*
X13730Y27682D02*
X14828D01*
X13671Y26824D02*
X14892D01*
X13732Y26738D02*
X14830D01*
X13750Y27702D02*
X14809D01*
X13828Y27776D02*
X14729D01*
X13751Y26718D02*
X14810D01*
X13831Y26644D02*
X14732D01*
X13853Y27793D02*
X14706D01*
X13949Y27853D02*
X14609D01*
X13854Y26627D02*
X14707D01*
X13951Y26567D02*
X14611D01*
X13978Y27866D02*
X14582D01*
X14103Y27910D02*
X14458D01*
X13978Y26554D02*
X14582D01*
X14102Y26510D02*
X14457D01*
X14139Y27919D02*
X14427D01*
X14133Y26501D02*
X14421D01*
X13558Y27248D02*
X15001D01*
X13561Y27275D02*
X14999D01*
X13564Y27302D02*
X14997D01*
X13556Y27223D02*
X13566Y27325D01*
X14995Y27323D02*
X15003Y27221D01*
X13557Y27199D02*
X13556Y27223D01*
X15003Y27221D02*
X15004Y27197D01*
X13563Y27118D02*
X14996D01*
X13561Y27145D02*
X14999D01*
X13559Y27172D02*
X15002D01*
X13564Y27098D02*
X13557Y27199D01*
X15004Y27197D02*
X14994Y27095D01*
X13572Y27075D02*
X13564Y27098D01*
X14994Y27095D02*
X14991Y27072D01*
X13566Y27325D02*
X13569Y27348D01*
X14990Y27347D02*
X14995Y27323D01*
X13578Y27378D02*
X14982D01*
X13585Y27404D02*
X14975D01*
X13592Y27429D02*
X14969D01*
X13569Y27348D02*
X13597Y27447D01*
X14965Y27446D02*
X14990Y27347D01*
X13608Y26967D02*
X14961D01*
X13595Y27004D02*
X14972D01*
X13583Y27042D02*
X14982D01*
X13613Y26949D02*
X13572Y27075D01*
X14991Y27072D02*
X14956Y26950D01*
X13597Y27447D02*
X13604Y27470D01*
X14955Y27468D02*
X14965Y27446D01*
X13620Y27504D02*
X14939D01*
X13642Y27548D02*
X14919D01*
X13604Y27470D02*
X13649Y27563D01*
X14914Y27561D02*
X14955Y27468D01*
X13632Y26893D02*
X14928D01*
X13624Y26916D02*
X14939D01*
X13638Y26876D02*
X13613Y26949D01*
X14956Y26950D02*
X14921Y26878D01*
X13639Y26872D02*
X13638Y26876D01*
X14921Y26878D02*
X14917Y26871D01*
X13662Y26838D02*
X13639Y26872D01*
X14917Y26871D02*
X14901Y26837D01*
X13649Y27563D02*
X13659Y27583D01*
X14900Y27582D02*
X14914Y27561D01*
X13687Y27622D02*
X14873D01*
X13712Y27657D02*
X14849D01*
X13659Y27583D02*
X13720Y27667D01*
X14843Y27666D02*
X14900Y27582D01*
X13711Y26763D02*
X14848D01*
X13688Y26798D02*
X14873D01*
X13717Y26754D02*
X13662Y26838D01*
X14901Y26837D02*
X14840Y26753D01*
X13735Y26736D02*
X13717Y26754D01*
X14840Y26753D02*
X14827Y26735D01*
X13720Y27667D02*
X13733Y27685D01*
X14825Y27684D02*
X14843Y27666D01*
X13777Y27727D02*
X14784D01*
X13801Y27751D02*
X14761D01*
X13733Y27685D02*
X13808Y27758D01*
X14755Y27757D02*
X14825Y27684D01*
X13799Y26669D02*
X14759D01*
X13776Y26693D02*
X14783D01*
X13805Y26663D02*
X13735Y26736D01*
X14827Y26735D02*
X14752Y26662D01*
X13826Y26648D02*
X13805Y26663D01*
X14752Y26662D02*
X14736Y26647D01*
X13808Y27758D02*
X13824Y27773D01*
X14734Y27772D02*
X14755Y27757D01*
X13891Y27818D02*
X14671D01*
X13905Y27827D02*
X14658D01*
X13824Y27773D02*
X13911Y27832D01*
X14653Y27831D02*
X14734Y27772D01*
X13902Y26593D02*
X14655D01*
X13889Y26602D02*
X14669D01*
X13907Y26589D02*
X13826Y26648D01*
X14736Y26647D02*
X14649Y26588D01*
X13932Y26577D02*
X13907Y26589D01*
X14649Y26588D02*
X14631Y26576D01*
X13911Y27832D02*
X13929Y27844D01*
X14628Y27843D02*
X14653Y27831D01*
X14028Y27888D02*
X14536D01*
X13929Y27844D02*
X14026Y27887D01*
X14540Y27886D02*
X14628Y27843D01*
X14024Y26532D02*
X14531D01*
X14020Y26534D02*
X13932Y26577D01*
X14631Y26576D02*
X14534Y26533D01*
X14049Y26525D02*
X14020Y26534D01*
X14534Y26533D02*
X14516Y26525D01*
X14026Y27887D02*
X14044Y27895D01*
X14511Y27895D02*
X14540Y27886D01*
X14044Y27895D02*
X14151Y27922D01*
X14418Y27921D02*
X14511Y27895D01*
X14142Y26499D02*
X14049Y26525D01*
X14516Y26525D02*
X14409Y26498D01*
X14183Y26495D02*
X14142Y26499D01*
X14409Y26498D02*
X14393Y26495D01*
X14151Y27922D02*
X14167Y27926D01*
X14377Y27925D02*
X14418Y27921D01*
X14167Y27926D02*
X14293Y27934D01*
X14377Y27925D01*
X14267Y26486D02*
X14183Y26495D01*
X14393Y26495D02*
X14267Y26486D01*
G54D13*
X14293Y45347D02*
X14421Y45334D01*
X14544Y45298D01*
X14660Y45242D01*
X14764Y45166D01*
X14853Y45074D01*
X14925Y44967D01*
X14977Y44850D01*
X15008Y44725D01*
X15017Y44597D01*
X15004Y44469D01*
X14968Y44346D01*
X14912Y44230D01*
X14836Y44126D01*
X14744Y44037D01*
X14637Y43965D01*
X14520Y43913D01*
X14395Y43882D01*
X14267Y43873D01*
X14139Y43886D01*
X14016Y43922D01*
X13900Y43978D01*
X13796Y44054D01*
X13707Y44146D01*
X13628Y44266D01*
X13626Y44272D01*
X13552Y44495D01*
X13543Y44623D01*
X13556Y44751D01*
X13592Y44874D01*
X13648Y44990D01*
X13724Y45094D01*
X13816Y45183D01*
X13922Y45255D01*
X14040Y45307D01*
X14165Y45338D01*
X14293Y45347D01*
G54D14*
X13567Y44727D02*
X14995D01*
X13556Y44623D02*
X15003D01*
X13557Y44597D02*
X15004D01*
X13566Y44493D02*
X14993D01*
X13570Y44753D02*
X14989D01*
X13599Y44854D02*
X14962D01*
X13574Y44467D02*
X14990D01*
X13608Y44879D02*
X14951D01*
X13654Y44974D02*
X14906D01*
X13616Y44341D02*
X14952D01*
X13642Y44267D02*
X14916D01*
X13647Y44260D02*
X14913D01*
X13668Y44996D02*
X14890D01*
X13730Y45082D02*
X14828D01*
X13671Y44224D02*
X14892D01*
X13732Y44138D02*
X14830D01*
X13750Y45102D02*
X14809D01*
X13828Y45176D02*
X14729D01*
X13751Y44118D02*
X14810D01*
X13831Y44044D02*
X14732D01*
X13853Y45193D02*
X14706D01*
X13949Y45253D02*
X14609D01*
X13854Y44027D02*
X14707D01*
X13951Y43967D02*
X14611D01*
X13978Y45266D02*
X14582D01*
X14103Y45310D02*
X14458D01*
X13978Y43954D02*
X14582D01*
X14102Y43910D02*
X14457D01*
X14139Y45319D02*
X14427D01*
X14133Y43901D02*
X14421D01*
X13558Y44648D02*
X15001D01*
X13561Y44675D02*
X14999D01*
X13564Y44702D02*
X14997D01*
X13556Y44623D02*
X13566Y44725D01*
X14995Y44723D02*
X15003Y44621D01*
X13557Y44599D02*
X13556Y44623D01*
X15003Y44621D02*
X15004Y44597D01*
X13563Y44518D02*
X14996D01*
X13561Y44545D02*
X14999D01*
X13559Y44572D02*
X15002D01*
X13564Y44498D02*
X13557Y44599D01*
X15004Y44597D02*
X14994Y44495D01*
X13572Y44475D02*
X13564Y44498D01*
X14994Y44495D02*
X14991Y44472D01*
X13566Y44725D02*
X13569Y44748D01*
X14990Y44747D02*
X14995Y44723D01*
X13578Y44778D02*
X14982D01*
X13585Y44804D02*
X14975D01*
X13592Y44829D02*
X14969D01*
X13569Y44748D02*
X13597Y44847D01*
X14965Y44846D02*
X14990Y44747D01*
X13608Y44367D02*
X14961D01*
X13595Y44404D02*
X14972D01*
X13583Y44442D02*
X14982D01*
X13613Y44349D02*
X13572Y44475D01*
X14991Y44472D02*
X14956Y44350D01*
X13597Y44847D02*
X13604Y44870D01*
X14955Y44868D02*
X14965Y44846D01*
X13620Y44904D02*
X14939D01*
X13642Y44948D02*
X14919D01*
X13604Y44870D02*
X13649Y44963D01*
X14914Y44961D02*
X14955Y44868D01*
X13632Y44293D02*
X14928D01*
X13624Y44316D02*
X14939D01*
X13638Y44276D02*
X13613Y44349D01*
X14956Y44350D02*
X14921Y44278D01*
X13639Y44272D02*
X13638Y44276D01*
X14921Y44278D02*
X14917Y44271D01*
X13662Y44238D02*
X13639Y44272D01*
X14917Y44271D02*
X14901Y44237D01*
X13649Y44963D02*
X13659Y44983D01*
X14900Y44982D02*
X14914Y44961D01*
X13687Y45022D02*
X14873D01*
X13712Y45057D02*
X14849D01*
X13659Y44983D02*
X13720Y45067D01*
X14843Y45066D02*
X14900Y44982D01*
X13711Y44163D02*
X14848D01*
X13688Y44198D02*
X14873D01*
X13717Y44154D02*
X13662Y44238D01*
X14901Y44237D02*
X14840Y44153D01*
X13735Y44136D02*
X13717Y44154D01*
X14840Y44153D02*
X14827Y44135D01*
X13720Y45067D02*
X13733Y45085D01*
X14825Y45084D02*
X14843Y45066D01*
X13777Y45127D02*
X14784D01*
X13801Y45151D02*
X14761D01*
X13733Y45085D02*
X13808Y45158D01*
X14755Y45157D02*
X14825Y45084D01*
X13799Y44069D02*
X14759D01*
X13776Y44093D02*
X14783D01*
X13805Y44063D02*
X13735Y44136D01*
X14827Y44135D02*
X14752Y44062D01*
X13826Y44048D02*
X13805Y44063D01*
X14752Y44062D02*
X14736Y44047D01*
X13808Y45158D02*
X13824Y45173D01*
X14734Y45172D02*
X14755Y45157D01*
X13891Y45218D02*
X14671D01*
X13905Y45227D02*
X14658D01*
X13824Y45173D02*
X13911Y45232D01*
X14653Y45231D02*
X14734Y45172D01*
X13902Y43993D02*
X14655D01*
X13889Y44002D02*
X14669D01*
X13907Y43989D02*
X13826Y44048D01*
X14736Y44047D02*
X14649Y43988D01*
X13932Y43977D02*
X13907Y43989D01*
X14649Y43988D02*
X14631Y43976D01*
X13911Y45232D02*
X13929Y45244D01*
X14628Y45243D02*
X14653Y45231D01*
X14028Y45288D02*
X14536D01*
X13929Y45244D02*
X14026Y45287D01*
X14540Y45286D02*
X14628Y45243D01*
X14024Y43932D02*
X14531D01*
X14020Y43934D02*
X13932Y43977D01*
X14631Y43976D02*
X14534Y43933D01*
X14049Y43925D02*
X14020Y43934D01*
X14534Y43933D02*
X14516Y43925D01*
X14026Y45287D02*
X14044Y45295D01*
X14511Y45295D02*
X14540Y45286D01*
X14044Y45295D02*
X14151Y45322D01*
X14418Y45321D02*
X14511Y45295D01*
X14142Y43899D02*
X14049Y43925D01*
X14516Y43925D02*
X14409Y43898D01*
X14183Y43895D02*
X14142Y43899D01*
X14409Y43898D02*
X14393Y43895D01*
X14151Y45322D02*
X14167Y45326D01*
X14377Y45325D02*
X14418Y45321D01*
X14167Y45326D02*
X14293Y45334D01*
X14377Y45325D01*
X14267Y43886D02*
X14183Y43895D01*
X14393Y43895D02*
X14267Y43886D01*
G54D13*
X14293Y62747D02*
X14421Y62734D01*
X14544Y62698D01*
X14660Y62642D01*
X14764Y62566D01*
X14853Y62474D01*
X14925Y62367D01*
X14977Y62250D01*
X15008Y62125D01*
X15017Y61997D01*
X15004Y61869D01*
X14968Y61746D01*
X14912Y61630D01*
X14836Y61526D01*
X14744Y61437D01*
X14637Y61365D01*
X14520Y61313D01*
X14395Y61282D01*
X14267Y61273D01*
X14139Y61286D01*
X14016Y61322D01*
X13900Y61378D01*
X13796Y61454D01*
X13707Y61546D01*
X13628Y61666D01*
X13626Y61672D01*
X13552Y61895D01*
X13543Y62023D01*
X13556Y62151D01*
X13592Y62274D01*
X13648Y62390D01*
X13724Y62494D01*
X13816Y62583D01*
X13922Y62655D01*
X14040Y62707D01*
X14165Y62738D01*
X14293Y62747D01*
G54D14*
X13567Y62127D02*
X14995D01*
X13556Y62023D02*
X15003D01*
X13557Y61997D02*
X15004D01*
X13566Y61893D02*
X14993D01*
X13570Y62153D02*
X14989D01*
X13599Y62254D02*
X14962D01*
X13574Y61867D02*
X14990D01*
X13608Y62279D02*
X14951D01*
X13654Y62374D02*
X14906D01*
X13616Y61741D02*
X14952D01*
X13642Y61667D02*
X14916D01*
X13647Y61660D02*
X14913D01*
X13668Y62396D02*
X14890D01*
X13730Y62482D02*
X14828D01*
X13671Y61624D02*
X14892D01*
X13732Y61538D02*
X14830D01*
X13750Y62502D02*
X14809D01*
X13828Y62576D02*
X14729D01*
X13751Y61518D02*
X14810D01*
X13831Y61444D02*
X14732D01*
X13853Y62593D02*
X14706D01*
X13949Y62653D02*
X14609D01*
X13854Y61427D02*
X14707D01*
X13951Y61367D02*
X14611D01*
X13978Y62666D02*
X14582D01*
X14103Y62710D02*
X14458D01*
X13978Y61354D02*
X14582D01*
X14102Y61310D02*
X14457D01*
X14139Y62719D02*
X14427D01*
X14133Y61301D02*
X14421D01*
X13558Y62048D02*
X15001D01*
X13561Y62075D02*
X14999D01*
X13564Y62102D02*
X14997D01*
X13556Y62023D02*
X13566Y62125D01*
X14995Y62123D02*
X15003Y62021D01*
X13557Y61999D02*
X13556Y62023D01*
X15003Y62021D02*
X15004Y61997D01*
X13563Y61918D02*
X14996D01*
X13561Y61945D02*
X14999D01*
X13559Y61972D02*
X15002D01*
X13564Y61898D02*
X13557Y61999D01*
X15004Y61997D02*
X14994Y61895D01*
X13572Y61875D02*
X13564Y61898D01*
X14994Y61895D02*
X14991Y61872D01*
X13566Y62125D02*
X13569Y62148D01*
X14990Y62147D02*
X14995Y62123D01*
X13578Y62178D02*
X14982D01*
X13585Y62204D02*
X14975D01*
X13592Y62229D02*
X14969D01*
X13569Y62148D02*
X13597Y62247D01*
X14965Y62246D02*
X14990Y62147D01*
X13608Y61767D02*
X14961D01*
X13595Y61804D02*
X14972D01*
X13583Y61842D02*
X14982D01*
X13613Y61749D02*
X13572Y61875D01*
X14991Y61872D02*
X14956Y61750D01*
X13597Y62247D02*
X13604Y62270D01*
X14955Y62268D02*
X14965Y62246D01*
X13620Y62304D02*
X14939D01*
X13642Y62348D02*
X14919D01*
X13604Y62270D02*
X13649Y62363D01*
X14914Y62361D02*
X14955Y62268D01*
X13632Y61693D02*
X14928D01*
X13624Y61716D02*
X14939D01*
X13638Y61676D02*
X13613Y61749D01*
X14956Y61750D02*
X14921Y61678D01*
X13639Y61672D02*
X13638Y61676D01*
X14921Y61678D02*
X14917Y61671D01*
X13662Y61638D02*
X13639Y61672D01*
X14917Y61671D02*
X14901Y61637D01*
X13649Y62363D02*
X13659Y62383D01*
X14900Y62382D02*
X14914Y62361D01*
X13687Y62422D02*
X14873D01*
X13712Y62457D02*
X14849D01*
X13659Y62383D02*
X13720Y62467D01*
X14843Y62466D02*
X14900Y62382D01*
X13711Y61563D02*
X14848D01*
X13688Y61598D02*
X14873D01*
X13717Y61554D02*
X13662Y61638D01*
X14901Y61637D02*
X14840Y61553D01*
X13735Y61536D02*
X13717Y61554D01*
X14840Y61553D02*
X14827Y61535D01*
X13720Y62467D02*
X13733Y62485D01*
X14825Y62484D02*
X14843Y62466D01*
X13777Y62527D02*
X14784D01*
X13801Y62551D02*
X14761D01*
X13733Y62485D02*
X13808Y62558D01*
X14755Y62557D02*
X14825Y62484D01*
X13799Y61469D02*
X14759D01*
X13776Y61493D02*
X14783D01*
X13805Y61463D02*
X13735Y61536D01*
X14827Y61535D02*
X14752Y61462D01*
X13826Y61448D02*
X13805Y61463D01*
X14752Y61462D02*
X14736Y61447D01*
X13808Y62558D02*
X13824Y62573D01*
X14734Y62572D02*
X14755Y62557D01*
X13891Y62618D02*
X14671D01*
X13905Y62627D02*
X14658D01*
X13824Y62573D02*
X13911Y62632D01*
X14653Y62631D02*
X14734Y62572D01*
X13902Y61393D02*
X14655D01*
X13889Y61402D02*
X14669D01*
X13907Y61389D02*
X13826Y61448D01*
X14736Y61447D02*
X14649Y61388D01*
X13932Y61377D02*
X13907Y61389D01*
X14649Y61388D02*
X14631Y61376D01*
X13911Y62632D02*
X13929Y62644D01*
X14628Y62643D02*
X14653Y62631D01*
X14028Y62688D02*
X14536D01*
X13929Y62644D02*
X14026Y62687D01*
X14540Y62686D02*
X14628Y62643D01*
X14024Y61332D02*
X14531D01*
X14020Y61334D02*
X13932Y61377D01*
X14631Y61376D02*
X14534Y61333D01*
X14049Y61325D02*
X14020Y61334D01*
X14534Y61333D02*
X14516Y61325D01*
X14026Y62687D02*
X14044Y62695D01*
X14511Y62695D02*
X14540Y62686D01*
X14044Y62695D02*
X14151Y62722D01*
X14418Y62721D02*
X14511Y62695D01*
X14142Y61299D02*
X14049Y61325D01*
X14516Y61325D02*
X14409Y61298D01*
X14183Y61295D02*
X14142Y61299D01*
X14409Y61298D02*
X14393Y61295D01*
X14151Y62722D02*
X14167Y62726D01*
X14377Y62725D02*
X14418Y62721D01*
X14167Y62726D02*
X14293Y62734D01*
X14377Y62725D01*
X14267Y61286D02*
X14183Y61295D01*
X14393Y61295D02*
X14267Y61286D01*
G54D13*
X14293Y80147D02*
X14421Y80134D01*
X14544Y80098D01*
X14660Y80042D01*
X14764Y79966D01*
X14853Y79874D01*
X14925Y79767D01*
X14977Y79650D01*
X15008Y79525D01*
X15017Y79397D01*
X15004Y79269D01*
X14968Y79146D01*
X14912Y79030D01*
X14836Y78926D01*
X14744Y78837D01*
X14637Y78765D01*
X14520Y78713D01*
X14395Y78682D01*
X14267Y78673D01*
X14139Y78686D01*
X14016Y78722D01*
X13900Y78778D01*
X13796Y78854D01*
X13707Y78946D01*
X13628Y79066D01*
X13626Y79072D01*
X13552Y79295D01*
X13543Y79423D01*
X13556Y79551D01*
X13592Y79674D01*
X13648Y79790D01*
X13724Y79894D01*
X13816Y79983D01*
X13922Y80055D01*
X14040Y80107D01*
X14165Y80138D01*
X14293Y80147D01*
G54D14*
X13567Y79527D02*
X14995D01*
X13556Y79423D02*
X15003D01*
X13557Y79397D02*
X15004D01*
X13566Y79293D02*
X14993D01*
X13570Y79553D02*
X14989D01*
X13599Y79654D02*
X14962D01*
X13574Y79267D02*
X14990D01*
X13608Y79679D02*
X14951D01*
X13654Y79774D02*
X14906D01*
X13616Y79141D02*
X14952D01*
X13642Y79067D02*
X14916D01*
X13647Y79060D02*
X14913D01*
X13668Y79796D02*
X14890D01*
X13730Y79882D02*
X14828D01*
X13671Y79024D02*
X14892D01*
X13732Y78938D02*
X14830D01*
X13750Y79902D02*
X14809D01*
X13828Y79976D02*
X14729D01*
X13751Y78918D02*
X14810D01*
X13831Y78844D02*
X14732D01*
X13853Y79993D02*
X14706D01*
X13949Y80053D02*
X14609D01*
X13854Y78827D02*
X14707D01*
X13951Y78767D02*
X14611D01*
X13978Y80066D02*
X14582D01*
X14103Y80110D02*
X14458D01*
X13978Y78754D02*
X14582D01*
X14102Y78710D02*
X14457D01*
X14139Y80119D02*
X14427D01*
X14133Y78701D02*
X14421D01*
X13558Y79448D02*
X15001D01*
X13561Y79475D02*
X14999D01*
X13564Y79502D02*
X14997D01*
X13556Y79423D02*
X13566Y79525D01*
X14995Y79523D02*
X15003Y79421D01*
X13557Y79399D02*
X13556Y79423D01*
X15003Y79421D02*
X15004Y79397D01*
X13563Y79318D02*
X14996D01*
X13561Y79345D02*
X14999D01*
X13559Y79372D02*
X15002D01*
X13564Y79298D02*
X13557Y79399D01*
X15004Y79397D02*
X14994Y79295D01*
X13572Y79275D02*
X13564Y79298D01*
X14994Y79295D02*
X14991Y79272D01*
X13566Y79525D02*
X13569Y79548D01*
X14990Y79547D02*
X14995Y79523D01*
X13578Y79578D02*
X14982D01*
X13585Y79604D02*
X14975D01*
X13592Y79629D02*
X14969D01*
X13569Y79548D02*
X13597Y79647D01*
X14965Y79646D02*
X14990Y79547D01*
X13608Y79167D02*
X14961D01*
X13595Y79204D02*
X14972D01*
X13583Y79242D02*
X14982D01*
X13613Y79149D02*
X13572Y79275D01*
X14991Y79272D02*
X14956Y79150D01*
X13597Y79647D02*
X13604Y79670D01*
X14955Y79668D02*
X14965Y79646D01*
X13620Y79704D02*
X14939D01*
X13642Y79748D02*
X14919D01*
X13604Y79670D02*
X13649Y79763D01*
X14914Y79761D02*
X14955Y79668D01*
X13632Y79093D02*
X14928D01*
X13624Y79116D02*
X14939D01*
X13638Y79076D02*
X13613Y79149D01*
X14956Y79150D02*
X14921Y79078D01*
X13639Y79072D02*
X13638Y79076D01*
X14921Y79078D02*
X14917Y79071D01*
X13662Y79038D02*
X13639Y79072D01*
X14917Y79071D02*
X14901Y79037D01*
X13649Y79763D02*
X13659Y79783D01*
X14900Y79782D02*
X14914Y79761D01*
X13687Y79822D02*
X14873D01*
X13712Y79857D02*
X14849D01*
X13659Y79783D02*
X13720Y79867D01*
X14843Y79866D02*
X14900Y79782D01*
X13711Y78963D02*
X14848D01*
X13688Y78998D02*
X14873D01*
X13717Y78954D02*
X13662Y79038D01*
X14901Y79037D02*
X14840Y78953D01*
X13735Y78936D02*
X13717Y78954D01*
X14840Y78953D02*
X14827Y78935D01*
X13720Y79867D02*
X13733Y79885D01*
X14825Y79884D02*
X14843Y79866D01*
X13777Y79927D02*
X14784D01*
X13801Y79951D02*
X14761D01*
X13733Y79885D02*
X13808Y79958D01*
X14755Y79957D02*
X14825Y79884D01*
X13799Y78869D02*
X14759D01*
X13776Y78893D02*
X14783D01*
X13805Y78863D02*
X13735Y78936D01*
X14827Y78935D02*
X14752Y78862D01*
X13826Y78848D02*
X13805Y78863D01*
X14752Y78862D02*
X14736Y78847D01*
X13808Y79958D02*
X13824Y79973D01*
X14734Y79972D02*
X14755Y79957D01*
X13891Y80018D02*
X14671D01*
X13905Y80027D02*
X14658D01*
X13824Y79973D02*
X13911Y80032D01*
X14653Y80031D02*
X14734Y79972D01*
X13902Y78793D02*
X14655D01*
X13889Y78802D02*
X14669D01*
X13907Y78789D02*
X13826Y78848D01*
X14736Y78847D02*
X14649Y78788D01*
X13932Y78777D02*
X13907Y78789D01*
X14649Y78788D02*
X14631Y78776D01*
X13911Y80032D02*
X13929Y80044D01*
X14628Y80043D02*
X14653Y80031D01*
X14028Y80088D02*
X14536D01*
X13929Y80044D02*
X14026Y80087D01*
X14540Y80086D02*
X14628Y80043D01*
X14024Y78732D02*
X14531D01*
X14020Y78734D02*
X13932Y78777D01*
X14631Y78776D02*
X14534Y78733D01*
X14049Y78725D02*
X14020Y78734D01*
X14534Y78733D02*
X14516Y78725D01*
X14026Y80087D02*
X14044Y80095D01*
X14511Y80095D02*
X14540Y80086D01*
X14044Y80095D02*
X14151Y80122D01*
X14418Y80121D02*
X14511Y80095D01*
X14142Y78699D02*
X14049Y78725D01*
X14516Y78725D02*
X14409Y78698D01*
X14183Y78695D02*
X14142Y78699D01*
X14409Y78698D02*
X14393Y78695D01*
X14151Y80122D02*
X14167Y80126D01*
X14377Y80125D02*
X14418Y80121D01*
X14167Y80126D02*
X14293Y80134D01*
X14377Y80125D01*
X14267Y78686D02*
X14183Y78695D01*
X14393Y78695D02*
X14267Y78686D01*
G54D18*
X50800Y41286D02*
Y41838D01*
X51200Y41286D02*
Y41838D01*
X51600Y41286D02*
Y41838D01*
X52000Y41286D02*
Y41838D01*
X52400Y41286D02*
Y41838D01*
X52800Y41286D02*
Y41838D01*
X53200Y41286D02*
Y41838D01*
Y49162D02*
Y49714D01*
X52800Y49162D02*
Y49714D01*
X52400Y49162D02*
Y49714D01*
X52000Y49162D02*
Y49714D01*
X51600Y49162D02*
Y49714D01*
X51200Y49162D02*
Y49714D01*
X50800Y49162D02*
Y49714D01*
X53600Y41286D02*
Y41838D01*
X54000Y41286D02*
Y41838D01*
X54400Y41286D02*
Y41838D01*
X54800Y41286D02*
Y41838D01*
X55200Y41286D02*
Y41838D01*
X55600Y41286D02*
Y41838D01*
X56000Y41286D02*
Y41838D01*
X56400Y41286D02*
Y41838D01*
X56800Y41286D02*
Y41838D01*
X57200Y41286D02*
Y41838D01*
Y49162D02*
Y49714D01*
X56800Y49162D02*
Y49714D01*
X56400Y49162D02*
Y49714D01*
X56000Y49162D02*
Y49714D01*
X55600Y49162D02*
Y49714D01*
X55200Y49162D02*
Y49714D01*
X54800Y49162D02*
Y49714D01*
X54400Y49162D02*
Y49714D01*
X54000Y49162D02*
Y49714D01*
X53600Y49162D02*
Y49714D01*
G54D29*
X82340Y76880D03*
Y81960D03*
Y87040D03*
Y92120D03*
G54D27*
X74500Y45300D02*
Y45700D01*
G54D16*
X73950Y44800D02*
Y46200D01*
X75050Y44800D02*
Y46200D01*
G54D27*
X76500Y45300D02*
Y45700D01*
G54D16*
X75950Y44800D02*
Y46200D01*
X77050Y44800D02*
Y46200D01*
G54D15*
X10550Y92500D02*
X10650D01*
G54D16*
X10200Y92900D02*
X11000D01*
X10200Y92100D02*
X11000D01*
G54D15*
X12350Y92500D02*
X12450D01*
G54D16*
X12000Y92900D02*
X12800D01*
X12000Y92100D02*
X12800D01*
G54D15*
X23050Y92500D02*
X23150D01*
G54D16*
X22700Y92900D02*
X23500D01*
X22700Y92100D02*
X23500D01*
G54D15*
X24850Y92500D02*
X24950D01*
G54D16*
X24500Y92900D02*
X25300D01*
X24500Y92100D02*
X25300D01*
G54D15*
X35550Y92500D02*
X35650D01*
G54D16*
X35200Y92900D02*
X36000D01*
X35200Y92100D02*
X36000D01*
G54D15*
X37350Y92500D02*
X37450D01*
G54D16*
X37000Y92900D02*
X37800D01*
X37000Y92100D02*
X37800D01*
G54D15*
X41550Y23300D02*
X41650D01*
G54D16*
X41200Y23700D02*
X42000D01*
X41200Y22900D02*
X42000D01*
G54D15*
X43350Y23300D02*
X43450D01*
G54D16*
X43000Y23700D02*
X43800D01*
X43000Y22900D02*
X43800D01*
G54D15*
X44050Y50700D02*
X44150D01*
G54D16*
X43700Y51100D02*
X44500D01*
X43700Y50300D02*
X44500D01*
G54D15*
X45850Y50700D02*
X45950D01*
G54D16*
X45500Y51100D02*
X46300D01*
X45500Y50300D02*
X46300D01*
G54D15*
X48050Y92500D02*
X48150D01*
G54D16*
X47700Y92900D02*
X48500D01*
X47700Y92100D02*
X48500D01*
G54D15*
X49850Y92500D02*
X49950D01*
G54D16*
X49500Y92900D02*
X50300D01*
X49500Y92100D02*
X50300D01*
G54D15*
X57550Y29500D02*
X57650D01*
G54D16*
X57200Y29900D02*
X58000D01*
X57200Y29100D02*
X58000D01*
G54D15*
X59350Y29500D02*
X59450D01*
G54D16*
X59000Y29900D02*
X59800D01*
X59000Y29100D02*
X59800D01*
G54D15*
X56050Y86500D02*
X56150D01*
G54D16*
X55700Y86900D02*
X56500D01*
X55700Y86100D02*
X56500D01*
G54D15*
X57850Y86500D02*
X57950D01*
G54D16*
X57500Y86900D02*
X58300D01*
X57500Y86100D02*
X58300D01*
G54D15*
X56050Y88500D02*
X56150D01*
G54D16*
X55700Y88900D02*
X56500D01*
X55700Y88100D02*
X56500D01*
G54D15*
X57850Y88500D02*
X57950D01*
G54D16*
X57500Y88900D02*
X58300D01*
X57500Y88100D02*
X58300D01*
G54D15*
X60050Y86000D02*
X60150D01*
G54D16*
X59700Y86400D02*
X60500D01*
X59700Y85600D02*
X60500D01*
G54D15*
X61850Y86000D02*
X61950D01*
G54D16*
X61500Y86400D02*
X62300D01*
X61500Y85600D02*
X62300D01*
G54D15*
X66550Y108500D02*
X66650D01*
G54D16*
X66200Y108900D02*
X67000D01*
X66200Y108100D02*
X67000D01*
G54D15*
X68550Y83500D02*
X68650D01*
G54D16*
X68200Y83900D02*
X69000D01*
X68200Y83100D02*
X69000D01*
G54D15*
X70350Y83500D02*
X70450D01*
G54D16*
X70000Y83900D02*
X70800D01*
X70000Y83100D02*
X70800D01*
G54D15*
X68350Y108500D02*
X68450D01*
G54D16*
X68000Y108900D02*
X68800D01*
X68000Y108100D02*
X68800D01*
G54D15*
X77550Y81500D02*
X77650D01*
G54D16*
X77200Y81900D02*
X78000D01*
X77200Y81100D02*
X78000D01*
G54D15*
X79350Y81500D02*
X79450D01*
G54D16*
X79000Y81900D02*
X79800D01*
X79000Y81100D02*
X79800D01*
G54D15*
X89050Y24500D02*
X89150D01*
G54D16*
X88700Y24900D02*
X89500D01*
X88700Y24100D02*
X89500D01*
G54D15*
X90850Y24500D02*
X90950D01*
G54D16*
X90500Y24900D02*
X91300D01*
X90500Y24100D02*
X91300D01*
G54D30*
X20750Y28750D02*
X22650D01*
X20750Y46150D02*
X22650D01*
X20750Y63550D02*
X22650D01*
X20750Y80950D02*
X22650D01*
X27850Y28750D02*
X29750D01*
X27850Y46150D02*
X29750D01*
X27850Y63550D02*
X29750D01*
X27850Y80950D02*
X29750D01*
G54D13*
X12793Y27447D02*
X12921Y27434D01*
X13044Y27398D01*
X13160Y27342D01*
X13264Y27266D01*
X13353Y27174D01*
X13432Y27054D01*
X13434Y27048D01*
X13508Y26825D01*
X13517Y26697D01*
X13504Y26569D01*
X13468Y26446D01*
X13412Y26330D01*
X13336Y26226D01*
X13244Y26137D01*
X13138Y26065D01*
X13020Y26013D01*
X12895Y25982D01*
X12767Y25973D01*
X12639Y25986D01*
X12516Y26022D01*
X12400Y26078D01*
X12296Y26154D01*
X12207Y26246D01*
X12135Y26353D01*
X12083Y26470D01*
X12052Y26595D01*
X12043Y26723D01*
X12056Y26851D01*
X12092Y26974D01*
X12148Y27090D01*
X12224Y27194D01*
X12316Y27283D01*
X12423Y27355D01*
X12540Y27407D01*
X12665Y27438D01*
X12793Y27447D01*
G54D14*
X12067Y26827D02*
X13494D01*
X12056Y26723D02*
X13503D01*
X12057Y26697D02*
X13504D01*
X12065Y26593D02*
X13493D01*
X12070Y26853D02*
X13486D01*
X12108Y26979D02*
X13444D01*
X12071Y26567D02*
X13490D01*
X12098Y26466D02*
X13461D01*
X12144Y27053D02*
X13418D01*
X12109Y26441D02*
X13452D01*
X12147Y27060D02*
X13413D01*
X12168Y27096D02*
X13389D01*
X12154Y26346D02*
X13406D01*
X12230Y27182D02*
X13328D01*
X12170Y26324D02*
X13392D01*
X12232Y26238D02*
X13330D01*
X12250Y27202D02*
X13309D01*
X12328Y27276D02*
X13229D01*
X12251Y26218D02*
X13310D01*
X12331Y26144D02*
X13232D01*
X12353Y27293D02*
X13206D01*
X12449Y27353D02*
X13109D01*
X12354Y26127D02*
X13207D01*
X12451Y26067D02*
X13111D01*
X12478Y27366D02*
X13082D01*
X12603Y27410D02*
X12958D01*
X12478Y26054D02*
X13082D01*
X12602Y26010D02*
X12957D01*
X12639Y27419D02*
X12927D01*
X12633Y26001D02*
X12921D01*
X12058Y26748D02*
X13501D01*
X12061Y26775D02*
X13499D01*
X12064Y26802D02*
X13497D01*
X12056Y26723D02*
X12066Y26825D01*
X13496Y26822D02*
X13503Y26721D01*
X12057Y26699D02*
X12056Y26723D01*
X13503Y26721D02*
X13504Y26697D01*
X12063Y26618D02*
X13496D01*
X12061Y26645D02*
X13499D01*
X12059Y26672D02*
X13502D01*
X12065Y26597D02*
X12057Y26699D01*
X13504Y26697D02*
X13494Y26595D01*
X12070Y26573D02*
X12065Y26597D01*
X13494Y26595D02*
X13491Y26572D01*
X12066Y26825D02*
X12069Y26848D01*
X13488Y26845D02*
X13496Y26822D01*
X12078Y26878D02*
X13477D01*
X12088Y26916D02*
X13465D01*
X12099Y26953D02*
X13452D01*
X12069Y26848D02*
X12104Y26970D01*
X13447Y26971D02*
X13488Y26845D01*
X12091Y26491D02*
X13468D01*
X12085Y26516D02*
X13475D01*
X12078Y26542D02*
X13482D01*
X12095Y26474D02*
X12070Y26573D01*
X13491Y26572D02*
X13463Y26473D01*
X12105Y26452D02*
X12095Y26474D01*
X13463Y26473D02*
X13456Y26450D01*
X12121Y27004D02*
X13436D01*
X12132Y27027D02*
X13428D01*
X12104Y26970D02*
X12139Y27042D01*
X13422Y27044D02*
X13447Y26971D01*
X12141Y26372D02*
X13418D01*
X12121Y26416D02*
X13440D01*
X12146Y26359D02*
X12105Y26452D01*
X13456Y26450D02*
X13411Y26357D01*
X12139Y27042D02*
X12143Y27049D01*
X13421Y27048D02*
X13422Y27044D01*
X12143Y27049D02*
X12159Y27083D01*
X13398Y27082D02*
X13421Y27048D01*
X12160Y26338D02*
X12146Y26359D01*
X13411Y26357D02*
X13401Y26337D01*
X12187Y27122D02*
X13372D01*
X12212Y27157D02*
X13349D01*
X12159Y27083D02*
X12220Y27167D01*
X13343Y27166D02*
X13398Y27082D01*
X12211Y26263D02*
X13348D01*
X12187Y26298D02*
X13373D01*
X12217Y26254D02*
X12160Y26338D01*
X13401Y26337D02*
X13340Y26253D01*
X12235Y26236D02*
X12217Y26254D01*
X13340Y26253D02*
X13327Y26235D01*
X12220Y27167D02*
X12233Y27185D01*
X13325Y27184D02*
X13343Y27166D01*
X12277Y27227D02*
X13284D01*
X12301Y27251D02*
X13261D01*
X12233Y27185D02*
X12308Y27258D01*
X13255Y27257D02*
X13325Y27184D01*
X12299Y26169D02*
X13259D01*
X12276Y26193D02*
X13283D01*
X12305Y26163D02*
X12235Y26236D01*
X13327Y26235D02*
X13252Y26162D01*
X12326Y26148D02*
X12305Y26163D01*
X13252Y26162D02*
X13236Y26147D01*
X12308Y27258D02*
X12324Y27273D01*
X13234Y27272D02*
X13255Y27257D01*
X12391Y27318D02*
X13171D01*
X12405Y27327D02*
X13158D01*
X12324Y27273D02*
X12411Y27332D01*
X13153Y27331D02*
X13234Y27272D01*
X12402Y26093D02*
X13155D01*
X12389Y26102D02*
X13169D01*
X12407Y26089D02*
X12326Y26148D01*
X13236Y26147D02*
X13149Y26088D01*
X12432Y26077D02*
X12407Y26089D01*
X13149Y26088D02*
X13131Y26076D01*
X12411Y27332D02*
X12429Y27344D01*
X13128Y27343D02*
X13153Y27331D01*
X12529Y27388D02*
X13036D01*
X12429Y27344D02*
X12526Y27387D01*
X13040Y27386D02*
X13128Y27343D01*
X12524Y26032D02*
X13032D01*
X12520Y26034D02*
X12432Y26077D01*
X13131Y26076D02*
X13034Y26033D01*
X12549Y26025D02*
X12520Y26034D01*
X13034Y26033D02*
X13016Y26025D01*
X12526Y27387D02*
X12544Y27395D01*
X13011Y27395D02*
X13040Y27386D01*
X12544Y27395D02*
X12651Y27422D01*
X12918Y27421D02*
X13011Y27395D01*
X12642Y25999D02*
X12549Y26025D01*
X13016Y26025D02*
X12909Y25998D01*
X12683Y25995D02*
X12642Y25999D01*
X12909Y25998D02*
X12893Y25994D01*
X12651Y27422D02*
X12667Y27425D01*
X12877Y27425D02*
X12918Y27421D01*
X12667Y27425D02*
X12793Y27434D01*
X12877Y27425D01*
X12767Y25986D02*
X12683Y25995D01*
X12893Y25994D02*
X12767Y25986D01*
G54D13*
X12793Y44847D02*
X12921Y44834D01*
X13044Y44798D01*
X13160Y44742D01*
X13264Y44666D01*
X13353Y44574D01*
X13432Y44454D01*
X13434Y44448D01*
X13508Y44225D01*
X13517Y44097D01*
X13504Y43969D01*
X13468Y43846D01*
X13412Y43730D01*
X13336Y43626D01*
X13244Y43537D01*
X13138Y43465D01*
X13020Y43413D01*
X12895Y43382D01*
X12767Y43373D01*
X12639Y43386D01*
X12516Y43422D01*
X12400Y43478D01*
X12296Y43554D01*
X12207Y43646D01*
X12135Y43753D01*
X12083Y43870D01*
X12052Y43995D01*
X12043Y44123D01*
X12056Y44251D01*
X12092Y44374D01*
X12148Y44490D01*
X12224Y44594D01*
X12316Y44683D01*
X12423Y44755D01*
X12540Y44807D01*
X12665Y44838D01*
X12793Y44847D01*
G54D14*
X12067Y44227D02*
X13494D01*
X12056Y44123D02*
X13503D01*
X12057Y44097D02*
X13504D01*
X12065Y43993D02*
X13493D01*
X12070Y44253D02*
X13486D01*
X12108Y44379D02*
X13444D01*
X12071Y43967D02*
X13490D01*
X12098Y43866D02*
X13461D01*
X12144Y44453D02*
X13418D01*
X12109Y43841D02*
X13452D01*
X12147Y44460D02*
X13413D01*
X12168Y44496D02*
X13389D01*
X12154Y43746D02*
X13406D01*
X12230Y44582D02*
X13328D01*
X12170Y43724D02*
X13392D01*
X12232Y43638D02*
X13330D01*
X12250Y44602D02*
X13309D01*
X12328Y44676D02*
X13229D01*
X12251Y43618D02*
X13310D01*
X12331Y43544D02*
X13232D01*
X12353Y44693D02*
X13206D01*
X12449Y44753D02*
X13109D01*
X12354Y43527D02*
X13207D01*
X12451Y43467D02*
X13111D01*
X12478Y44766D02*
X13082D01*
X12603Y44810D02*
X12958D01*
X12478Y43454D02*
X13082D01*
X12602Y43410D02*
X12957D01*
X12639Y44819D02*
X12927D01*
X12633Y43401D02*
X12921D01*
X12058Y44148D02*
X13501D01*
X12061Y44175D02*
X13499D01*
X12064Y44202D02*
X13497D01*
X12056Y44123D02*
X12066Y44225D01*
X13496Y44222D02*
X13503Y44121D01*
X12057Y44099D02*
X12056Y44123D01*
X13503Y44121D02*
X13504Y44097D01*
X12063Y44018D02*
X13496D01*
X12061Y44045D02*
X13499D01*
X12059Y44072D02*
X13502D01*
X12065Y43997D02*
X12057Y44099D01*
X13504Y44097D02*
X13494Y43995D01*
X12070Y43973D02*
X12065Y43997D01*
X13494Y43995D02*
X13491Y43972D01*
X12066Y44225D02*
X12069Y44248D01*
X13488Y44245D02*
X13496Y44222D01*
X12078Y44278D02*
X13477D01*
X12088Y44316D02*
X13465D01*
X12099Y44353D02*
X13452D01*
X12069Y44248D02*
X12104Y44370D01*
X13447Y44371D02*
X13488Y44245D01*
X12091Y43891D02*
X13468D01*
X12085Y43916D02*
X13475D01*
X12078Y43942D02*
X13482D01*
X12095Y43874D02*
X12070Y43973D01*
X13491Y43972D02*
X13463Y43873D01*
X12105Y43852D02*
X12095Y43874D01*
X13463Y43873D02*
X13456Y43850D01*
X12121Y44404D02*
X13436D01*
X12132Y44427D02*
X13428D01*
X12104Y44370D02*
X12139Y44442D01*
X13422Y44444D02*
X13447Y44371D01*
X12141Y43772D02*
X13418D01*
X12121Y43816D02*
X13440D01*
X12146Y43759D02*
X12105Y43852D01*
X13456Y43850D02*
X13411Y43757D01*
X12139Y44442D02*
X12143Y44449D01*
X13421Y44448D02*
X13422Y44444D01*
X12143Y44449D02*
X12159Y44483D01*
X13398Y44482D02*
X13421Y44448D01*
X12160Y43738D02*
X12146Y43759D01*
X13411Y43757D02*
X13401Y43737D01*
X12187Y44522D02*
X13372D01*
X12212Y44557D02*
X13349D01*
X12159Y44483D02*
X12220Y44567D01*
X13343Y44566D02*
X13398Y44482D01*
X12211Y43663D02*
X13348D01*
X12187Y43698D02*
X13373D01*
X12217Y43654D02*
X12160Y43738D01*
X13401Y43737D02*
X13340Y43653D01*
X12235Y43636D02*
X12217Y43654D01*
X13340Y43653D02*
X13327Y43635D01*
X12220Y44567D02*
X12233Y44585D01*
X13325Y44584D02*
X13343Y44566D01*
X12277Y44627D02*
X13284D01*
X12301Y44651D02*
X13261D01*
X12233Y44585D02*
X12308Y44658D01*
X13255Y44657D02*
X13325Y44584D01*
X12299Y43569D02*
X13259D01*
X12276Y43593D02*
X13283D01*
X12305Y43563D02*
X12235Y43636D01*
X13327Y43635D02*
X13252Y43562D01*
X12326Y43548D02*
X12305Y43563D01*
X13252Y43562D02*
X13236Y43547D01*
X12308Y44658D02*
X12324Y44673D01*
X13234Y44672D02*
X13255Y44657D01*
X12391Y44718D02*
X13171D01*
X12405Y44727D02*
X13158D01*
X12324Y44673D02*
X12411Y44732D01*
X13153Y44731D02*
X13234Y44672D01*
X12402Y43493D02*
X13155D01*
X12389Y43502D02*
X13169D01*
X12407Y43489D02*
X12326Y43548D01*
X13236Y43547D02*
X13149Y43488D01*
X12432Y43477D02*
X12407Y43489D01*
X13149Y43488D02*
X13131Y43476D01*
X12411Y44732D02*
X12429Y44744D01*
X13128Y44743D02*
X13153Y44731D01*
X12529Y44788D02*
X13036D01*
X12429Y44744D02*
X12526Y44787D01*
X13040Y44786D02*
X13128Y44743D01*
X12524Y43432D02*
X13032D01*
X12520Y43434D02*
X12432Y43477D01*
X13131Y43476D02*
X13034Y43433D01*
X12549Y43425D02*
X12520Y43434D01*
X13034Y43433D02*
X13016Y43425D01*
X12526Y44787D02*
X12544Y44795D01*
X13011Y44795D02*
X13040Y44786D01*
X12544Y44795D02*
X12651Y44822D01*
X12918Y44821D02*
X13011Y44795D01*
X12642Y43399D02*
X12549Y43425D01*
X13016Y43425D02*
X12909Y43398D01*
X12683Y43395D02*
X12642Y43399D01*
X12909Y43398D02*
X12893Y43394D01*
X12651Y44822D02*
X12667Y44825D01*
X12877Y44825D02*
X12918Y44821D01*
X12667Y44825D02*
X12793Y44834D01*
X12877Y44825D01*
X12767Y43386D02*
X12683Y43395D01*
X12893Y43394D02*
X12767Y43386D01*
G54D13*
X12793Y62247D02*
X12921Y62234D01*
X13044Y62198D01*
X13160Y62142D01*
X13264Y62066D01*
X13353Y61974D01*
X13432Y61854D01*
X13434Y61848D01*
X13508Y61625D01*
X13517Y61497D01*
X13504Y61369D01*
X13468Y61246D01*
X13412Y61130D01*
X13336Y61026D01*
X13244Y60937D01*
X13138Y60865D01*
X13020Y60813D01*
X12895Y60782D01*
X12767Y60773D01*
X12639Y60786D01*
X12516Y60822D01*
X12400Y60878D01*
X12296Y60954D01*
X12207Y61046D01*
X12135Y61153D01*
X12083Y61270D01*
X12052Y61395D01*
X12043Y61523D01*
X12056Y61651D01*
X12092Y61774D01*
X12148Y61890D01*
X12224Y61994D01*
X12316Y62083D01*
X12423Y62155D01*
X12540Y62207D01*
X12665Y62238D01*
X12793Y62247D01*
G54D14*
X12067Y61627D02*
X13494D01*
X12056Y61523D02*
X13503D01*
X12057Y61497D02*
X13504D01*
X12065Y61393D02*
X13493D01*
X12070Y61653D02*
X13486D01*
X12108Y61779D02*
X13444D01*
X12071Y61367D02*
X13490D01*
X12098Y61266D02*
X13461D01*
X12144Y61853D02*
X13418D01*
X12109Y61241D02*
X13452D01*
X12147Y61860D02*
X13413D01*
X12168Y61896D02*
X13389D01*
X12154Y61146D02*
X13406D01*
X12230Y61982D02*
X13328D01*
X12170Y61124D02*
X13392D01*
X12232Y61038D02*
X13330D01*
X12250Y62002D02*
X13309D01*
X12328Y62076D02*
X13229D01*
X12251Y61018D02*
X13310D01*
X12331Y60944D02*
X13232D01*
X12353Y62093D02*
X13206D01*
X12449Y62153D02*
X13109D01*
X12354Y60927D02*
X13207D01*
X12451Y60867D02*
X13111D01*
X12478Y62166D02*
X13082D01*
X12603Y62210D02*
X12958D01*
X12478Y60854D02*
X13082D01*
X12602Y60810D02*
X12957D01*
X12639Y62219D02*
X12927D01*
X12633Y60801D02*
X12921D01*
X12058Y61548D02*
X13501D01*
X12061Y61575D02*
X13499D01*
X12064Y61602D02*
X13497D01*
X12056Y61523D02*
X12066Y61625D01*
X13496Y61622D02*
X13503Y61521D01*
X12057Y61499D02*
X12056Y61523D01*
X13503Y61521D02*
X13504Y61497D01*
X12063Y61418D02*
X13496D01*
X12061Y61445D02*
X13499D01*
X12059Y61472D02*
X13502D01*
X12065Y61397D02*
X12057Y61499D01*
X13504Y61497D02*
X13494Y61395D01*
X12070Y61373D02*
X12065Y61397D01*
X13494Y61395D02*
X13491Y61372D01*
X12066Y61625D02*
X12069Y61648D01*
X13488Y61645D02*
X13496Y61622D01*
X12078Y61678D02*
X13477D01*
X12088Y61716D02*
X13465D01*
X12099Y61753D02*
X13452D01*
X12069Y61648D02*
X12104Y61770D01*
X13447Y61771D02*
X13488Y61645D01*
X12091Y61291D02*
X13468D01*
X12085Y61316D02*
X13475D01*
X12078Y61342D02*
X13482D01*
X12095Y61274D02*
X12070Y61373D01*
X13491Y61372D02*
X13463Y61273D01*
X12105Y61252D02*
X12095Y61274D01*
X13463Y61273D02*
X13456Y61250D01*
X12121Y61804D02*
X13436D01*
X12132Y61827D02*
X13428D01*
X12104Y61770D02*
X12139Y61842D01*
X13422Y61844D02*
X13447Y61771D01*
X12141Y61172D02*
X13418D01*
X12121Y61216D02*
X13440D01*
X12146Y61159D02*
X12105Y61252D01*
X13456Y61250D02*
X13411Y61157D01*
X12139Y61842D02*
X12143Y61849D01*
X13421Y61848D02*
X13422Y61844D01*
X12143Y61849D02*
X12159Y61883D01*
X13398Y61882D02*
X13421Y61848D01*
X12160Y61138D02*
X12146Y61159D01*
X13411Y61157D02*
X13401Y61137D01*
X12187Y61922D02*
X13372D01*
X12212Y61957D02*
X13349D01*
X12159Y61883D02*
X12220Y61967D01*
X13343Y61966D02*
X13398Y61882D01*
X12211Y61063D02*
X13348D01*
X12187Y61098D02*
X13373D01*
X12217Y61054D02*
X12160Y61138D01*
X13401Y61137D02*
X13340Y61053D01*
X12235Y61036D02*
X12217Y61054D01*
X13340Y61053D02*
X13327Y61035D01*
X12220Y61967D02*
X12233Y61985D01*
X13325Y61984D02*
X13343Y61966D01*
X12277Y62027D02*
X13284D01*
X12301Y62051D02*
X13261D01*
X12233Y61985D02*
X12308Y62058D01*
X13255Y62057D02*
X13325Y61984D01*
X12299Y60969D02*
X13259D01*
X12276Y60993D02*
X13283D01*
X12305Y60963D02*
X12235Y61036D01*
X13327Y61035D02*
X13252Y60962D01*
X12326Y60948D02*
X12305Y60963D01*
X13252Y60962D02*
X13236Y60947D01*
X12308Y62058D02*
X12324Y62073D01*
X13234Y62072D02*
X13255Y62057D01*
X12391Y62118D02*
X13171D01*
X12405Y62127D02*
X13158D01*
X12324Y62073D02*
X12411Y62132D01*
X13153Y62131D02*
X13234Y62072D01*
X12402Y60893D02*
X13155D01*
X12389Y60902D02*
X13169D01*
X12407Y60889D02*
X12326Y60948D01*
X13236Y60947D02*
X13149Y60888D01*
X12432Y60877D02*
X12407Y60889D01*
X13149Y60888D02*
X13131Y60876D01*
X12411Y62132D02*
X12429Y62144D01*
X13128Y62143D02*
X13153Y62131D01*
X12529Y62188D02*
X13036D01*
X12429Y62144D02*
X12526Y62187D01*
X13040Y62186D02*
X13128Y62143D01*
X12524Y60832D02*
X13032D01*
X12520Y60834D02*
X12432Y60877D01*
X13131Y60876D02*
X13034Y60833D01*
X12549Y60825D02*
X12520Y60834D01*
X13034Y60833D02*
X13016Y60825D01*
X12526Y62187D02*
X12544Y62195D01*
X13011Y62195D02*
X13040Y62186D01*
X12544Y62195D02*
X12651Y62222D01*
X12918Y62221D02*
X13011Y62195D01*
X12642Y60799D02*
X12549Y60825D01*
X13016Y60825D02*
X12909Y60798D01*
X12683Y60795D02*
X12642Y60799D01*
X12909Y60798D02*
X12893Y60794D01*
X12651Y62222D02*
X12667Y62225D01*
X12877Y62225D02*
X12918Y62221D01*
X12667Y62225D02*
X12793Y62234D01*
X12877Y62225D01*
X12767Y60786D02*
X12683Y60795D01*
X12893Y60794D02*
X12767Y60786D01*
G54D13*
X12793Y79647D02*
X12921Y79634D01*
X13044Y79598D01*
X13160Y79542D01*
X13264Y79466D01*
X13353Y79374D01*
X13432Y79254D01*
X13434Y79248D01*
X13508Y79025D01*
X13517Y78897D01*
X13504Y78769D01*
X13468Y78646D01*
X13412Y78530D01*
X13336Y78426D01*
X13244Y78337D01*
X13138Y78265D01*
X13020Y78213D01*
X12895Y78182D01*
X12767Y78173D01*
X12639Y78186D01*
X12516Y78222D01*
X12400Y78278D01*
X12296Y78354D01*
X12207Y78446D01*
X12135Y78553D01*
X12083Y78670D01*
X12052Y78795D01*
X12043Y78923D01*
X12056Y79051D01*
X12092Y79174D01*
X12148Y79290D01*
X12224Y79394D01*
X12316Y79483D01*
X12423Y79555D01*
X12540Y79607D01*
X12665Y79638D01*
X12793Y79647D01*
G54D14*
X12067Y79027D02*
X13494D01*
X12056Y78923D02*
X13503D01*
X12057Y78897D02*
X13504D01*
X12065Y78793D02*
X13493D01*
X12070Y79053D02*
X13486D01*
X12108Y79179D02*
X13444D01*
X12071Y78767D02*
X13490D01*
X12098Y78666D02*
X13461D01*
X12144Y79253D02*
X13418D01*
X12109Y78641D02*
X13452D01*
X12147Y79260D02*
X13413D01*
X12168Y79296D02*
X13389D01*
X12154Y78546D02*
X13406D01*
X12230Y79382D02*
X13328D01*
X12170Y78524D02*
X13392D01*
X12232Y78438D02*
X13330D01*
X12250Y79402D02*
X13309D01*
X12328Y79476D02*
X13229D01*
X12251Y78418D02*
X13310D01*
X12331Y78344D02*
X13232D01*
X12353Y79493D02*
X13206D01*
X12449Y79553D02*
X13109D01*
X12354Y78327D02*
X13207D01*
X12451Y78267D02*
X13111D01*
X12478Y79566D02*
X13082D01*
X12603Y79610D02*
X12958D01*
X12478Y78254D02*
X13082D01*
X12602Y78210D02*
X12957D01*
X12639Y79619D02*
X12927D01*
X12633Y78201D02*
X12921D01*
X12058Y78948D02*
X13501D01*
X12061Y78975D02*
X13499D01*
X12064Y79002D02*
X13497D01*
X12056Y78923D02*
X12066Y79025D01*
X13496Y79022D02*
X13503Y78921D01*
X12057Y78899D02*
X12056Y78923D01*
X13503Y78921D02*
X13504Y78897D01*
X12063Y78818D02*
X13496D01*
X12061Y78845D02*
X13499D01*
X12059Y78872D02*
X13502D01*
X12065Y78797D02*
X12057Y78899D01*
X13504Y78897D02*
X13494Y78795D01*
X12070Y78773D02*
X12065Y78797D01*
X13494Y78795D02*
X13491Y78772D01*
X12066Y79025D02*
X12069Y79048D01*
X13488Y79045D02*
X13496Y79022D01*
X12078Y79078D02*
X13477D01*
X12088Y79116D02*
X13465D01*
X12099Y79153D02*
X13452D01*
X12069Y79048D02*
X12104Y79170D01*
X13447Y79171D02*
X13488Y79045D01*
X12091Y78691D02*
X13468D01*
X12085Y78716D02*
X13475D01*
X12078Y78742D02*
X13482D01*
X12095Y78674D02*
X12070Y78773D01*
X13491Y78772D02*
X13463Y78673D01*
X12105Y78652D02*
X12095Y78674D01*
X13463Y78673D02*
X13456Y78650D01*
X12121Y79204D02*
X13436D01*
X12132Y79227D02*
X13428D01*
X12104Y79170D02*
X12139Y79242D01*
X13422Y79244D02*
X13447Y79171D01*
X12141Y78572D02*
X13418D01*
X12121Y78616D02*
X13440D01*
X12146Y78559D02*
X12105Y78652D01*
X13456Y78650D02*
X13411Y78557D01*
X12139Y79242D02*
X12143Y79249D01*
X13421Y79248D02*
X13422Y79244D01*
X12143Y79249D02*
X12159Y79283D01*
X13398Y79282D02*
X13421Y79248D01*
X12160Y78538D02*
X12146Y78559D01*
X13411Y78557D02*
X13401Y78537D01*
X12187Y79322D02*
X13372D01*
X12212Y79357D02*
X13349D01*
X12159Y79283D02*
X12220Y79367D01*
X13343Y79366D02*
X13398Y79282D01*
X12211Y78463D02*
X13348D01*
X12187Y78498D02*
X13373D01*
X12217Y78454D02*
X12160Y78538D01*
X13401Y78537D02*
X13340Y78453D01*
X12235Y78436D02*
X12217Y78454D01*
X13340Y78453D02*
X13327Y78435D01*
X12220Y79367D02*
X12233Y79385D01*
X13325Y79384D02*
X13343Y79366D01*
X12277Y79427D02*
X13284D01*
X12301Y79451D02*
X13261D01*
X12233Y79385D02*
X12308Y79458D01*
X13255Y79457D02*
X13325Y79384D01*
X12299Y78369D02*
X13259D01*
X12276Y78393D02*
X13283D01*
X12305Y78363D02*
X12235Y78436D01*
X13327Y78435D02*
X13252Y78362D01*
X12326Y78348D02*
X12305Y78363D01*
X13252Y78362D02*
X13236Y78347D01*
X12308Y79458D02*
X12324Y79473D01*
X13234Y79472D02*
X13255Y79457D01*
X12391Y79518D02*
X13171D01*
X12405Y79527D02*
X13158D01*
X12324Y79473D02*
X12411Y79532D01*
X13153Y79531D02*
X13234Y79472D01*
X12402Y78293D02*
X13155D01*
X12389Y78302D02*
X13169D01*
X12407Y78289D02*
X12326Y78348D01*
X13236Y78347D02*
X13149Y78288D01*
X12432Y78277D02*
X12407Y78289D01*
X13149Y78288D02*
X13131Y78276D01*
X12411Y79532D02*
X12429Y79544D01*
X13128Y79543D02*
X13153Y79531D01*
X12529Y79588D02*
X13036D01*
X12429Y79544D02*
X12526Y79587D01*
X13040Y79586D02*
X13128Y79543D01*
X12524Y78232D02*
X13032D01*
X12520Y78234D02*
X12432Y78277D01*
X13131Y78276D02*
X13034Y78233D01*
X12549Y78225D02*
X12520Y78234D01*
X13034Y78233D02*
X13016Y78225D01*
X12526Y79587D02*
X12544Y79595D01*
X13011Y79595D02*
X13040Y79586D01*
X12544Y79595D02*
X12651Y79622D01*
X12918Y79621D02*
X13011Y79595D01*
X12642Y78199D02*
X12549Y78225D01*
X13016Y78225D02*
X12909Y78198D01*
X12683Y78195D02*
X12642Y78199D01*
X12909Y78198D02*
X12893Y78194D01*
X12651Y79622D02*
X12667Y79625D01*
X12877Y79625D02*
X12918Y79621D01*
X12667Y79625D02*
X12793Y79634D01*
X12877Y79625D01*
X12767Y78186D02*
X12683Y78195D01*
X12893Y78194D02*
X12767Y78186D01*
G54D31*
X55450Y80250D02*
X57050D01*
G54D16*
X54850Y80900D02*
X57650D01*
X54850Y79600D02*
X57650D01*
G54D31*
X58950Y80250D02*
X60550D01*
G54D16*
X58350Y80900D02*
X61150D01*
X58350Y79600D02*
X61150D01*
G54D31*
X55450Y83250D02*
X57050D01*
G54D16*
X54850Y83900D02*
X57650D01*
X54850Y82600D02*
X57650D01*
G54D31*
X58950Y83250D02*
X60550D01*
G54D16*
X58350Y83900D02*
X61150D01*
X58350Y82600D02*
X61150D01*
G54D32*
X6500Y4250D02*
X8500D01*
X23120Y12500D02*
X25120D01*
X38500Y4250D02*
X36500D01*
X71000Y12500D02*
X69000D01*
X94500D02*
X92500D01*
G54D18*
X49786Y44700D02*
X50338D01*
X49786Y44300D02*
X50338D01*
X49786Y43900D02*
X50338D01*
X49786Y43500D02*
X50338D01*
X49786Y43100D02*
X50338D01*
X49786Y42700D02*
X50338D01*
X49786Y42300D02*
X50338D01*
X49786Y48700D02*
X50338D01*
X49786Y48300D02*
X50338D01*
X49786Y47900D02*
X50338D01*
X49786Y47500D02*
X50338D01*
X49786Y47100D02*
X50338D01*
X49786Y46700D02*
X50338D01*
X49786Y46300D02*
X50338D01*
X49786Y45900D02*
X50338D01*
X49786Y45500D02*
X50338D01*
X49786Y45100D02*
X50338D01*
X57662Y42300D02*
X58214D01*
X57662Y42700D02*
X58214D01*
X57662Y43100D02*
X58214D01*
X57662Y43500D02*
X58214D01*
X57662Y43900D02*
X58214D01*
X57662Y44300D02*
X58214D01*
X57662Y44700D02*
X58214D01*
X57662Y45100D02*
X58214D01*
X57662Y45500D02*
X58214D01*
X57662Y45900D02*
X58214D01*
X57662Y46300D02*
X58214D01*
X57662Y46700D02*
X58214D01*
X57662Y47100D02*
X58214D01*
X57662Y47500D02*
X58214D01*
X57662Y47900D02*
X58214D01*
X57662Y48300D02*
X58214D01*
X57662Y48700D02*
X58214D01*
G54D33*
X75000Y62550D02*
Y64450D01*
X84000Y62550D02*
Y64450D01*
G54D31*
X38700Y15450D02*
Y16150D01*
G54D16*
X38050Y14850D02*
Y16750D01*
X39350Y14850D02*
Y16750D01*
G54D31*
X38700Y17950D02*
Y18650D01*
G54D16*
X38050Y17350D02*
Y19250D01*
X39350Y17350D02*
Y19250D01*
G54D31*
X41700Y15450D02*
Y16150D01*
G54D16*
X41050Y14850D02*
Y16750D01*
X42350Y14850D02*
Y16750D01*
G54D31*
X41700Y17950D02*
Y18650D01*
G54D16*
X41050Y17350D02*
Y19250D01*
X42350Y17350D02*
Y19250D01*
G54D31*
X45000Y79650D02*
Y80350D01*
G54D16*
X44350Y79050D02*
Y80950D01*
X45650Y79050D02*
Y80950D01*
G54D31*
X53000Y76650D02*
Y77350D01*
G54D16*
X52350Y76050D02*
Y77950D01*
X53650Y76050D02*
Y77950D01*
G54D31*
X48000Y79650D02*
Y80350D01*
G54D16*
X47350Y79050D02*
Y80950D01*
X48650Y79050D02*
Y80950D01*
G54D31*
X56000Y76650D02*
Y77350D01*
G54D16*
X55350Y76050D02*
Y77950D01*
X56650Y76050D02*
Y77950D01*
G54D34*
X65850Y52750D02*
Y53050D01*
Y50350D02*
Y50650D01*
X67550Y50350D02*
Y50650D01*
Y52750D02*
Y53050D01*
G54D24*
X78000Y74600D02*
Y74700D01*
Y76300D02*
Y76400D01*
G54D15*
X16405Y93800D02*
Y95450D01*
X15135Y93800D02*
Y95450D01*
X13865Y93800D02*
Y95450D01*
X12595Y93800D02*
Y95450D01*
Y99550D02*
Y101200D01*
X13865Y99550D02*
Y101200D01*
X15135Y99550D02*
Y101200D01*
X16405Y99550D02*
Y101200D01*
X28905Y93800D02*
Y95450D01*
X27635Y93800D02*
Y95450D01*
X26365Y93800D02*
Y95450D01*
X25095Y93800D02*
Y95450D01*
Y99550D02*
Y101200D01*
X26365Y99550D02*
Y101200D01*
X27635Y99550D02*
Y101200D01*
X28905Y99550D02*
Y101200D01*
X38865Y93800D02*
Y95450D01*
X37595Y93800D02*
Y95450D01*
Y99550D02*
Y101200D01*
X38865Y99550D02*
Y101200D01*
X41405Y93800D02*
Y95450D01*
X40135Y93800D02*
Y95450D01*
Y99550D02*
Y101200D01*
X41405Y99550D02*
Y101200D01*
X52635Y93800D02*
Y95450D01*
X51365Y93800D02*
Y95450D01*
X50095Y93800D02*
Y95450D01*
Y99550D02*
Y101200D01*
X51365Y99550D02*
Y101200D01*
X52635Y99550D02*
Y101200D01*
X53905Y93800D02*
Y95450D01*
Y99550D02*
Y101200D01*
X67865Y30800D02*
Y32450D01*
X66595Y30800D02*
Y32450D01*
Y36550D02*
Y38200D01*
X67865Y36550D02*
Y38200D01*
X70405Y30800D02*
Y32450D01*
X69135Y30800D02*
Y32450D01*
X75095Y25800D02*
Y27450D01*
X69135Y36550D02*
Y38200D01*
X70405Y36550D02*
Y38200D01*
X75095Y31550D02*
Y33200D01*
X78905Y25800D02*
Y27450D01*
X77635Y25800D02*
Y27450D01*
X76365Y25800D02*
Y27450D01*
Y31550D02*
Y33200D01*
X77635Y31550D02*
Y33200D01*
X78905Y31550D02*
Y33200D01*
G54D35*
X8000Y96550D02*
X10000D01*
G54D16*
X7200Y97400D02*
X10800D01*
X7200Y95700D02*
X10800D01*
G54D35*
X8000Y100450D02*
X10000D01*
G54D16*
X7200Y101300D02*
X10800D01*
X7200Y99600D02*
X10800D01*
G54D35*
X20500Y96550D02*
X22500D01*
G54D16*
X19700Y97400D02*
X23300D01*
X19700Y95700D02*
X23300D01*
G54D35*
X20500Y100450D02*
X22500D01*
G54D16*
X19700Y101300D02*
X23300D01*
X19700Y99600D02*
X23300D01*
G54D35*
X33000Y96550D02*
X35000D01*
G54D16*
X32200Y97400D02*
X35800D01*
X32200Y95700D02*
X35800D01*
G54D35*
X33000Y100450D02*
X35000D01*
G54D16*
X32200Y101300D02*
X35800D01*
X32200Y99600D02*
X35800D01*
G54D35*
X45500Y96550D02*
X47500D01*
G54D16*
X44700Y97400D02*
X48300D01*
X44700Y95700D02*
X48300D01*
G54D35*
X45500Y100450D02*
X47500D01*
G54D16*
X44700Y101300D02*
X48300D01*
X44700Y99600D02*
X48300D01*
G54D36*
X54000Y45500D03*
G54D31*
X81700Y100500D02*
X83300D01*
G54D16*
X81100Y101150D02*
X83900D01*
X81100Y99850D02*
X83900D01*
G54D31*
X77700Y100500D02*
X79300D01*
G54D16*
X77100Y101150D02*
X79900D01*
X77100Y99850D02*
X79900D01*
G54D31*
X81700Y103500D02*
X83300D01*
G54D16*
X81100Y104150D02*
X83900D01*
X81100Y102850D02*
X83900D01*
G54D31*
X77700Y103500D02*
X79300D01*
G54D16*
X77100Y104150D02*
X79900D01*
X77100Y102850D02*
X79900D01*
G54D31*
X89300Y60000D02*
X90900D01*
G54D16*
X88700Y60650D02*
X91500D01*
X88700Y59350D02*
X91500D01*
G54D31*
X89300Y63000D02*
X90900D01*
G54D16*
X88700Y63650D02*
X91500D01*
X88700Y62350D02*
X91500D01*
G54D31*
X92700Y60000D02*
X94300D01*
G54D16*
X92100Y60650D02*
X94900D01*
X92100Y59350D02*
X94900D01*
G54D31*
X92700Y63000D02*
X94300D01*
G54D16*
X92100Y63650D02*
X94900D01*
X92100Y62350D02*
X94900D01*
G54D37*
X5000Y115500D03*
X92000Y5000D03*
Y115500D03*
G54D15*
X16550Y103000D02*
X16650D01*
G54D16*
X16200Y103400D02*
X17000D01*
X16200Y102600D02*
X17000D01*
G54D15*
X18350Y103000D02*
X18450D01*
G54D16*
X18000Y103400D02*
X18800D01*
X18000Y102600D02*
X18800D01*
G54D15*
X30850Y103000D02*
X30950D01*
G54D16*
X30500Y103400D02*
X31300D01*
X30500Y102600D02*
X31300D01*
G54D15*
X29050Y103000D02*
X29150D01*
G54D16*
X28700Y103400D02*
X29500D01*
X28700Y102600D02*
X29500D01*
G54D15*
X43350Y103000D02*
X43450D01*
G54D16*
X43000Y103400D02*
X43800D01*
X43000Y102600D02*
X43800D01*
G54D15*
X41550Y103000D02*
X41650D01*
G54D16*
X41200Y103400D02*
X42000D01*
X41200Y102600D02*
X42000D01*
G54D15*
X60050Y88500D02*
X60150D01*
G54D16*
X59700Y88900D02*
X60500D01*
X59700Y88100D02*
X60500D01*
G54D15*
X55850Y103000D02*
X55950D01*
G54D16*
X55500Y103400D02*
X56300D01*
X55500Y102600D02*
X56300D01*
G54D15*
X54050Y103000D02*
X54150D01*
G54D16*
X53700Y103400D02*
X54500D01*
X53700Y102600D02*
X54500D01*
G54D15*
X61850Y88500D02*
X61950D01*
G54D16*
X61500Y88900D02*
X62300D01*
X61500Y88100D02*
X62300D01*
G54D15*
X77350Y20000D02*
X77450D01*
G54D16*
X77000Y20400D02*
X77800D01*
X77000Y19600D02*
X77800D01*
G54D15*
X75550Y20000D02*
X75650D01*
G54D16*
X75200Y20400D02*
X76000D01*
X75200Y19600D02*
X76000D01*
G54D15*
X80350Y45500D02*
X80450D01*
G54D16*
X80000Y45900D02*
X80800D01*
X80000Y45100D02*
X80800D01*
G54D15*
X78550Y45500D02*
X78650D01*
G54D16*
X78200Y45900D02*
X79000D01*
X78200Y45100D02*
X79000D01*
G54D15*
X88850Y31000D02*
X88950D01*
G54D16*
X88500Y31400D02*
X89300D01*
X88500Y30600D02*
X89300D01*
G54D15*
X87050Y31000D02*
X87150D01*
G54D16*
X86700Y31400D02*
X87500D01*
X86700Y30600D02*
X87500D01*
G54D15*
X92850Y31000D02*
X92950D01*
G54D16*
X92500Y31400D02*
X93300D01*
X92500Y30600D02*
X93300D01*
G54D15*
X91050Y31000D02*
X91150D01*
G54D16*
X90700Y31400D02*
X91500D01*
X90700Y30600D02*
X91500D01*
G54D31*
X72150Y79000D02*
X72850D01*
G54D16*
X71550Y79650D02*
X73450D01*
X71550Y78350D02*
X73450D01*
G54D31*
X72150Y76000D02*
X72850D01*
G54D16*
X71550Y76650D02*
X73450D01*
X71550Y75350D02*
X73450D01*
G54D27*
X46000Y16600D02*
X46400D01*
G54D16*
X45500Y17150D02*
X46900D01*
X45500Y16050D02*
X46900D01*
G54D27*
X46000Y18600D02*
X46400D01*
G54D16*
X45500Y19150D02*
X46900D01*
X45500Y18050D02*
X46900D01*
G54D27*
X62000Y56600D02*
X62400D01*
G54D16*
X61500Y57150D02*
X62900D01*
X61500Y56050D02*
X62900D01*
G54D27*
X62000Y54600D02*
X62400D01*
G54D16*
X61500Y55150D02*
X62900D01*
X61500Y54050D02*
X62900D01*
G54D13*
X66337Y75050D02*
Y73450D01*
X66300Y73413D02*
X64700D01*
X64663Y73450D02*
X64663Y74807D01*
X64665Y74813D01*
X64668Y74818D01*
X64671Y74824D01*
X64929Y75081D01*
X64935Y75084D01*
X64941Y75086D01*
X64947Y75087D01*
X64950Y75087D01*
X66300D01*
G54D14*
X64675Y73450D02*
X66325D01*
X64675Y73450D02*
X66325D01*
X64675Y73450D02*
X66325D01*
X64677Y74808D02*
X66325D01*
X64682Y74817D02*
X66325D01*
X64690Y74825D02*
X66325D01*
X64697Y74832D02*
X66325D01*
X64916Y75050D02*
X66325D01*
X64916Y75050D02*
X66325D01*
G54D13*
X64700Y73413D02*
X66300D01*
X64672Y73425D02*
X66328D01*
X64665Y73437D02*
X66335D01*
G54D14*
X66300Y73425D02*
X64700D01*
X64675Y73450D03*
X66325Y73450D03*
X64675Y73450D03*
X66325Y73450D03*
G54D38*
X64853Y73653D02*
X66147D01*
X64853Y73971D02*
X66147D01*
X64854Y74288D02*
X66147D01*
X64854Y74605D02*
X66147D01*
G54D14*
X64675Y73450D02*
X64676Y74805D01*
X66325Y74808D02*
Y73450D01*
G54D38*
X64853Y73653D02*
X64854Y74605D01*
X66147Y74808D02*
Y73653D01*
G54D14*
X64676Y74805D02*
X64677Y74808D01*
X66325Y74817D02*
Y74808D01*
X64677Y74808D02*
X64679Y74812D01*
X66325Y74825D02*
Y74817D01*
X64679Y74812D02*
X64681Y74816D01*
X66325Y74832D02*
Y74825D01*
G54D39*
X64785Y74883D02*
X66299D01*
X64843Y74941D02*
X66299D01*
X64901Y74999D02*
X66299D01*
G54D14*
X64681Y74816D02*
X64898Y75032D01*
X66325Y75050D02*
Y74832D01*
G54D39*
X64785Y74883D02*
X64916Y75014D01*
X66299Y74999D02*
Y74832D01*
G54D14*
X64898Y75032D03*
X66325Y75050D03*
X64898Y75032D02*
X64937Y75071D01*
X64940Y75072D01*
X66310Y75072D02*
X66314Y75070D01*
X64940Y75072D02*
X64944Y75074D01*
X66306Y75074D02*
X66310Y75072D01*
X64944Y75074D02*
X64949Y75075D01*
X66302D02*
X66306Y75074D01*
X64949Y75075D02*
X64951Y75075D01*
X66300D02*
X66302Y75075D01*
X64951Y75075D02*
X66300D01*
X66325Y73475D02*
X64675D01*
G54D39*
X64701Y73501D02*
X64702Y74758D01*
X66299Y73501D02*
X64701D01*
G54D40*
X64752Y73552D02*
X64752Y74707D01*
X66248Y73552D02*
X64752D01*
G54D14*
X64676Y74783D02*
X66325D01*
G54D39*
X64702Y74758D02*
X66299D01*
G54D40*
X64752Y74707D02*
X66248D01*
G54D39*
X66299Y74758D02*
Y73501D01*
G54D40*
X66248Y74707D02*
Y73552D01*
G54D14*
X66325Y74857D02*
X64723D01*
X64891Y75025D02*
X66325D01*
G54D13*
X66300Y75087D02*
G02X66337Y75050I0J-37D01*
Y73450D02*
G02X66300Y73413I-37J-0D01*
X64700D02*
G02X64663Y73450I-0J37D01*
G54D14*
X64700Y73425D02*
G02X64675Y73450I0J25D01*
X66325Y73450D02*
G02X66300Y73425I-25J0D01*
X66314Y75070D02*
G02X66325Y75050I-14J-20D01*
G54D33*
X70050Y94500D02*
G01X71950D01*
X70050Y103500D02*
X71950D01*
G54D15*
X14950Y103100D02*
X15050D01*
G54D16*
X14600Y103500D02*
X15400D01*
X14600Y102700D02*
X15400D01*
G54D15*
X14950Y104900D02*
X15050D01*
G54D16*
X14600Y105300D02*
X15400D01*
X14600Y104500D02*
X15400D01*
G54D15*
X27450Y103100D02*
X27550D01*
G54D16*
X27100Y103500D02*
X27900D01*
X27100Y102700D02*
X27900D01*
G54D15*
X27450Y104900D02*
X27550D01*
G54D16*
X27100Y105300D02*
X27900D01*
X27100Y104500D02*
X27900D01*
G54D15*
X39950Y103100D02*
X40050D01*
G54D16*
X39600Y103500D02*
X40400D01*
X39600Y102700D02*
X40400D01*
G54D15*
X39950Y104900D02*
X40050D01*
G54D16*
X39600Y105300D02*
X40400D01*
X39600Y104500D02*
X40400D01*
G54D15*
X52450Y103100D02*
X52550D01*
G54D16*
X52100Y103500D02*
X52900D01*
X52100Y102700D02*
X52900D01*
G54D15*
X52450Y104900D02*
X52550D01*
G54D16*
X52100Y105300D02*
X52900D01*
X52100Y104500D02*
X52900D01*
G54D15*
X54350Y14600D02*
X54450D01*
G54D16*
X54000Y15000D02*
X54800D01*
X54000Y14200D02*
X54800D01*
G54D15*
X54350Y16400D02*
X54450D01*
G54D16*
X54000Y16800D02*
X54800D01*
X54000Y16000D02*
X54800D01*
G54D15*
X57950Y90600D02*
X58050D01*
G54D16*
X57600Y91000D02*
X58400D01*
X57600Y90200D02*
X58400D01*
G54D15*
X57950Y92400D02*
X58050D01*
G54D16*
X57600Y92800D02*
X58400D01*
X57600Y92000D02*
X58400D01*
G54D15*
X59950Y94600D02*
X60050D01*
G54D16*
X59600Y95000D02*
X60400D01*
X59600Y94200D02*
X60400D01*
G54D15*
X59950Y96400D02*
X60050D01*
G54D16*
X59600Y96800D02*
X60400D01*
X59600Y96000D02*
X60400D01*
G54D15*
X67950Y27600D02*
X68050D01*
G54D16*
X67600Y28000D02*
X68400D01*
X67600Y27200D02*
X68400D01*
G54D15*
X67950Y29400D02*
X68050D01*
G54D16*
X67600Y29800D02*
X68400D01*
X67600Y29000D02*
X68400D01*
G54D15*
X61450Y73600D02*
X61550D01*
G54D16*
X61100Y74000D02*
X61900D01*
X61100Y73200D02*
X61900D01*
G54D15*
X61450Y75400D02*
X61550D01*
G54D16*
X61100Y75800D02*
X61900D01*
X61100Y75000D02*
X61900D01*
G54D15*
X61950Y90600D02*
X62050D01*
G54D16*
X61600Y91000D02*
X62400D01*
X61600Y90200D02*
X62400D01*
G54D15*
X61950Y92400D02*
X62050D01*
G54D16*
X61600Y92800D02*
X62400D01*
X61600Y92000D02*
X62400D01*
G54D15*
X69450Y27600D02*
X69550D01*
G54D16*
X69100Y28000D02*
X69900D01*
X69100Y27200D02*
X69900D01*
G54D15*
X69450Y29400D02*
X69550D01*
G54D16*
X69100Y29800D02*
X69900D01*
X69100Y29000D02*
X69900D01*
G54D41*
X57150Y7450D02*
Y5500D01*
X54000Y45500D03*
X51800Y43300D03*
Y45500D03*
X54000Y43300D03*
X51800Y47700D03*
X54000D03*
X56200Y43300D03*
Y45500D03*
Y47700D03*
G54D15*
X11950Y13400D02*
X12050D01*
G54D16*
X11600Y13800D02*
X12400D01*
X11600Y13000D02*
X12400D01*
G54D15*
X11950Y11600D02*
X12050D01*
G54D16*
X11600Y12000D02*
X12400D01*
X11600Y11200D02*
X12400D01*
G54D15*
X59700Y73600D02*
X59800D01*
G54D16*
X59350Y74000D02*
X60150D01*
X59350Y73200D02*
X60150D01*
G54D15*
X59700Y75400D02*
X59800D01*
G54D16*
X59350Y75800D02*
X60150D01*
X59350Y75000D02*
X60150D01*
G54D15*
X57950Y94600D02*
X58050D01*
G54D16*
X57600Y95000D02*
X58400D01*
X57600Y94200D02*
X58400D01*
G54D15*
X59950Y92400D02*
X60050D01*
G54D16*
X59600Y92800D02*
X60400D01*
X59600Y92000D02*
X60400D01*
G54D15*
X59950Y90600D02*
X60050D01*
G54D16*
X59600Y91000D02*
X60400D01*
X59600Y90200D02*
X60400D01*
G54D15*
X57950Y96400D02*
X58050D01*
G54D16*
X57600Y96800D02*
X58400D01*
X57600Y96000D02*
X58400D01*
G54D15*
X79950Y20400D02*
X80050D01*
G54D16*
X79600Y20800D02*
X80400D01*
X79600Y20000D02*
X80400D01*
G54D15*
X79950Y18600D02*
X80050D01*
G54D16*
X79600Y19000D02*
X80400D01*
X79600Y18200D02*
X80400D01*
G54D15*
X78950Y22600D02*
X79050D01*
G54D16*
X78600Y23000D02*
X79400D01*
X78600Y22200D02*
X79400D01*
G54D15*
X78950Y24400D02*
X79050D01*
G54D16*
X78600Y24800D02*
X79400D01*
X78600Y24000D02*
X79400D01*
G54D15*
X76950Y52100D02*
X77050D01*
G54D16*
X76600Y52500D02*
X77400D01*
X76600Y51700D02*
X77400D01*
G54D15*
X76950Y53900D02*
X77050D01*
G54D16*
X76600Y54300D02*
X77400D01*
X76600Y53500D02*
X77400D01*
G54D15*
X43950Y18700D02*
X44050D01*
G54D16*
X43600Y19100D02*
X44400D01*
X43600Y18300D02*
X44400D01*
G54D15*
X43950Y16900D02*
X44050D01*
G54D16*
X43600Y17300D02*
X44400D01*
X43600Y16500D02*
X44400D01*
G54D15*
X48050Y54600D02*
X48150D01*
G54D16*
X47700Y55000D02*
X48500D01*
X47700Y54200D02*
X48500D01*
G54D15*
X48050Y52800D02*
X48150D01*
G54D16*
X47700Y53200D02*
X48500D01*
X47700Y52400D02*
X48500D01*
G54D15*
X93950Y66350D02*
X94050D01*
G54D16*
X93600Y66750D02*
X94400D01*
X93600Y65950D02*
X94400D01*
G54D15*
X93950Y68150D02*
X94050D01*
G54D16*
X93600Y68550D02*
X94400D01*
X93600Y67750D02*
X94400D01*
G54D42*
X66675Y74500D02*
X67425D01*
G54D16*
X66600Y74625D02*
X67500D01*
X66600Y74375D02*
X67500D01*
G54D42*
X66675Y74000D02*
X67425D01*
G54D16*
X66600Y74125D02*
X67500D01*
X66600Y73875D02*
X67500D01*
G54D42*
X66675Y73500D02*
X67425D01*
G54D16*
X66600Y73625D02*
X67500D01*
X66600Y73375D02*
X67500D01*
G54D42*
X63575Y73500D02*
X64325D01*
G54D16*
X63500Y73625D02*
X64400D01*
X63500Y73375D02*
X64400D01*
G54D42*
X63575Y74000D02*
X64325D01*
G54D16*
X63500Y74125D02*
X64400D01*
X63500Y73875D02*
X64400D01*
G54D42*
X63575Y74500D02*
X64325D01*
G54D16*
X63500Y74625D02*
X64400D01*
X63500Y74375D02*
X64400D01*
G54D42*
X66675Y75000D02*
X67425D01*
G54D16*
X66600Y75125D02*
X67500D01*
X66600Y74875D02*
X67500D01*
G54D42*
X63575Y75000D02*
X64325D01*
G54D16*
X63500Y75125D02*
X64400D01*
X63500Y74875D02*
X64400D01*
G54D15*
X87150Y55100D02*
Y55800D01*
X88100Y55100D02*
Y55800D01*
X89050Y55100D02*
Y55800D01*
Y57600D02*
Y58300D01*
X88100Y57600D02*
Y58300D01*
X87150Y57600D02*
Y58300D01*
G54D43*
X18700Y16260D02*
X18750D01*
X18700Y17060D02*
X18750D01*
X19750Y16660D02*
X19800D01*
X18700Y34460D02*
X18750D01*
X18700Y33660D02*
X18750D01*
X19750Y34060D02*
X19800D01*
X18700Y51860D02*
X18750D01*
X18700Y51060D02*
X18750D01*
X19750Y51460D02*
X19800D01*
X18700Y69260D02*
X18750D01*
X18700Y68460D02*
X18750D01*
X19750Y68860D02*
X19800D01*
G54D44*
X84880Y74330D03*
Y94670D03*
G54D45*
X43100Y21100D02*
Y21500D01*
X39900Y21100D02*
Y21500D01*
X74900Y78800D02*
Y79200D01*
X73400Y86800D02*
Y87200D01*
X78100Y78800D02*
Y79200D01*
X76600Y86800D02*
Y87200D01*
G54D24*
X75850Y15800D02*
Y16100D01*
X77150Y15800D02*
Y16100D01*
X76500Y17900D02*
Y18200D01*
X75850Y21800D02*
Y22100D01*
X77150Y21800D02*
Y22100D01*
X76500Y23900D02*
Y24200D01*
X92000Y28400D02*
Y28700D01*
X91350Y26300D02*
Y26600D01*
X92650Y26300D02*
Y26600D01*
G54D15*
X52850Y82500D02*
X52950D01*
G54D16*
X52500Y82900D02*
X53300D01*
X52500Y82100D02*
X53300D01*
G54D15*
X51050Y82500D02*
X51150D01*
G54D16*
X50700Y82900D02*
X51500D01*
X50700Y82100D02*
X51500D01*
G54D15*
X64850Y44300D02*
X64950D01*
G54D16*
X64500Y44700D02*
X65300D01*
X64500Y43900D02*
X65300D01*
G54D15*
X63050Y44300D02*
X63150D01*
G54D16*
X62700Y44700D02*
X63500D01*
X62700Y43900D02*
X63500D01*
G54D15*
X63250Y50600D02*
X63350D01*
G54D16*
X62900Y51000D02*
X63700D01*
X62900Y50200D02*
X63700D01*
G54D15*
X61450Y50600D02*
X61550D01*
G54D16*
X61100Y51000D02*
X61900D01*
X61100Y50200D02*
X61900D01*
G54D15*
X74050Y84500D02*
X74150D01*
G54D16*
X73700Y84900D02*
X74500D01*
X73700Y84100D02*
X74500D01*
G54D15*
X75850Y84500D02*
X75950D01*
G54D16*
X75500Y84900D02*
X76300D01*
X75500Y84100D02*
X76300D01*
G54D42*
X66250Y72325D02*
Y73075D01*
G54D16*
X66125Y72250D02*
Y73150D01*
X66375Y72250D02*
Y73150D01*
G54D42*
X65750Y72325D02*
Y73075D01*
G54D16*
X65625Y72250D02*
Y73150D01*
X65875Y72250D02*
Y73150D01*
G54D42*
X65250Y72325D02*
Y73075D01*
G54D16*
X65125Y72250D02*
Y73150D01*
X65375Y72250D02*
Y73150D01*
G54D42*
X64750Y72325D02*
Y73075D01*
G54D16*
X64625Y72250D02*
Y73150D01*
X64875Y72250D02*
Y73150D01*
G54D42*
X64750Y75425D02*
Y76175D01*
G54D16*
X64625Y75350D02*
Y76250D01*
X64875Y75350D02*
Y76250D01*
G54D42*
X65250Y75425D02*
Y76175D01*
G54D16*
X65125Y75350D02*
Y76250D01*
X65375Y75350D02*
Y76250D01*
G54D42*
X65750Y75425D02*
Y76175D01*
G54D16*
X65625Y75350D02*
Y76250D01*
X65875Y75350D02*
Y76250D01*
G54D42*
X66250Y75425D02*
Y76175D01*
G54D16*
X66125Y75350D02*
Y76250D01*
X66375Y75350D02*
Y76250D01*
G54D46*
X66175Y79375D02*
Y81625D01*
X62825Y79375D02*
Y81625D01*
G54D47*
X92500Y79420D03*
Y89580D03*
G54D15*
X45950Y36900D02*
X46050D01*
G54D16*
X45600Y37300D02*
X46400D01*
X45600Y36500D02*
X46400D01*
G54D15*
X45950Y38700D02*
X46050D01*
G54D16*
X45600Y39100D02*
X46400D01*
X45600Y38300D02*
X46400D01*
G54D15*
X45950Y85100D02*
X46050D01*
G54D16*
X45600Y85500D02*
X46400D01*
X45600Y84700D02*
X46400D01*
G54D15*
X45950Y86900D02*
X46050D01*
G54D16*
X45600Y87300D02*
X46400D01*
X45600Y86500D02*
X46400D01*
G54D15*
X50950Y35800D02*
X51050D01*
G54D16*
X50600Y36200D02*
X51400D01*
X50600Y35400D02*
X51400D01*
G54D15*
X50950Y37600D02*
X51050D01*
G54D16*
X50600Y38000D02*
X51400D01*
X50600Y37200D02*
X51400D01*
G54D15*
X49050Y35900D02*
X49150D01*
G54D16*
X48700Y36300D02*
X49500D01*
X48700Y35500D02*
X49500D01*
G54D15*
X49050Y37700D02*
X49150D01*
G54D16*
X48700Y38100D02*
X49500D01*
X48700Y37300D02*
X49500D01*
G54D15*
X58850Y36800D02*
X58950D01*
G54D16*
X58500Y37200D02*
X59300D01*
X58500Y36400D02*
X59300D01*
G54D15*
X58850Y38600D02*
X58950D01*
G54D16*
X58500Y39000D02*
X59300D01*
X58500Y38200D02*
X59300D01*
G54D15*
X64450Y36100D02*
X64550D01*
G54D16*
X64100Y36500D02*
X64900D01*
X64100Y35700D02*
X64900D01*
G54D15*
X64450Y37900D02*
X64550D01*
G54D16*
X64100Y38300D02*
X64900D01*
X64100Y37500D02*
X64900D01*
G54D15*
X68450Y69600D02*
X68550D01*
G54D16*
X68100Y70000D02*
X68900D01*
X68100Y69200D02*
X68900D01*
G54D15*
X68450Y71400D02*
X68550D01*
G54D16*
X68100Y71800D02*
X68900D01*
X68100Y71000D02*
X68900D01*
G54D15*
X76950Y48100D02*
X77050D01*
G54D16*
X76600Y48500D02*
X77400D01*
X76600Y47700D02*
X77400D01*
G54D15*
X76950Y49900D02*
X77050D01*
G54D16*
X76600Y50300D02*
X77400D01*
X76600Y49500D02*
X77400D01*
G54D15*
X85450Y49600D02*
X85550D01*
G54D16*
X85100Y50000D02*
X85900D01*
X85100Y49200D02*
X85900D01*
G54D15*
X85450Y51400D02*
X85550D01*
G54D16*
X85100Y51800D02*
X85900D01*
X85100Y51000D02*
X85900D01*
G54D28*
X48000Y84250D02*
Y84750D01*
X51000Y84250D02*
Y84750D01*
X81500Y26250D02*
Y26750D01*
X84500Y26250D02*
Y26750D01*
G54D24*
X80800Y22850D02*
X81100D01*
X80800Y24150D02*
X81100D01*
X86900Y23000D02*
X87200D01*
X84800Y23650D02*
X85100D01*
X84800Y22350D02*
X85100D01*
X82900Y23500D02*
X83200D01*
G54D16*
X45409Y91D02*
X64891D01*
X64981Y181D02*
X45319D01*
X45228Y272D02*
X65072D01*
X65162Y362D02*
X45138D01*
X45050Y453D02*
X65250D01*
Y544D02*
X45050D01*
Y634D02*
X65250D01*
Y725D02*
X45050D01*
Y815D02*
X65250D01*
Y906D02*
X45050D01*
Y997D02*
X65250D01*
Y1087D02*
X45050D01*
Y1178D02*
X65250D01*
Y1268D02*
X45050D01*
Y1359D02*
X65250D01*
Y1450D02*
X45050D01*
Y1540D02*
X65250D01*
Y1631D02*
X45050D01*
Y1721D02*
X65250D01*
Y1812D02*
X45050D01*
Y450D02*
Y5700D01*
X65250D01*
Y450D01*
X64850Y50D01*
X45450D01*
X45050Y450D01*
Y1903D02*
X65250D01*
Y1993D02*
X45050D01*
Y2084D02*
X65250D01*
Y2174D02*
X45050D01*
Y2265D02*
X65250D01*
Y2356D02*
X45050D01*
Y2446D02*
X65250D01*
Y2537D02*
X45050D01*
Y2627D02*
X65250D01*
Y2718D02*
X45050D01*
Y2809D02*
X65250D01*
Y2899D02*
X45050D01*
Y2990D02*
X65250D01*
Y3080D02*
X45050D01*
Y3171D02*
X65250D01*
Y3262D02*
X45050D01*
Y3352D02*
X65250D01*
Y3443D02*
X45050D01*
Y3533D02*
X65250D01*
Y3624D02*
X45050D01*
Y3715D02*
X65250D01*
Y3805D02*
X45050D01*
Y3896D02*
X65250D01*
Y3986D02*
X45050D01*
Y4077D02*
X65250D01*
Y4168D02*
X45050D01*
Y4258D02*
X65250D01*
Y4349D02*
X45050D01*
Y4439D02*
X65250D01*
Y4530D02*
X45050D01*
Y4621D02*
X65250D01*
Y4711D02*
X45050D01*
Y4802D02*
X65250D01*
Y4892D02*
X45050D01*
Y4983D02*
X65250D01*
Y5074D02*
X45050D01*
Y5164D02*
X65250D01*
Y5255D02*
X45050D01*
Y5345D02*
X65250D01*
Y5436D02*
X45050D01*
Y5527D02*
X65250D01*
Y5617D02*
X45050D01*
G54D31*
X82150Y17500D02*
X82850D01*
G54D16*
X81550Y18150D02*
X83450D01*
X81550Y16850D02*
X83450D01*
G54D31*
X82150Y20500D02*
X82850D01*
G54D16*
X81550Y21150D02*
X83450D01*
X81550Y19850D02*
X83450D01*
G54D13*
X50036Y89337D02*
X50587Y88786D01*
Y86214D01*
X50087Y85714D01*
Y83663D01*
X48913D01*
Y85714D01*
X48413Y86214D01*
Y88786D01*
X48964Y89337D01*
X50036D01*
G54D14*
X48435Y86209D02*
X50565D01*
X48435Y88791D02*
X50565D01*
X48925Y85709D02*
X50075D01*
G54D40*
X48942Y85810D02*
X50058D01*
X48794Y85959D02*
X50206D01*
X48645Y86107D02*
X50355D01*
G54D14*
X48925Y85719D02*
X48425Y86219D01*
X50575D02*
X50075Y85719D01*
G54D40*
X49002Y85751D02*
X48502Y86251D01*
X50498D02*
X49998Y85751D01*
G54D48*
X49213Y87021D02*
Y87979D01*
X49787Y87021D02*
Y87979D01*
G54D40*
X48645Y88893D02*
X50355D01*
X48823Y89071D02*
X50177D01*
X49001Y89248D02*
X49999D01*
G54D14*
X48425Y88781D02*
X48969Y89325D01*
X50031D02*
X50575Y88781D01*
G54D40*
X48502Y88749D02*
X49001Y89248D01*
X49999D02*
X50498Y88749D01*
G54D14*
X48969Y89325D02*
X50031D01*
G54D49*
X49306Y84056D02*
Y85302D01*
X49694Y84056D02*
Y85302D01*
G54D39*
X48980Y89299D02*
X50020D01*
X48523Y88842D02*
X48980Y89299D01*
X50020D02*
X50477Y88842D01*
G54D13*
X83536Y31337D02*
X84087Y30786D01*
Y28214D01*
X83587Y27714D01*
Y25663D01*
X82413D01*
Y27714D01*
X81913Y28214D01*
Y30786D01*
X82464Y31337D01*
X83536D01*
G54D14*
X81935Y28209D02*
X84065D01*
X81935Y30791D02*
X84065D01*
X82425Y27709D02*
X83575D01*
G54D40*
X82442Y27810D02*
X83558D01*
X82294Y27959D02*
X83706D01*
X82145Y28107D02*
X83855D01*
G54D14*
X82425Y27719D02*
X81925Y28219D01*
X84075D02*
X83575Y27719D01*
G54D40*
X82502Y27751D02*
X82002Y28251D01*
X83998D02*
X83498Y27751D01*
G54D48*
X82713Y29021D02*
Y29979D01*
X83287Y29021D02*
Y29979D01*
G54D40*
X82145Y30893D02*
X83855D01*
X82323Y31071D02*
X83677D01*
X82501Y31248D02*
X83499D01*
G54D14*
X81925Y30781D02*
X82469Y31325D01*
X83531D02*
X84075Y30781D01*
G54D40*
X82002Y30749D02*
X82501Y31248D01*
X83499D02*
X83998Y30749D01*
G54D14*
X82469Y31325D02*
X83531D01*
G54D49*
X82806Y26056D02*
Y27302D01*
X83194Y26056D02*
Y27302D01*
G54D39*
X82480Y31299D02*
X83520D01*
X82023Y30842D02*
X82480Y31299D01*
X83520D02*
X83977Y30842D01*
G54D15*
X63550Y87365D02*
X64850D01*
X63550Y86095D02*
X64850D01*
X63550Y89905D02*
X64850D01*
X63550Y88635D02*
X64850D01*
X69150Y86095D02*
X70450D01*
X69150Y87365D02*
X70450D01*
X69150Y88635D02*
X70450D01*
X69150Y89905D02*
X70450D01*
G54D50*
X0Y110500D02*
Y120500D01*
X97000D01*
Y110500D01*
X0D01*
Y4500D01*
X6000D01*
G02X7000Y3500I0J-1000D01*
G02X6000Y2500I-1000J0D01*
G01X0D01*
Y0D01*
X41350D01*
Y2500D01*
X39000D01*
G02X38000Y3500I0J1000D01*
G02X39000Y4500I1000J0D01*
G01X41350D01*
Y10925D01*
G02X43175Y12750I1825J0D01*
G02X45000Y10925I0J-1825D01*
G01Y500D01*
X45500Y0D01*
X55700D01*
X56200Y500D01*
Y7450D01*
G02X57150Y8400I950J0D01*
G02X58100Y7450I0J-950D01*
G01Y500D01*
X58600Y0D01*
X64800D01*
X65300Y500D01*
Y11750D01*
G02X66300Y12750I1000J0D01*
G01X68500D01*
G02X69500Y11750I0J-1000D01*
G02X68500Y10750I-1000J0D01*
G01X67300D01*
Y0D01*
X97000D01*
Y10750D01*
X95000D01*
G02X94000Y11750I0J1000D01*
G02X95000Y12750I1000J0D01*
G01X97000D01*
Y110500D01*
X16269Y2537D02*
X0D01*
Y2718D02*
X16623D01*
X16799Y2899D02*
X0D01*
Y3080D02*
X16908D01*
X16971Y3262D02*
X0D01*
Y3443D02*
X16998D01*
X17000Y3624D02*
X0D01*
Y3805D02*
X17000D01*
Y3986D02*
X0D01*
Y4168D02*
X17000D01*
Y4349D02*
X0D01*
Y4500D02*
Y2500D01*
X16000D01*
G03X17000Y3500I0J1000D01*
G01Y10750D01*
X24250D01*
Y12750D01*
X16000D01*
G03X15000Y11750I0J-1000D01*
G01Y4500D01*
X0D01*
X12750Y2500D02*
X16000D01*
G03X17000Y3500I0J1000D01*
G01Y10750D01*
X22620D01*
G03X23620Y11750I0J1000D01*
G03X22620Y12750I-1000J0D01*
G01X16000D01*
G03X15000Y11750I0J-1000D01*
G01Y4500D01*
X9000D01*
G03X8000Y3500I0J-1000D01*
G03X9000Y2500I1000J0D01*
G01X12750D01*
X15000Y4530D02*
X17000D01*
Y4711D02*
X15000D01*
Y4892D02*
X17000D01*
Y5074D02*
X15000D01*
Y5255D02*
X17000D01*
Y5436D02*
X15000D01*
Y5617D02*
X17000D01*
Y5798D02*
X15000D01*
Y5980D02*
X17000D01*
Y6161D02*
X15000D01*
Y6342D02*
X17000D01*
Y6523D02*
X15000D01*
Y6704D02*
X17000D01*
Y6886D02*
X15000D01*
Y7067D02*
X17000D01*
Y7248D02*
X15000D01*
Y7429D02*
X17000D01*
Y7610D02*
X15000D01*
Y7792D02*
X17000D01*
Y7973D02*
X15000D01*
Y8154D02*
X17000D01*
Y8335D02*
X15000D01*
Y8516D02*
X17000D01*
Y8698D02*
X15000D01*
Y8879D02*
X17000D01*
Y9060D02*
X15000D01*
Y9241D02*
X17000D01*
Y9422D02*
X15000D01*
Y9604D02*
X17000D01*
Y9785D02*
X15000D01*
Y9966D02*
X17000D01*
Y10147D02*
X15000D01*
Y10328D02*
X17000D01*
Y10510D02*
X15000D01*
Y10691D02*
X17000D01*
X24250Y10872D02*
X15000D01*
Y11053D02*
X24250D01*
Y11234D02*
X15000D01*
Y11416D02*
X24250D01*
Y11597D02*
X15000D01*
Y11778D02*
X24250D01*
Y11959D02*
X15022D01*
X15079Y12140D02*
X24250D01*
Y12322D02*
X15179D01*
X15342Y12503D02*
X24250D01*
Y12684D02*
X15643D01*
X33350Y10872D02*
X24250D01*
Y11053D02*
X33350D01*
Y11234D02*
X24250D01*
Y11416D02*
X33350D01*
Y11597D02*
X24250D01*
Y11778D02*
X33350D01*
X33328Y11959D02*
X24250D01*
Y12140D02*
X33271D01*
X33171Y12322D02*
X24250D01*
Y12503D02*
X33008D01*
X32707Y12684D02*
X24250D01*
X26625Y10750D02*
X31350D01*
Y3500D01*
G03X32350Y2500I1000J0D01*
G01X37500D01*
Y4500D01*
X33350D01*
Y11750D01*
G03X32350Y12750I-1000J0D01*
G01X24250D01*
Y10750D01*
X26625D01*
X35175Y4500D02*
X33350D01*
Y11750D01*
G03X32350Y12750I-1000J0D01*
G01X25620D01*
G03X24620Y11750I0J-1000D01*
G03X25620Y10750I1000J0D01*
G01X31350D01*
Y3500D01*
G03X32350Y2500I1000J0D01*
G01X36000D01*
G03X37000Y3500I0J1000D01*
G03X36000Y4500I-1000J0D01*
G01X35175D01*
X31727Y2718D02*
X37500D01*
Y2899D02*
X31551D01*
X31442Y3080D02*
X37500D01*
Y3262D02*
X31379D01*
X31352Y3443D02*
X37500D01*
Y3624D02*
X31350D01*
Y3805D02*
X37500D01*
Y3986D02*
X31350D01*
Y4168D02*
X37500D01*
Y4349D02*
X31350D01*
Y4530D02*
X33350D01*
Y4711D02*
X31350D01*
Y4892D02*
X33350D01*
Y5074D02*
X31350D01*
Y5255D02*
X33350D01*
Y5436D02*
X31350D01*
Y5617D02*
X33350D01*
Y5798D02*
X31350D01*
Y5980D02*
X33350D01*
Y6161D02*
X31350D01*
Y6342D02*
X33350D01*
Y6523D02*
X31350D01*
Y6704D02*
X33350D01*
Y6886D02*
X31350D01*
Y7067D02*
X33350D01*
Y7248D02*
X31350D01*
Y7429D02*
X33350D01*
Y7610D02*
X31350D01*
Y7792D02*
X33350D01*
Y7973D02*
X31350D01*
Y8154D02*
X33350D01*
Y8335D02*
X31350D01*
Y8516D02*
X33350D01*
Y8698D02*
X31350D01*
Y8879D02*
X33350D01*
Y9060D02*
X31350D01*
Y9241D02*
X33350D01*
Y9422D02*
X31350D01*
Y9604D02*
X33350D01*
Y9785D02*
X31350D01*
Y9966D02*
X33350D01*
Y10147D02*
X31350D01*
Y10328D02*
X33350D01*
Y10510D02*
X31350D01*
Y10691D02*
X33350D01*
X45000Y2537D02*
X37500D01*
Y2718D02*
X45000D01*
Y2899D02*
X37500D01*
Y3080D02*
X45000D01*
Y3262D02*
X37500D01*
Y3443D02*
X45000D01*
Y3624D02*
X37500D01*
Y3805D02*
X45000D01*
Y3986D02*
X37500D01*
Y4168D02*
X45000D01*
Y4349D02*
X37500D01*
Y2537D02*
X32081D01*
X37500Y2500D02*
Y4500D01*
X41350D01*
Y10925D01*
G02X43175Y12750I1825J0D01*
G02X45000Y10925I0J-1825D01*
G01Y500D01*
X45500Y0D01*
X41350D01*
Y2500D01*
X37500D01*
X41350Y181D02*
X45319D01*
X45138Y362D02*
X41350D01*
Y544D02*
X45000D01*
Y725D02*
X41350D01*
Y906D02*
X45000D01*
Y1087D02*
X41350D01*
Y1268D02*
X45000D01*
Y1450D02*
X41350D01*
Y1631D02*
X45000D01*
Y1812D02*
X41350D01*
Y1993D02*
X45000D01*
Y2174D02*
X41350D01*
Y2356D02*
X45000D01*
X41350Y4530D02*
X45000D01*
Y4711D02*
X41350D01*
Y4892D02*
X45000D01*
Y5074D02*
X41350D01*
Y5255D02*
X45000D01*
Y5436D02*
X41350D01*
Y5617D02*
X45000D01*
Y5798D02*
X41350D01*
Y5980D02*
X45000D01*
Y6161D02*
X41350D01*
Y6342D02*
X45000D01*
Y6523D02*
X41350D01*
Y6704D02*
X45000D01*
Y6886D02*
X41350D01*
Y7067D02*
X45000D01*
Y7248D02*
X41350D01*
Y7429D02*
X45000D01*
Y7610D02*
X41350D01*
Y7792D02*
X45000D01*
Y7973D02*
X41350D01*
Y8154D02*
X45000D01*
Y8335D02*
X41350D01*
Y8516D02*
X45000D01*
Y8698D02*
X41350D01*
Y8879D02*
X45000D01*
Y9060D02*
X41350D01*
Y9241D02*
X45000D01*
Y9422D02*
X41350D01*
Y9604D02*
X45000D01*
Y9785D02*
X41350D01*
Y9966D02*
X45000D01*
Y10147D02*
X41350D01*
Y10328D02*
X45000D01*
Y10510D02*
X41350D01*
Y10691D02*
X45000D01*
Y10872D02*
X41350D01*
X41355Y11053D02*
X44996D01*
X44974Y11234D02*
X41376D01*
X41417Y11416D02*
X44933D01*
X44872Y11597D02*
X41478D01*
X41562Y11778D02*
X44788D01*
X44679Y11959D02*
X41671D01*
X41814Y12140D02*
X44536D01*
X44350Y12322D02*
X42000D01*
X42258Y12503D02*
X44092D01*
X43661Y12684D02*
X42689D01*
X64981Y181D02*
X67300D01*
Y362D02*
X65162D01*
X65300Y544D02*
X67300D01*
Y725D02*
X65300D01*
Y906D02*
X67300D01*
Y1087D02*
X65300D01*
Y1268D02*
X67300D01*
Y1450D02*
X65300D01*
Y1631D02*
X67300D01*
Y1812D02*
X65300D01*
X97000Y12750D02*
Y10750D01*
X67300D01*
Y0D01*
X64800D01*
X65300Y500D01*
Y11750D01*
G02X66300Y12750I1000J0D01*
G01X97000D01*
X65300Y1993D02*
X67300D01*
Y2174D02*
X65300D01*
Y2356D02*
X67300D01*
Y2537D02*
X65300D01*
Y2718D02*
X67300D01*
Y2899D02*
X65300D01*
Y3080D02*
X67300D01*
Y3262D02*
X65300D01*
Y3443D02*
X67300D01*
Y3624D02*
X65300D01*
Y3805D02*
X67300D01*
Y3986D02*
X65300D01*
Y4168D02*
X67300D01*
Y4349D02*
X65300D01*
Y4530D02*
X67300D01*
Y4711D02*
X65300D01*
Y4892D02*
X67300D01*
Y5074D02*
X65300D01*
Y5255D02*
X67300D01*
Y5436D02*
X65300D01*
Y5617D02*
X67300D01*
Y5798D02*
X65300D01*
Y5980D02*
X67300D01*
Y6161D02*
X65300D01*
Y6342D02*
X67300D01*
Y6523D02*
X65300D01*
Y6704D02*
X67300D01*
Y6886D02*
X65300D01*
Y7067D02*
X67300D01*
Y7248D02*
X65300D01*
Y7429D02*
X67300D01*
Y7610D02*
X65300D01*
Y7792D02*
X67300D01*
Y7973D02*
X65300D01*
Y8154D02*
X67300D01*
Y8335D02*
X65300D01*
Y8516D02*
X67300D01*
Y8698D02*
X65300D01*
Y8879D02*
X67300D01*
Y9060D02*
X65300D01*
Y9241D02*
X67300D01*
Y9422D02*
X65300D01*
Y9604D02*
X67300D01*
Y9785D02*
X65300D01*
Y9966D02*
X67300D01*
Y10147D02*
X65300D01*
Y10328D02*
X67300D01*
Y10510D02*
X65300D01*
Y10691D02*
X67300D01*
X97000Y10872D02*
X65300D01*
Y11053D02*
X97000D01*
Y11234D02*
X65300D01*
Y11416D02*
X97000D01*
Y11597D02*
X65300D01*
Y11778D02*
X97000D01*
Y11959D02*
X65322D01*
X65379Y12140D02*
X97000D01*
Y12322D02*
X65479D01*
X65642Y12503D02*
X97000D01*
Y12684D02*
X65943D01*
X90250Y12750D02*
X71500D01*
G03X70500Y11750I0J-1000D01*
G03X71500Y10750I1000J0D01*
G01X92000D01*
G03X93000Y11750I0J1000D01*
G03X92000Y12750I-1000J0D01*
G01X90250D01*
G54D51*
X67000Y87600D02*
Y88400D01*
G54D22*
X79525Y48750D02*
Y49626D01*
X80175Y48750D02*
Y49626D01*
X80825Y48750D02*
Y49626D01*
X81475Y48750D02*
Y49626D01*
Y51375D02*
Y52249D01*
X80825Y51375D02*
Y52249D01*
X80175Y51375D02*
Y52249D01*
X79525Y51375D02*
Y52249D01*
G54D24*
X79025Y72325D02*
Y72675D01*
X75975Y72325D02*
Y72675D01*
X79025Y69825D02*
Y70175D01*
X75975Y69825D02*
Y70175D01*
G54D52*
X1750Y-6750D02*
Y-9250D01*
X3516D01*
X9888Y-7984D02*
X10563Y-9250D01*
X8901D02*
Y-6750D01*
X9992D01*
X10173Y-6847D01*
X10381Y-7042D01*
X10459Y-7237D01*
Y-7529D01*
X10277Y-7919D01*
X10069Y-7984D01*
X8901D01*
X4610Y-7464D02*
X4999Y-6750D01*
Y-9250D01*
X17038Y-6750D02*
X17844D01*
X17454Y-9250D02*
Y-6750D01*
X17038Y-9250D02*
X17844D01*
X15659Y-7042D02*
X15451Y-6847D01*
X15036Y-6750D01*
X14828D01*
X14516Y-6847D01*
X14412Y-6945D01*
X14308Y-7237D01*
Y-7432D01*
X14412Y-7627D01*
X14620Y-7724D01*
X15036Y-7821D01*
X15347Y-7919D01*
X15659Y-8081D01*
X15763Y-8373D01*
Y-8568D01*
X15659Y-8860D01*
X15451Y-9055D01*
X15036Y-9250D01*
X14828D01*
X14412Y-9153D01*
X14101Y-8860D01*
X11501Y-7984D02*
X12981D01*
X13267Y-6750D02*
X11501D01*
Y-9250D01*
X13267D01*
X22446D02*
Y-6750D01*
X21563D02*
X23329D01*
X20521Y-7042D02*
X20314Y-6847D01*
X19898Y-6750D01*
X19690D01*
X19379Y-6847D01*
X19275Y-6945D01*
X19171Y-7237D01*
Y-7432D01*
X19275Y-7627D01*
X19482Y-7724D01*
X19898Y-7821D01*
X20210Y-7919D01*
X20521Y-8081D01*
X20625Y-8373D01*
Y-8568D01*
X20521Y-8860D01*
X20314Y-9055D01*
X19898Y-9250D01*
X19690D01*
X19275Y-9153D01*
X18963Y-8860D01*
G54D53*
X0Y-10000D02*
Y-6000D01*
X24500D01*
Y-10000D01*
X0D01*
M02*
