*
%FSLAX43Y43*%
%MOMM*%
%ADD10C,0.025400*%
%ADD11C,0.050800*%
%ADD12R,0.203200X0.203200*%
%ADD13C,0.203200*%
%ADD14C,0.101600*%
%ADD15R,0.406400X0.406400*%
%ADD16R,0.812800X0.812800*%
%ADD17R,1.625600X1.625600*%
%ADD18R,0.700000X0.700000*%
%ADD19C,0.100000*%
%ADD20R,0.900000X0.900000*%
%ADD21R,0.220000X0.220000*%
%ADD22R,2.200000X2.200000*%
%ADD23R,1.500000X1.500000*%
%ADD24R,1.750000X1.750000*%
%ADD25R,1.100000X1.100000*%
%ADD26R,1.000000X1.000000*%
%ADD27R,0.350000X0.350000*%
%ADD28R,0.600000X0.600000*%
%ADD29R,2.000000X2.000000*%
%ADD30R,0.500000X0.500000*%
%ADD31R,0.850000X0.850000*%
%ADD32R,0.800000X0.800000*%
%ADD33R,1.200000X1.200000*%
%ADD34R,1.700000X1.700000*%
%ADD35R,1.300000X1.300000*%
%ADD36C,0.500000*%
%ADD37C,0.406400*%
%ADD38C,0.250000*%
%ADD39R,0.150000X0.150000*%
%IPPOS*%
%LNm1*%
%LPD*%
G75*
G54D10*
X51662Y42549D02*
Y42313D01*
X50813D01*
Y43162D01*
X51049D01*
G54D11*
X50825Y42560D02*
X51568D01*
G54D12*
X50902Y42402D02*
X51573D01*
X50902Y42458D02*
X51573D01*
G54D13*
X50902Y42662D02*
X51235D01*
X50902Y42799D02*
X51111D01*
X50902Y42936D02*
X51029D01*
X50902Y43073D02*
X50979D01*
G54D11*
X50825Y42560D02*
Y43150D01*
G54D13*
X50902Y42560D02*
Y43073D01*
G54D11*
X50825Y43150D02*
X51039D01*
G54D14*
X50851Y43124D02*
X51018D01*
X50851Y42611D02*
Y43124D01*
G54D11*
X51498Y42585D02*
X50825D01*
G54D14*
X51391Y42611D02*
X50851D01*
G54D10*
X51049Y43162D02*
G03X51662Y42549I750J137D01*
G54D11*
X51039Y43150D02*
G03X51650Y42539I761J150D01*
G54D13*
X50979Y43073D02*
G03X51573Y42479I821J226D01*
G54D14*
X51018Y43124D02*
G03X51391Y42611I781J175D01*
G54D10*
X53862Y42549D02*
G01Y42313D01*
X51938D01*
Y42549D01*
X52551Y43162D02*
X53249D01*
G54D11*
X52032Y42560D02*
X53768D01*
G54D12*
X52027Y42402D02*
X53773D01*
X52027Y42458D02*
X53773D01*
G54D13*
X52365Y42662D02*
X53435D01*
X52489Y42799D02*
X53311D01*
X52571Y42936D02*
X53229D01*
X52621Y43073D02*
X53179D01*
G54D11*
X52561Y43150D02*
X53239D01*
G54D14*
X52582Y43124D02*
X53218D01*
G54D11*
X53698Y42585D02*
X52102D01*
G54D14*
X53591Y42611D02*
X52209D01*
G54D10*
X53249Y43162D02*
G03X53862Y42549I750J137D01*
X51938D02*
G03X52551Y43162I-137J750D01*
G54D11*
X51950Y42539D02*
G03X52561Y43150I-150J761D01*
X53239D02*
G03X53850Y42539I761J150D01*
G54D13*
X52027Y42479D02*
G03X52621Y43073I-226J821D01*
X53179D02*
G03X53773Y42479I821J226D01*
G54D14*
X52209Y42611D02*
G03X52582Y43124I-408J689D01*
X53218D02*
G03X53591Y42611I781J175D01*
G54D10*
X53862Y44743D02*
G01Y44051D01*
X53249Y43438D02*
X52551D01*
X51938Y44051D02*
Y44749D01*
X52551Y45362D02*
X53243D01*
G54D11*
X52012Y44754D02*
X53767D01*
X52032Y44040D02*
X53768D01*
X52032Y44760D02*
X53749D01*
G54D15*
X52128Y44243D02*
X53672D01*
X52128Y44551D02*
X53672D01*
G54D13*
X52621Y43527D02*
X53179D01*
X52570Y43664D02*
X53230D01*
X52489Y43801D02*
X53311D01*
X52364Y43938D02*
X53436D01*
G54D11*
X53239Y43450D02*
X52561D01*
X53838Y44735D02*
X53850Y44733D01*
G54D13*
X52365Y44862D02*
X53427D01*
X52489Y44999D02*
X53304D01*
X52571Y45136D02*
X53223D01*
X52621Y45273D02*
X53172D01*
G54D11*
X52561Y45350D02*
X53233D01*
X52102Y44015D02*
X53698D01*
G54D14*
X52209Y43989D02*
X53591D01*
X53218Y43476D02*
X52582D01*
X52582Y45324D02*
X53212D01*
G54D11*
X53683Y44785D02*
X52102D01*
G54D14*
X53580Y44811D02*
X52209D01*
G54D10*
X53243Y45362D02*
G03X53862Y44743I757J138D01*
Y44051D02*
G03X53249Y43438I138J-751D01*
X52551D02*
G03X51938Y44051I-751J-138D01*
Y44749D02*
G03X52551Y45362I-137J750D01*
G54D11*
X52561Y43450D02*
G03X51950Y44061I-761J-150D01*
X53850D02*
G03X53239Y43450I150J-761D01*
G54D13*
X52621Y43527D02*
G03X52027Y44121I-821J-227D01*
X53773D02*
G03X53179Y43527I227J-821D01*
G54D11*
X51950Y44739D02*
G03X52561Y45350I-150J761D01*
X53233D02*
G03X53838Y44735I767J150D01*
G54D13*
X52027Y44679D02*
G03X52621Y45273I-226J821D01*
X53172D02*
G03X53427Y44862I828J227D01*
G54D14*
X52582Y43476D02*
G03X52209Y43989I-782J-176D01*
X53591D02*
G03X53218Y43476I409J-689D01*
X52209Y44811D02*
G03X52582Y45324I-408J689D01*
X53212D02*
G03X53580Y44811I788J176D01*
G54D10*
X51662Y44749D02*
G01Y44051D01*
X51049Y43438D02*
X50813D01*
Y45362D01*
X51049D01*
G54D11*
X50825Y44040D02*
X51568D01*
X50825Y44760D02*
X51568D01*
G54D13*
X50902Y43527D02*
X50979D01*
X50902Y43664D02*
X51030D01*
X50902Y43801D02*
X51111D01*
X50902Y43938D02*
X51236D01*
G54D11*
X50825Y43450D02*
Y44040D01*
G54D13*
X50902Y43527D02*
Y44040D01*
G54D11*
X51039Y43450D02*
X50825D01*
G54D15*
X51003Y44243D02*
X51472D01*
X51003Y44557D02*
X51472D01*
G54D13*
X50902Y44862D02*
X51235D01*
X50902Y44999D02*
X51111D01*
X50902Y45136D02*
X51029D01*
X50902Y45273D02*
X50979D01*
G54D11*
X50825Y44760D02*
Y45350D01*
G54D13*
X50902Y44760D02*
Y45273D01*
G54D11*
X50825Y45350D02*
X51039D01*
G54D14*
X50851Y43476D02*
Y43989D01*
X51018Y43476D02*
X50851D01*
Y45324D02*
X51018D01*
X50851Y44811D02*
Y45324D01*
G54D11*
X51498Y44785D02*
X50825D01*
G54D14*
X51391Y44811D02*
X50851D01*
G54D10*
X51049Y45362D02*
G03X51662Y44749I750J137D01*
Y44051D02*
G03X51049Y43438I138J-751D01*
G54D11*
X51650Y44061D02*
G03X51039Y43450I150J-761D01*
G54D13*
X51573Y44121D02*
G03X50979Y43527I227J-821D01*
G54D11*
X51039Y45350D02*
G03X51650Y44739I761J150D01*
G54D13*
X50979Y45273D02*
G03X51573Y44679I821J226D01*
G54D14*
X51391Y43989D02*
G03X51018Y43476I409J-689D01*
X51018Y45324D02*
G03X51391Y44811I781J175D01*
G54D10*
X51662Y46948D02*
G01Y46252D01*
X51048Y45638D02*
X50813D01*
Y47562D01*
X51048D01*
G54D11*
X50825Y46241D02*
X51568D01*
X50825Y46959D02*
X51568D01*
G54D13*
X50902Y45727D02*
X50978D01*
X50902Y45864D02*
X51029D01*
X50902Y46002D02*
X51110D01*
X50902Y46139D02*
X51235D01*
G54D11*
X50825Y45650D02*
Y46241D01*
G54D13*
X50902Y45727D02*
Y46241D01*
G54D11*
X51038Y45650D02*
X50825D01*
G54D15*
X51003Y46444D02*
X51472D01*
X51003Y46756D02*
X51472D01*
G54D13*
X50902Y47061D02*
X51235D01*
X50902Y47198D02*
X51110D01*
X50902Y47336D02*
X51029D01*
X50902Y47473D02*
X50978D01*
G54D11*
X50825Y46959D02*
Y47550D01*
G54D13*
X50902Y46959D02*
Y47473D01*
G54D11*
X50825Y47550D02*
X51038D01*
G54D14*
X50851Y45676D02*
Y46190D01*
X51017Y45676D02*
X50851D01*
Y47524D02*
X51017D01*
X50851Y47010D02*
Y47524D01*
G54D11*
X51498Y46984D02*
X50825D01*
G54D14*
X51391Y47010D02*
X50851D01*
G54D10*
X51048Y47562D02*
G03X51662Y46948I752J138D01*
Y46252D02*
G03X51048Y45638I138J-752D01*
G54D11*
X51650Y46262D02*
G03X51038Y45650I150J-762D01*
G54D13*
X51573Y46322D02*
G03X50978Y45727I227J-822D01*
G54D11*
X51038Y47550D02*
G03X51650Y46938I762J150D01*
G54D13*
X50978Y47473D02*
G03X51573Y46878I822J227D01*
G54D14*
X51391Y46190D02*
G03X51017Y45676I409J-690D01*
Y47524D02*
G03X51391Y47010I783J176D01*
G54D10*
X53862Y46943D02*
G01Y46251D01*
X53249Y45638D02*
X52552D01*
X51938Y46252D02*
Y46949D01*
X52551Y47562D02*
X53243D01*
G54D11*
X52012Y46954D02*
X53767D01*
X52032Y46241D02*
X53771D01*
X52032Y46960D02*
X53749D01*
X52035Y46240D02*
X53768D01*
G54D15*
X52128Y46444D02*
X53672D01*
X52128Y46751D02*
X53672D01*
G54D11*
X53838Y46935D02*
X53850Y46933D01*
G54D13*
X52364Y47062D02*
X53427D01*
X52489Y47199D02*
X53304D01*
X52570Y47336D02*
X53223D01*
X52621Y47473D02*
X53172D01*
G54D11*
X52561Y47550D02*
X53233D01*
G54D13*
X52622Y45727D02*
X53179D01*
X52572Y45864D02*
X53229D01*
X52490Y46001D02*
X53311D01*
X52366Y46138D02*
X53435D01*
G54D11*
X53239Y45650D02*
X52562D01*
G54D14*
X52582Y47524D02*
X53212D01*
G54D11*
X53683Y46985D02*
X52102D01*
G54D14*
X53580Y47011D02*
X52209D01*
G54D11*
X52105Y46215D02*
X53698D01*
G54D14*
X52211Y46189D02*
X53591D01*
X53218Y45676D02*
X52583D01*
G54D10*
X53243Y47562D02*
G03X53862Y46943I757J138D01*
Y46251D02*
G03X53249Y45638I137J-750D01*
X52552D02*
G03X51938Y46252I-752J-138D01*
Y46949D02*
G03X52551Y47562I-138J751D01*
G54D11*
X51950Y46939D02*
G03X52561Y47550I-150J761D01*
X53233D02*
G03X53838Y46935I767J150D01*
G54D13*
X52027Y46879D02*
G03X52621Y47473I-227J821D01*
X53172D02*
G03X53427Y47062I828J227D01*
G54D11*
X52562Y45650D02*
G03X51950Y46262I-762J-150D01*
X53850Y46261D02*
G03X53239Y45650I150J-761D01*
G54D13*
X52622Y45727D02*
G03X52366Y46138I-822J-227D01*
X53773Y46321D02*
G03X53179Y45727I226J-821D01*
G54D14*
X52209Y47011D02*
G03X52582Y47524I-409J689D01*
X53212D02*
G03X53580Y47011I788J176D01*
X52583Y45676D02*
G03X52211Y46189I-783J-176D01*
X53591D02*
G03X53218Y45676I408J-689D01*
G54D10*
X53862Y48687D02*
G01Y48452D01*
X53248Y47838D02*
X52551D01*
X51938Y48451D02*
Y48687D01*
X53862D01*
G54D11*
X52032Y48440D02*
X53765D01*
X52029Y48441D02*
X53768D01*
G54D13*
X52621Y47927D02*
X53178D01*
X52570Y48064D02*
X53228D01*
X52489Y48201D02*
X53310D01*
X52364Y48338D02*
X53434D01*
G54D11*
X53238Y47850D02*
X52561D01*
G54D12*
X52027Y48543D02*
X53773D01*
X52027Y48598D02*
X53773D01*
G54D11*
X52102Y48415D02*
X53695D01*
G54D14*
X52209Y48389D02*
X53589D01*
X53217Y47876D02*
X52582D01*
G54D10*
X53862Y48452D02*
G03X53248Y47838I138J-752D01*
X52551D02*
G03X51938Y48451I-751J-138D01*
G54D11*
X52561Y47850D02*
G03X51950Y48461I-761J-150D01*
X53850Y48462D02*
G03X53238Y47850I150J-762D01*
G54D13*
X52621Y47927D02*
G03X52027Y48521I-821J-227D01*
X53434Y48338D02*
G03X53178Y47927I566J-638D01*
G54D14*
X52582Y47876D02*
G03X52209Y48389I-782J-176D01*
X53589D02*
G03X53217Y47876I411J-689D01*
G54D10*
X51662Y48687D02*
G01Y48452D01*
X51048Y47838D02*
X50813D01*
Y48687D01*
X51662D01*
G54D11*
X50825Y48441D02*
X51568D01*
G54D13*
X50902Y47927D02*
X50978D01*
X50902Y48064D02*
X51029D01*
X50902Y48202D02*
X51110D01*
X50902Y48339D02*
X51235D01*
G54D11*
X50825Y47850D02*
Y48441D01*
G54D13*
X50902Y47927D02*
Y48441D01*
G54D11*
X51038Y47850D02*
X50825D01*
G54D12*
X50902Y48543D02*
X51573D01*
X50902Y48598D02*
X51573D01*
G54D14*
X50851Y47876D02*
Y48390D01*
X51017Y47876D02*
X50851D01*
G54D10*
X51662Y48452D02*
G03X51048Y47838I138J-752D01*
G54D11*
X51650Y48462D02*
G03X51038Y47850I150J-762D01*
G54D13*
X51573Y48522D02*
G03X50978Y47927I227J-822D01*
G54D14*
X51391Y48390D02*
G03X51017Y47876I409J-690D01*
G54D16*
X49406Y84156D02*
G01Y85344D01*
X49594Y84156D02*
Y85344D01*
G54D10*
X49995Y89237D02*
X50487Y88745D01*
Y86263D01*
X48513D01*
Y88745D01*
X49005Y89237D01*
X49995D01*
G54D11*
X48535Y88750D02*
X50465D01*
G54D17*
X49313Y87063D02*
Y87937D01*
X49687Y87063D02*
Y87937D01*
G54D13*
X48745Y88852D02*
X50255D01*
X48894Y89000D02*
X50106D01*
X49042Y89148D02*
X49958D01*
G54D11*
X48525Y88739D02*
X49011Y89225D01*
X49989D02*
X50475Y88739D01*
G54D13*
X48602Y88708D02*
X49042Y89148D01*
X49958D02*
X50398Y88708D01*
G54D11*
X49011Y89225D02*
X49989D01*
G54D14*
X49021Y89199D02*
X49979D01*
X48623Y88801D02*
X49021Y89199D01*
X49979D02*
X50377Y88801D01*
G54D10*
X56062Y42548D02*
Y42313D01*
X54138D01*
Y42549D01*
X54751Y43162D02*
X55448D01*
G54D11*
X54229Y42559D02*
X55968D01*
X54232Y42560D02*
X55965D01*
G54D12*
X54227Y42402D02*
X55973D01*
X54227Y42457D02*
X55973D01*
G54D13*
X54565Y42662D02*
X55634D01*
X54689Y42799D02*
X55510D01*
X54771Y42936D02*
X55428D01*
X54821Y43073D02*
X55378D01*
G54D11*
X54761Y43150D02*
X55438D01*
G54D14*
X54782Y43124D02*
X55417D01*
G54D11*
X55895Y42585D02*
X54302D01*
G54D14*
X55789Y42611D02*
X54409D01*
G54D10*
X55448Y43162D02*
G03X56062Y42548I752J138D01*
X54138Y42549D02*
G03X54751Y43162I-137J750D01*
G54D11*
X54150Y42539D02*
G03X54761Y43150I-150J761D01*
X55438D02*
G03X56050Y42538I762J150D01*
G54D13*
X54227Y42479D02*
G03X54821Y43073I-226J821D01*
X55378D02*
G03X55634Y42662I822J227D01*
G54D14*
X54409Y42611D02*
G03X54782Y43124I-408J689D01*
X55417D02*
G03X55789Y42611I783J176D01*
G54D10*
X57187Y43162D02*
G01Y42313D01*
X56338D01*
Y42548D01*
X56952Y43162D02*
X57187D01*
G54D11*
X56432Y42559D02*
X57175D01*
G54D12*
X56427Y42402D02*
X57098D01*
X56427Y42457D02*
X57098D01*
G54D13*
X56765Y42661D02*
X57098D01*
X56890Y42798D02*
X57098D01*
X56971Y42936D02*
X57098D01*
X57022Y43073D02*
X57098D01*
G54D11*
X57175Y43150D02*
Y42559D01*
G54D13*
X57098Y43073D02*
Y42559D01*
G54D11*
X56962Y43150D02*
X57175D01*
G54D14*
X56983Y43124D02*
X57149D01*
Y42610D01*
G54D10*
X56338Y42548D02*
G03X56952Y43162I-138J752D01*
G54D11*
X56350Y42538D02*
G03X56962Y43150I-150J762D01*
G54D13*
X56427Y42478D02*
G03X57022Y43073I-227J822D01*
G54D14*
X56609Y42610D02*
G03X56983Y43124I-409J690D01*
G54D10*
X57187Y45362D02*
G01Y43438D01*
X56952D01*
X56338Y44052D02*
Y44748D01*
X56952Y45362D02*
X57187D01*
G54D11*
X56432Y44041D02*
X57175D01*
X56432Y44759D02*
X57175D01*
G54D13*
X57022Y43527D02*
X57098D01*
X56971Y43664D02*
X57098D01*
X56890Y43802D02*
X57098D01*
X56765Y43939D02*
X57098D01*
G54D11*
X57175Y44041D02*
Y43450D01*
G54D13*
X57098Y44041D02*
Y43527D01*
G54D11*
X57175Y43450D02*
X56962D01*
G54D15*
X56528Y44244D02*
X56997D01*
X56528Y44556D02*
X56997D01*
G54D13*
X56765Y44861D02*
X57098D01*
X56890Y44998D02*
X57098D01*
X56971Y45136D02*
X57098D01*
X57022Y45273D02*
X57098D01*
G54D11*
X57175Y45350D02*
Y44759D01*
G54D13*
X57098Y45273D02*
Y44759D01*
G54D11*
X56962Y45350D02*
X57175D01*
X56502Y44016D02*
X57175D01*
G54D14*
X56609Y43990D02*
X57149D01*
Y43476D02*
X56983D01*
X57149Y43990D02*
Y43476D01*
X56983Y45324D02*
X57149D01*
Y44810D01*
G54D10*
X56952Y43438D02*
G03X56338Y44052I-752J-138D01*
Y44748D02*
G03X56952Y45362I-138J752D01*
G54D11*
X56962Y43450D02*
G03X56350Y44062I-762J-150D01*
G54D13*
X57022Y43527D02*
G03X56427Y44122I-822J-227D01*
G54D11*
X56350Y44738D02*
G03X56962Y45350I-150J762D01*
G54D13*
X56427Y44678D02*
G03X57022Y45273I-227J822D01*
G54D14*
X56983Y43476D02*
G03X56609Y43990I-783J-176D01*
Y44810D02*
G03X56983Y45324I-409J690D01*
G54D10*
X56062Y44743D02*
G01Y44051D01*
X55450Y43438D02*
X54752D01*
X54138Y44052D02*
Y44749D01*
X54751Y45362D02*
X55443D01*
G54D11*
X54212Y44754D02*
X55967D01*
X54232Y44041D02*
X55972D01*
X54232Y44760D02*
X55949D01*
X54235Y44040D02*
X55968D01*
G54D15*
X54328Y44244D02*
X55872D01*
X54328Y44551D02*
X55872D01*
G54D11*
X56038Y44735D02*
X56050Y44733D01*
G54D13*
X54565Y44862D02*
X55627D01*
X54689Y44999D02*
X55504D01*
X54771Y45136D02*
X55423D01*
X54821Y45273D02*
X55372D01*
G54D11*
X54761Y45350D02*
X55433D01*
G54D13*
X54822Y43527D02*
X55380D01*
X54772Y43664D02*
X55430D01*
X54690Y43801D02*
X55512D01*
X54566Y43938D02*
X55636D01*
G54D11*
X55440Y43450D02*
X54762D01*
G54D14*
X54782Y45324D02*
X55412D01*
G54D11*
X55883Y44785D02*
X54302D01*
G54D14*
X55780Y44811D02*
X54409D01*
G54D11*
X54305Y44015D02*
X55898D01*
G54D14*
X54411Y43989D02*
X55792D01*
X55419Y43476D02*
X54783D01*
G54D10*
X55443Y45362D02*
G03X56062Y44743I757J138D01*
Y44051D02*
G03X55450Y43438I138J-750D01*
X54752D02*
G03X54138Y44052I-752J-138D01*
Y44749D02*
G03X54751Y45362I-137J750D01*
G54D11*
X54150Y44739D02*
G03X54761Y45350I-150J761D01*
X55433D02*
G03X56038Y44735I767J150D01*
G54D13*
X54227Y44679D02*
G03X54821Y45273I-226J821D01*
X55372D02*
G03X55627Y44862I828J227D01*
G54D11*
X54762Y43450D02*
G03X54150Y44062I-762J-150D01*
X56050Y44061D02*
G03X55440Y43450I151J-761D01*
G54D13*
X54822Y43527D02*
G03X54566Y43938I-822J-227D01*
X55973Y44121D02*
G03X55380Y43527I227J-821D01*
G54D14*
X54409Y44811D02*
G03X54782Y45324I-408J689D01*
X55412D02*
G03X55780Y44811I788J176D01*
X54783Y43476D02*
G03X54411Y43989I-783J-176D01*
X55792D02*
G03X55419Y43476I409J-689D01*
G54D10*
X56062Y46948D02*
G01Y46251D01*
X55450Y45638D02*
X54752D01*
X54138Y46252D02*
Y46949D01*
X54751Y47562D02*
X55448D01*
G54D11*
X54229Y46959D02*
X55968D01*
X54232Y46241D02*
X55971D01*
X54232Y46960D02*
X55965D01*
X54235Y46240D02*
X55968D01*
G54D15*
X54328Y46444D02*
X55872D01*
X54328Y46756D02*
X55872D01*
G54D13*
X54564Y47062D02*
X55634D01*
X54689Y47199D02*
X55510D01*
X54770Y47336D02*
X55428D01*
X54821Y47473D02*
X55378D01*
G54D11*
X54761Y47550D02*
X55438D01*
G54D13*
X54822Y45727D02*
X55380D01*
X54772Y45864D02*
X55430D01*
X54690Y46001D02*
X55511D01*
X54566Y46138D02*
X55636D01*
G54D11*
X55440Y45650D02*
X54762D01*
G54D14*
X54782Y47524D02*
X55417D01*
G54D11*
X55895Y46985D02*
X54302D01*
G54D14*
X55789Y47011D02*
X54409D01*
G54D11*
X54305Y46215D02*
X55898D01*
G54D14*
X54411Y46189D02*
X55792D01*
X55419Y45676D02*
X54783D01*
G54D10*
X55448Y47562D02*
G03X56062Y46948I752J138D01*
Y46251D02*
G03X55450Y45638I138J-750D01*
X54752D02*
G03X54138Y46252I-752J-138D01*
Y46949D02*
G03X54751Y47562I-138J751D01*
G54D11*
X54150Y46939D02*
G03X54761Y47550I-150J761D01*
X55438D02*
G03X56050Y46938I762J150D01*
G54D13*
X54227Y46879D02*
G03X54821Y47473I-227J821D01*
X55378D02*
G03X55634Y47062I822J227D01*
G54D11*
X54762Y45650D02*
G03X54150Y46262I-762J-150D01*
X56050Y46261D02*
G03X55440Y45650I151J-760D01*
G54D13*
X54822Y45727D02*
G03X54566Y46138I-822J-227D01*
X55973Y46321D02*
G03X55380Y45727I227J-820D01*
G54D14*
X54409Y47011D02*
G03X54782Y47524I-409J689D01*
X55417D02*
G03X55789Y47011I783J176D01*
X54783Y45676D02*
G03X54411Y46189I-783J-176D01*
X55792D02*
G03X55419Y45676I408J-688D01*
G54D10*
X57187Y47562D02*
G01Y45638D01*
X56952D01*
X56338Y46252D02*
Y46949D01*
X56951Y47562D02*
X57187D01*
G54D11*
X56432Y46241D02*
X57175D01*
X56432Y46960D02*
X57175D01*
G54D13*
X57022Y45727D02*
X57098D01*
X56971Y45864D02*
X57098D01*
X56890Y46002D02*
X57098D01*
X56765Y46139D02*
X57098D01*
G54D11*
X57175Y46241D02*
Y45650D01*
G54D13*
X57098Y46241D02*
Y45727D01*
G54D11*
X57175Y45650D02*
X56962D01*
G54D15*
X56528Y46444D02*
X56997D01*
X56528Y46757D02*
X56997D01*
G54D13*
X56764Y47062D02*
X57098D01*
X56889Y47199D02*
X57098D01*
X56970Y47336D02*
X57098D01*
X57021Y47473D02*
X57098D01*
G54D11*
X57175Y47550D02*
Y46960D01*
G54D13*
X57098Y47473D02*
Y46960D01*
G54D11*
X56961Y47550D02*
X57175D01*
X56502Y46216D02*
X57175D01*
G54D14*
X56609Y46190D02*
X57149D01*
Y45676D02*
X56983D01*
X57149Y46190D02*
Y45676D01*
X56982Y47524D02*
X57149D01*
Y47011D01*
G54D10*
X56952Y45638D02*
G03X56338Y46252I-752J-138D01*
Y46949D02*
G03X56951Y47562I-138J751D01*
G54D11*
X56962Y45650D02*
G03X56350Y46262I-762J-150D01*
G54D13*
X57022Y45727D02*
G03X56427Y46322I-822J-227D01*
G54D11*
X56350Y46939D02*
G03X56961Y47550I-150J761D01*
G54D13*
X56427Y46879D02*
G03X57021Y47473I-227J821D01*
G54D14*
X56983Y45676D02*
G03X56609Y46190I-783J-176D01*
X56609Y47011D02*
G03X56982Y47524I-409J689D01*
G54D10*
X57187Y48687D02*
G01Y47838D01*
X56951D01*
X56338Y48451D02*
Y48687D01*
X57187D01*
G54D11*
X56432Y48440D02*
X57175D01*
G54D13*
X57021Y47927D02*
X57098D01*
X56971Y48064D02*
X57098D01*
X56889Y48201D02*
X57098D01*
X56765Y48338D02*
X57098D01*
G54D11*
X57175Y48440D02*
Y47850D01*
G54D13*
X57098Y48440D02*
Y47927D01*
G54D11*
X57175Y47850D02*
X56961D01*
G54D12*
X56427Y48542D02*
X57098D01*
X56427Y48598D02*
X57098D01*
G54D11*
X56502Y48415D02*
X57175D01*
G54D14*
X56609Y48389D02*
X57149D01*
Y47876D02*
X56982D01*
X57149Y48389D02*
Y47876D01*
G54D10*
X56951Y47838D02*
G03X56338Y48451I-750J-137D01*
G54D11*
X56961Y47850D02*
G03X56350Y48461I-761J-150D01*
G54D13*
X57021Y47927D02*
G03X56427Y48521I-821J-226D01*
G54D14*
X56982Y47876D02*
G03X56609Y48389I-781J-175D01*
G54D10*
X56062Y48687D02*
G01Y48452D01*
X55448Y47838D02*
X54751D01*
X54138Y48451D02*
Y48687D01*
X56062D01*
G54D11*
X54232Y48440D02*
X55965D01*
X54229Y48441D02*
X55968D01*
G54D13*
X54821Y47927D02*
X55378D01*
X54771Y48064D02*
X55428D01*
X54689Y48201D02*
X55510D01*
X54565Y48338D02*
X55634D01*
G54D11*
X55438Y47850D02*
X54761D01*
G54D12*
X54227Y48543D02*
X55973D01*
X54227Y48598D02*
X55973D01*
G54D11*
X54302Y48415D02*
X55895D01*
G54D14*
X54409Y48389D02*
X55789D01*
X55417Y47876D02*
X54782D01*
G54D10*
X56062Y48452D02*
G03X55448Y47838I138J-752D01*
X54751D02*
G03X54138Y48451I-750J-137D01*
G54D11*
X54761Y47850D02*
G03X54150Y48461I-761J-150D01*
X56050Y48462D02*
G03X55438Y47850I150J-762D01*
G54D13*
X54821Y47927D02*
G03X54227Y48521I-821J-226D01*
X55634Y48338D02*
G03X55378Y47927I566J-638D01*
G54D14*
X54782Y47876D02*
G03X54409Y48389I-781J-175D01*
X55789D02*
G03X55417Y47876I411J-689D01*
G54D15*
X67553Y86753D02*
G01Y87597D01*
X67947Y86753D02*
Y87597D01*
X66053Y86753D02*
Y87597D01*
X66447Y86753D02*
Y87597D01*
X67553Y88403D02*
Y89247D01*
X67947Y88403D02*
Y89247D01*
X66053Y88403D02*
Y89247D01*
X66447Y88403D02*
Y89247D01*
G54D10*
X83495Y31237D02*
X83987Y30745D01*
Y28263D01*
X82013D01*
Y30745D01*
X82505Y31237D01*
X83495D01*
G54D11*
X82035Y30750D02*
X83965D01*
G54D17*
X82813Y29063D02*
Y29937D01*
X83187Y29063D02*
Y29937D01*
G54D13*
X82245Y30852D02*
X83755D01*
X82394Y31000D02*
X83606D01*
X82542Y31148D02*
X83458D01*
G54D11*
X82025Y30739D02*
X82511Y31225D01*
X83489D02*
X83975Y30739D01*
G54D13*
X82102Y30708D02*
X82542Y31148D01*
X83458D02*
X83898Y30708D01*
G54D11*
X82511Y31225D02*
X83489D01*
G54D14*
X82521Y31199D02*
X83479D01*
X82123Y30801D02*
X82521Y31199D01*
X83479D02*
X83877Y30801D01*
G54D16*
X82906Y26156D02*
Y27344D01*
X83094Y26156D02*
Y27344D01*
G54D18*
X1350Y31600D02*
X1450D01*
G54D19*
X1050Y31950D02*
X1750D01*
X1050Y31250D02*
X1750D01*
G54D18*
X3150Y31600D02*
X3250D01*
G54D19*
X2850Y31950D02*
X3550D01*
X2850Y31250D02*
X3550D01*
G54D18*
X1350Y49000D02*
X1450D01*
G54D19*
X1050Y49350D02*
X1750D01*
X1050Y48650D02*
X1750D01*
G54D18*
X3150Y49000D02*
X3250D01*
G54D19*
X2850Y49350D02*
X3550D01*
X2850Y48650D02*
X3550D01*
G54D18*
X1350Y66400D02*
X1450D01*
G54D19*
X1050Y66750D02*
X1750D01*
X1050Y66050D02*
X1750D01*
G54D18*
X3150Y66400D02*
X3250D01*
G54D19*
X2850Y66750D02*
X3550D01*
X2850Y66050D02*
X3550D01*
G54D18*
X1350Y83800D02*
X1450D01*
G54D19*
X1050Y84150D02*
X1750D01*
X1050Y83450D02*
X1750D01*
G54D18*
X3150Y83800D02*
X3250D01*
G54D19*
X2850Y84150D02*
X3550D01*
X2850Y83450D02*
X3550D01*
G54D18*
X14050Y32250D02*
X14150D01*
G54D19*
X13750Y32600D02*
X14450D01*
X13750Y31900D02*
X14450D01*
G54D18*
X15850Y32250D02*
X15950D01*
G54D19*
X15550Y32600D02*
X16250D01*
X15550Y31900D02*
X16250D01*
G54D18*
X14050Y49650D02*
X14150D01*
G54D19*
X13750Y50000D02*
X14450D01*
X13750Y49300D02*
X14450D01*
G54D18*
X15850Y49650D02*
X15950D01*
G54D19*
X15550Y50000D02*
X16250D01*
X15550Y49300D02*
X16250D01*
G54D18*
X13050Y84500D02*
X13150D01*
G54D19*
X12750Y84850D02*
X13450D01*
X12750Y84150D02*
X13450D01*
G54D18*
X14850Y84500D02*
X14950D01*
G54D19*
X14550Y84850D02*
X15250D01*
X14550Y84150D02*
X15250D01*
G54D18*
X16550Y105000D02*
X16650D01*
G54D19*
X16250Y105350D02*
X16950D01*
X16250Y104650D02*
X16950D01*
G54D18*
X18350Y105000D02*
X18450D01*
G54D19*
X18050Y105350D02*
X18750D01*
X18050Y104650D02*
X18750D01*
G54D18*
X29050Y105000D02*
X29150D01*
G54D19*
X28750Y105350D02*
X29450D01*
X28750Y104650D02*
X29450D01*
G54D18*
X30850Y105000D02*
X30950D01*
G54D19*
X30550Y105350D02*
X31250D01*
X30550Y104650D02*
X31250D01*
G54D18*
X41550Y105000D02*
X41650D01*
G54D19*
X41250Y105350D02*
X41950D01*
X41250Y104650D02*
X41950D01*
G54D18*
X43350Y105000D02*
X43450D01*
G54D19*
X43050Y105350D02*
X43750D01*
X43050Y104650D02*
X43750D01*
G54D18*
X54050Y105000D02*
X54150D01*
G54D19*
X53750Y105350D02*
X54450D01*
X53750Y104650D02*
X54450D01*
G54D18*
X55850Y105000D02*
X55950D01*
G54D19*
X55550Y105350D02*
X56250D01*
X55550Y104650D02*
X56250D01*
G54D18*
X61050Y29500D02*
X61150D01*
G54D19*
X60750Y29850D02*
X61450D01*
X60750Y29150D02*
X61450D01*
G54D18*
X62850Y29500D02*
X62950D01*
G54D19*
X62550Y29850D02*
X63250D01*
X62550Y29150D02*
X63250D01*
G54D18*
X81550Y43500D02*
X81650D01*
G54D19*
X81250Y43850D02*
X81950D01*
X81250Y43150D02*
X81950D01*
G54D18*
X89050Y23000D02*
X89150D01*
G54D19*
X88750Y23350D02*
X89450D01*
X88750Y22650D02*
X89450D01*
G54D18*
X83350Y43500D02*
X83450D01*
G54D19*
X83050Y43850D02*
X83750D01*
X83050Y43150D02*
X83750D01*
G54D18*
X83550Y46000D02*
X83650D01*
G54D19*
X83250Y46350D02*
X83950D01*
X83250Y45650D02*
X83950D01*
G54D18*
X85350Y46000D02*
X85450D01*
G54D19*
X85050Y46350D02*
X85750D01*
X85050Y45650D02*
X85750D01*
G54D18*
X90850Y23000D02*
X90950D01*
G54D19*
X90550Y23350D02*
X91250D01*
X90550Y22650D02*
X91250D01*
G54D20*
X19550Y24000D02*
X19950D01*
G54D19*
X19150Y24450D02*
X20350D01*
X19150Y23550D02*
X20350D01*
G54D20*
X19550Y26000D02*
X19950D01*
G54D19*
X19150Y26450D02*
X20350D01*
X19150Y25550D02*
X20350D01*
G54D20*
X19550Y41400D02*
X19950D01*
G54D19*
X19150Y41850D02*
X20350D01*
X19150Y40950D02*
X20350D01*
G54D20*
X19550Y43400D02*
X19950D01*
G54D19*
X19150Y43850D02*
X20350D01*
X19150Y42950D02*
X20350D01*
G54D20*
X19550Y58800D02*
X19950D01*
G54D19*
X19150Y59250D02*
X20350D01*
X19150Y58350D02*
X20350D01*
G54D20*
X19550Y60800D02*
X19950D01*
G54D19*
X19150Y61250D02*
X20350D01*
X19150Y60350D02*
X20350D01*
G54D20*
X19550Y76200D02*
X19950D01*
G54D19*
X19150Y76650D02*
X20350D01*
X19150Y75750D02*
X20350D01*
G54D20*
X19550Y78200D02*
X19950D01*
G54D19*
X19150Y78650D02*
X20350D01*
X19150Y77750D02*
X20350D01*
G54D20*
X70300Y69500D02*
X70700D01*
G54D19*
X69900Y69950D02*
X71100D01*
X69900Y69050D02*
X71100D01*
G54D20*
X70300Y71500D02*
X70700D01*
G54D19*
X69900Y71950D02*
X71100D01*
X69900Y71050D02*
X71100D01*
G54D20*
X83300Y49500D02*
X83700D01*
G54D19*
X82900Y49950D02*
X84100D01*
X82900Y49050D02*
X84100D01*
G54D20*
X83300Y51500D02*
X83700D01*
G54D19*
X82900Y51950D02*
X84100D01*
X82900Y51050D02*
X84100D01*
G54D18*
X10550Y92500D02*
X10650D01*
G54D19*
X10250Y92850D02*
X10950D01*
X10250Y92150D02*
X10950D01*
G54D18*
X12350Y92500D02*
X12450D01*
G54D19*
X12050Y92850D02*
X12750D01*
X12050Y92150D02*
X12750D01*
G54D18*
X23050Y92500D02*
X23150D01*
G54D19*
X22750Y92850D02*
X23450D01*
X22750Y92150D02*
X23450D01*
G54D18*
X24850Y92500D02*
X24950D01*
G54D19*
X24550Y92850D02*
X25250D01*
X24550Y92150D02*
X25250D01*
G54D18*
X35550Y92500D02*
X35650D01*
G54D19*
X35250Y92850D02*
X35950D01*
X35250Y92150D02*
X35950D01*
G54D18*
X37350Y92500D02*
X37450D01*
G54D19*
X37050Y92850D02*
X37750D01*
X37050Y92150D02*
X37750D01*
G54D18*
X41550Y23300D02*
X41650D01*
G54D19*
X41250Y23650D02*
X41950D01*
X41250Y22950D02*
X41950D01*
G54D18*
X43350Y23300D02*
X43450D01*
G54D19*
X43050Y23650D02*
X43750D01*
X43050Y22950D02*
X43750D01*
G54D18*
X44050Y50700D02*
X44150D01*
G54D19*
X43750Y51050D02*
X44450D01*
X43750Y50350D02*
X44450D01*
G54D18*
X45850Y50700D02*
X45950D01*
G54D19*
X45550Y51050D02*
X46250D01*
X45550Y50350D02*
X46250D01*
G54D18*
X48050Y92500D02*
X48150D01*
G54D19*
X47750Y92850D02*
X48450D01*
X47750Y92150D02*
X48450D01*
G54D18*
X49850Y92500D02*
X49950D01*
G54D19*
X49550Y92850D02*
X50250D01*
X49550Y92150D02*
X50250D01*
G54D18*
X57550Y29500D02*
X57650D01*
G54D19*
X57250Y29850D02*
X57950D01*
X57250Y29150D02*
X57950D01*
G54D18*
X59350Y29500D02*
X59450D01*
G54D19*
X59050Y29850D02*
X59750D01*
X59050Y29150D02*
X59750D01*
G54D18*
X56050Y86500D02*
X56150D01*
G54D19*
X55750Y86850D02*
X56450D01*
X55750Y86150D02*
X56450D01*
G54D18*
X57850Y86500D02*
X57950D01*
G54D19*
X57550Y86850D02*
X58250D01*
X57550Y86150D02*
X58250D01*
G54D18*
X56050Y88500D02*
X56150D01*
G54D19*
X55750Y88850D02*
X56450D01*
X55750Y88150D02*
X56450D01*
G54D18*
X57850Y88500D02*
X57950D01*
G54D19*
X57550Y88850D02*
X58250D01*
X57550Y88150D02*
X58250D01*
G54D18*
X60050Y86000D02*
X60150D01*
G54D19*
X59750Y86350D02*
X60450D01*
X59750Y85650D02*
X60450D01*
G54D18*
X61850Y86000D02*
X61950D01*
G54D19*
X61550Y86350D02*
X62250D01*
X61550Y85650D02*
X62250D01*
G54D18*
X66550Y108500D02*
X66650D01*
G54D19*
X66250Y108850D02*
X66950D01*
X66250Y108150D02*
X66950D01*
G54D18*
X68550Y83500D02*
X68650D01*
G54D19*
X68250Y83850D02*
X68950D01*
X68250Y83150D02*
X68950D01*
G54D18*
X70350Y83500D02*
X70450D01*
G54D19*
X70050Y83850D02*
X70750D01*
X70050Y83150D02*
X70750D01*
G54D18*
X68350Y108500D02*
X68450D01*
G54D19*
X68050Y108850D02*
X68750D01*
X68050Y108150D02*
X68750D01*
G54D18*
X77550Y81500D02*
X77650D01*
G54D19*
X77250Y81850D02*
X77950D01*
X77250Y81150D02*
X77950D01*
G54D18*
X79350Y81500D02*
X79450D01*
G54D19*
X79050Y81850D02*
X79750D01*
X79050Y81150D02*
X79750D01*
G54D18*
X89050Y24500D02*
X89150D01*
G54D19*
X88750Y24850D02*
X89450D01*
X88750Y24150D02*
X89450D01*
G54D18*
X90850Y24500D02*
X90950D01*
G54D19*
X90550Y24850D02*
X91250D01*
X90550Y24150D02*
X91250D01*
G54D21*
X49810Y44700D02*
X50314D01*
X49810Y44300D02*
X50314D01*
X49810Y43900D02*
X50314D01*
X49810Y43500D02*
X50314D01*
X49810Y43100D02*
X50314D01*
X49810Y42700D02*
X50314D01*
X49810Y42300D02*
X50314D01*
X49810Y48700D02*
X50314D01*
X49810Y48300D02*
X50314D01*
X49810Y47900D02*
X50314D01*
X49810Y47500D02*
X50314D01*
X49810Y47100D02*
X50314D01*
X49810Y46700D02*
X50314D01*
X49810Y46300D02*
X50314D01*
X49810Y45900D02*
X50314D01*
X49810Y45500D02*
X50314D01*
X49810Y45100D02*
X50314D01*
X57686Y42300D02*
X58191D01*
X57686Y42700D02*
X58191D01*
X57686Y43100D02*
X58191D01*
X57686Y43500D02*
X58191D01*
X57686Y43900D02*
X58191D01*
X57686Y44300D02*
X58191D01*
X57686Y44700D02*
X58191D01*
X57686Y45100D02*
X58191D01*
X57686Y45500D02*
X58191D01*
X57686Y45900D02*
X58191D01*
X57686Y46300D02*
X58191D01*
X57686Y46700D02*
X58191D01*
X57686Y47100D02*
X58191D01*
X57686Y47500D02*
X58191D01*
X57686Y47900D02*
X58191D01*
X57686Y48300D02*
X58191D01*
X57686Y48700D02*
X58191D01*
G54D22*
X20750Y28750D02*
X22650D01*
X20750Y46150D02*
X22650D01*
X20750Y63550D02*
X22650D01*
X20750Y80950D02*
X22650D01*
X27850Y28750D02*
X29750D01*
X27850Y46150D02*
X29750D01*
X27850Y63550D02*
X29750D01*
X27850Y80950D02*
X29750D01*
G54D23*
X8000Y96550D02*
X10000D01*
G54D19*
X7300Y97300D02*
X10700D01*
X7300Y95800D02*
X10700D01*
G54D23*
X8000Y100450D02*
X10000D01*
G54D19*
X7300Y101200D02*
X10700D01*
X7300Y99700D02*
X10700D01*
G54D23*
X20500Y96550D02*
X22500D01*
G54D19*
X19800Y97300D02*
X23200D01*
X19800Y95800D02*
X23200D01*
G54D23*
X20500Y100450D02*
X22500D01*
G54D19*
X19800Y101200D02*
X23200D01*
X19800Y99700D02*
X23200D01*
G54D23*
X33000Y96550D02*
X35000D01*
G54D19*
X32300Y97300D02*
X35700D01*
X32300Y95800D02*
X35700D01*
G54D23*
X33000Y100450D02*
X35000D01*
G54D19*
X32300Y101200D02*
X35700D01*
X32300Y99700D02*
X35700D01*
G54D23*
X45500Y96550D02*
X47500D01*
G54D19*
X44800Y97300D02*
X48200D01*
X44800Y95800D02*
X48200D01*
G54D23*
X45500Y100450D02*
X47500D01*
G54D19*
X44800Y101200D02*
X48200D01*
X44800Y99700D02*
X48200D01*
G54D24*
X66175Y79375D02*
Y81625D01*
X62825Y79375D02*
Y81625D01*
G54D25*
X38700Y15450D02*
Y16150D01*
G54D19*
X38150Y14950D02*
Y16650D01*
X39250Y14950D02*
Y16650D01*
G54D25*
X38700Y17950D02*
Y18650D01*
G54D19*
X38150Y17450D02*
Y19150D01*
X39250Y17450D02*
Y19150D01*
G54D25*
X41700Y15450D02*
Y16150D01*
G54D19*
X41150Y14950D02*
Y16650D01*
X42250Y14950D02*
Y16650D01*
G54D25*
X41700Y17950D02*
Y18650D01*
G54D19*
X41150Y17450D02*
Y19150D01*
X42250Y17450D02*
Y19150D01*
G54D25*
X45000Y79650D02*
Y80350D01*
G54D19*
X44450Y79150D02*
Y80850D01*
X45550Y79150D02*
Y80850D01*
G54D25*
X53000Y76650D02*
Y77350D01*
G54D19*
X52450Y76150D02*
Y77850D01*
X53550Y76150D02*
Y77850D01*
G54D25*
X48000Y79650D02*
Y80350D01*
G54D19*
X47450Y79150D02*
Y80850D01*
X48550Y79150D02*
Y80850D01*
G54D25*
X56000Y76650D02*
Y77350D01*
G54D19*
X55450Y76150D02*
Y77850D01*
X56550Y76150D02*
Y77850D01*
G54D26*
X5000Y115500D03*
X92000Y5000D03*
Y115500D03*
G54D18*
X52850Y82500D02*
X52950D01*
G54D19*
X52550Y82850D02*
X53250D01*
X52550Y82150D02*
X53250D01*
G54D18*
X51050Y82500D02*
X51150D01*
G54D19*
X50750Y82850D02*
X51450D01*
X50750Y82150D02*
X51450D01*
G54D18*
X64850Y44300D02*
X64950D01*
G54D19*
X64550Y44650D02*
X65250D01*
X64550Y43950D02*
X65250D01*
G54D18*
X63050Y44300D02*
X63150D01*
G54D19*
X62750Y44650D02*
X63450D01*
X62750Y43950D02*
X63450D01*
G54D18*
X63250Y50600D02*
X63350D01*
G54D19*
X62950Y50950D02*
X63650D01*
X62950Y50250D02*
X63650D01*
G54D18*
X61450Y50600D02*
X61550D01*
G54D19*
X61150Y50950D02*
X61850D01*
X61150Y50250D02*
X61850D01*
G54D18*
X74050Y84500D02*
X74150D01*
G54D19*
X73750Y84850D02*
X74450D01*
X73750Y84150D02*
X74450D01*
G54D18*
X75850Y84500D02*
X75950D01*
G54D19*
X75550Y84850D02*
X76250D01*
X75550Y84150D02*
X76250D01*
G54D26*
X48000Y84250D02*
Y84750D01*
X51000Y84250D02*
Y84750D01*
X81500Y26250D02*
Y26750D01*
X84500Y26250D02*
Y26750D01*
G54D27*
X79525Y48750D02*
Y49626D01*
X80175Y48750D02*
Y49626D01*
X80825Y48750D02*
Y49626D01*
X81475Y48750D02*
Y49626D01*
Y51375D02*
Y52249D01*
X80825Y51375D02*
Y52249D01*
X80175Y51375D02*
Y52249D01*
X79525Y51375D02*
Y52249D01*
G54D28*
X63550Y87365D02*
X64850D01*
X63550Y86095D02*
X64850D01*
X63550Y89905D02*
X64850D01*
X63550Y88635D02*
X64850D01*
X69150Y86095D02*
X70450D01*
X69150Y87365D02*
X70450D01*
X69150Y88635D02*
X70450D01*
X69150Y89905D02*
X70450D01*
G54D18*
X11950Y13400D02*
X12050D01*
G54D19*
X11650Y13750D02*
X12350D01*
X11650Y13050D02*
X12350D01*
G54D18*
X11950Y11600D02*
X12050D01*
G54D19*
X11650Y11950D02*
X12350D01*
X11650Y11250D02*
X12350D01*
G54D18*
X59700Y73600D02*
X59800D01*
G54D19*
X59400Y73950D02*
X60100D01*
X59400Y73250D02*
X60100D01*
G54D18*
X59700Y75400D02*
X59800D01*
G54D19*
X59400Y75750D02*
X60100D01*
X59400Y75050D02*
X60100D01*
G54D18*
X57950Y94600D02*
X58050D01*
G54D19*
X57650Y94950D02*
X58350D01*
X57650Y94250D02*
X58350D01*
G54D18*
X59950Y92400D02*
X60050D01*
G54D19*
X59650Y92750D02*
X60350D01*
X59650Y92050D02*
X60350D01*
G54D18*
X59950Y90600D02*
X60050D01*
G54D19*
X59650Y90950D02*
X60350D01*
X59650Y90250D02*
X60350D01*
G54D18*
X57950Y96400D02*
X58050D01*
G54D19*
X57650Y96750D02*
X58350D01*
X57650Y96050D02*
X58350D01*
G54D18*
X79950Y20400D02*
X80050D01*
G54D19*
X79650Y20750D02*
X80350D01*
X79650Y20050D02*
X80350D01*
G54D18*
X79950Y18600D02*
X80050D01*
G54D19*
X79650Y18950D02*
X80350D01*
X79650Y18250D02*
X80350D01*
G54D18*
X78950Y22600D02*
X79050D01*
G54D19*
X78650Y22950D02*
X79350D01*
X78650Y22250D02*
X79350D01*
G54D18*
X78950Y24400D02*
X79050D01*
G54D19*
X78650Y24750D02*
X79350D01*
X78650Y24050D02*
X79350D01*
G54D18*
X76950Y52100D02*
X77050D01*
G54D19*
X76650Y52450D02*
X77350D01*
X76650Y51750D02*
X77350D01*
G54D18*
X76950Y53900D02*
X77050D01*
G54D19*
X76650Y54250D02*
X77350D01*
X76650Y53550D02*
X77350D01*
G54D20*
X46000Y16600D02*
X46400D01*
G54D19*
X45600Y17050D02*
X46800D01*
X45600Y16150D02*
X46800D01*
G54D20*
X46000Y18600D02*
X46400D01*
G54D19*
X45600Y19050D02*
X46800D01*
X45600Y18150D02*
X46800D01*
G54D20*
X62000Y56600D02*
X62400D01*
G54D19*
X61600Y57050D02*
X62800D01*
X61600Y56150D02*
X62800D01*
G54D20*
X62000Y54600D02*
X62400D01*
G54D19*
X61600Y55050D02*
X62800D01*
X61600Y54150D02*
X62800D01*
G54D29*
X67600Y106000D03*
X63400D03*
X74400Y90500D03*
X78600D03*
X86900Y67000D03*
X91100D03*
G54D30*
X60375Y19625D02*
X60475D01*
G54D19*
X60175Y19875D02*
X60675D01*
X60175Y19375D02*
X60675D01*
G54D30*
X60375Y18625D02*
X60475D01*
G54D19*
X60175Y18875D02*
X60675D01*
X60175Y18375D02*
X60675D01*
G54D30*
X59275Y19625D02*
X59375D01*
G54D19*
X59075Y19875D02*
X59575D01*
X59075Y19375D02*
X59575D01*
G54D30*
X59275Y18625D02*
X59375D01*
G54D19*
X59075Y18875D02*
X59575D01*
X59075Y18375D02*
X59575D01*
G54D30*
X55650Y37700D02*
X55750D01*
G54D19*
X55450Y37950D02*
X55950D01*
X55450Y37450D02*
X55950D01*
G54D30*
X53950Y37700D02*
X54050D01*
G54D19*
X53750Y37950D02*
X54250D01*
X53750Y37450D02*
X54250D01*
G54D30*
X57250Y37900D02*
X57350D01*
G54D19*
X57050Y38150D02*
X57550D01*
X57050Y37650D02*
X57550D01*
G54D30*
X55650Y38700D02*
X55750D01*
G54D19*
X55450Y38950D02*
X55950D01*
X55450Y38450D02*
X55950D01*
G54D30*
X53950Y38700D02*
X54050D01*
G54D19*
X53750Y38950D02*
X54250D01*
X53750Y38450D02*
X54250D01*
G54D30*
X57250Y38900D02*
X57350D01*
G54D19*
X57050Y39150D02*
X57550D01*
X57050Y38650D02*
X57550D01*
G54D30*
X59550Y51700D02*
X59650D01*
G54D19*
X59350Y51950D02*
X59850D01*
X59350Y51450D02*
X59850D01*
G54D30*
X59550Y50700D02*
X59650D01*
G54D19*
X59350Y50950D02*
X59850D01*
X59350Y50450D02*
X59850D01*
G54D30*
X64100Y53500D02*
X64200D01*
G54D19*
X63900Y53750D02*
X64400D01*
X63900Y53250D02*
X64400D01*
G54D30*
X64100Y52500D02*
X64200D01*
G54D19*
X63900Y52750D02*
X64400D01*
X63900Y52250D02*
X64400D01*
G54D31*
X79025Y72325D02*
Y72675D01*
X75975Y72325D02*
Y72675D01*
X79025Y69825D02*
Y70175D01*
X75975Y69825D02*
Y70175D01*
G54D18*
X43950Y18700D02*
X44050D01*
G54D19*
X43650Y19050D02*
X44350D01*
X43650Y18350D02*
X44350D01*
G54D18*
X43950Y16900D02*
X44050D01*
G54D19*
X43650Y17250D02*
X44350D01*
X43650Y16550D02*
X44350D01*
G54D18*
X48050Y54600D02*
X48150D01*
G54D19*
X47750Y54950D02*
X48450D01*
X47750Y54250D02*
X48450D01*
G54D18*
X48050Y52800D02*
X48150D01*
G54D19*
X47750Y53150D02*
X48450D01*
X47750Y52450D02*
X48450D01*
G54D18*
X93950Y66350D02*
X94050D01*
G54D19*
X93650Y66700D02*
X94350D01*
X93650Y66000D02*
X94350D01*
G54D18*
X93950Y68150D02*
X94050D01*
G54D19*
X93650Y68500D02*
X94350D01*
X93650Y67800D02*
X94350D01*
G54D20*
X17700Y30800D02*
X17800D01*
X17700Y28700D02*
X17800D01*
X17700Y48200D02*
X17800D01*
X17700Y46100D02*
X17800D01*
X17700Y65600D02*
X17800D01*
X17700Y63500D02*
X17800D01*
X17700Y80900D02*
X17800D01*
X17700Y83000D02*
X17800D01*
X60050Y56650D02*
X60150D01*
X60050Y54550D02*
X60150D01*
G54D32*
X78000Y74600D02*
Y74700D01*
Y76300D02*
Y76400D01*
G54D20*
X74500Y45300D02*
Y45700D01*
G54D19*
X74050Y44900D02*
Y46100D01*
X74950Y44900D02*
Y46100D01*
G54D20*
X76500Y45300D02*
Y45700D01*
G54D19*
X76050Y44900D02*
Y46100D01*
X76950Y44900D02*
Y46100D01*
G54D33*
X43100Y21100D02*
Y21500D01*
X39900Y21100D02*
Y21500D01*
X74900Y78800D02*
Y79200D01*
X73400Y86800D02*
Y87200D01*
X78100Y78800D02*
Y79200D01*
X76600Y86800D02*
Y87200D01*
G54D26*
X61050Y31600D02*
Y31900D01*
X62950Y31600D02*
Y31900D01*
X62000Y34100D02*
Y34400D01*
X87050Y26100D02*
Y26400D01*
X88950Y26100D02*
Y26400D01*
X88000Y28600D02*
Y28900D01*
G54D28*
X16405Y93800D02*
Y95450D01*
X15135Y93800D02*
Y95450D01*
X13865Y93800D02*
Y95450D01*
X12595Y93800D02*
Y95450D01*
Y99550D02*
Y101200D01*
X13865Y99550D02*
Y101200D01*
X15135Y99550D02*
Y101200D01*
X16405Y99550D02*
Y101200D01*
X28905Y93800D02*
Y95450D01*
X27635Y93800D02*
Y95450D01*
X26365Y93800D02*
Y95450D01*
X25095Y93800D02*
Y95450D01*
Y99550D02*
Y101200D01*
X26365Y99550D02*
Y101200D01*
X27635Y99550D02*
Y101200D01*
X28905Y99550D02*
Y101200D01*
X38865Y93800D02*
Y95450D01*
X37595Y93800D02*
Y95450D01*
Y99550D02*
Y101200D01*
X38865Y99550D02*
Y101200D01*
X41405Y93800D02*
Y95450D01*
X40135Y93800D02*
Y95450D01*
Y99550D02*
Y101200D01*
X41405Y99550D02*
Y101200D01*
X52635Y93800D02*
Y95450D01*
X51365Y93800D02*
Y95450D01*
X50095Y93800D02*
Y95450D01*
Y99550D02*
Y101200D01*
X51365Y99550D02*
Y101200D01*
X52635Y99550D02*
Y101200D01*
X53905Y93800D02*
Y95450D01*
Y99550D02*
Y101200D01*
X67865Y30800D02*
Y32450D01*
X66595Y30800D02*
Y32450D01*
Y36550D02*
Y38200D01*
X67865Y36550D02*
Y38200D01*
X70405Y30800D02*
Y32450D01*
X69135Y30800D02*
Y32450D01*
X75095Y25800D02*
Y27450D01*
X69135Y36550D02*
Y38200D01*
X70405Y36550D02*
Y38200D01*
X75095Y31550D02*
Y33200D01*
X78905Y25800D02*
Y27450D01*
X77635Y25800D02*
Y27450D01*
X76365Y25800D02*
Y27450D01*
Y31550D02*
Y33200D01*
X77635Y31550D02*
Y33200D01*
X78905Y31550D02*
Y33200D01*
G54D34*
X75000Y62550D02*
Y64450D01*
X84000Y62550D02*
Y64450D01*
G54D25*
X81700Y100500D02*
X83300D01*
G54D19*
X81200Y101050D02*
X83800D01*
X81200Y99950D02*
X83800D01*
G54D25*
X77700Y100500D02*
X79300D01*
G54D19*
X77200Y101050D02*
X79800D01*
X77200Y99950D02*
X79800D01*
G54D25*
X81700Y103500D02*
X83300D01*
G54D19*
X81200Y104050D02*
X83800D01*
X81200Y102950D02*
X83800D01*
G54D25*
X77700Y103500D02*
X79300D01*
G54D19*
X77200Y104050D02*
X79800D01*
X77200Y102950D02*
X79800D01*
G54D25*
X89300Y60000D02*
X90900D01*
G54D19*
X88800Y60550D02*
X91400D01*
X88800Y59450D02*
X91400D01*
G54D25*
X89300Y63000D02*
X90900D01*
G54D19*
X88800Y63550D02*
X91400D01*
X88800Y62450D02*
X91400D01*
G54D25*
X92700Y60000D02*
X94300D01*
G54D19*
X92200Y60550D02*
X94800D01*
X92200Y59450D02*
X94800D01*
G54D25*
X92700Y63000D02*
X94300D01*
G54D19*
X92200Y63550D02*
X94800D01*
X92200Y62450D02*
X94800D01*
G54D18*
X45950Y36900D02*
X46050D01*
G54D19*
X45650Y37250D02*
X46350D01*
X45650Y36550D02*
X46350D01*
G54D18*
X45950Y38700D02*
X46050D01*
G54D19*
X45650Y39050D02*
X46350D01*
X45650Y38350D02*
X46350D01*
G54D18*
X45950Y85100D02*
X46050D01*
G54D19*
X45650Y85450D02*
X46350D01*
X45650Y84750D02*
X46350D01*
G54D18*
X45950Y86900D02*
X46050D01*
G54D19*
X45650Y87250D02*
X46350D01*
X45650Y86550D02*
X46350D01*
G54D18*
X50950Y35800D02*
X51050D01*
G54D19*
X50650Y36150D02*
X51350D01*
X50650Y35450D02*
X51350D01*
G54D18*
X50950Y37600D02*
X51050D01*
G54D19*
X50650Y37950D02*
X51350D01*
X50650Y37250D02*
X51350D01*
G54D18*
X49050Y35900D02*
X49150D01*
G54D19*
X48750Y36250D02*
X49450D01*
X48750Y35550D02*
X49450D01*
G54D18*
X49050Y37700D02*
X49150D01*
G54D19*
X48750Y38050D02*
X49450D01*
X48750Y37350D02*
X49450D01*
G54D18*
X58850Y36800D02*
X58950D01*
G54D19*
X58550Y37150D02*
X59250D01*
X58550Y36450D02*
X59250D01*
G54D18*
X58850Y38600D02*
X58950D01*
G54D19*
X58550Y38950D02*
X59250D01*
X58550Y38250D02*
X59250D01*
G54D18*
X64450Y36100D02*
X64550D01*
G54D19*
X64150Y36450D02*
X64850D01*
X64150Y35750D02*
X64850D01*
G54D18*
X64450Y37900D02*
X64550D01*
G54D19*
X64150Y38250D02*
X64850D01*
X64150Y37550D02*
X64850D01*
G54D18*
X68450Y69600D02*
X68550D01*
G54D19*
X68150Y69950D02*
X68850D01*
X68150Y69250D02*
X68850D01*
G54D18*
X68450Y71400D02*
X68550D01*
G54D19*
X68150Y71750D02*
X68850D01*
X68150Y71050D02*
X68850D01*
G54D18*
X76950Y48100D02*
X77050D01*
G54D19*
X76650Y48450D02*
X77350D01*
X76650Y47750D02*
X77350D01*
G54D18*
X76950Y49900D02*
X77050D01*
G54D19*
X76650Y50250D02*
X77350D01*
X76650Y49550D02*
X77350D01*
G54D18*
X85450Y49600D02*
X85550D01*
G54D19*
X85150Y49950D02*
X85850D01*
X85150Y49250D02*
X85850D01*
G54D18*
X85450Y51400D02*
X85550D01*
G54D19*
X85150Y51750D02*
X85850D01*
X85150Y51050D02*
X85850D01*
G54D18*
X16550Y103000D02*
X16650D01*
G54D19*
X16250Y103350D02*
X16950D01*
X16250Y102650D02*
X16950D01*
G54D18*
X18350Y103000D02*
X18450D01*
G54D19*
X18050Y103350D02*
X18750D01*
X18050Y102650D02*
X18750D01*
G54D18*
X30850Y103000D02*
X30950D01*
G54D19*
X30550Y103350D02*
X31250D01*
X30550Y102650D02*
X31250D01*
G54D18*
X29050Y103000D02*
X29150D01*
G54D19*
X28750Y103350D02*
X29450D01*
X28750Y102650D02*
X29450D01*
G54D18*
X43350Y103000D02*
X43450D01*
G54D19*
X43050Y103350D02*
X43750D01*
X43050Y102650D02*
X43750D01*
G54D18*
X41550Y103000D02*
X41650D01*
G54D19*
X41250Y103350D02*
X41950D01*
X41250Y102650D02*
X41950D01*
G54D18*
X60050Y88500D02*
X60150D01*
G54D19*
X59750Y88850D02*
X60450D01*
X59750Y88150D02*
X60450D01*
G54D18*
X55850Y103000D02*
X55950D01*
G54D19*
X55550Y103350D02*
X56250D01*
X55550Y102650D02*
X56250D01*
G54D18*
X54050Y103000D02*
X54150D01*
G54D19*
X53750Y103350D02*
X54450D01*
X53750Y102650D02*
X54450D01*
G54D18*
X61850Y88500D02*
X61950D01*
G54D19*
X61550Y88850D02*
X62250D01*
X61550Y88150D02*
X62250D01*
G54D18*
X77350Y20000D02*
X77450D01*
G54D19*
X77050Y20350D02*
X77750D01*
X77050Y19650D02*
X77750D01*
G54D18*
X75550Y20000D02*
X75650D01*
G54D19*
X75250Y20350D02*
X75950D01*
X75250Y19650D02*
X75950D01*
G54D18*
X80350Y45500D02*
X80450D01*
G54D19*
X80050Y45850D02*
X80750D01*
X80050Y45150D02*
X80750D01*
G54D18*
X78550Y45500D02*
X78650D01*
G54D19*
X78250Y45850D02*
X78950D01*
X78250Y45150D02*
X78950D01*
G54D18*
X88850Y31000D02*
X88950D01*
G54D19*
X88550Y31350D02*
X89250D01*
X88550Y30650D02*
X89250D01*
G54D18*
X87050Y31000D02*
X87150D01*
G54D19*
X86750Y31350D02*
X87450D01*
X86750Y30650D02*
X87450D01*
G54D18*
X92850Y31000D02*
X92950D01*
G54D19*
X92550Y31350D02*
X93250D01*
X92550Y30650D02*
X93250D01*
G54D18*
X91050Y31000D02*
X91150D01*
G54D19*
X90750Y31350D02*
X91450D01*
X90750Y30650D02*
X91450D01*
G54D25*
X55450Y80250D02*
X57050D01*
G54D19*
X54950Y80800D02*
X57550D01*
X54950Y79700D02*
X57550D01*
G54D25*
X58950Y80250D02*
X60550D01*
G54D19*
X58450Y80800D02*
X61050D01*
X58450Y79700D02*
X61050D01*
G54D25*
X55450Y83250D02*
X57050D01*
G54D19*
X54950Y83800D02*
X57550D01*
X54950Y82700D02*
X57550D01*
G54D25*
X58950Y83250D02*
X60550D01*
G54D19*
X58450Y83800D02*
X61050D01*
X58450Y82700D02*
X61050D01*
G54D18*
X14950Y103100D02*
X15050D01*
G54D19*
X14650Y103450D02*
X15350D01*
X14650Y102750D02*
X15350D01*
G54D18*
X14950Y104900D02*
X15050D01*
G54D19*
X14650Y105250D02*
X15350D01*
X14650Y104550D02*
X15350D01*
G54D18*
X27450Y103100D02*
X27550D01*
G54D19*
X27150Y103450D02*
X27850D01*
X27150Y102750D02*
X27850D01*
G54D18*
X27450Y104900D02*
X27550D01*
G54D19*
X27150Y105250D02*
X27850D01*
X27150Y104550D02*
X27850D01*
G54D18*
X39950Y103100D02*
X40050D01*
G54D19*
X39650Y103450D02*
X40350D01*
X39650Y102750D02*
X40350D01*
G54D18*
X39950Y104900D02*
X40050D01*
G54D19*
X39650Y105250D02*
X40350D01*
X39650Y104550D02*
X40350D01*
G54D18*
X52450Y103100D02*
X52550D01*
G54D19*
X52150Y103450D02*
X52850D01*
X52150Y102750D02*
X52850D01*
G54D18*
X52450Y104900D02*
X52550D01*
G54D19*
X52150Y105250D02*
X52850D01*
X52150Y104550D02*
X52850D01*
G54D18*
X54350Y14600D02*
X54450D01*
G54D19*
X54050Y14950D02*
X54750D01*
X54050Y14250D02*
X54750D01*
G54D18*
X54350Y16400D02*
X54450D01*
G54D19*
X54050Y16750D02*
X54750D01*
X54050Y16050D02*
X54750D01*
G54D18*
X57950Y90600D02*
X58050D01*
G54D19*
X57650Y90950D02*
X58350D01*
X57650Y90250D02*
X58350D01*
G54D18*
X57950Y92400D02*
X58050D01*
G54D19*
X57650Y92750D02*
X58350D01*
X57650Y92050D02*
X58350D01*
G54D18*
X59950Y94600D02*
X60050D01*
G54D19*
X59650Y94950D02*
X60350D01*
X59650Y94250D02*
X60350D01*
G54D18*
X59950Y96400D02*
X60050D01*
G54D19*
X59650Y96750D02*
X60350D01*
X59650Y96050D02*
X60350D01*
G54D18*
X67950Y27600D02*
X68050D01*
G54D19*
X67650Y27950D02*
X68350D01*
X67650Y27250D02*
X68350D01*
G54D18*
X67950Y29400D02*
X68050D01*
G54D19*
X67650Y29750D02*
X68350D01*
X67650Y29050D02*
X68350D01*
G54D18*
X61450Y73600D02*
X61550D01*
G54D19*
X61150Y73950D02*
X61850D01*
X61150Y73250D02*
X61850D01*
G54D18*
X61450Y75400D02*
X61550D01*
G54D19*
X61150Y75750D02*
X61850D01*
X61150Y75050D02*
X61850D01*
G54D18*
X61950Y90600D02*
X62050D01*
G54D19*
X61650Y90950D02*
X62350D01*
X61650Y90250D02*
X62350D01*
G54D18*
X61950Y92400D02*
X62050D01*
G54D19*
X61650Y92750D02*
X62350D01*
X61650Y92050D02*
X62350D01*
G54D18*
X69450Y27600D02*
X69550D01*
G54D19*
X69150Y27950D02*
X69850D01*
X69150Y27250D02*
X69850D01*
G54D18*
X69450Y29400D02*
X69550D01*
G54D19*
X69150Y29750D02*
X69850D01*
X69150Y29050D02*
X69850D01*
G54D35*
X65850Y52750D02*
Y53050D01*
Y50350D02*
Y50650D01*
X67550Y50350D02*
Y50650D01*
Y52750D02*
Y53050D01*
G54D30*
X45750Y43800D02*
X45850D01*
G54D19*
X45550Y44050D02*
X46050D01*
X45550Y43550D02*
X46050D01*
G54D30*
X45650Y42100D02*
X45750D01*
G54D19*
X45450Y42350D02*
X45950D01*
X45450Y41850D02*
X45950D01*
G54D30*
X45650Y45500D02*
X45750D01*
G54D19*
X45450Y45750D02*
X45950D01*
X45450Y45250D02*
X45950D01*
G54D30*
X46450Y48900D02*
X46550D01*
G54D19*
X46250Y49150D02*
X46750D01*
X46250Y48650D02*
X46750D01*
G54D30*
X45450Y48900D02*
X45550D01*
G54D19*
X45250Y49150D02*
X45750D01*
X45250Y48650D02*
X45750D01*
G54D30*
X46450Y47200D02*
X46550D01*
G54D19*
X46250Y47450D02*
X46750D01*
X46250Y46950D02*
X46750D01*
G54D30*
X45450Y47200D02*
X45550D01*
G54D19*
X45250Y47450D02*
X45750D01*
X45250Y46950D02*
X45750D01*
G54D30*
X46750Y43800D02*
X46850D01*
G54D19*
X46550Y44050D02*
X47050D01*
X46550Y43550D02*
X47050D01*
G54D30*
X46650Y42100D02*
X46750D01*
G54D19*
X46450Y42350D02*
X46950D01*
X46450Y41850D02*
X46950D01*
G54D30*
X46650Y45500D02*
X46750D01*
G54D19*
X46450Y45750D02*
X46950D01*
X46450Y45250D02*
X46950D01*
G54D30*
X67150Y48050D02*
X67250D01*
G54D19*
X66950Y48300D02*
X67450D01*
X66950Y47800D02*
X67450D01*
G54D30*
X68150Y48050D02*
X68250D01*
G54D19*
X67950Y48300D02*
X68450D01*
X67950Y47800D02*
X68450D01*
G54D25*
X72150Y79000D02*
X72850D01*
G54D19*
X71650Y79550D02*
X73350D01*
X71650Y78450D02*
X73350D01*
G54D25*
X72150Y76000D02*
X72850D01*
G54D19*
X71650Y76550D02*
X73350D01*
X71650Y75450D02*
X73350D01*
G54D28*
X87150Y55100D02*
Y55800D01*
X88100Y55100D02*
Y55800D01*
X89050Y55100D02*
Y55800D01*
Y57600D02*
Y58300D01*
X88100Y57600D02*
Y58300D01*
X87150Y57600D02*
Y58300D01*
G54D36*
X1750Y-6750D02*
Y-9250D01*
X3516D01*
X-250Y10000D02*
Y-250D01*
X10000D01*
Y120750D02*
X-250D01*
Y110500D01*
X8905Y-9220D02*
Y-6720D01*
X9626Y-8051D01*
X10366Y-6720D01*
Y-9220D01*
X4707Y-7464D02*
X4999Y-6750D01*
Y-9250D01*
X15947Y-8441D02*
X16882D01*
X15752Y-9220D02*
X16415Y-6720D01*
X17077Y-9220D01*
X14165D02*
Y-6720D01*
X13502D02*
X14827D01*
X11252Y-7954D02*
X12363D01*
X12577Y-6720D02*
X11252D01*
Y-9220D01*
X12577D01*
X18002Y-6720D02*
Y-9220D01*
X19327D01*
X70000Y-250D02*
X97250D01*
Y10000D01*
Y110500D02*
Y120750D01*
X87000D01*
G54D30*
X24350Y20860D02*
X24450D01*
G54D19*
X24150Y21110D02*
X24650D01*
X24150Y20610D02*
X24650D01*
G54D30*
X24350Y21960D02*
X24450D01*
G54D19*
X24150Y22210D02*
X24650D01*
X24150Y21710D02*
X24650D01*
G54D30*
X24350Y38260D02*
X24450D01*
G54D19*
X24150Y38510D02*
X24650D01*
X24150Y38010D02*
X24650D01*
G54D30*
X24350Y39360D02*
X24450D01*
G54D19*
X24150Y39610D02*
X24650D01*
X24150Y39110D02*
X24650D01*
G54D30*
X24350Y55660D02*
X24450D01*
G54D19*
X24150Y55910D02*
X24650D01*
X24150Y55410D02*
X24650D01*
G54D30*
X24350Y56760D02*
X24450D01*
G54D19*
X24150Y57010D02*
X24650D01*
X24150Y56510D02*
X24650D01*
G54D30*
X24350Y73060D02*
X24450D01*
G54D19*
X24150Y73310D02*
X24650D01*
X24150Y72810D02*
X24650D01*
G54D30*
X24350Y74160D02*
X24450D01*
G54D19*
X24150Y74410D02*
X24650D01*
X24150Y73910D02*
X24650D01*
G54D30*
X25350Y20860D02*
X25450D01*
G54D19*
X25150Y21110D02*
X25650D01*
X25150Y20610D02*
X25650D01*
G54D30*
X25350Y21960D02*
X25450D01*
G54D19*
X25150Y22210D02*
X25650D01*
X25150Y21710D02*
X25650D01*
G54D30*
X25350Y38260D02*
X25450D01*
G54D19*
X25150Y38510D02*
X25650D01*
X25150Y38010D02*
X25650D01*
G54D30*
X25350Y39360D02*
X25450D01*
G54D19*
X25150Y39610D02*
X25650D01*
X25150Y39110D02*
X25650D01*
G54D30*
X25350Y55660D02*
X25450D01*
G54D19*
X25150Y55910D02*
X25650D01*
X25150Y55410D02*
X25650D01*
G54D30*
X25350Y56760D02*
X25450D01*
G54D19*
X25150Y57010D02*
X25650D01*
X25150Y56510D02*
X25650D01*
G54D30*
X25350Y73060D02*
X25450D01*
G54D19*
X25150Y73310D02*
X25650D01*
X25150Y72810D02*
X25650D01*
G54D30*
X25350Y74160D02*
X25450D01*
G54D19*
X25150Y74410D02*
X25650D01*
X25150Y73910D02*
X25650D01*
G54D30*
X60650Y49300D02*
X60750D01*
G54D19*
X60450Y49550D02*
X60950D01*
X60450Y49050D02*
X60950D01*
G54D30*
X61650Y49300D02*
X61750D01*
G54D19*
X61450Y49550D02*
X61950D01*
X61450Y49050D02*
X61950D01*
G54D30*
X61750Y45800D02*
X61850D01*
G54D19*
X61550Y46050D02*
X62050D01*
X61550Y45550D02*
X62050D01*
G54D30*
X62750Y45800D02*
X62850D01*
G54D19*
X62550Y46050D02*
X63050D01*
X62550Y45550D02*
X63050D01*
G54D30*
X61750Y47200D02*
X61850D01*
G54D19*
X61550Y47450D02*
X62050D01*
X61550Y46950D02*
X62050D01*
G54D30*
X62750Y47200D02*
X62850D01*
G54D19*
X62550Y47450D02*
X63050D01*
X62550Y46950D02*
X63050D01*
G54D30*
X64950Y48050D02*
X65050D01*
G54D19*
X64750Y48300D02*
X65250D01*
X64750Y47800D02*
X65250D01*
G54D30*
X65950Y48050D02*
X66050D01*
G54D19*
X65750Y48300D02*
X66250D01*
X65750Y47800D02*
X66250D01*
G54D30*
X52250Y36700D02*
X52350D01*
G54D19*
X52050Y36950D02*
X52550D01*
X52050Y36450D02*
X52550D01*
G54D30*
X52250Y37700D02*
X52350D01*
G54D19*
X52050Y37950D02*
X52550D01*
X52050Y37450D02*
X52550D01*
G54D30*
X52250Y52800D02*
X52350D01*
G54D19*
X52050Y53050D02*
X52550D01*
X52050Y52550D02*
X52550D01*
G54D30*
X52250Y53800D02*
X52350D01*
G54D19*
X52050Y54050D02*
X52550D01*
X52050Y53550D02*
X52550D01*
G54D30*
X50550Y52800D02*
X50650D01*
G54D19*
X50350Y53050D02*
X50850D01*
X50350Y52550D02*
X50850D01*
G54D30*
X50550Y53800D02*
X50650D01*
G54D19*
X50350Y54050D02*
X50850D01*
X50350Y53550D02*
X50850D01*
G54D30*
X53950Y53000D02*
X54050D01*
G54D19*
X53750Y53250D02*
X54250D01*
X53750Y52750D02*
X54250D01*
G54D30*
X53950Y54000D02*
X54050D01*
G54D19*
X53750Y54250D02*
X54250D01*
X53750Y53750D02*
X54250D01*
G54D30*
X57350Y52900D02*
X57450D01*
G54D19*
X57150Y53150D02*
X57650D01*
X57150Y52650D02*
X57650D01*
G54D30*
X57350Y53900D02*
X57450D01*
G54D19*
X57150Y54150D02*
X57650D01*
X57150Y53650D02*
X57650D01*
G54D30*
X55650Y52900D02*
X55750D01*
G54D19*
X55450Y53150D02*
X55950D01*
X55450Y52650D02*
X55950D01*
G54D30*
X55650Y53900D02*
X55750D01*
G54D19*
X55450Y54150D02*
X55950D01*
X55450Y53650D02*
X55950D01*
G54D34*
X70050Y94500D02*
X71950D01*
X70050Y103500D02*
X71950D01*
G54D10*
X66287Y75000D02*
Y73500D01*
X66250Y73463D02*
X64750D01*
X64713Y73500D02*
X64713Y74786D01*
X64715Y74792D01*
X64718Y74798D01*
X64721Y74803D01*
X64945Y75026D01*
X64971Y75037D02*
X66250D01*
G54D11*
X64725Y73500D02*
X66275D01*
X64727Y74788D02*
X66275D01*
X64725Y73500D02*
X66275D01*
X64732Y74796D02*
X66275D01*
X64740Y74804D02*
X66275D01*
X64747Y74811D02*
X66275D01*
X64936Y75000D02*
X66275D01*
X64936Y75000D02*
X66275D01*
X64725Y73500D03*
X66275Y73500D03*
G54D37*
X64903Y73703D02*
X66097D01*
X64903Y73997D02*
X66097D01*
X64904Y74291D02*
X66097D01*
X64904Y74584D02*
X66097D01*
G54D11*
X64725Y73500D02*
X64726Y74784D01*
X66275Y74788D02*
Y73500D01*
G54D37*
X64903Y73703D02*
X64904Y74584D01*
X66097Y74788D02*
Y73703D01*
G54D10*
X64750Y73463D02*
X66250D01*
X64722Y73475D02*
X66278D01*
X64715Y73487D02*
X66285D01*
G54D11*
X66250Y73475D02*
X64750D01*
X64726Y74784D02*
X64727Y74787D01*
X66275Y74796D02*
Y74788D01*
X64727Y74787D02*
X64729Y74791D01*
X66275Y74804D02*
Y74796D01*
X64729Y74791D02*
X64731Y74795D01*
X66275Y74811D02*
Y74804D01*
X64773Y74837D02*
X66275D01*
X64807Y74871D02*
X66275D01*
X64842Y74906D02*
X66275D01*
X64876Y74940D02*
X66275D01*
X64911Y74975D02*
X66275D01*
X64731Y74795D02*
X64918Y74982D01*
X66275Y75000D02*
Y74811D01*
X64918Y74982D03*
X66275Y75000D03*
X64918Y74982D02*
X64954Y75017D01*
X64971Y75025D02*
X66250D01*
X66275Y73525D02*
X64725D01*
G54D14*
X64751Y73551D02*
X64752Y74737D01*
X66249Y73551D02*
X64751D01*
G54D13*
X64802Y73602D02*
X64802Y74686D01*
X66198Y73602D02*
X64802D01*
G54D11*
X64726Y74762D02*
X66275D01*
G54D14*
X64752Y74737D02*
X66249D01*
G54D13*
X64802Y74686D02*
X66198D01*
G54D14*
X66249Y74737D02*
Y73551D01*
G54D13*
X66198Y74686D02*
Y73602D01*
G54D10*
X66250Y75037D02*
G02X66287Y75000I0J-37D01*
Y73500D02*
G02X66250Y73463I-37J-0D01*
X64750D02*
G02X64713Y73500I0J37D01*
X64945Y75026D02*
G02X64971Y75037I26J-26D01*
G54D11*
X64750Y73475D02*
G02X64725Y73500I0J25D01*
X66275Y73500D02*
G02X66250Y73475I-25J0D01*
X66267Y75017D02*
G02X66275Y75000I-17J-17D01*
X64954Y75017D02*
G02X64971Y75025I17J-17D01*
X66250D02*
G02X66267Y75017I-0J-25D01*
G54D38*
X0Y-10000D02*
G01Y-6000D01*
X22500D01*
Y-10000D01*
X0D01*
G54D21*
X50800Y41309D02*
Y41814D01*
X51200Y41309D02*
Y41814D01*
X51600Y41309D02*
Y41814D01*
X52000Y41309D02*
Y41814D01*
X52400Y41309D02*
Y41814D01*
X52800Y41309D02*
Y41814D01*
X53200Y41309D02*
Y41814D01*
Y49186D02*
Y49690D01*
X52800Y49186D02*
Y49690D01*
X52400Y49186D02*
Y49690D01*
X52000Y49186D02*
Y49690D01*
X51600Y49186D02*
Y49690D01*
X51200Y49186D02*
Y49690D01*
X50800Y49186D02*
Y49690D01*
X53600Y41309D02*
Y41814D01*
X54000Y41309D02*
Y41814D01*
X54400Y41309D02*
Y41814D01*
X54800Y41309D02*
Y41814D01*
X55200Y41309D02*
Y41814D01*
X55600Y41309D02*
Y41814D01*
X56000Y41309D02*
Y41814D01*
X56400Y41309D02*
Y41814D01*
X56800Y41309D02*
Y41814D01*
X57200Y41309D02*
Y41814D01*
Y49186D02*
Y49690D01*
X56800Y49186D02*
Y49690D01*
X56400Y49186D02*
Y49690D01*
X56000Y49186D02*
Y49690D01*
X55600Y49186D02*
Y49690D01*
X55200Y49186D02*
Y49690D01*
X54800Y49186D02*
Y49690D01*
X54400Y49186D02*
Y49690D01*
X54000Y49186D02*
Y49690D01*
X53600Y49186D02*
Y49690D01*
G54D39*
X66675Y74500D02*
X67425D01*
G54D19*
X66650Y74575D02*
X67450D01*
X66650Y74425D02*
X67450D01*
G54D39*
X66675Y74000D02*
X67425D01*
G54D19*
X66650Y74075D02*
X67450D01*
X66650Y73925D02*
X67450D01*
G54D39*
X66675Y73500D02*
X67425D01*
G54D19*
X66650Y73575D02*
X67450D01*
X66650Y73425D02*
X67450D01*
G54D39*
X63575Y73500D02*
X64325D01*
G54D19*
X63550Y73575D02*
X64350D01*
X63550Y73425D02*
X64350D01*
G54D39*
X63575Y74000D02*
X64325D01*
G54D19*
X63550Y74075D02*
X64350D01*
X63550Y73925D02*
X64350D01*
G54D39*
X63575Y74500D02*
X64325D01*
G54D19*
X63550Y74575D02*
X64350D01*
X63550Y74425D02*
X64350D01*
G54D39*
X66675Y75000D02*
X67425D01*
G54D19*
X66650Y75075D02*
X67450D01*
X66650Y74925D02*
X67450D01*
G54D39*
X63575Y75000D02*
X64325D01*
G54D19*
X63550Y75075D02*
X64350D01*
X63550Y74925D02*
X64350D01*
G54D32*
X75850Y15800D02*
Y16100D01*
X77150Y15800D02*
Y16100D01*
X76500Y17900D02*
Y18200D01*
X75850Y21800D02*
Y22100D01*
X77150Y21800D02*
Y22100D01*
X76500Y23900D02*
Y24200D01*
X92000Y28400D02*
Y28700D01*
X91350Y26300D02*
Y26600D01*
X92650Y26300D02*
Y26600D01*
G54D39*
X66250Y72325D02*
Y73075D01*
G54D19*
X66175Y72300D02*
Y73100D01*
X66325Y72300D02*
Y73100D01*
G54D39*
X65750Y72325D02*
Y73075D01*
G54D19*
X65675Y72300D02*
Y73100D01*
X65825Y72300D02*
Y73100D01*
G54D39*
X65250Y72325D02*
Y73075D01*
G54D19*
X65175Y72300D02*
Y73100D01*
X65325Y72300D02*
Y73100D01*
G54D39*
X64750Y72325D02*
Y73075D01*
G54D19*
X64675Y72300D02*
Y73100D01*
X64825Y72300D02*
Y73100D01*
G54D39*
X64750Y75425D02*
Y76175D01*
G54D19*
X64675Y75400D02*
Y76200D01*
X64825Y75400D02*
Y76200D01*
G54D39*
X65250Y75425D02*
Y76175D01*
G54D19*
X65175Y75400D02*
Y76200D01*
X65325Y75400D02*
Y76200D01*
G54D39*
X65750Y75425D02*
Y76175D01*
G54D19*
X65675Y75400D02*
Y76200D01*
X65825Y75400D02*
Y76200D01*
G54D39*
X66250Y75425D02*
Y76175D01*
G54D19*
X66175Y75400D02*
Y76200D01*
X66325Y75400D02*
Y76200D01*
G54D32*
X80800Y22850D02*
X81100D01*
X80800Y24150D02*
X81100D01*
X86900Y23000D02*
X87200D01*
X84800Y23650D02*
X85100D01*
X84800Y22350D02*
X85100D01*
X82900Y23500D02*
X83200D01*
G54D25*
X82150Y17500D02*
X82850D01*
G54D19*
X81650Y18050D02*
X83350D01*
X81650Y16950D02*
X83350D01*
G54D25*
X82150Y20500D02*
X82850D01*
G54D19*
X81650Y21050D02*
X83350D01*
X81650Y19950D02*
X83350D01*
M02*
